G04 Layer: BottomSilkscreenLayer*
G04 EasyEDA v6.5.25, 2023-03-20 21:11:36*
**********************************至少这一行要换成自己的************************************
G04 Gerber Generator version 0.2*
G04 Scale: 100 percent, Rotated: No, Reflected: No *
G04 Dimensions in millimeters  *
G04 leading zeros omitted , absolute positions ,3 integer and 6 decimal *
G04 #@! TF.GenerationSoftware,KiCad,Pcbnew,7.0.9*
G04 #@! TF.CreationDate,2024-04-10T09:45:46+08:00*
G04 #@! TF.ProjectId,6__ 2.5_NAS,36d84d20-322e-435f-984e-41532e6b6963,0.3*
G04 #@! TF.SameCoordinates,PXbbc77c0PY26f37c0*
G04 #@! TF.FileFunction,Legend,Bot*
G04 #@! TF.FilePolarity,Positive*
%FSLAX45Y45*%
G04 Gerber Fmt 4.5, Leading zero omitted, Abs format (unit mm)*
G04 Created by KiCad (PCBNEW 7.0.9) date 2024-04-10 09:45:46*
%MOMM*%
%LPD*%
G01*
G04 APERTURE LIST*
G04 Aperture macros list*
%AMRoundRect*
0 Rectangle with rounded corners*
0 $1 Rounding radius*
0 $2 $3 $4 $5 $6 $7 $8 $9 X,Y pos of 4 corners*
0 Add a 4 corners polygon primitive as box body*
4,1,4,$2,$3,$4,$5,$6,$7,$8,$9,$2,$3,0*
0 Add four circle primitives for the rounded corners*
1,1,$1+$1,$2,$3*
1,1,$1+$1,$4,$5*
1,1,$1+$1,$6,$7*
1,1,$1+$1,$8,$9*
0 Add four rect primitives between the rounded corners*
20,1,$1+$1,$2,$3,$4,$5,0*
20,1,$1+$1,$4,$5,$6,$7,0*
20,1,$1+$1,$6,$7,$8,$9,0*
20,1,$1+$1,$8,$9,$2,$3,0*%
G04 Aperture macros list end*
%ADD10C,0.300000*%
%ADD11C,0.150000*%
%ADD12C,0.100000*%
%ADD13C,0.120000*%
%ADD14C,0.127000*%
%ADD15C,0.200000*%
%ADD16RoundRect,0.197500X-0.172500X0.147500X-0.172500X-0.147500X0.172500X-0.147500X0.172500X0.147500X0*%
%ADD17RoundRect,0.050000X0.500000X0.500000X-0.500000X0.500000X-0.500000X-0.500000X0.500000X-0.500000X0*%
%ADD18RoundRect,0.200000X-0.150000X0.675000X-0.150000X-0.675000X0.150000X-0.675000X0.150000X0.675000X0*%
%ADD19RoundRect,0.200000X-0.587500X-0.150000X0.587500X-0.150000X0.587500X0.150000X-0.587500X0.150000X0*%
%ADD20RoundRect,0.275000X0.225000X0.475000X-0.225000X0.475000X-0.225000X-0.475000X0.225000X-0.475000X0*%
%ADD21O,1.000000X1.500000*%
%ADD22C,1.300000*%
%ADD23C,1.700000*%
%ADD24RoundRect,0.300000X1.500000X0.550000X-1.500000X0.550000X-1.500000X-0.550000X1.500000X-0.550000X0*%
%ADD25RoundRect,0.300000X-0.337500X-0.475000X0.337500X-0.475000X0.337500X0.475000X-0.337500X0.475000X0*%
%ADD26C,1.350000*%
%ADD27RoundRect,0.102000X0.175000X0.600000X-0.175000X0.600000X-0.175000X-0.600000X0.175000X-0.600000X0*%
%ADD28O,1.254000X2.204000*%
%ADD29RoundRect,0.300000X0.337500X0.475000X-0.337500X0.475000X-0.337500X-0.475000X0.337500X-0.475000X0*%
%ADD30RoundRect,0.050000X-0.850000X-0.850000X0.850000X-0.850000X0.850000X0.850000X-0.850000X0.850000X0*%
%ADD31O,1.800000X1.800000*%
%ADD32RoundRect,0.304000X-0.254000X-1.752600X0.254000X-1.752600X0.254000X1.752600X-0.254000X1.752600X0*%
%ADD33RoundRect,0.507200X-0.457200X-0.457200X0.457200X-0.457200X0.457200X0.457200X-0.457200X0.457200X0*%
%ADD34C,1.500000*%
%ADD35RoundRect,0.050000X1.750000X-1.750000X1.750000X1.750000X-1.750000X1.750000X-1.750000X-1.750000X0*%
%ADD36C,3.600000*%
%ADD37O,2.304000X4.404000*%
%ADD38O,4.204000X2.204000*%
%ADD39RoundRect,0.050000X-1.750000X1.750000X-1.750000X-1.750000X1.750000X-1.750000X1.750000X1.750000X0*%
G04 APERTURE END LIST*
D10*
G36*
X-1454022Y358726D02*
G01*
X-1450322Y355026D01*
X-1445851Y346085D01*
X-1445851Y317453D01*
X-1450322Y308511D01*
X-1454022Y304811D01*
X-1462963Y300340D01*
X-1484453Y300340D01*
X-1493394Y304811D01*
X-1497095Y308511D01*
X-1501565Y317453D01*
X-1501565Y346085D01*
X-1497095Y355026D01*
X-1493394Y358726D01*
X-1484453Y363197D01*
X-1462963Y363197D01*
X-1454022Y358726D01*
G37*
G36*
X-1175451Y358726D02*
G01*
X-1171750Y355026D01*
X-1166433Y344390D01*
X-1160137Y319208D01*
X-1160137Y287186D01*
X-1166433Y262004D01*
X-1171751Y251368D01*
X-1175451Y247668D01*
X-1184392Y243197D01*
X-1191596Y243197D01*
X-1200537Y247668D01*
X-1204238Y251368D01*
X-1209556Y262004D01*
X-1215851Y287187D01*
X-1215851Y319208D01*
X-1209556Y344390D01*
X-1204238Y355026D01*
X-1200537Y358727D01*
X-1191596Y363197D01*
X-1184392Y363197D01*
X-1175451Y358726D01*
G37*
G36*
X-1032594Y358726D02*
G01*
X-1028893Y355026D01*
X-1023575Y344390D01*
X-1017280Y319208D01*
X-1017280Y287186D01*
X-1023575Y262004D01*
X-1028893Y251368D01*
X-1032594Y247668D01*
X-1041535Y243197D01*
X-1048739Y243197D01*
X-1057680Y247668D01*
X-1061381Y251368D01*
X-1066699Y262004D01*
X-1072994Y287187D01*
X-1072994Y319208D01*
X-1066699Y344390D01*
X-1061381Y355026D01*
X-1057680Y358727D01*
X-1048739Y363197D01*
X-1041535Y363197D01*
X-1032594Y358726D01*
G37*
G36*
X-742032Y267017D02*
G01*
X-738708Y260371D01*
X-738708Y253167D01*
X-742032Y246520D01*
X-748678Y243197D01*
X-777310Y243197D01*
X-780137Y244611D01*
X-780137Y270340D01*
X-748678Y270340D01*
X-742032Y267017D01*
G37*
G36*
X-484889Y267017D02*
G01*
X-481565Y260371D01*
X-481565Y253167D01*
X-484889Y246520D01*
X-491535Y243197D01*
X-520167Y243197D01*
X-522994Y244611D01*
X-522994Y270340D01*
X-491535Y270340D01*
X-484889Y267017D01*
G37*
G36*
X-768308Y600227D02*
G01*
X-764607Y596526D01*
X-759289Y585890D01*
X-752994Y560708D01*
X-752994Y528686D01*
X-759289Y503504D01*
X-764607Y492868D01*
X-768308Y489168D01*
X-777249Y484697D01*
X-784453Y484697D01*
X-793394Y489168D01*
X-797095Y492868D01*
X-802413Y503504D01*
X-808708Y528687D01*
X-808708Y560708D01*
X-802413Y585890D01*
X-797095Y596526D01*
X-793394Y600227D01*
X-784453Y604697D01*
X-777249Y604697D01*
X-768308Y600227D01*
G37*
G36*
X-206317Y551374D02*
G01*
X-202994Y544728D01*
X-202994Y537994D01*
X-243717Y546139D01*
X-241099Y551374D01*
X-234453Y554697D01*
X-212963Y554697D01*
X-206317Y551374D01*
G37*
G36*
X-30381Y191769D02*
G01*
X-1552994Y191769D01*
X-1552994Y292483D01*
X-1531565Y292483D01*
X-1531086Y290695D01*
X-1531117Y288845D01*
X-1523975Y260273D01*
X-1522727Y258026D01*
X-1521903Y255591D01*
X-1507617Y234162D01*
X-1506492Y233174D01*
X-1505743Y231876D01*
X-1498600Y224733D01*
X-1496509Y223526D01*
X-1494702Y221924D01*
X-1480416Y214781D01*
X-1477039Y214090D01*
X-1473708Y213197D01*
X-1445137Y213197D01*
X-1437637Y215207D01*
X-1432146Y220697D01*
X-1430137Y228197D01*
X-1432146Y235697D01*
X-1437637Y241188D01*
X-1445137Y243197D01*
X-1470167Y243197D01*
X-1479109Y247668D01*
X-1483480Y252039D01*
X-1486633Y256769D01*
X-1388708Y256769D01*
X-1387816Y253438D01*
X-1387125Y250060D01*
X-1379982Y235775D01*
X-1378380Y233968D01*
X-1377172Y231876D01*
X-1370029Y224733D01*
X-1367938Y223526D01*
X-1366131Y221924D01*
X-1351845Y214781D01*
X-1348467Y214090D01*
X-1345137Y213197D01*
X-1302280Y213197D01*
X-1298949Y214090D01*
X-1295572Y214781D01*
X-1281286Y221924D01*
X-1279479Y223526D01*
X-1277387Y224733D01*
X-1270245Y231876D01*
X-1266362Y238601D01*
X-1266362Y246365D01*
X-1270245Y253089D01*
X-1276969Y256972D01*
X-1284733Y256972D01*
X-1291458Y253089D01*
X-1296880Y247668D01*
X-1305821Y243197D01*
X-1341596Y243197D01*
X-1350537Y247668D01*
X-1354238Y251368D01*
X-1358708Y260310D01*
X-1358708Y285340D01*
X-1245851Y285340D01*
X-1245372Y283552D01*
X-1245403Y281702D01*
X-1238260Y253131D01*
X-1237457Y251683D01*
X-1237125Y250060D01*
X-1229982Y235775D01*
X-1228380Y233968D01*
X-1227172Y231876D01*
X-1220029Y224733D01*
X-1217938Y223526D01*
X-1216131Y221924D01*
X-1201845Y214781D01*
X-1198468Y214090D01*
X-1195137Y213197D01*
X-1180851Y213197D01*
X-1177521Y214090D01*
X-1174143Y214781D01*
X-1159857Y221924D01*
X-1158050Y223526D01*
X-1155959Y224733D01*
X-1148816Y231876D01*
X-1147609Y233968D01*
X-1146006Y235775D01*
X-1138863Y250060D01*
X-1138531Y251683D01*
X-1137728Y253131D01*
X-1130585Y281702D01*
X-1130616Y283552D01*
X-1130137Y285340D01*
X-1102994Y285340D01*
X-1102515Y283552D01*
X-1102546Y281702D01*
X-1095403Y253131D01*
X-1094600Y251683D01*
X-1094268Y250060D01*
X-1087125Y235775D01*
X-1085523Y233968D01*
X-1084315Y231876D01*
X-1077172Y224733D01*
X-1075081Y223526D01*
X-1073274Y221924D01*
X-1058988Y214781D01*
X-1055610Y214090D01*
X-1052280Y213197D01*
X-1037994Y213197D01*
X-1034664Y214090D01*
X-1031286Y214781D01*
X-1017000Y221924D01*
X-1015193Y223526D01*
X-1013102Y224733D01*
X-1009638Y228197D01*
X-960137Y228197D01*
X-958127Y220697D01*
X-952637Y215207D01*
X-945137Y213197D01*
X-902280Y213197D01*
X-859423Y213197D01*
X-851923Y215207D01*
X-846432Y220697D01*
X-844423Y228197D01*
X-810137Y228197D01*
X-808127Y220697D01*
X-802637Y215207D01*
X-795137Y213197D01*
X-788141Y215072D01*
X-787559Y214781D01*
X-784182Y214090D01*
X-780851Y213197D01*
X-745137Y213197D01*
X-741807Y214090D01*
X-738429Y214781D01*
X-724143Y221924D01*
X-723457Y222532D01*
X-722586Y222822D01*
X-720588Y225076D01*
X-718333Y227075D01*
X-718043Y227946D01*
X-717435Y228632D01*
X-716755Y229991D01*
X-681458Y229991D01*
X-680360Y222305D01*
X-675566Y216197D01*
X-668360Y213305D01*
X-660673Y214403D01*
X-654566Y219197D01*
X-624423Y259388D01*
X-624423Y228197D01*
X-622413Y220697D01*
X-616923Y215207D01*
X-609423Y213197D01*
X-601923Y215207D01*
X-596432Y220697D01*
X-594423Y228197D01*
X-552994Y228197D01*
X-550984Y220697D01*
X-545494Y215207D01*
X-537994Y213197D01*
X-530998Y215072D01*
X-530416Y214781D01*
X-527039Y214090D01*
X-523708Y213197D01*
X-487994Y213197D01*
X-484664Y214090D01*
X-481286Y214781D01*
X-467000Y221924D01*
X-466314Y222532D01*
X-465443Y222822D01*
X-463445Y225076D01*
X-461191Y227075D01*
X-460900Y227946D01*
X-460292Y228632D01*
X-453149Y242918D01*
X-452458Y246296D01*
X-451565Y249626D01*
X-424423Y249626D01*
X-423530Y246296D01*
X-422839Y242918D01*
X-415696Y228632D01*
X-415088Y227946D01*
X-414797Y227075D01*
X-412543Y225076D01*
X-410545Y222822D01*
X-409674Y222532D01*
X-408988Y221924D01*
X-394702Y214781D01*
X-391325Y214090D01*
X-387994Y213197D01*
X-359423Y213197D01*
X-356092Y214090D01*
X-352714Y214781D01*
X-338429Y221924D01*
X-332619Y227075D01*
X-332245Y228197D01*
X-295851Y228197D01*
X-293842Y220697D01*
X-288351Y215207D01*
X-280851Y213197D01*
X-273351Y215207D01*
X-267861Y220697D01*
X-265851Y228197D01*
X-224423Y228197D01*
X-222413Y220697D01*
X-216923Y215207D01*
X-209423Y213197D01*
X-201923Y215207D01*
X-196432Y220697D01*
X-194423Y228197D01*
X-194423Y303228D01*
X-191099Y309874D01*
X-184453Y313197D01*
X-170106Y313197D01*
X-163460Y309874D01*
X-160137Y303228D01*
X-160137Y228197D01*
X-158127Y220697D01*
X-152637Y215207D01*
X-145137Y213197D01*
X-137637Y215207D01*
X-132146Y220697D01*
X-130137Y228197D01*
X-130137Y303228D01*
X-126814Y309874D01*
X-120167Y313197D01*
X-105821Y313197D01*
X-96879Y308727D01*
X-95851Y307698D01*
X-95851Y228197D01*
X-93841Y220697D01*
X-88351Y215207D01*
X-80851Y213197D01*
X-73351Y215207D01*
X-67861Y220697D01*
X-65851Y228197D01*
X-65851Y328197D01*
X-67861Y335697D01*
X-73351Y341188D01*
X-80851Y343197D01*
X-88351Y341188D01*
X-90474Y339065D01*
X-95571Y341614D01*
X-98950Y342305D01*
X-102280Y343197D01*
X-123708Y343197D01*
X-127038Y342305D01*
X-130417Y341614D01*
X-144702Y334471D01*
X-145137Y334085D01*
X-145572Y334471D01*
X-159857Y341614D01*
X-163235Y342305D01*
X-166565Y343197D01*
X-187994Y343197D01*
X-191324Y342305D01*
X-194702Y341614D01*
X-208988Y334471D01*
X-209674Y333862D01*
X-210544Y333572D01*
X-212543Y331318D01*
X-214797Y329319D01*
X-215087Y328449D01*
X-215696Y327763D01*
X-222839Y313477D01*
X-223530Y310099D01*
X-224423Y306769D01*
X-224423Y228197D01*
X-265851Y228197D01*
X-265851Y328197D01*
X-267861Y335697D01*
X-273351Y341188D01*
X-280851Y343197D01*
X-288351Y341188D01*
X-293842Y335697D01*
X-295851Y328197D01*
X-295851Y228197D01*
X-332245Y228197D01*
X-330164Y234441D01*
X-331721Y242048D01*
X-336872Y247858D01*
X-344238Y250313D01*
X-351845Y248756D01*
X-362964Y243197D01*
X-384453Y243197D01*
X-391099Y246520D01*
X-394423Y253167D01*
X-394423Y253228D01*
X-391099Y259874D01*
X-384453Y263197D01*
X-366565Y263197D01*
X-363235Y264090D01*
X-359857Y264781D01*
X-345572Y271924D01*
X-344885Y272532D01*
X-344015Y272822D01*
X-342017Y275076D01*
X-339762Y277075D01*
X-339472Y277946D01*
X-338863Y278632D01*
X-331720Y292918D01*
X-331029Y296296D01*
X-330137Y299626D01*
X-330137Y306769D01*
X-331029Y310099D01*
X-331721Y313477D01*
X-338863Y327763D01*
X-339472Y328449D01*
X-339762Y329319D01*
X-342016Y331318D01*
X-344015Y333572D01*
X-344885Y333862D01*
X-345572Y334471D01*
X-359857Y341614D01*
X-363235Y342305D01*
X-366565Y343197D01*
X-387994Y343197D01*
X-391324Y342305D01*
X-394702Y341614D01*
X-408988Y334471D01*
X-414797Y329319D01*
X-417253Y321953D01*
X-415696Y314346D01*
X-410544Y308537D01*
X-403178Y306081D01*
X-395571Y307638D01*
X-384453Y313197D01*
X-370106Y313197D01*
X-363460Y309874D01*
X-360137Y303228D01*
X-360137Y303167D01*
X-363460Y296520D01*
X-370106Y293197D01*
X-387994Y293197D01*
X-391324Y292305D01*
X-394702Y291614D01*
X-408988Y284471D01*
X-409674Y283862D01*
X-410544Y283572D01*
X-412543Y281318D01*
X-414797Y279319D01*
X-415087Y278449D01*
X-415696Y277763D01*
X-422839Y263477D01*
X-423530Y260099D01*
X-424423Y256769D01*
X-424423Y249626D01*
X-451565Y249626D01*
X-451565Y263912D01*
X-452458Y267242D01*
X-453149Y270620D01*
X-460292Y284905D01*
X-460900Y285592D01*
X-461191Y286462D01*
X-463445Y288461D01*
X-465443Y290715D01*
X-466314Y291005D01*
X-467000Y291614D01*
X-481286Y298756D01*
X-484664Y299448D01*
X-487994Y300340D01*
X-520167Y300340D01*
X-522994Y301753D01*
X-522994Y303228D01*
X-519671Y309874D01*
X-513024Y313197D01*
X-491535Y313197D01*
X-480417Y307638D01*
X-472810Y306081D01*
X-465443Y308537D01*
X-460292Y314346D01*
X-458735Y321953D01*
X-461191Y329319D01*
X-467000Y334471D01*
X-481286Y341614D01*
X-484664Y342305D01*
X-487994Y343197D01*
X-516565Y343197D01*
X-519896Y342305D01*
X-523274Y341614D01*
X-537559Y334471D01*
X-538246Y333862D01*
X-539116Y333572D01*
X-541115Y331318D01*
X-543369Y329319D01*
X-543659Y328449D01*
X-544268Y327763D01*
X-551410Y313477D01*
X-552102Y310099D01*
X-552994Y306769D01*
X-552994Y228197D01*
X-594423Y228197D01*
X-594423Y367172D01*
X-302483Y367172D01*
X-300600Y363911D01*
X-298601Y360448D01*
X-298601Y360448D01*
X-291458Y353305D01*
X-290733Y352886D01*
X-289748Y352318D01*
X-288351Y350921D01*
X-286444Y350410D01*
X-284733Y349423D01*
X-284733Y349423D01*
X-282759Y349423D01*
X-280851Y348912D01*
X-278944Y349423D01*
X-276969Y349423D01*
X-275259Y350410D01*
X-273351Y350921D01*
X-271955Y352318D01*
X-270245Y353305D01*
X-263102Y360448D01*
X-261102Y363911D01*
X-259219Y367172D01*
X-259219Y374936D01*
X-259219Y374937D01*
X-261499Y378885D01*
X-263102Y381661D01*
X-270244Y388804D01*
X-270245Y388804D01*
X-271955Y389791D01*
X-273351Y391188D01*
X-275259Y391699D01*
X-276969Y392686D01*
X-276969Y392686D01*
X-278944Y392686D01*
X-280851Y393197D01*
X-282759Y392686D01*
X-284733Y392686D01*
X-286444Y391699D01*
X-288351Y391188D01*
X-289748Y389791D01*
X-291458Y388804D01*
X-291458Y388804D01*
X-291458Y388804D01*
X-298601Y381661D01*
X-298601Y381661D01*
X-298601Y381661D01*
X-300204Y378885D01*
X-302483Y374937D01*
X-302483Y374936D01*
X-302483Y367172D01*
X-594423Y367172D01*
X-594423Y378197D01*
X-596432Y385697D01*
X-601923Y391188D01*
X-609423Y393197D01*
X-616923Y391188D01*
X-622413Y385697D01*
X-624423Y378197D01*
X-624423Y307268D01*
X-655959Y338804D01*
X-662683Y342686D01*
X-670448Y342686D01*
X-677172Y338804D01*
X-681054Y332080D01*
X-681054Y324315D01*
X-677172Y317591D01*
X-643514Y283933D01*
X-678566Y237197D01*
X-681458Y229991D01*
X-716755Y229991D01*
X-710292Y242918D01*
X-709601Y246296D01*
X-708708Y249626D01*
X-708708Y263912D01*
X-709601Y267242D01*
X-710292Y270620D01*
X-717435Y284905D01*
X-718043Y285592D01*
X-718333Y286462D01*
X-720588Y288461D01*
X-722586Y290715D01*
X-723457Y291005D01*
X-724143Y291614D01*
X-738429Y298756D01*
X-741807Y299448D01*
X-745137Y300340D01*
X-777310Y300340D01*
X-780137Y301753D01*
X-780137Y303228D01*
X-776814Y309874D01*
X-770167Y313197D01*
X-748678Y313197D01*
X-737559Y307638D01*
X-729952Y306081D01*
X-722586Y308537D01*
X-717435Y314346D01*
X-715878Y321953D01*
X-718333Y329319D01*
X-724143Y334471D01*
X-738429Y341614D01*
X-741807Y342305D01*
X-745137Y343197D01*
X-773708Y343197D01*
X-777038Y342305D01*
X-780417Y341614D01*
X-794702Y334471D01*
X-795389Y333862D01*
X-796259Y333572D01*
X-798258Y331318D01*
X-800512Y329319D01*
X-800802Y328449D01*
X-801410Y327763D01*
X-808553Y313477D01*
X-809245Y310099D01*
X-810137Y306769D01*
X-810137Y228197D01*
X-844423Y228197D01*
X-846432Y235697D01*
X-851923Y241188D01*
X-859423Y243197D01*
X-887280Y243197D01*
X-887280Y334841D01*
X-884315Y331876D01*
X-882223Y330669D01*
X-880417Y329067D01*
X-866131Y321924D01*
X-858524Y320367D01*
X-851158Y322822D01*
X-846006Y328632D01*
X-844450Y336239D01*
X-846905Y343605D01*
X-852714Y348756D01*
X-864823Y354811D01*
X-876337Y366325D01*
X-889799Y386518D01*
X-892364Y388772D01*
X-894780Y391188D01*
X-895259Y391316D01*
X-895631Y391643D01*
X-898980Y392313D01*
X-902280Y393197D01*
X-902759Y393069D01*
X-903245Y393166D01*
X-906481Y392072D01*
X-909780Y391188D01*
X-910130Y390837D01*
X-910600Y390678D01*
X-912855Y388113D01*
X-915270Y385697D01*
X-915399Y385218D01*
X-915726Y384846D01*
X-916396Y381497D01*
X-917280Y378197D01*
X-917280Y243197D01*
X-945137Y243197D01*
X-952637Y241188D01*
X-958127Y235697D01*
X-960137Y228197D01*
X-1009638Y228197D01*
X-1005959Y231876D01*
X-1004751Y233968D01*
X-1003149Y235775D01*
X-996006Y250060D01*
X-995674Y251683D01*
X-994870Y253131D01*
X-987728Y281702D01*
X-987759Y283552D01*
X-987280Y285340D01*
X-987280Y321054D01*
X-987759Y322842D01*
X-987728Y324692D01*
X-994870Y353264D01*
X-995674Y354711D01*
X-996006Y356334D01*
X-1003149Y370620D01*
X-1004751Y372427D01*
X-1005959Y374518D01*
X-1013102Y381661D01*
X-1015193Y382868D01*
X-1017000Y384471D01*
X-1031286Y391614D01*
X-1034664Y392305D01*
X-1037994Y393197D01*
X-1052280Y393197D01*
X-1055610Y392305D01*
X-1058988Y391614D01*
X-1073274Y384471D01*
X-1075081Y382868D01*
X-1077172Y381661D01*
X-1084315Y374518D01*
X-1085523Y372427D01*
X-1087125Y370620D01*
X-1094268Y356334D01*
X-1094600Y354712D01*
X-1095403Y353264D01*
X-1102546Y324692D01*
X-1102515Y322842D01*
X-1102994Y321054D01*
X-1102994Y285340D01*
X-1130137Y285340D01*
X-1130137Y321054D01*
X-1130616Y322842D01*
X-1130585Y324692D01*
X-1137728Y353264D01*
X-1138531Y354711D01*
X-1138863Y356334D01*
X-1146006Y370620D01*
X-1147609Y372427D01*
X-1148816Y374518D01*
X-1155959Y381661D01*
X-1158050Y382868D01*
X-1159857Y384471D01*
X-1174143Y391614D01*
X-1177521Y392305D01*
X-1180851Y393197D01*
X-1195137Y393197D01*
X-1198467Y392305D01*
X-1201845Y391614D01*
X-1216131Y384471D01*
X-1217938Y382868D01*
X-1220029Y381661D01*
X-1227172Y374518D01*
X-1228380Y372427D01*
X-1229982Y370620D01*
X-1237125Y356334D01*
X-1237457Y354712D01*
X-1238260Y353264D01*
X-1245403Y324692D01*
X-1245372Y322842D01*
X-1245851Y321054D01*
X-1245851Y285340D01*
X-1358708Y285340D01*
X-1358708Y288942D01*
X-1354238Y297883D01*
X-1350537Y301584D01*
X-1341596Y306054D01*
X-1323708Y306054D01*
X-1322277Y306438D01*
X-1320798Y306339D01*
X-1318588Y307426D01*
X-1316208Y308064D01*
X-1315160Y309112D01*
X-1313831Y309766D01*
X-1312460Y311812D01*
X-1310718Y313554D01*
X-1310334Y314986D01*
X-1309510Y316217D01*
X-1309346Y318675D01*
X-1308708Y321054D01*
X-1309092Y322486D01*
X-1308993Y323964D01*
X-1310080Y326175D01*
X-1310718Y328554D01*
X-1311766Y329602D01*
X-1312420Y330932D01*
X-1340652Y363197D01*
X-1280851Y363197D01*
X-1273351Y365207D01*
X-1267861Y370697D01*
X-1265851Y378197D01*
X-1267861Y385697D01*
X-1273351Y391188D01*
X-1280851Y393197D01*
X-1373708Y393197D01*
X-1375140Y392814D01*
X-1376618Y392912D01*
X-1378829Y391825D01*
X-1381208Y391188D01*
X-1382256Y390140D01*
X-1383586Y389486D01*
X-1384957Y387439D01*
X-1386699Y385697D01*
X-1387082Y384266D01*
X-1387907Y383035D01*
X-1388071Y380576D01*
X-1388708Y378197D01*
X-1388325Y376766D01*
X-1388423Y375287D01*
X-1387336Y373076D01*
X-1386699Y370697D01*
X-1385651Y369649D01*
X-1384997Y368320D01*
X-1354304Y333241D01*
X-1366131Y327328D01*
X-1367938Y325726D01*
X-1370029Y324518D01*
X-1377172Y317375D01*
X-1378380Y315284D01*
X-1379982Y313477D01*
X-1387125Y299191D01*
X-1387816Y295813D01*
X-1388708Y292483D01*
X-1388708Y256769D01*
X-1486633Y256769D01*
X-1495501Y270070D01*
X-1496144Y272645D01*
X-1494702Y271924D01*
X-1491324Y271232D01*
X-1487994Y270340D01*
X-1459422Y270340D01*
X-1456092Y271232D01*
X-1452714Y271924D01*
X-1438429Y279067D01*
X-1436622Y280669D01*
X-1434530Y281876D01*
X-1427387Y289019D01*
X-1426180Y291111D01*
X-1424577Y292918D01*
X-1417435Y307203D01*
X-1416744Y310581D01*
X-1415851Y313912D01*
X-1415851Y349626D01*
X-1416744Y352956D01*
X-1417435Y356334D01*
X-1424577Y370620D01*
X-1426180Y372427D01*
X-1427387Y374518D01*
X-1434530Y381661D01*
X-1436622Y382868D01*
X-1438429Y384471D01*
X-1452714Y391614D01*
X-1456092Y392305D01*
X-1459422Y393197D01*
X-1487994Y393197D01*
X-1491324Y392305D01*
X-1494702Y391614D01*
X-1508988Y384471D01*
X-1510795Y382868D01*
X-1512886Y381661D01*
X-1520029Y374518D01*
X-1521237Y372427D01*
X-1522839Y370620D01*
X-1529982Y356334D01*
X-1530673Y352956D01*
X-1531565Y349626D01*
X-1531565Y292483D01*
X-1552994Y292483D01*
X-1552994Y526840D01*
X-838708Y526840D01*
X-838229Y525052D01*
X-838260Y523202D01*
X-831117Y494631D01*
X-830314Y493183D01*
X-829982Y491560D01*
X-822839Y477275D01*
X-821237Y475468D01*
X-820029Y473376D01*
X-812886Y466233D01*
X-810795Y465026D01*
X-808988Y463424D01*
X-794702Y456281D01*
X-791324Y455590D01*
X-787994Y454697D01*
X-773708Y454697D01*
X-770378Y455590D01*
X-767000Y456281D01*
X-752714Y463424D01*
X-750907Y465026D01*
X-748816Y466233D01*
X-742092Y472958D01*
X-695340Y472958D01*
X-693708Y470132D01*
X-691458Y466233D01*
X-691458Y466233D01*
X-684315Y459090D01*
X-682605Y458103D01*
X-681208Y456707D01*
X-679301Y456196D01*
X-677590Y455208D01*
X-677590Y455208D01*
X-675616Y455208D01*
X-673708Y454697D01*
X-671801Y455208D01*
X-669826Y455208D01*
X-668116Y456196D01*
X-666208Y456707D01*
X-664812Y458103D01*
X-663102Y459090D01*
X-663102Y459091D01*
X-655959Y466233D01*
X-653959Y469697D01*
X-624423Y469697D01*
X-622413Y462197D01*
X-616923Y456707D01*
X-609423Y454697D01*
X-566565Y454697D01*
X-523708Y454697D01*
X-516208Y456707D01*
X-510718Y462197D01*
X-508708Y469697D01*
X-510718Y477197D01*
X-516208Y482688D01*
X-523708Y484697D01*
X-551565Y484697D01*
X-551565Y576341D01*
X-548601Y573376D01*
X-546509Y572169D01*
X-544702Y570567D01*
X-530417Y563424D01*
X-522809Y561867D01*
X-515443Y564322D01*
X-510677Y569697D01*
X-381565Y569697D01*
X-379556Y562197D01*
X-374065Y556707D01*
X-366565Y554697D01*
X-355821Y554697D01*
X-346879Y550227D01*
X-343179Y546526D01*
X-338708Y537585D01*
X-338708Y469697D01*
X-336699Y462197D01*
X-331208Y456707D01*
X-323708Y454697D01*
X-316208Y456707D01*
X-310718Y462197D01*
X-308708Y469697D01*
X-308708Y533983D01*
X-274423Y533983D01*
X-273789Y531619D01*
X-273632Y529176D01*
X-272801Y527930D01*
X-272413Y526483D01*
X-270682Y524752D01*
X-269325Y522716D01*
X-267982Y522052D01*
X-266923Y520992D01*
X-264558Y520359D01*
X-262364Y519274D01*
X-202994Y507400D01*
X-202994Y494667D01*
X-206317Y488020D01*
X-212963Y484697D01*
X-234453Y484697D01*
X-245571Y490256D01*
X-253178Y491813D01*
X-260545Y489358D01*
X-265696Y483548D01*
X-267253Y475941D01*
X-264797Y468575D01*
X-258988Y463424D01*
X-244702Y456281D01*
X-241325Y455590D01*
X-237994Y454697D01*
X-209422Y454697D01*
X-206092Y455590D01*
X-202714Y456281D01*
X-188429Y463424D01*
X-187742Y464032D01*
X-186872Y464322D01*
X-184874Y466576D01*
X-182619Y468575D01*
X-182329Y469446D01*
X-181720Y470132D01*
X-174578Y484418D01*
X-173886Y487796D01*
X-172994Y491126D01*
X-172994Y548269D01*
X-173887Y551599D01*
X-174578Y554977D01*
X-181720Y569263D01*
X-182329Y569949D01*
X-182619Y570819D01*
X-184392Y572391D01*
X-152750Y572391D01*
X-152120Y564652D01*
X-116406Y464652D01*
X-114869Y462429D01*
X-113712Y459986D01*
X-112694Y459283D01*
X-111991Y458265D01*
X-109548Y457108D01*
X-107325Y455571D01*
X-106092Y455471D01*
X-104974Y454941D01*
X-102280Y455160D01*
X-99586Y454941D01*
X-98468Y455471D01*
X-97235Y455571D01*
X-95011Y457108D01*
X-92569Y458265D01*
X-91865Y459283D01*
X-90847Y459986D01*
X-89690Y462429D01*
X-88154Y464652D01*
X-52439Y564652D01*
X-51809Y572391D01*
X-55133Y579408D01*
X-61520Y583823D01*
X-69259Y584453D01*
X-76277Y581129D01*
X-80692Y574742D01*
X-102280Y514295D01*
X-123868Y574742D01*
X-128283Y581129D01*
X-135300Y584453D01*
X-143039Y583823D01*
X-149426Y579408D01*
X-152750Y572391D01*
X-184392Y572391D01*
X-184873Y572818D01*
X-186872Y575072D01*
X-187742Y575362D01*
X-188429Y575971D01*
X-202714Y583114D01*
X-206092Y583805D01*
X-209422Y584697D01*
X-237994Y584697D01*
X-241324Y583805D01*
X-244702Y583114D01*
X-258988Y575971D01*
X-259674Y575362D01*
X-260545Y575072D01*
X-262544Y572818D01*
X-264797Y570819D01*
X-265088Y569949D01*
X-265696Y569263D01*
X-272839Y554977D01*
X-273530Y551599D01*
X-274423Y548269D01*
X-274423Y533983D01*
X-308708Y533983D01*
X-308708Y569697D01*
X-310718Y577197D01*
X-316208Y582688D01*
X-323708Y584697D01*
X-331208Y582688D01*
X-335712Y578184D01*
X-345572Y583114D01*
X-348950Y583805D01*
X-352280Y584697D01*
X-366565Y584697D01*
X-374065Y582688D01*
X-379556Y577197D01*
X-381565Y569697D01*
X-510677Y569697D01*
X-510292Y570132D01*
X-508735Y577739D01*
X-511190Y585105D01*
X-517000Y590256D01*
X-529109Y596311D01*
X-540623Y607825D01*
X-554085Y628018D01*
X-556650Y630272D01*
X-559065Y632688D01*
X-559545Y632816D01*
X-559917Y633143D01*
X-563266Y633813D01*
X-566565Y634697D01*
X-567044Y634569D01*
X-567531Y634666D01*
X-570766Y633572D01*
X-574065Y632688D01*
X-574416Y632337D01*
X-574886Y632178D01*
X-577140Y629613D01*
X-579556Y627197D01*
X-579684Y626718D01*
X-580011Y626346D01*
X-580681Y622997D01*
X-581565Y619697D01*
X-581565Y484697D01*
X-609423Y484697D01*
X-616923Y482688D01*
X-622413Y477197D01*
X-624423Y469697D01*
X-653959Y469697D01*
X-653708Y470132D01*
X-652076Y472958D01*
X-652076Y480722D01*
X-652076Y480722D01*
X-655959Y487447D01*
X-663101Y494589D01*
X-663102Y494589D01*
X-664812Y495577D01*
X-666208Y496973D01*
X-668116Y497484D01*
X-669826Y498472D01*
X-669826Y498472D01*
X-671801Y498472D01*
X-673708Y498983D01*
X-675616Y498472D01*
X-677590Y498472D01*
X-679301Y497484D01*
X-681208Y496973D01*
X-682605Y495577D01*
X-684315Y494590D01*
X-684315Y494590D01*
X-684315Y494589D01*
X-691458Y487447D01*
X-695340Y480722D01*
X-695340Y480722D01*
X-695340Y472958D01*
X-742092Y472958D01*
X-741673Y473376D01*
X-740465Y475468D01*
X-738863Y477275D01*
X-731720Y491560D01*
X-731388Y493183D01*
X-730585Y494631D01*
X-723442Y523202D01*
X-723473Y525052D01*
X-722994Y526840D01*
X-722994Y562554D01*
X-723473Y564342D01*
X-723442Y566192D01*
X-730585Y594764D01*
X-731388Y596212D01*
X-731720Y597834D01*
X-738863Y612120D01*
X-740465Y613927D01*
X-741673Y616018D01*
X-748816Y623161D01*
X-750907Y624368D01*
X-752714Y625971D01*
X-767000Y633114D01*
X-770378Y633805D01*
X-773708Y634697D01*
X-787994Y634697D01*
X-791324Y633805D01*
X-794702Y633114D01*
X-808988Y625971D01*
X-810795Y624369D01*
X-812886Y623161D01*
X-820029Y616018D01*
X-821237Y613927D01*
X-822839Y612120D01*
X-829982Y597834D01*
X-830314Y596212D01*
X-831117Y594764D01*
X-838260Y566192D01*
X-838229Y564342D01*
X-838708Y562554D01*
X-838708Y526840D01*
X-1552994Y526840D01*
X-1552994Y656126D01*
X-30381Y656126D01*
X-30381Y191769D01*
G37*
D11*
X2632899Y567237D02*
X2629328Y563666D01*
X2629328Y563666D02*
X2625756Y556523D01*
X2625756Y556523D02*
X2625756Y538666D01*
X2625756Y538666D02*
X2629328Y531523D01*
X2629328Y531523D02*
X2632899Y527952D01*
X2632899Y527952D02*
X2640042Y524380D01*
X2640042Y524380D02*
X2647185Y524380D01*
X2647185Y524380D02*
X2657899Y527952D01*
X2657899Y527952D02*
X2700756Y570809D01*
X2700756Y570809D02*
X2700756Y524380D01*
X2625756Y477951D02*
X2625756Y470809D01*
X2625756Y470809D02*
X2629328Y463666D01*
X2629328Y463666D02*
X2632899Y460094D01*
X2632899Y460094D02*
X2640042Y456523D01*
X2640042Y456523D02*
X2654328Y452951D01*
X2654328Y452951D02*
X2672185Y452951D01*
X2672185Y452951D02*
X2686471Y456523D01*
X2686471Y456523D02*
X2693614Y460094D01*
X2693614Y460094D02*
X2697185Y463666D01*
X2697185Y463666D02*
X2700756Y470809D01*
X2700756Y470809D02*
X2700756Y477951D01*
X2700756Y477951D02*
X2697185Y485094D01*
X2697185Y485094D02*
X2693614Y488666D01*
X2693614Y488666D02*
X2686471Y492237D01*
X2686471Y492237D02*
X2672185Y495809D01*
X2672185Y495809D02*
X2654328Y495809D01*
X2654328Y495809D02*
X2640042Y492237D01*
X2640042Y492237D02*
X2632899Y488666D01*
X2632899Y488666D02*
X2629328Y485094D01*
X2629328Y485094D02*
X2625756Y477951D01*
X2625756Y406523D02*
X2625756Y399380D01*
X2625756Y399380D02*
X2629328Y392237D01*
X2629328Y392237D02*
X2632899Y388666D01*
X2632899Y388666D02*
X2640042Y385094D01*
X2640042Y385094D02*
X2654328Y381523D01*
X2654328Y381523D02*
X2672185Y381523D01*
X2672185Y381523D02*
X2686471Y385094D01*
X2686471Y385094D02*
X2693614Y388666D01*
X2693614Y388666D02*
X2697185Y392237D01*
X2697185Y392237D02*
X2700756Y399380D01*
X2700756Y399380D02*
X2700756Y406523D01*
X2700756Y406523D02*
X2697185Y413666D01*
X2697185Y413666D02*
X2693614Y417237D01*
X2693614Y417237D02*
X2686471Y420809D01*
X2686471Y420809D02*
X2672185Y424380D01*
X2672185Y424380D02*
X2654328Y424380D01*
X2654328Y424380D02*
X2640042Y420809D01*
X2640042Y420809D02*
X2632899Y417237D01*
X2632899Y417237D02*
X2629328Y413666D01*
X2629328Y413666D02*
X2625756Y406523D01*
X2700756Y306523D02*
X2665042Y331523D01*
X2700756Y349380D02*
X2625756Y349380D01*
X2625756Y349380D02*
X2625756Y320809D01*
X2625756Y320809D02*
X2629328Y313666D01*
X2629328Y313666D02*
X2632899Y310094D01*
X2632899Y310094D02*
X2640042Y306523D01*
X2640042Y306523D02*
X2650756Y306523D01*
X2650756Y306523D02*
X2657899Y310094D01*
X2657899Y310094D02*
X2661471Y313666D01*
X2661471Y313666D02*
X2665042Y320809D01*
X2665042Y320809D02*
X2665042Y349380D01*
X2884436Y458914D02*
X2934436Y458914D01*
X2855865Y476771D02*
X2909436Y494629D01*
X2909436Y494629D02*
X2909436Y448200D01*
X2934436Y419629D02*
X2859436Y419629D01*
X2934436Y376771D02*
X2891579Y408914D01*
X2859436Y376771D02*
X2902293Y419629D01*
X3908590Y-179257D02*
X3908590Y-293543D01*
X3965733Y-236400D02*
X3851447Y-236400D01*
X4440349Y366338D02*
X4497491Y366338D01*
X4468920Y366338D02*
X4468920Y466338D01*
X4468920Y466338D02*
X4478444Y452052D01*
X4478444Y452052D02*
X4487968Y442529D01*
X4487968Y442529D02*
X4497491Y437767D01*
X-1855810Y-179257D02*
X-1855810Y-293543D01*
X-1798667Y-236400D02*
X-1912953Y-236400D01*
D12*
G04 #@! TO.C,200R*
X2739390Y528320D02*
X2828290Y528320D01*
X2739390Y345440D02*
X2828290Y345440D01*
X2828290Y345440D02*
X2828290Y528320D01*
X2739390Y528320D02*
X2739390Y345440D01*
G04 #@! TO.C,4K*
X2973070Y527140D02*
X3061970Y527140D01*
X2973070Y344260D02*
X3061970Y344260D01*
X3061970Y344260D02*
X3061970Y527140D01*
X2973070Y527140D02*
X2973070Y344260D01*
G04 #@! TO.C,R4*
X1469390Y-5793740D02*
X1558290Y-5793740D01*
X1469390Y-5976620D02*
X1558290Y-5976620D01*
X1558290Y-5976620D02*
X1558290Y-5793740D01*
X1469390Y-5793740D02*
X1469390Y-5976620D01*
G04 #@! TO.C,R1*
X-1563370Y-5793740D02*
X-1474470Y-5793740D01*
X-1563370Y-5976620D02*
X-1474470Y-5976620D01*
X-1474470Y-5976620D02*
X-1474470Y-5793740D01*
X-1563370Y-5793740D02*
X-1563370Y-5976620D01*
D11*
G04 #@! TO.C,R5*
X3404780Y-5652620D02*
X3234780Y-5652620D01*
X3234780Y-5792620D02*
X3404780Y-5792620D01*
X382360Y-5792620D02*
X552360Y-5792620D01*
X552360Y-5652620D02*
X382360Y-5652620D01*
D13*
G04 #@! TO.C,REF\u002A\u002A*
X3626580Y337820D02*
X3626580Y532820D01*
X3626580Y337820D02*
X3626580Y142820D01*
X3114580Y337820D02*
X3114580Y682820D01*
X3114580Y337820D02*
X3114580Y142820D01*
X2900680Y930700D02*
X2835680Y930700D01*
X2900680Y930700D02*
X2965680Y930700D01*
X2900680Y618700D02*
X2733180Y618700D01*
X2900680Y618700D02*
X2965680Y618700D01*
X3083140Y-162740D02*
X2892140Y-162740D01*
X3083140Y28260D02*
X3083140Y-162740D01*
X3052140Y-131740D02*
X2617140Y-131740D01*
X3052140Y-1740D02*
X3022140Y-1740D01*
X3052140Y73260D02*
X3022140Y73260D01*
X3052140Y228260D02*
X3052140Y-131740D01*
X3022140Y-101740D02*
X2647140Y-101740D01*
X3022140Y-1740D02*
X3022140Y-101740D01*
X3022140Y73260D02*
X3022140Y183260D01*
X3022140Y183260D02*
X2992140Y183260D01*
X2992140Y183260D02*
X2992140Y228260D01*
X2992140Y183260D02*
X2872140Y183260D01*
X2872140Y183260D02*
X2872140Y213260D01*
X2872140Y213260D02*
X2797140Y213260D01*
X2797140Y183260D02*
X2677140Y183260D01*
X2797140Y213260D02*
X2797140Y183260D01*
X2677140Y183260D02*
X2677140Y228260D01*
X2647140Y-101740D02*
X2647140Y-1740D01*
X2647140Y-1740D02*
X2617140Y-1740D01*
X2647140Y73260D02*
X2647140Y183260D01*
X2647140Y183260D02*
X2677140Y183260D01*
X2617140Y-131740D02*
X2617140Y228260D01*
X2617140Y73260D02*
X2647140Y73260D01*
X2617140Y228260D02*
X3052140Y228260D01*
G04 #@! TO.C,C35*
X276640Y-4887740D02*
X146640Y-4887740D01*
X276640Y-4667740D02*
X276640Y-4887740D01*
X256015Y-4597740D02*
X177265Y-4597740D01*
X216640Y-4558365D02*
X216640Y-4637115D01*
X146640Y-5027740D02*
X36640Y-5137740D01*
X146640Y-4887740D02*
X146640Y-5027740D01*
X146640Y-4667740D02*
X276640Y-4667740D01*
X146640Y-4527740D02*
X146640Y-4667740D01*
X36640Y-5137740D02*
X-573360Y-5137740D01*
X36640Y-4417740D02*
X146640Y-4527740D01*
X-573360Y-5137740D02*
X-573360Y-4887740D01*
X-573360Y-4887740D02*
X-693360Y-4887740D01*
X-573360Y-4667740D02*
X-573360Y-4417740D01*
X-573360Y-4417740D02*
X36640Y-4417740D01*
X-693360Y-4887740D02*
X-703360Y-4887740D01*
X-703360Y-4887740D02*
X-703360Y-4667740D01*
X-703360Y-4667740D02*
X-573360Y-4667740D01*
G04 #@! TO.C,C22*
X1525815Y-2032160D02*
X1578065Y-2032160D01*
X1525815Y-2179160D02*
X1578065Y-2179160D01*
G04 #@! TO.C,C36*
X276640Y-3417080D02*
X146640Y-3417080D01*
X276640Y-3197080D02*
X276640Y-3417080D01*
X256015Y-3127080D02*
X177265Y-3127080D01*
X216640Y-3087705D02*
X216640Y-3166455D01*
X146640Y-3557080D02*
X36640Y-3667080D01*
X146640Y-3417080D02*
X146640Y-3557080D01*
X146640Y-3197080D02*
X276640Y-3197080D01*
X146640Y-3057080D02*
X146640Y-3197080D01*
X36640Y-3667080D02*
X-573360Y-3667080D01*
X36640Y-2947080D02*
X146640Y-3057080D01*
X-573360Y-3667080D02*
X-573360Y-3417080D01*
X-573360Y-3417080D02*
X-693360Y-3417080D01*
X-573360Y-3197080D02*
X-573360Y-2947080D01*
X-573360Y-2947080D02*
X36640Y-2947080D01*
X-693360Y-3417080D02*
X-703360Y-3417080D01*
X-703360Y-3417080D02*
X-703360Y-3197080D01*
X-703360Y-3197080D02*
X-573360Y-3197080D01*
G04 #@! TO.C,C6*
X4216180Y-2685560D02*
X4086180Y-2685560D01*
X4216180Y-2465560D02*
X4216180Y-2685560D01*
X4195555Y-2395560D02*
X4116805Y-2395560D01*
X4156180Y-2356185D02*
X4156180Y-2434935D01*
X4086180Y-2825560D02*
X3976180Y-2935560D01*
X4086180Y-2685560D02*
X4086180Y-2825560D01*
X4086180Y-2465560D02*
X4216180Y-2465560D01*
X4086180Y-2325560D02*
X4086180Y-2465560D01*
X3976180Y-2935560D02*
X3366180Y-2935560D01*
X3976180Y-2215560D02*
X4086180Y-2325560D01*
X3366180Y-2935560D02*
X3366180Y-2685560D01*
X3366180Y-2685560D02*
X3236180Y-2685560D01*
X3366180Y-2465560D02*
X3366180Y-2215560D01*
X3366180Y-2215560D02*
X3976180Y-2215560D01*
X3236180Y-2685560D02*
X3236180Y-2465560D01*
X3236180Y-2465560D02*
X3366180Y-2465560D01*
D14*
G04 #@! TO.C,J3*
X1441120Y-126680D02*
X225120Y-126680D01*
X1441120Y-103080D02*
X1441120Y-126680D01*
X1441120Y370920D02*
X1441120Y159720D01*
X1441120Y788920D02*
X1441120Y558720D01*
X1441120Y1265320D02*
X1441120Y1051720D01*
X1441120Y1265320D02*
X1170620Y1265320D01*
X1170620Y1265320D02*
X1145620Y1290320D01*
X1145620Y1290320D02*
X520620Y1290320D01*
X520620Y1290320D02*
X495620Y1265320D01*
X495620Y1265320D02*
X225120Y1265320D01*
X225120Y-103080D02*
X225120Y-126680D01*
X225120Y370920D02*
X225120Y159720D01*
X225120Y788920D02*
X225120Y558720D01*
X225120Y1265320D02*
X225120Y1051720D01*
D15*
X1518120Y81820D02*
G75*
G03*
X1518120Y81820I-10000J0D01*
G01*
D13*
G04 #@! TO.C,C14*
X1526205Y-1828960D02*
X1578455Y-1828960D01*
X1526205Y-1975960D02*
X1578455Y-1975960D01*
G04 #@! TO.C,C20*
X-1980475Y-1975960D02*
X-2032725Y-1975960D01*
X-1980475Y-1828960D02*
X-2032725Y-1828960D01*
G04 #@! TO.C,C24*
X3494315Y-2033440D02*
X3546565Y-2033440D01*
X3494315Y-2180440D02*
X3546565Y-2180440D01*
G04 #@! TO.C,C5*
X4218720Y-4153680D02*
X4088720Y-4153680D01*
X4218720Y-3933680D02*
X4218720Y-4153680D01*
X4198095Y-3863680D02*
X4119345Y-3863680D01*
X4158720Y-3824305D02*
X4158720Y-3903055D01*
X4088720Y-4293680D02*
X3978720Y-4403680D01*
X4088720Y-4153680D02*
X4088720Y-4293680D01*
X4088720Y-3933680D02*
X4218720Y-3933680D01*
X4088720Y-3793680D02*
X4088720Y-3933680D01*
X3978720Y-4403680D02*
X3368720Y-4403680D01*
X3978720Y-3683680D02*
X4088720Y-3793680D01*
X3368720Y-4403680D02*
X3368720Y-4153680D01*
X3368720Y-4153680D02*
X3238720Y-4153680D01*
X3368720Y-3933680D02*
X3368720Y-3683680D01*
X3368720Y-3683680D02*
X3978720Y-3683680D01*
X3238720Y-4153680D02*
X3238720Y-3933680D01*
X3238720Y-3933680D02*
X3368720Y-3933680D01*
G04 #@! TO.C,C38*
X4216180Y-3419620D02*
X4086180Y-3419620D01*
X4216180Y-3199620D02*
X4216180Y-3419620D01*
X4195555Y-3129620D02*
X4116805Y-3129620D01*
X4156180Y-3090245D02*
X4156180Y-3168995D01*
X4086180Y-3559620D02*
X3976180Y-3669620D01*
X4086180Y-3419620D02*
X4086180Y-3559620D01*
X4086180Y-3199620D02*
X4216180Y-3199620D01*
X4086180Y-3059620D02*
X4086180Y-3199620D01*
X3976180Y-3669620D02*
X3366180Y-3669620D01*
X3976180Y-2949620D02*
X4086180Y-3059620D01*
X3366180Y-3669620D02*
X3366180Y-3419620D01*
X3366180Y-3419620D02*
X3246180Y-3419620D01*
X3366180Y-3199620D02*
X3366180Y-2949620D01*
X3366180Y-2949620D02*
X3976180Y-2949620D01*
X3246180Y-3419620D02*
X3236180Y-3419620D01*
X3236180Y-3419620D02*
X3236180Y-3199620D01*
X3236180Y-3199620D02*
X3366180Y-3199620D01*
G04 #@! TO.C,C3*
X276640Y-4151140D02*
X146640Y-4151140D01*
X276640Y-3931140D02*
X276640Y-4151140D01*
X256015Y-3861140D02*
X177265Y-3861140D01*
X216640Y-3821765D02*
X216640Y-3900515D01*
X146640Y-4291140D02*
X36640Y-4401140D01*
X146640Y-4151140D02*
X146640Y-4291140D01*
X146640Y-3931140D02*
X276640Y-3931140D01*
X146640Y-3791140D02*
X146640Y-3931140D01*
X36640Y-4401140D02*
X-573360Y-4401140D01*
X36640Y-3681140D02*
X146640Y-3791140D01*
X-573360Y-4401140D02*
X-573360Y-4151140D01*
X-573360Y-4151140D02*
X-703360Y-4151140D01*
X-573360Y-3931140D02*
X-573360Y-3681140D01*
X-573360Y-3681140D02*
X36640Y-3681140D01*
X-703360Y-4151140D02*
X-703360Y-3931140D01*
X-703360Y-3931140D02*
X-573360Y-3931140D01*
G04 #@! TO.C,J9*
X3492500Y-5717540D02*
X3492500Y-5844540D01*
X3492500Y-5844540D02*
X3619500Y-5844540D01*
X3723793Y-5425540D02*
X3763500Y-5425540D01*
X3723793Y-5501540D02*
X3763500Y-5501540D01*
X3730500Y-5679540D02*
X3763500Y-5679540D01*
X3730500Y-5755540D02*
X3763500Y-5755540D01*
X3763500Y-5330540D02*
X4029500Y-5330540D01*
X3763500Y-5590540D02*
X4029500Y-5590540D01*
X3763500Y-5850540D02*
X3763500Y-5330540D01*
X4029500Y-5330540D02*
X4029500Y-5850540D01*
X4029500Y-5850540D02*
X3763500Y-5850540D01*
G04 #@! TO.C,C16*
X3494315Y-1831500D02*
X3546565Y-1831500D01*
X3494315Y-1978500D02*
X3546565Y-1978500D01*
G04 #@! TO.C,C48*
X3929715Y-1977240D02*
X3877465Y-1977240D01*
X3929715Y-1830240D02*
X3877465Y-1830240D01*
G04 #@! TO.C,C8*
X2247680Y-2683020D02*
X2117680Y-2683020D01*
X2247680Y-2463020D02*
X2247680Y-2683020D01*
X2227055Y-2393020D02*
X2148305Y-2393020D01*
X2187680Y-2353645D02*
X2187680Y-2432395D01*
X2117680Y-2823020D02*
X2007680Y-2933020D01*
X2117680Y-2683020D02*
X2117680Y-2823020D01*
X2117680Y-2463020D02*
X2247680Y-2463020D01*
X2117680Y-2323020D02*
X2117680Y-2463020D01*
X2007680Y-2933020D02*
X1397680Y-2933020D01*
X2007680Y-2213020D02*
X2117680Y-2323020D01*
X1397680Y-2933020D02*
X1397680Y-2683020D01*
X1397680Y-2683020D02*
X1267680Y-2683020D01*
X1397680Y-2463020D02*
X1397680Y-2213020D01*
X1397680Y-2213020D02*
X2007680Y-2213020D01*
X1267680Y-2683020D02*
X1267680Y-2463020D01*
X1267680Y-2463020D02*
X1397680Y-2463020D01*
G04 #@! TO.C,C42*
X-445225Y-1828960D02*
X-392975Y-1828960D01*
X-445225Y-1975960D02*
X-392975Y-1975960D01*
G04 #@! TO.C,J8*
X4786120Y-251400D02*
X4786120Y-192400D01*
X5008120Y-251400D02*
X5008120Y-192400D01*
X4296120Y-192400D02*
X4296120Y819600D01*
X4786120Y-192400D02*
X4296120Y-192400D01*
X5218120Y-192400D02*
X5008120Y-192400D01*
X5218120Y-192400D02*
X5218120Y819600D01*
X4786120Y819600D02*
X4296120Y819600D01*
X4786120Y819600D02*
X4786120Y878600D01*
X5008120Y819600D02*
X5008120Y878600D01*
X5218120Y819600D02*
X5008120Y819600D01*
X4786120Y-251400D02*
G75*
G03*
X5008120Y-251400I111000J0D01*
G01*
X5008120Y878600D02*
G75*
G03*
X4786120Y878600I-111000J0D01*
G01*
G04 #@! TO.C,C44*
X-2413725Y-1828960D02*
X-2361475Y-1828960D01*
X-2413725Y-1975960D02*
X-2361475Y-1975960D01*
D15*
G04 #@! TO.C,J11*
X4233920Y997820D02*
X4413920Y997820D01*
X4233920Y527820D02*
X4233920Y997820D01*
X4233920Y147820D02*
X4233920Y-92180D01*
X4233920Y-92180D02*
X5153920Y-92180D01*
X4723920Y997820D02*
X5153920Y997820D01*
X5153920Y997820D02*
X5153920Y697820D01*
X5153920Y-92180D02*
X5153920Y537820D01*
D13*
G04 #@! TO.C,C12*
X-1980475Y-2176620D02*
X-2032725Y-2176620D01*
X-1980475Y-2029620D02*
X-2032725Y-2029620D01*
G04 #@! TO.C,J7*
X-2256280Y889600D02*
X-2256280Y-262400D01*
X-2478280Y889600D02*
X-2478280Y819600D01*
X-2683280Y819600D02*
X-2478280Y819600D01*
X-2683280Y819600D02*
X-2683280Y766600D01*
X-3283280Y766600D02*
X-2683280Y766600D01*
X-3283280Y766600D02*
X-3283280Y-136400D01*
X-2683280Y-139400D02*
X-2683280Y-192400D01*
X-3283280Y-139400D02*
X-2683280Y-139400D01*
X-2478280Y-192400D02*
X-2478280Y-262400D01*
X-2683280Y-192400D02*
X-2478280Y-192400D01*
X-2257617Y895773D02*
G75*
G03*
X-2478280Y878600I-109664J-17173D01*
G01*
X-2478280Y-251400D02*
G75*
G03*
X-2256280Y-251400I111000J0D01*
G01*
G04 #@! TO.C,J10*
X637540Y-5722620D02*
X637540Y-5849620D01*
X637540Y-5849620D02*
X764540Y-5849620D01*
X868833Y-5430620D02*
X908540Y-5430620D01*
X868833Y-5506620D02*
X908540Y-5506620D01*
X875540Y-5684620D02*
X908540Y-5684620D01*
X875540Y-5760620D02*
X908540Y-5760620D01*
X908540Y-5335620D02*
X1174540Y-5335620D01*
X908540Y-5595620D02*
X1174540Y-5595620D01*
X908540Y-5855620D02*
X908540Y-5335620D01*
X1174540Y-5335620D02*
X1174540Y-5855620D01*
X1174540Y-5855620D02*
X908540Y-5855620D01*
G04 #@! TO.C,C39*
X2247680Y-4887740D02*
X2117680Y-4887740D01*
X2247680Y-4667740D02*
X2247680Y-4887740D01*
X2227055Y-4597740D02*
X2148305Y-4597740D01*
X2187680Y-4558365D02*
X2187680Y-4637115D01*
X2117680Y-5027740D02*
X2007680Y-5137740D01*
X2117680Y-4887740D02*
X2117680Y-5027740D01*
X2117680Y-4667740D02*
X2247680Y-4667740D01*
X2117680Y-4527740D02*
X2117680Y-4667740D01*
X2007680Y-5137740D02*
X1397680Y-5137740D01*
X2007680Y-4417740D02*
X2117680Y-4527740D01*
X1397680Y-5137740D02*
X1397680Y-4887740D01*
X1397680Y-4887740D02*
X1277680Y-4887740D01*
X1397680Y-4667740D02*
X1397680Y-4417740D01*
X1397680Y-4417740D02*
X2007680Y-4417740D01*
X1277680Y-4887740D02*
X1267680Y-4887740D01*
X1267680Y-4887740D02*
X1267680Y-4667740D01*
X1267680Y-4667740D02*
X1397680Y-4667740D01*
G04 #@! TO.C,C26*
X-11975Y-2176620D02*
X-64225Y-2176620D01*
X-11975Y-2029620D02*
X-64225Y-2029620D01*
G04 #@! TO.C,C7*
X2249512Y-4151140D02*
X2119512Y-4151140D01*
X2249512Y-3931140D02*
X2249512Y-4151140D01*
X2228887Y-3861140D02*
X2150137Y-3861140D01*
X2189512Y-3821765D02*
X2189512Y-3900515D01*
X2119512Y-4291140D02*
X2009512Y-4401140D01*
X2119512Y-4151140D02*
X2119512Y-4291140D01*
X2119512Y-3931140D02*
X2249512Y-3931140D01*
X2119512Y-3791140D02*
X2119512Y-3931140D01*
X2009512Y-4401140D02*
X1399512Y-4401140D01*
X2009512Y-3681140D02*
X2119512Y-3791140D01*
X1399512Y-4401140D02*
X1399512Y-4151140D01*
X1399512Y-4151140D02*
X1269512Y-4151140D01*
X1399512Y-3931140D02*
X1399512Y-3681140D01*
X1399512Y-3681140D02*
X2009512Y-3681140D01*
X1269512Y-4151140D02*
X1269512Y-3931140D01*
X1269512Y-3931140D02*
X1399512Y-3931140D01*
G04 #@! TO.C,C46*
X1959065Y-2179160D02*
X1906815Y-2179160D01*
X1959065Y-2032160D02*
X1906815Y-2032160D01*
G04 #@! TO.C,C40*
X2247680Y-3417080D02*
X2117680Y-3417080D01*
X2247680Y-3197080D02*
X2247680Y-3417080D01*
X2227055Y-3127080D02*
X2148305Y-3127080D01*
X2187680Y-3087705D02*
X2187680Y-3166455D01*
X2117680Y-3557080D02*
X2007680Y-3667080D01*
X2117680Y-3417080D02*
X2117680Y-3557080D01*
X2117680Y-3197080D02*
X2247680Y-3197080D01*
X2117680Y-3057080D02*
X2117680Y-3197080D01*
X2007680Y-3667080D02*
X1397680Y-3667080D01*
X2007680Y-2947080D02*
X2117680Y-3057080D01*
X1397680Y-3667080D02*
X1397680Y-3417080D01*
X1397680Y-3417080D02*
X1277680Y-3417080D01*
X1397680Y-3197080D02*
X1397680Y-2947080D01*
X1397680Y-2947080D02*
X2007680Y-2947080D01*
X1277680Y-3417080D02*
X1267680Y-3417080D01*
X1267680Y-3417080D02*
X1267680Y-3197080D01*
X1267680Y-3197080D02*
X1397680Y-3197080D01*
G04 #@! TO.C,C37*
X4218720Y-4887740D02*
X4088720Y-4887740D01*
X4218720Y-4667740D02*
X4218720Y-4887740D01*
X4198095Y-4597740D02*
X4119345Y-4597740D01*
X4158720Y-4558365D02*
X4158720Y-4637115D01*
X4088720Y-5027740D02*
X3978720Y-5137740D01*
X4088720Y-4887740D02*
X4088720Y-5027740D01*
X4088720Y-4667740D02*
X4218720Y-4667740D01*
X4088720Y-4527740D02*
X4088720Y-4667740D01*
X3978720Y-5137740D02*
X3368720Y-5137740D01*
X3978720Y-4417740D02*
X4088720Y-4527740D01*
X3368720Y-5137740D02*
X3368720Y-4887740D01*
X3368720Y-4887740D02*
X3248720Y-4887740D01*
X3368720Y-4667740D02*
X3368720Y-4417740D01*
X3368720Y-4417740D02*
X3978720Y-4417740D01*
X3248720Y-4887740D02*
X3238720Y-4887740D01*
X3238720Y-4887740D02*
X3238720Y-4667740D01*
X3238720Y-4667740D02*
X3368720Y-4667740D01*
G04 #@! TO.C,C4*
X276640Y-2680480D02*
X146640Y-2680480D01*
X276640Y-2460480D02*
X276640Y-2680480D01*
X256015Y-2390480D02*
X177265Y-2390480D01*
X216640Y-2351105D02*
X216640Y-2429855D01*
X146640Y-2820480D02*
X36640Y-2930480D01*
X146640Y-2680480D02*
X146640Y-2820480D01*
X146640Y-2460480D02*
X276640Y-2460480D01*
X146640Y-2320480D02*
X146640Y-2460480D01*
X36640Y-2930480D02*
X-573360Y-2930480D01*
X36640Y-2210480D02*
X146640Y-2320480D01*
X-573360Y-2930480D02*
X-573360Y-2680480D01*
X-573360Y-2680480D02*
X-703360Y-2680480D01*
X-573360Y-2460480D02*
X-573360Y-2210480D01*
X-573360Y-2210480D02*
X36640Y-2210480D01*
X-703360Y-2680480D02*
X-703360Y-2460480D01*
X-703360Y-2460480D02*
X-573360Y-2460480D01*
G04 #@! TO.C,C33*
X-1691860Y-4887740D02*
X-1821860Y-4887740D01*
X-1691860Y-4667740D02*
X-1691860Y-4887740D01*
X-1712485Y-4597740D02*
X-1791235Y-4597740D01*
X-1751860Y-4558365D02*
X-1751860Y-4637115D01*
X-1821860Y-5027740D02*
X-1931860Y-5137740D01*
X-1821860Y-4887740D02*
X-1821860Y-5027740D01*
X-1821860Y-4667740D02*
X-1691860Y-4667740D01*
X-1821860Y-4527740D02*
X-1821860Y-4667740D01*
X-1931860Y-5137740D02*
X-2541860Y-5137740D01*
X-1931860Y-4417740D02*
X-1821860Y-4527740D01*
X-2541860Y-5137740D02*
X-2541860Y-4887740D01*
X-2541860Y-4887740D02*
X-2661860Y-4887740D01*
X-2541860Y-4667740D02*
X-2541860Y-4417740D01*
X-2541860Y-4417740D02*
X-1931860Y-4417740D01*
X-2661860Y-4887740D02*
X-2671860Y-4887740D01*
X-2671860Y-4887740D02*
X-2671860Y-4667740D01*
X-2671860Y-4667740D02*
X-2541860Y-4667740D01*
G04 #@! TO.C,C28*
X-2413725Y-2029620D02*
X-2361475Y-2029620D01*
X-2413725Y-2176620D02*
X-2361475Y-2176620D01*
G04 #@! TO.C,C32*
X3929715Y-2180440D02*
X3877465Y-2180440D01*
X3929715Y-2033440D02*
X3877465Y-2033440D01*
G04 #@! TO.C,C1*
X-1689320Y-4148600D02*
X-1819320Y-4148600D01*
X-1689320Y-3928600D02*
X-1689320Y-4148600D01*
X-1709945Y-3858600D02*
X-1788695Y-3858600D01*
X-1749320Y-3819225D02*
X-1749320Y-3897975D01*
X-1819320Y-4288600D02*
X-1929320Y-4398600D01*
X-1819320Y-4148600D02*
X-1819320Y-4288600D01*
X-1819320Y-3928600D02*
X-1689320Y-3928600D01*
X-1819320Y-3788600D02*
X-1819320Y-3928600D01*
X-1929320Y-4398600D02*
X-2539320Y-4398600D01*
X-1929320Y-3678600D02*
X-1819320Y-3788600D01*
X-2539320Y-4398600D02*
X-2539320Y-4148600D01*
X-2539320Y-4148600D02*
X-2669320Y-4148600D01*
X-2539320Y-3928600D02*
X-2539320Y-3678600D01*
X-2539320Y-3678600D02*
X-1929320Y-3678600D01*
X-2669320Y-4148600D02*
X-2669320Y-3928600D01*
X-2669320Y-3928600D02*
X-2539320Y-3928600D01*
G04 #@! TO.C,C10*
X-11975Y-1975960D02*
X-64225Y-1975960D01*
X-11975Y-1828960D02*
X-64225Y-1828960D01*
G04 #@! TO.C,C2*
X-1691860Y-2680480D02*
X-1821860Y-2680480D01*
X-1691860Y-2460480D02*
X-1691860Y-2680480D01*
X-1712485Y-2390480D02*
X-1791235Y-2390480D01*
X-1751860Y-2351105D02*
X-1751860Y-2429855D01*
X-1821860Y-2820480D02*
X-1931860Y-2930480D01*
X-1821860Y-2680480D02*
X-1821860Y-2820480D01*
X-1821860Y-2460480D02*
X-1691860Y-2460480D01*
X-1821860Y-2320480D02*
X-1821860Y-2460480D01*
X-1931860Y-2930480D02*
X-2541860Y-2930480D01*
X-1931860Y-2210480D02*
X-1821860Y-2320480D01*
X-2541860Y-2930480D02*
X-2541860Y-2680480D01*
X-2541860Y-2680480D02*
X-2671860Y-2680480D01*
X-2541860Y-2460480D02*
X-2541860Y-2210480D01*
X-2541860Y-2210480D02*
X-1931860Y-2210480D01*
X-2671860Y-2680480D02*
X-2671860Y-2460480D01*
X-2671860Y-2460480D02*
X-2541860Y-2460480D01*
G04 #@! TO.C,C34*
X-1691860Y-3414540D02*
X-1821860Y-3414540D01*
X-1691860Y-3194540D02*
X-1691860Y-3414540D01*
X-1712485Y-3124540D02*
X-1791235Y-3124540D01*
X-1751860Y-3085165D02*
X-1751860Y-3163915D01*
X-1821860Y-3554540D02*
X-1931860Y-3664540D01*
X-1821860Y-3414540D02*
X-1821860Y-3554540D01*
X-1821860Y-3194540D02*
X-1691860Y-3194540D01*
X-1821860Y-3054540D02*
X-1821860Y-3194540D01*
X-1931860Y-3664540D02*
X-2541860Y-3664540D01*
X-1931860Y-2944540D02*
X-1821860Y-3054540D01*
X-2541860Y-3664540D02*
X-2541860Y-3414540D01*
X-2541860Y-3414540D02*
X-2661860Y-3414540D01*
X-2541860Y-3194540D02*
X-2541860Y-2944540D01*
X-2541860Y-2944540D02*
X-1931860Y-2944540D01*
X-2661860Y-3414540D02*
X-2671860Y-3414540D01*
X-2671860Y-3414540D02*
X-2671860Y-3194540D01*
X-2671860Y-3194540D02*
X-2541860Y-3194540D01*
G04 #@! TO.C,C30*
X1959065Y-1975960D02*
X1906815Y-1975960D01*
X1959065Y-1828960D02*
X1906815Y-1828960D01*
G04 #@! TO.C,C18*
X-445225Y-2029620D02*
X-392975Y-2029620D01*
X-445225Y-2176620D02*
X-392975Y-2176620D01*
G04 #@! TD*
%LPC*%
D16*
G04 #@! TO.C,200R*
X2783840Y388380D03*
X2783840Y485380D03*
G04 #@! TD*
G04 #@! TO.C,4K*
X3017520Y387200D03*
X3017520Y484200D03*
G04 #@! TD*
G04 #@! TO.C,R4*
X1513840Y-5933680D03*
X1513840Y-5836680D03*
G04 #@! TD*
G04 #@! TO.C,R1*
X-1518920Y-5933680D03*
X-1518920Y-5836680D03*
G04 #@! TD*
D17*
G04 #@! TO.C,R5*
X3404780Y-5722620D03*
X3234780Y-5722620D03*
G04 #@! TD*
G04 #@! TO.C,R5*
X382360Y-5722620D03*
X552360Y-5722620D03*
G04 #@! TD*
D18*
G04 #@! TO.C,REF\u002A\u002A*
X3180080Y600320D03*
X3307080Y600320D03*
X3434080Y600320D03*
X3561080Y600320D03*
X3561080Y75320D03*
X3434080Y75320D03*
X3307080Y75320D03*
X3180080Y75320D03*
G04 #@! TD*
D19*
G04 #@! TO.C,REF\u002A\u002A*
X2806930Y679700D03*
X2806930Y869700D03*
X2994430Y774700D03*
G04 #@! TD*
D20*
G04 #@! TO.C,REF\u002A\u002A*
X2897140Y-1740D03*
D21*
X2772140Y-1740D03*
G04 #@! TD*
D22*
G04 #@! TO.C,J4*
X-2113910Y-910210D03*
D23*
X-2113910Y-4690210D03*
G04 #@! TD*
D22*
G04 #@! TO.C,J1*
X3795390Y-910210D03*
D23*
X3795390Y-4690210D03*
G04 #@! TD*
D22*
G04 #@! TO.C,J2*
X1825390Y-910210D03*
D23*
X1825390Y-4690210D03*
G04 #@! TD*
D22*
G04 #@! TO.C,J6*
X-144610Y-910210D03*
D23*
X-144610Y-4690210D03*
G04 #@! TD*
D24*
G04 #@! TO.C,C35*
X66640Y-4777740D03*
X-493360Y-4777740D03*
G04 #@! TD*
D25*
G04 #@! TO.C,C22*
X1448190Y-2105660D03*
X1655690Y-2105660D03*
G04 #@! TD*
D24*
G04 #@! TO.C,C36*
X66640Y-3307080D03*
X-493360Y-3307080D03*
G04 #@! TD*
G04 #@! TO.C,C6*
X4006180Y-2575560D03*
X3446180Y-2575560D03*
G04 #@! TD*
D26*
G04 #@! TO.C,J3*
X1361120Y464820D03*
X305120Y464820D03*
D27*
X1133120Y81820D03*
X1058120Y81820D03*
X983120Y81820D03*
X908120Y81820D03*
X833120Y81820D03*
X758120Y81820D03*
X683120Y81820D03*
X608120Y81820D03*
X533120Y81820D03*
X1133120Y351820D03*
X1058120Y351820D03*
X983120Y351820D03*
X908120Y351820D03*
X833120Y351820D03*
X758120Y351820D03*
X683120Y351820D03*
X608120Y351820D03*
X533120Y351820D03*
X1133120Y704820D03*
X1058120Y704820D03*
X983120Y704820D03*
X908120Y704820D03*
X833120Y704820D03*
X758120Y704820D03*
X683120Y704820D03*
X608120Y704820D03*
X533120Y704820D03*
X1133120Y974820D03*
X1058120Y974820D03*
X983120Y974820D03*
X908120Y974820D03*
X833120Y974820D03*
X758120Y974820D03*
X683120Y974820D03*
X608120Y974820D03*
X533120Y974820D03*
D28*
X1375620Y920320D03*
X290620Y920320D03*
X1375620Y28320D03*
X290620Y28320D03*
G04 #@! TD*
D25*
G04 #@! TO.C,C14*
X1448580Y-1902460D03*
X1656080Y-1902460D03*
G04 #@! TD*
D29*
G04 #@! TO.C,C20*
X-1902850Y-1902460D03*
X-2110350Y-1902460D03*
G04 #@! TD*
D25*
G04 #@! TO.C,C24*
X3416690Y-2106940D03*
X3624190Y-2106940D03*
G04 #@! TD*
D24*
G04 #@! TO.C,C5*
X4008720Y-4043680D03*
X3448720Y-4043680D03*
G04 #@! TD*
G04 #@! TO.C,C38*
X4006180Y-3309620D03*
X3446180Y-3309620D03*
G04 #@! TD*
G04 #@! TO.C,C3*
X66640Y-4041140D03*
X-493360Y-4041140D03*
G04 #@! TD*
D30*
G04 #@! TO.C,J9*
X3619500Y-5717540D03*
D31*
X3619500Y-5463540D03*
G04 #@! TD*
D25*
G04 #@! TO.C,C16*
X3416690Y-1905000D03*
X3624190Y-1905000D03*
G04 #@! TD*
D29*
G04 #@! TO.C,C48*
X4007340Y-1903740D03*
X3799840Y-1903740D03*
G04 #@! TD*
D24*
G04 #@! TO.C,C8*
X2037680Y-2573020D03*
X1477680Y-2573020D03*
G04 #@! TD*
D32*
G04 #@! TO.C,U1*
X-68580Y-5811876D03*
D33*
X-68580Y-5442864D03*
D32*
X-322580Y-5811876D03*
D33*
X-322580Y-5442864D03*
D32*
X-576580Y-5811876D03*
D33*
X-576580Y-5442864D03*
D32*
X-830580Y-5811876D03*
D33*
X-830580Y-5442864D03*
D32*
X-1084580Y-5811876D03*
D33*
X-1084580Y-5442864D03*
D32*
X-1338580Y-5811876D03*
D33*
X-1338580Y-5442864D03*
G04 #@! TD*
D25*
G04 #@! TO.C,C42*
X-522850Y-1902460D03*
X-315350Y-1902460D03*
G04 #@! TD*
D34*
G04 #@! TO.C,J8*
X4897120Y-236400D03*
X4897120Y863600D03*
D35*
X3897120Y563600D03*
D36*
X3897120Y63600D03*
G04 #@! TD*
D25*
G04 #@! TO.C,C44*
X-2491350Y-1902460D03*
X-2283850Y-1902460D03*
G04 #@! TD*
D37*
G04 #@! TO.C,J11*
X4343920Y337820D03*
D38*
X4573920Y867820D03*
X4943920Y617820D03*
G04 #@! TD*
D29*
G04 #@! TO.C,C12*
X-1902850Y-2103120D03*
X-2110350Y-2103120D03*
G04 #@! TD*
D34*
G04 #@! TO.C,J7*
X-2367280Y863600D03*
X-2367280Y-236400D03*
D39*
X-1867280Y563600D03*
D36*
X-1867280Y63600D03*
G04 #@! TD*
D30*
G04 #@! TO.C,J10*
X764540Y-5722620D03*
D31*
X764540Y-5468620D03*
G04 #@! TD*
D24*
G04 #@! TO.C,C39*
X2037680Y-4777740D03*
X1477680Y-4777740D03*
G04 #@! TD*
D29*
G04 #@! TO.C,C26*
X65650Y-2103120D03*
X-141850Y-2103120D03*
G04 #@! TD*
D24*
G04 #@! TO.C,C7*
X2039512Y-4041140D03*
X1479512Y-4041140D03*
G04 #@! TD*
D29*
G04 #@! TO.C,C46*
X2036690Y-2105660D03*
X1829190Y-2105660D03*
G04 #@! TD*
D24*
G04 #@! TO.C,C40*
X2037680Y-3307080D03*
X1477680Y-3307080D03*
G04 #@! TD*
G04 #@! TO.C,C37*
X4008720Y-4777740D03*
X3448720Y-4777740D03*
G04 #@! TD*
G04 #@! TO.C,C4*
X66640Y-2570480D03*
X-493360Y-2570480D03*
G04 #@! TD*
D32*
G04 #@! TO.C,U2*
X2966720Y-5824576D03*
D33*
X2966720Y-5455564D03*
D32*
X2712720Y-5824576D03*
D33*
X2712720Y-5455564D03*
D32*
X2458720Y-5824576D03*
D33*
X2458720Y-5455564D03*
D32*
X2204720Y-5824576D03*
D33*
X2204720Y-5455564D03*
D32*
X1950720Y-5824576D03*
D33*
X1950720Y-5455564D03*
D32*
X1696720Y-5824576D03*
D33*
X1696720Y-5455564D03*
G04 #@! TD*
D24*
G04 #@! TO.C,C33*
X-1901860Y-4777740D03*
X-2461860Y-4777740D03*
G04 #@! TD*
D25*
G04 #@! TO.C,C28*
X-2491350Y-2103120D03*
X-2283850Y-2103120D03*
G04 #@! TD*
D29*
G04 #@! TO.C,C32*
X4007340Y-2106940D03*
X3799840Y-2106940D03*
G04 #@! TD*
D24*
G04 #@! TO.C,C1*
X-1899320Y-4038600D03*
X-2459320Y-4038600D03*
G04 #@! TD*
D29*
G04 #@! TO.C,C10*
X65650Y-1902460D03*
X-141850Y-1902460D03*
G04 #@! TD*
D24*
G04 #@! TO.C,C2*
X-1901860Y-2570480D03*
X-2461860Y-2570480D03*
G04 #@! TD*
G04 #@! TO.C,C34*
X-1901860Y-3304540D03*
X-2461860Y-3304540D03*
G04 #@! TD*
D29*
G04 #@! TO.C,C30*
X2036690Y-1902460D03*
X1829190Y-1902460D03*
G04 #@! TD*
D25*
G04 #@! TO.C,C18*
X-522850Y-2103120D03*
X-315350Y-2103120D03*
G04 #@! TD*
%LPD*%
M02*
