%TF.GenerationSoftware,KiCad,Pcbnew,7.0.9*%
%TF.CreationDate,2024-03-23T01:13:53+08:00*%
%TF.ProjectId,8643____,38363433-4bd5-4a5e-932e-6b696361645f,rev?*%
%TF.SameCoordinates,Original*%
%TF.FileFunction,Copper,L3,Inr*%
%TF.FilePolarity,Positive*%
%FSLAX46Y46*%
G04 Gerber Fmt 4.6, Leading zero omitted, Abs format (unit mm)*
G04 Created by KiCad (PCBNEW 7.0.9) date 2024-03-23 01:13:53*
%MOMM*%
%LPD*%
G01*
G04 APERTURE LIST*
%TA.AperFunction,ComponentPad*%
%ADD10C,1.358000*%
%TD*%
%TA.AperFunction,ViaPad*%
%ADD11C,0.350000*%
%TD*%
%TA.AperFunction,Conductor*%
%ADD12C,0.101600*%
%TD*%
G04 APERTURE END LIST*
D10*
%TO.N,GND*%
%TO.C,J1*%
X167998000Y-86904000D03*
X167998000Y-69104000D03*
X171498000Y-86904000D03*
X171498000Y-69104000D03*
X173606400Y-86904000D03*
X174498000Y-69104000D03*
%TD*%
D11*
%TO.N,Net-(J4-Pin_9)*%
X157098000Y-84604000D03*
X151892000Y-94979500D03*
%TO.N,Net-(J4-Pin_8)*%
X157098000Y-83804000D03*
X151892000Y-93248000D03*
%TO.N,Net-(J4-Pin_7)*%
X157098000Y-83004000D03*
X151892000Y-91248000D03*
%TO.N,Net-(J4-Pin_6)*%
X151892000Y-89248000D03*
X157098000Y-82204000D03*
%TO.N,Net-(J4-Pin_5)*%
X157098000Y-81404000D03*
X151892000Y-87248000D03*
%TO.N,Net-(J4-Pin_4)*%
X151892000Y-85248000D03*
X157098000Y-80604000D03*
%TO.N,Net-(J4-Pin_3)*%
X151892000Y-83248000D03*
X157098000Y-79804000D03*
%TO.N,Net-(J4-Pin_2)*%
X151892000Y-81248000D03*
X157098000Y-79004000D03*
%TO.N,Net-(J4-Pin_1)*%
X151892000Y-79248000D03*
X157098000Y-78204000D03*
%TO.N,Net-(J5-Pin_9)*%
X151892000Y-76738000D03*
X157098000Y-77404000D03*
%TO.N,Net-(J5-Pin_8)*%
X151892000Y-74738000D03*
X157098000Y-76604000D03*
%TO.N,Net-(J5-Pin_7)*%
X151892000Y-72738000D03*
X157098000Y-75804000D03*
%TO.N,Net-(J5-Pin_6)*%
X151892000Y-70738000D03*
X157098000Y-75004000D03*
%TO.N,Net-(J5-Pin_5)*%
X151892000Y-68738000D03*
X157098000Y-74204000D03*
%TO.N,Net-(J5-Pin_4)*%
X157098000Y-73404000D03*
X151892000Y-66738000D03*
%TO.N,Net-(J5-Pin_3)*%
X151892000Y-64738000D03*
X157098000Y-72604000D03*
%TO.N,Net-(J5-Pin_2)*%
X157098000Y-71804000D03*
X151892000Y-62738000D03*
%TO.N,Net-(J5-Pin_1)*%
X151892000Y-61028500D03*
X157098000Y-71004000D03*
%TO.N,Net-(J2-Pin_1)*%
X154588000Y-85004000D03*
X147320000Y-94979500D03*
%TO.N,Net-(J2-Pin_2)*%
X147320000Y-93218000D03*
X154588000Y-84204000D03*
%TO.N,Net-(J2-Pin_3)*%
X147320000Y-91218000D03*
X154588000Y-83404000D03*
%TO.N,Net-(J2-Pin_4)*%
X147320000Y-89218000D03*
X154588000Y-82604000D03*
%TO.N,Net-(J2-Pin_5)*%
X147320000Y-87218000D03*
X154588000Y-81804000D03*
%TO.N,Net-(J2-Pin_6)*%
X147320000Y-85218000D03*
X154588000Y-81004000D03*
%TO.N,Net-(J2-Pin_7)*%
X147320000Y-83218000D03*
X154588000Y-80204000D03*
%TO.N,Net-(J2-Pin_8)*%
X147320000Y-81218000D03*
X154588000Y-79404000D03*
%TO.N,Net-(J2-Pin_9)*%
X147320000Y-79218000D03*
X154588000Y-78604000D03*
%TO.N,Net-(J3-Pin_1)*%
X154588000Y-77804000D03*
X147320000Y-76834000D03*
%TO.N,Net-(J3-Pin_2)*%
X154588000Y-77004000D03*
X147320000Y-74834000D03*
%TO.N,Net-(J3-Pin_3)*%
X154588000Y-76204000D03*
X147320000Y-72834000D03*
%TO.N,Net-(J3-Pin_4)*%
X154588000Y-75404000D03*
X147320000Y-70834000D03*
%TO.N,Net-(J3-Pin_5)*%
X147320000Y-68834000D03*
X154588000Y-74604000D03*
%TO.N,Net-(J3-Pin_6)*%
X147320000Y-66834000D03*
X154588000Y-73804000D03*
%TO.N,Net-(J3-Pin_7)*%
X147320000Y-64834000D03*
X154588000Y-73004000D03*
%TO.N,Net-(J3-Pin_8)*%
X154588000Y-72204000D03*
X147320000Y-62834000D03*
%TO.N,Net-(J3-Pin_9)*%
X154588000Y-71404000D03*
X147331437Y-61028500D03*
%TD*%
D12*
%TO.N,Net-(J2-Pin_1)*%
X154051000Y-94462600D02*
X154588000Y-93925600D01*
X147320000Y-94818200D02*
X147675600Y-94462600D01*
X147320000Y-94979500D02*
X147320000Y-94818200D01*
X154588000Y-93925600D02*
X154588000Y-85004000D01*
X147675600Y-94462600D02*
X154051000Y-94462600D01*
%TO.N,Net-(J2-Pin_2)*%
X147320000Y-92837000D02*
X147624800Y-92532200D01*
X147320000Y-93218000D02*
X147320000Y-92837000D01*
X153720800Y-92532200D02*
X154254200Y-91998800D01*
X147624800Y-92532200D02*
X153720800Y-92532200D01*
X154254200Y-91998800D02*
X154254200Y-84537800D01*
X154254200Y-84537800D02*
X154588000Y-84204000D01*
%TO.N,Net-(J2-Pin_3)*%
X147320000Y-90957400D02*
X147802600Y-90474800D01*
X154051000Y-83941000D02*
X154588000Y-83404000D01*
X147320000Y-91218000D02*
X147320000Y-90957400D01*
X154051000Y-89890600D02*
X154051000Y-83941000D01*
X147802600Y-90474800D02*
X153466800Y-90474800D01*
X153466800Y-90474800D02*
X154051000Y-89890600D01*
%TO.N,Net-(J2-Pin_4)*%
X154588000Y-82604000D02*
X153847800Y-83344200D01*
X153847800Y-83344200D02*
X153847800Y-87807800D01*
X147726400Y-88493600D02*
X147320000Y-88900000D01*
X153162000Y-88493600D02*
X147726400Y-88493600D01*
X147320000Y-88900000D02*
X147320000Y-89218000D01*
X153847800Y-87807800D02*
X153162000Y-88493600D01*
%TO.N,Net-(J2-Pin_5)*%
X147320000Y-86995000D02*
X147828000Y-86487000D01*
X152755600Y-86487000D02*
X153644600Y-85598000D01*
X153644600Y-85598000D02*
X153644600Y-82747400D01*
X147320000Y-87218000D02*
X147320000Y-86995000D01*
X153644600Y-82747400D02*
X154588000Y-81804000D01*
X147828000Y-86487000D02*
X152755600Y-86487000D01*
%TO.N,Net-(J2-Pin_6)*%
X147561300Y-84480400D02*
X152450800Y-84480400D01*
X153365200Y-83566000D02*
X153365200Y-82270600D01*
X153365200Y-82270600D02*
X154588000Y-81047800D01*
X154588000Y-81047800D02*
X154588000Y-81004000D01*
X152450800Y-84480400D02*
X153365200Y-83566000D01*
X147320000Y-85218000D02*
X147320000Y-84721700D01*
X147320000Y-84721700D02*
X147561300Y-84480400D01*
%TO.N,Net-(J2-Pin_7)*%
X147574000Y-82499200D02*
X152222200Y-82499200D01*
X147320000Y-82753200D02*
X147574000Y-82499200D01*
X152222200Y-82499200D02*
X154517400Y-80204000D01*
X154517400Y-80204000D02*
X154588000Y-80204000D01*
X147320000Y-83218000D02*
X147320000Y-82753200D01*
%TO.N,Net-(J2-Pin_8)*%
X153187400Y-80518000D02*
X154301400Y-79404000D01*
X147320000Y-80670400D02*
X147472400Y-80518000D01*
X147320000Y-81218000D02*
X147320000Y-80670400D01*
X154301400Y-79404000D02*
X154588000Y-79404000D01*
X147472400Y-80518000D02*
X153187400Y-80518000D01*
%TO.N,Net-(J2-Pin_9)*%
X154495400Y-78511400D02*
X154588000Y-78604000D01*
X147320000Y-78994000D02*
X147802600Y-78511400D01*
X147320000Y-79218000D02*
X147320000Y-78994000D01*
X147802600Y-78511400D02*
X154495400Y-78511400D01*
%TO.N,Net-(J3-Pin_1)*%
X154330200Y-77546200D02*
X154588000Y-77804000D01*
X147701000Y-77546200D02*
X154330200Y-77546200D01*
X147320000Y-76834000D02*
X147320000Y-77165200D01*
X147320000Y-77165200D02*
X147701000Y-77546200D01*
%TO.N,Net-(J3-Pin_2)*%
X147320000Y-74834000D02*
X147974800Y-75488800D01*
X152628600Y-75488800D02*
X154143800Y-77004000D01*
X147974800Y-75488800D02*
X152628600Y-75488800D01*
X154143800Y-77004000D02*
X154588000Y-77004000D01*
%TO.N,Net-(J3-Pin_3)*%
X152577800Y-73507600D02*
X153111200Y-74041000D01*
X147993600Y-73507600D02*
X152577800Y-73507600D01*
X147320000Y-72834000D02*
X147993600Y-73507600D01*
X153111200Y-74041000D02*
X153111200Y-74727200D01*
X153111200Y-74727200D02*
X154588000Y-76204000D01*
%TO.N,Net-(J3-Pin_4)*%
X153441400Y-72110600D02*
X153441400Y-74257400D01*
X147320000Y-70834000D02*
X148012400Y-71526400D01*
X152857200Y-71526400D02*
X153441400Y-72110600D01*
X153441400Y-74257400D02*
X154588000Y-75404000D01*
X148012400Y-71526400D02*
X152857200Y-71526400D01*
%TO.N,Net-(J3-Pin_5)*%
X153644600Y-73660600D02*
X154588000Y-74604000D01*
X147802600Y-69545200D02*
X153035000Y-69545200D01*
X147320000Y-69062600D02*
X147802600Y-69545200D01*
X147320000Y-68834000D02*
X147320000Y-69062600D01*
X153035000Y-69545200D02*
X153644600Y-70154800D01*
X153644600Y-70154800D02*
X153644600Y-73660600D01*
%TO.N,Net-(J3-Pin_6)*%
X147320000Y-66834000D02*
X147320000Y-67183000D01*
X147320000Y-67183000D02*
X147624800Y-67487800D01*
X153847800Y-73063800D02*
X154588000Y-73804000D01*
X153162000Y-67487800D02*
X153847800Y-68173600D01*
X147624800Y-67487800D02*
X153162000Y-67487800D01*
X153847800Y-68173600D02*
X153847800Y-73063800D01*
%TO.N,Net-(J3-Pin_7)*%
X147726400Y-65506600D02*
X153263600Y-65506600D01*
X154051000Y-72467000D02*
X154588000Y-73004000D01*
X153263600Y-65506600D02*
X154051000Y-66294000D01*
X147320000Y-64834000D02*
X147320000Y-65100200D01*
X147320000Y-65100200D02*
X147726400Y-65506600D01*
X154051000Y-66294000D02*
X154051000Y-72467000D01*
%TO.N,Net-(J3-Pin_8)*%
X154260600Y-70643800D02*
X154254200Y-70637400D01*
X154254200Y-64312800D02*
X153517600Y-63576200D01*
X147320000Y-62941200D02*
X147320000Y-62834000D01*
X154588000Y-72204000D02*
X154260600Y-71876600D01*
X154260600Y-71876600D02*
X154260600Y-70643800D01*
X154254200Y-70637400D02*
X154254200Y-64312800D01*
X147955000Y-63576200D02*
X147320000Y-62941200D01*
X153517600Y-63576200D02*
X147955000Y-63576200D01*
%TO.N,Net-(J3-Pin_9)*%
X147624800Y-61366400D02*
X153720800Y-61366400D01*
X147331437Y-61073037D02*
X147624800Y-61366400D01*
X153720800Y-61366400D02*
X154588000Y-62233600D01*
X154588000Y-62233600D02*
X154588000Y-71404000D01*
X147331437Y-61028500D02*
X147331437Y-61073037D01*
%TD*%
M02*
