M48
; DRILL file {KiCad 7.0.9} date Sat Mar 23 01:13:49 2024
; FORMAT={-:-/ absolute / inch / decimal}
; #@! TF.CreationDate,2024-03-23T01:13:49+08:00
; #@! TF.GenerationSoftware,Kicad,Pcbnew,7.0.9
; #@! TF.FileFunction,Plated,1,4,PTH
FMAT,2
INCH
; #@! TA.AperFunction,Plated,PTH,ViaDrill
T1C0.0079
; #@! TA.AperFunction,Plated,PTH,ComponentDrill
T2C0.0335
%
G90
G05
T1
X5.8Y-2.4738
X5.8Y-2.5525
X5.8Y-2.6313
X5.8Y-2.71
X5.8Y-2.7887
X5.8Y-2.8675
X5.8Y-2.9462
X5.8Y-3.025
X5.8Y-3.1188
X5.8Y-3.1976
X5.8Y-3.2763
X5.8Y-3.355
X5.8Y-3.4338
X5.8Y-3.5125
X5.8Y-3.5913
X5.8Y-3.67
X5.8Y-3.7394
X5.8005Y-2.4027
X5.98Y-2.4027
X5.98Y-2.47
X5.98Y-2.5487
X5.98Y-2.6275
X5.98Y-2.7062
X5.98Y-2.785
X5.98Y-2.8637
X5.98Y-2.9424
X5.98Y-3.0212
X5.98Y-3.12
X5.98Y-3.1987
X5.98Y-3.2775
X5.98Y-3.3562
X5.98Y-3.435
X5.98Y-3.5137
X5.98Y-3.5924
X5.98Y-3.6712
X5.98Y-3.7394
X6.0861Y-2.8112
X6.0861Y-2.8427
X6.0861Y-2.8742
X6.0861Y-2.9057
X6.0861Y-2.9372
X6.0861Y-2.9687
X6.0861Y-3.0002
X6.0861Y-3.0317
X6.0861Y-3.0631
X6.0861Y-3.0946
X6.0861Y-3.1261
X6.0861Y-3.1576
X6.0861Y-3.1891
X6.0861Y-3.2206
X6.0861Y-3.2521
X6.0861Y-3.2836
X6.0861Y-3.3151
X6.0861Y-3.3466
X6.185Y-2.7954
X6.185Y-2.8269
X6.185Y-2.8584
X6.185Y-2.8899
X6.185Y-2.9214
X6.185Y-2.9529
X6.185Y-2.9844
X6.185Y-3.0159
X6.185Y-3.0474
X6.185Y-3.0789
X6.185Y-3.1104
X6.185Y-3.1419
X6.185Y-3.1734
X6.185Y-3.2049
X6.185Y-3.2364
X6.185Y-3.2679
X6.185Y-3.2994
X6.185Y-3.3309
T2
X6.6141Y-2.7206
X6.6141Y-3.4214
X6.7519Y-2.7206
X6.7519Y-3.4214
X6.8349Y-3.4214
X6.87Y-2.7206
T0
M30
