%TF.GenerationSoftware,KiCad,Pcbnew,7.0.9*%
%TF.CreationDate,2024-03-23T01:13:51+08:00*%
%TF.ProjectId,8643____,38363433-4bd5-4a5e-932e-6b696361645f,rev?*%
%TF.SameCoordinates,Original*%
%TF.FileFunction,Drillmap*%
%TF.FilePolarity,Positive*%
%FSLAX45Y45*%
G04 Gerber Fmt 4.5, Leading zero omitted, Abs format (unit mm)*
G04 Created by KiCad (PCBNEW 7.0.9) date 2024-03-23 01:13:51*
%MOMM*%
%LPD*%
G01*
G04 APERTURE LIST*
%ADD10C,0.254000*%
%ADD11C,0.200000*%
%ADD12C,0.159000*%
G04 APERTURE END LIST*
D10*
X14401800Y-9250400D02*
X14401800Y-6350400D01*
X17901800Y-9250400D02*
X17901800Y-6350400D01*
X17601800Y-6050400D02*
X14701800Y-6050400D01*
X14401800Y-9250400D02*
G75*
G03*
X14701800Y-9550400I300000J0D01*
G01*
X14701800Y-9550400D02*
X17601800Y-9550400D01*
X17901800Y-6350400D02*
G75*
G03*
X17601800Y-6050400I-300000J0D01*
G01*
X14701800Y-6050400D02*
G75*
G03*
X14401800Y-6350400I0J-300000D01*
G01*
X17601800Y-9550400D02*
G75*
G03*
X17901800Y-9250400I0J300000D01*
G01*
D11*
D12*
X16148300Y-6920900D02*
X16307300Y-7079900D01*
X16307300Y-6920900D02*
X16148300Y-7079900D01*
X16148300Y-8520900D02*
X16307300Y-8679900D01*
X16307300Y-8520900D02*
X16148300Y-8679900D01*
D11*
X14649877Y-9874584D02*
X14649877Y-9674584D01*
X14649877Y-9674584D02*
X14697496Y-9674584D01*
X14697496Y-9674584D02*
X14726067Y-9684108D01*
X14726067Y-9684108D02*
X14745115Y-9703155D01*
X14745115Y-9703155D02*
X14754639Y-9722203D01*
X14754639Y-9722203D02*
X14764162Y-9760298D01*
X14764162Y-9760298D02*
X14764162Y-9788870D01*
X14764162Y-9788870D02*
X14754639Y-9826965D01*
X14754639Y-9826965D02*
X14745115Y-9846012D01*
X14745115Y-9846012D02*
X14726067Y-9865060D01*
X14726067Y-9865060D02*
X14697496Y-9874584D01*
X14697496Y-9874584D02*
X14649877Y-9874584D01*
X14849877Y-9874584D02*
X14849877Y-9741250D01*
X14849877Y-9779346D02*
X14859401Y-9760298D01*
X14859401Y-9760298D02*
X14868924Y-9750774D01*
X14868924Y-9750774D02*
X14887972Y-9741250D01*
X14887972Y-9741250D02*
X14907020Y-9741250D01*
X14973686Y-9874584D02*
X14973686Y-9741250D01*
X14973686Y-9674584D02*
X14964162Y-9684108D01*
X14964162Y-9684108D02*
X14973686Y-9693631D01*
X14973686Y-9693631D02*
X14983210Y-9684108D01*
X14983210Y-9684108D02*
X14973686Y-9674584D01*
X14973686Y-9674584D02*
X14973686Y-9693631D01*
X15097496Y-9874584D02*
X15078448Y-9865060D01*
X15078448Y-9865060D02*
X15068924Y-9846012D01*
X15068924Y-9846012D02*
X15068924Y-9674584D01*
X15202258Y-9874584D02*
X15183210Y-9865060D01*
X15183210Y-9865060D02*
X15173686Y-9846012D01*
X15173686Y-9846012D02*
X15173686Y-9674584D01*
X15430829Y-9874584D02*
X15430829Y-9674584D01*
X15430829Y-9674584D02*
X15497496Y-9817441D01*
X15497496Y-9817441D02*
X15564162Y-9674584D01*
X15564162Y-9674584D02*
X15564162Y-9874584D01*
X15745115Y-9874584D02*
X15745115Y-9769822D01*
X15745115Y-9769822D02*
X15735591Y-9750774D01*
X15735591Y-9750774D02*
X15716543Y-9741250D01*
X15716543Y-9741250D02*
X15678448Y-9741250D01*
X15678448Y-9741250D02*
X15659401Y-9750774D01*
X15745115Y-9865060D02*
X15726067Y-9874584D01*
X15726067Y-9874584D02*
X15678448Y-9874584D01*
X15678448Y-9874584D02*
X15659401Y-9865060D01*
X15659401Y-9865060D02*
X15649877Y-9846012D01*
X15649877Y-9846012D02*
X15649877Y-9826965D01*
X15649877Y-9826965D02*
X15659401Y-9807917D01*
X15659401Y-9807917D02*
X15678448Y-9798393D01*
X15678448Y-9798393D02*
X15726067Y-9798393D01*
X15726067Y-9798393D02*
X15745115Y-9788870D01*
X15840353Y-9741250D02*
X15840353Y-9941250D01*
X15840353Y-9750774D02*
X15859401Y-9741250D01*
X15859401Y-9741250D02*
X15897496Y-9741250D01*
X15897496Y-9741250D02*
X15916543Y-9750774D01*
X15916543Y-9750774D02*
X15926067Y-9760298D01*
X15926067Y-9760298D02*
X15935591Y-9779346D01*
X15935591Y-9779346D02*
X15935591Y-9836489D01*
X15935591Y-9836489D02*
X15926067Y-9855536D01*
X15926067Y-9855536D02*
X15916543Y-9865060D01*
X15916543Y-9865060D02*
X15897496Y-9874584D01*
X15897496Y-9874584D02*
X15859401Y-9874584D01*
X15859401Y-9874584D02*
X15840353Y-9865060D01*
X16021305Y-9855536D02*
X16030829Y-9865060D01*
X16030829Y-9865060D02*
X16021305Y-9874584D01*
X16021305Y-9874584D02*
X16011782Y-9865060D01*
X16011782Y-9865060D02*
X16021305Y-9855536D01*
X16021305Y-9855536D02*
X16021305Y-9874584D01*
X16021305Y-9750774D02*
X16030829Y-9760298D01*
X16030829Y-9760298D02*
X16021305Y-9769822D01*
X16021305Y-9769822D02*
X16011782Y-9760298D01*
X16011782Y-9760298D02*
X16021305Y-9750774D01*
X16021305Y-9750774D02*
X16021305Y-9769822D01*
D12*
X14230100Y-10123600D02*
X14389100Y-10282600D01*
X14389100Y-10123600D02*
X14230100Y-10282600D01*
D11*
X14754639Y-10294584D02*
X14640353Y-10294584D01*
X14697496Y-10294584D02*
X14697496Y-10094584D01*
X14697496Y-10094584D02*
X14678448Y-10123155D01*
X14678448Y-10123155D02*
X14659401Y-10142203D01*
X14659401Y-10142203D02*
X14640353Y-10151727D01*
X14840353Y-10275536D02*
X14849877Y-10285060D01*
X14849877Y-10285060D02*
X14840353Y-10294584D01*
X14840353Y-10294584D02*
X14830829Y-10285060D01*
X14830829Y-10285060D02*
X14840353Y-10275536D01*
X14840353Y-10275536D02*
X14840353Y-10294584D01*
X15030829Y-10094584D02*
X14935591Y-10094584D01*
X14935591Y-10094584D02*
X14926067Y-10189822D01*
X14926067Y-10189822D02*
X14935591Y-10180298D01*
X14935591Y-10180298D02*
X14954639Y-10170774D01*
X14954639Y-10170774D02*
X15002258Y-10170774D01*
X15002258Y-10170774D02*
X15021305Y-10180298D01*
X15021305Y-10180298D02*
X15030829Y-10189822D01*
X15030829Y-10189822D02*
X15040353Y-10208870D01*
X15040353Y-10208870D02*
X15040353Y-10256489D01*
X15040353Y-10256489D02*
X15030829Y-10275536D01*
X15030829Y-10275536D02*
X15021305Y-10285060D01*
X15021305Y-10285060D02*
X15002258Y-10294584D01*
X15002258Y-10294584D02*
X14954639Y-10294584D01*
X14954639Y-10294584D02*
X14935591Y-10285060D01*
X14935591Y-10285060D02*
X14926067Y-10275536D01*
X15135591Y-10294584D02*
X15173686Y-10294584D01*
X15173686Y-10294584D02*
X15192734Y-10285060D01*
X15192734Y-10285060D02*
X15202258Y-10275536D01*
X15202258Y-10275536D02*
X15221305Y-10246965D01*
X15221305Y-10246965D02*
X15230829Y-10208870D01*
X15230829Y-10208870D02*
X15230829Y-10132679D01*
X15230829Y-10132679D02*
X15221305Y-10113631D01*
X15221305Y-10113631D02*
X15211782Y-10104108D01*
X15211782Y-10104108D02*
X15192734Y-10094584D01*
X15192734Y-10094584D02*
X15154639Y-10094584D01*
X15154639Y-10094584D02*
X15135591Y-10104108D01*
X15135591Y-10104108D02*
X15126067Y-10113631D01*
X15126067Y-10113631D02*
X15116543Y-10132679D01*
X15116543Y-10132679D02*
X15116543Y-10180298D01*
X15116543Y-10180298D02*
X15126067Y-10199346D01*
X15126067Y-10199346D02*
X15135591Y-10208870D01*
X15135591Y-10208870D02*
X15154639Y-10218393D01*
X15154639Y-10218393D02*
X15192734Y-10218393D01*
X15192734Y-10218393D02*
X15211782Y-10208870D01*
X15211782Y-10208870D02*
X15221305Y-10199346D01*
X15221305Y-10199346D02*
X15230829Y-10180298D01*
X15354639Y-10094584D02*
X15373686Y-10094584D01*
X15373686Y-10094584D02*
X15392734Y-10104108D01*
X15392734Y-10104108D02*
X15402258Y-10113631D01*
X15402258Y-10113631D02*
X15411782Y-10132679D01*
X15411782Y-10132679D02*
X15421305Y-10170774D01*
X15421305Y-10170774D02*
X15421305Y-10218393D01*
X15421305Y-10218393D02*
X15411782Y-10256489D01*
X15411782Y-10256489D02*
X15402258Y-10275536D01*
X15402258Y-10275536D02*
X15392734Y-10285060D01*
X15392734Y-10285060D02*
X15373686Y-10294584D01*
X15373686Y-10294584D02*
X15354639Y-10294584D01*
X15354639Y-10294584D02*
X15335591Y-10285060D01*
X15335591Y-10285060D02*
X15326067Y-10275536D01*
X15326067Y-10275536D02*
X15316543Y-10256489D01*
X15316543Y-10256489D02*
X15307020Y-10218393D01*
X15307020Y-10218393D02*
X15307020Y-10170774D01*
X15307020Y-10170774D02*
X15316543Y-10132679D01*
X15316543Y-10132679D02*
X15326067Y-10113631D01*
X15326067Y-10113631D02*
X15335591Y-10104108D01*
X15335591Y-10104108D02*
X15354639Y-10094584D01*
X15507020Y-10294584D02*
X15507020Y-10161250D01*
X15507020Y-10180298D02*
X15516543Y-10170774D01*
X15516543Y-10170774D02*
X15535591Y-10161250D01*
X15535591Y-10161250D02*
X15564163Y-10161250D01*
X15564163Y-10161250D02*
X15583210Y-10170774D01*
X15583210Y-10170774D02*
X15592734Y-10189822D01*
X15592734Y-10189822D02*
X15592734Y-10294584D01*
X15592734Y-10189822D02*
X15602258Y-10170774D01*
X15602258Y-10170774D02*
X15621305Y-10161250D01*
X15621305Y-10161250D02*
X15649877Y-10161250D01*
X15649877Y-10161250D02*
X15668924Y-10170774D01*
X15668924Y-10170774D02*
X15678448Y-10189822D01*
X15678448Y-10189822D02*
X15678448Y-10294584D01*
X15773686Y-10294584D02*
X15773686Y-10161250D01*
X15773686Y-10180298D02*
X15783210Y-10170774D01*
X15783210Y-10170774D02*
X15802258Y-10161250D01*
X15802258Y-10161250D02*
X15830829Y-10161250D01*
X15830829Y-10161250D02*
X15849877Y-10170774D01*
X15849877Y-10170774D02*
X15859401Y-10189822D01*
X15859401Y-10189822D02*
X15859401Y-10294584D01*
X15859401Y-10189822D02*
X15868924Y-10170774D01*
X15868924Y-10170774D02*
X15887972Y-10161250D01*
X15887972Y-10161250D02*
X15916543Y-10161250D01*
X15916543Y-10161250D02*
X15935591Y-10170774D01*
X15935591Y-10170774D02*
X15945115Y-10189822D01*
X15945115Y-10189822D02*
X15945115Y-10294584D01*
X16335591Y-10085060D02*
X16164163Y-10342203D01*
X16592734Y-10094584D02*
X16611782Y-10094584D01*
X16611782Y-10094584D02*
X16630829Y-10104108D01*
X16630829Y-10104108D02*
X16640353Y-10113631D01*
X16640353Y-10113631D02*
X16649877Y-10132679D01*
X16649877Y-10132679D02*
X16659401Y-10170774D01*
X16659401Y-10170774D02*
X16659401Y-10218393D01*
X16659401Y-10218393D02*
X16649877Y-10256489D01*
X16649877Y-10256489D02*
X16640353Y-10275536D01*
X16640353Y-10275536D02*
X16630829Y-10285060D01*
X16630829Y-10285060D02*
X16611782Y-10294584D01*
X16611782Y-10294584D02*
X16592734Y-10294584D01*
X16592734Y-10294584D02*
X16573686Y-10285060D01*
X16573686Y-10285060D02*
X16564163Y-10275536D01*
X16564163Y-10275536D02*
X16554639Y-10256489D01*
X16554639Y-10256489D02*
X16545115Y-10218393D01*
X16545115Y-10218393D02*
X16545115Y-10170774D01*
X16545115Y-10170774D02*
X16554639Y-10132679D01*
X16554639Y-10132679D02*
X16564163Y-10113631D01*
X16564163Y-10113631D02*
X16573686Y-10104108D01*
X16573686Y-10104108D02*
X16592734Y-10094584D01*
X16745115Y-10275536D02*
X16754639Y-10285060D01*
X16754639Y-10285060D02*
X16745115Y-10294584D01*
X16745115Y-10294584D02*
X16735591Y-10285060D01*
X16735591Y-10285060D02*
X16745115Y-10275536D01*
X16745115Y-10275536D02*
X16745115Y-10294584D01*
X16878448Y-10094584D02*
X16897496Y-10094584D01*
X16897496Y-10094584D02*
X16916544Y-10104108D01*
X16916544Y-10104108D02*
X16926068Y-10113631D01*
X16926068Y-10113631D02*
X16935591Y-10132679D01*
X16935591Y-10132679D02*
X16945115Y-10170774D01*
X16945115Y-10170774D02*
X16945115Y-10218393D01*
X16945115Y-10218393D02*
X16935591Y-10256489D01*
X16935591Y-10256489D02*
X16926068Y-10275536D01*
X16926068Y-10275536D02*
X16916544Y-10285060D01*
X16916544Y-10285060D02*
X16897496Y-10294584D01*
X16897496Y-10294584D02*
X16878448Y-10294584D01*
X16878448Y-10294584D02*
X16859401Y-10285060D01*
X16859401Y-10285060D02*
X16849877Y-10275536D01*
X16849877Y-10275536D02*
X16840353Y-10256489D01*
X16840353Y-10256489D02*
X16830829Y-10218393D01*
X16830829Y-10218393D02*
X16830829Y-10170774D01*
X16830829Y-10170774D02*
X16840353Y-10132679D01*
X16840353Y-10132679D02*
X16849877Y-10113631D01*
X16849877Y-10113631D02*
X16859401Y-10104108D01*
X16859401Y-10104108D02*
X16878448Y-10094584D01*
X17116544Y-10094584D02*
X17078448Y-10094584D01*
X17078448Y-10094584D02*
X17059401Y-10104108D01*
X17059401Y-10104108D02*
X17049877Y-10113631D01*
X17049877Y-10113631D02*
X17030829Y-10142203D01*
X17030829Y-10142203D02*
X17021306Y-10180298D01*
X17021306Y-10180298D02*
X17021306Y-10256489D01*
X17021306Y-10256489D02*
X17030829Y-10275536D01*
X17030829Y-10275536D02*
X17040353Y-10285060D01*
X17040353Y-10285060D02*
X17059401Y-10294584D01*
X17059401Y-10294584D02*
X17097496Y-10294584D01*
X17097496Y-10294584D02*
X17116544Y-10285060D01*
X17116544Y-10285060D02*
X17126068Y-10275536D01*
X17126068Y-10275536D02*
X17135591Y-10256489D01*
X17135591Y-10256489D02*
X17135591Y-10208870D01*
X17135591Y-10208870D02*
X17126068Y-10189822D01*
X17126068Y-10189822D02*
X17116544Y-10180298D01*
X17116544Y-10180298D02*
X17097496Y-10170774D01*
X17097496Y-10170774D02*
X17059401Y-10170774D01*
X17059401Y-10170774D02*
X17040353Y-10180298D01*
X17040353Y-10180298D02*
X17030829Y-10189822D01*
X17030829Y-10189822D02*
X17021306Y-10208870D01*
X17211782Y-10113631D02*
X17221306Y-10104108D01*
X17221306Y-10104108D02*
X17240353Y-10094584D01*
X17240353Y-10094584D02*
X17287972Y-10094584D01*
X17287972Y-10094584D02*
X17307020Y-10104108D01*
X17307020Y-10104108D02*
X17316544Y-10113631D01*
X17316544Y-10113631D02*
X17326068Y-10132679D01*
X17326068Y-10132679D02*
X17326068Y-10151727D01*
X17326068Y-10151727D02*
X17316544Y-10180298D01*
X17316544Y-10180298D02*
X17202258Y-10294584D01*
X17202258Y-10294584D02*
X17326068Y-10294584D01*
X17497496Y-10094584D02*
X17459401Y-10094584D01*
X17459401Y-10094584D02*
X17440353Y-10104108D01*
X17440353Y-10104108D02*
X17430829Y-10113631D01*
X17430829Y-10113631D02*
X17411782Y-10142203D01*
X17411782Y-10142203D02*
X17402258Y-10180298D01*
X17402258Y-10180298D02*
X17402258Y-10256489D01*
X17402258Y-10256489D02*
X17411782Y-10275536D01*
X17411782Y-10275536D02*
X17421306Y-10285060D01*
X17421306Y-10285060D02*
X17440353Y-10294584D01*
X17440353Y-10294584D02*
X17478449Y-10294584D01*
X17478449Y-10294584D02*
X17497496Y-10285060D01*
X17497496Y-10285060D02*
X17507020Y-10275536D01*
X17507020Y-10275536D02*
X17516544Y-10256489D01*
X17516544Y-10256489D02*
X17516544Y-10208870D01*
X17516544Y-10208870D02*
X17507020Y-10189822D01*
X17507020Y-10189822D02*
X17497496Y-10180298D01*
X17497496Y-10180298D02*
X17478449Y-10170774D01*
X17478449Y-10170774D02*
X17440353Y-10170774D01*
X17440353Y-10170774D02*
X17421306Y-10180298D01*
X17421306Y-10180298D02*
X17411782Y-10189822D01*
X17411782Y-10189822D02*
X17402258Y-10208870D01*
X17592734Y-10094584D02*
X17592734Y-10132679D01*
X17668925Y-10094584D02*
X17668925Y-10132679D01*
X17964163Y-10370774D02*
X17954639Y-10361250D01*
X17954639Y-10361250D02*
X17935591Y-10332679D01*
X17935591Y-10332679D02*
X17926068Y-10313631D01*
X17926068Y-10313631D02*
X17916544Y-10285060D01*
X17916544Y-10285060D02*
X17907020Y-10237441D01*
X17907020Y-10237441D02*
X17907020Y-10199346D01*
X17907020Y-10199346D02*
X17916544Y-10151727D01*
X17916544Y-10151727D02*
X17926068Y-10123155D01*
X17926068Y-10123155D02*
X17935591Y-10104108D01*
X17935591Y-10104108D02*
X17954639Y-10075536D01*
X17954639Y-10075536D02*
X17964163Y-10066012D01*
X18030830Y-10113631D02*
X18040353Y-10104108D01*
X18040353Y-10104108D02*
X18059401Y-10094584D01*
X18059401Y-10094584D02*
X18107020Y-10094584D01*
X18107020Y-10094584D02*
X18126068Y-10104108D01*
X18126068Y-10104108D02*
X18135591Y-10113631D01*
X18135591Y-10113631D02*
X18145115Y-10132679D01*
X18145115Y-10132679D02*
X18145115Y-10151727D01*
X18145115Y-10151727D02*
X18135591Y-10180298D01*
X18135591Y-10180298D02*
X18021306Y-10294584D01*
X18021306Y-10294584D02*
X18145115Y-10294584D01*
X18383211Y-10294584D02*
X18383211Y-10094584D01*
X18468925Y-10294584D02*
X18468925Y-10189822D01*
X18468925Y-10189822D02*
X18459401Y-10170774D01*
X18459401Y-10170774D02*
X18440353Y-10161250D01*
X18440353Y-10161250D02*
X18411782Y-10161250D01*
X18411782Y-10161250D02*
X18392734Y-10170774D01*
X18392734Y-10170774D02*
X18383211Y-10180298D01*
X18592734Y-10294584D02*
X18573687Y-10285060D01*
X18573687Y-10285060D02*
X18564163Y-10275536D01*
X18564163Y-10275536D02*
X18554639Y-10256489D01*
X18554639Y-10256489D02*
X18554639Y-10199346D01*
X18554639Y-10199346D02*
X18564163Y-10180298D01*
X18564163Y-10180298D02*
X18573687Y-10170774D01*
X18573687Y-10170774D02*
X18592734Y-10161250D01*
X18592734Y-10161250D02*
X18621306Y-10161250D01*
X18621306Y-10161250D02*
X18640353Y-10170774D01*
X18640353Y-10170774D02*
X18649877Y-10180298D01*
X18649877Y-10180298D02*
X18659401Y-10199346D01*
X18659401Y-10199346D02*
X18659401Y-10256489D01*
X18659401Y-10256489D02*
X18649877Y-10275536D01*
X18649877Y-10275536D02*
X18640353Y-10285060D01*
X18640353Y-10285060D02*
X18621306Y-10294584D01*
X18621306Y-10294584D02*
X18592734Y-10294584D01*
X18773687Y-10294584D02*
X18754639Y-10285060D01*
X18754639Y-10285060D02*
X18745115Y-10266012D01*
X18745115Y-10266012D02*
X18745115Y-10094584D01*
X18926068Y-10285060D02*
X18907020Y-10294584D01*
X18907020Y-10294584D02*
X18868925Y-10294584D01*
X18868925Y-10294584D02*
X18849877Y-10285060D01*
X18849877Y-10285060D02*
X18840353Y-10266012D01*
X18840353Y-10266012D02*
X18840353Y-10189822D01*
X18840353Y-10189822D02*
X18849877Y-10170774D01*
X18849877Y-10170774D02*
X18868925Y-10161250D01*
X18868925Y-10161250D02*
X18907020Y-10161250D01*
X18907020Y-10161250D02*
X18926068Y-10170774D01*
X18926068Y-10170774D02*
X18935592Y-10189822D01*
X18935592Y-10189822D02*
X18935592Y-10208870D01*
X18935592Y-10208870D02*
X18840353Y-10227917D01*
X19011782Y-10285060D02*
X19030830Y-10294584D01*
X19030830Y-10294584D02*
X19068925Y-10294584D01*
X19068925Y-10294584D02*
X19087973Y-10285060D01*
X19087973Y-10285060D02*
X19097496Y-10266012D01*
X19097496Y-10266012D02*
X19097496Y-10256489D01*
X19097496Y-10256489D02*
X19087973Y-10237441D01*
X19087973Y-10237441D02*
X19068925Y-10227917D01*
X19068925Y-10227917D02*
X19040353Y-10227917D01*
X19040353Y-10227917D02*
X19021306Y-10218393D01*
X19021306Y-10218393D02*
X19011782Y-10199346D01*
X19011782Y-10199346D02*
X19011782Y-10189822D01*
X19011782Y-10189822D02*
X19021306Y-10170774D01*
X19021306Y-10170774D02*
X19040353Y-10161250D01*
X19040353Y-10161250D02*
X19068925Y-10161250D01*
X19068925Y-10161250D02*
X19087973Y-10170774D01*
X19164163Y-10370774D02*
X19173687Y-10361250D01*
X19173687Y-10361250D02*
X19192734Y-10332679D01*
X19192734Y-10332679D02*
X19202258Y-10313631D01*
X19202258Y-10313631D02*
X19211782Y-10285060D01*
X19211782Y-10285060D02*
X19221306Y-10237441D01*
X19221306Y-10237441D02*
X19221306Y-10199346D01*
X19221306Y-10199346D02*
X19211782Y-10151727D01*
X19211782Y-10151727D02*
X19202258Y-10123155D01*
X19202258Y-10123155D02*
X19192734Y-10104108D01*
X19192734Y-10104108D02*
X19173687Y-10075536D01*
X19173687Y-10075536D02*
X19164163Y-10066012D01*
X19526068Y-10370774D02*
X19516544Y-10361250D01*
X19516544Y-10361250D02*
X19497496Y-10332679D01*
X19497496Y-10332679D02*
X19487973Y-10313631D01*
X19487973Y-10313631D02*
X19478449Y-10285060D01*
X19478449Y-10285060D02*
X19468925Y-10237441D01*
X19468925Y-10237441D02*
X19468925Y-10199346D01*
X19468925Y-10199346D02*
X19478449Y-10151727D01*
X19478449Y-10151727D02*
X19487973Y-10123155D01*
X19487973Y-10123155D02*
X19497496Y-10104108D01*
X19497496Y-10104108D02*
X19516544Y-10075536D01*
X19516544Y-10075536D02*
X19526068Y-10066012D01*
X19602258Y-10161250D02*
X19602258Y-10294584D01*
X19602258Y-10180298D02*
X19611782Y-10170774D01*
X19611782Y-10170774D02*
X19630830Y-10161250D01*
X19630830Y-10161250D02*
X19659401Y-10161250D01*
X19659401Y-10161250D02*
X19678449Y-10170774D01*
X19678449Y-10170774D02*
X19687973Y-10189822D01*
X19687973Y-10189822D02*
X19687973Y-10294584D01*
X19811782Y-10294584D02*
X19792734Y-10285060D01*
X19792734Y-10285060D02*
X19783211Y-10275536D01*
X19783211Y-10275536D02*
X19773687Y-10256489D01*
X19773687Y-10256489D02*
X19773687Y-10199346D01*
X19773687Y-10199346D02*
X19783211Y-10180298D01*
X19783211Y-10180298D02*
X19792734Y-10170774D01*
X19792734Y-10170774D02*
X19811782Y-10161250D01*
X19811782Y-10161250D02*
X19840354Y-10161250D01*
X19840354Y-10161250D02*
X19859401Y-10170774D01*
X19859401Y-10170774D02*
X19868925Y-10180298D01*
X19868925Y-10180298D02*
X19878449Y-10199346D01*
X19878449Y-10199346D02*
X19878449Y-10256489D01*
X19878449Y-10256489D02*
X19868925Y-10275536D01*
X19868925Y-10275536D02*
X19859401Y-10285060D01*
X19859401Y-10285060D02*
X19840354Y-10294584D01*
X19840354Y-10294584D02*
X19811782Y-10294584D01*
X19935592Y-10161250D02*
X20011782Y-10161250D01*
X19964163Y-10094584D02*
X19964163Y-10266012D01*
X19964163Y-10266012D02*
X19973687Y-10285060D01*
X19973687Y-10285060D02*
X19992734Y-10294584D01*
X19992734Y-10294584D02*
X20011782Y-10294584D01*
X20230830Y-10161250D02*
X20230830Y-10361250D01*
X20230830Y-10170774D02*
X20249877Y-10161250D01*
X20249877Y-10161250D02*
X20287973Y-10161250D01*
X20287973Y-10161250D02*
X20307020Y-10170774D01*
X20307020Y-10170774D02*
X20316544Y-10180298D01*
X20316544Y-10180298D02*
X20326068Y-10199346D01*
X20326068Y-10199346D02*
X20326068Y-10256489D01*
X20326068Y-10256489D02*
X20316544Y-10275536D01*
X20316544Y-10275536D02*
X20307020Y-10285060D01*
X20307020Y-10285060D02*
X20287973Y-10294584D01*
X20287973Y-10294584D02*
X20249877Y-10294584D01*
X20249877Y-10294584D02*
X20230830Y-10285060D01*
X20440354Y-10294584D02*
X20421306Y-10285060D01*
X20421306Y-10285060D02*
X20411782Y-10266012D01*
X20411782Y-10266012D02*
X20411782Y-10094584D01*
X20602258Y-10294584D02*
X20602258Y-10189822D01*
X20602258Y-10189822D02*
X20592735Y-10170774D01*
X20592735Y-10170774D02*
X20573687Y-10161250D01*
X20573687Y-10161250D02*
X20535592Y-10161250D01*
X20535592Y-10161250D02*
X20516544Y-10170774D01*
X20602258Y-10285060D02*
X20583211Y-10294584D01*
X20583211Y-10294584D02*
X20535592Y-10294584D01*
X20535592Y-10294584D02*
X20516544Y-10285060D01*
X20516544Y-10285060D02*
X20507020Y-10266012D01*
X20507020Y-10266012D02*
X20507020Y-10246965D01*
X20507020Y-10246965D02*
X20516544Y-10227917D01*
X20516544Y-10227917D02*
X20535592Y-10218393D01*
X20535592Y-10218393D02*
X20583211Y-10218393D01*
X20583211Y-10218393D02*
X20602258Y-10208870D01*
X20668925Y-10161250D02*
X20745115Y-10161250D01*
X20697496Y-10094584D02*
X20697496Y-10266012D01*
X20697496Y-10266012D02*
X20707020Y-10285060D01*
X20707020Y-10285060D02*
X20726068Y-10294584D01*
X20726068Y-10294584D02*
X20745115Y-10294584D01*
X20887973Y-10285060D02*
X20868925Y-10294584D01*
X20868925Y-10294584D02*
X20830830Y-10294584D01*
X20830830Y-10294584D02*
X20811782Y-10285060D01*
X20811782Y-10285060D02*
X20802258Y-10266012D01*
X20802258Y-10266012D02*
X20802258Y-10189822D01*
X20802258Y-10189822D02*
X20811782Y-10170774D01*
X20811782Y-10170774D02*
X20830830Y-10161250D01*
X20830830Y-10161250D02*
X20868925Y-10161250D01*
X20868925Y-10161250D02*
X20887973Y-10170774D01*
X20887973Y-10170774D02*
X20897496Y-10189822D01*
X20897496Y-10189822D02*
X20897496Y-10208870D01*
X20897496Y-10208870D02*
X20802258Y-10227917D01*
X21068925Y-10294584D02*
X21068925Y-10094584D01*
X21068925Y-10285060D02*
X21049877Y-10294584D01*
X21049877Y-10294584D02*
X21011782Y-10294584D01*
X21011782Y-10294584D02*
X20992735Y-10285060D01*
X20992735Y-10285060D02*
X20983211Y-10275536D01*
X20983211Y-10275536D02*
X20973687Y-10256489D01*
X20973687Y-10256489D02*
X20973687Y-10199346D01*
X20973687Y-10199346D02*
X20983211Y-10180298D01*
X20983211Y-10180298D02*
X20992735Y-10170774D01*
X20992735Y-10170774D02*
X21011782Y-10161250D01*
X21011782Y-10161250D02*
X21049877Y-10161250D01*
X21049877Y-10161250D02*
X21068925Y-10170774D01*
X21145116Y-10370774D02*
X21154639Y-10361250D01*
X21154639Y-10361250D02*
X21173687Y-10332679D01*
X21173687Y-10332679D02*
X21183211Y-10313631D01*
X21183211Y-10313631D02*
X21192735Y-10285060D01*
X21192735Y-10285060D02*
X21202258Y-10237441D01*
X21202258Y-10237441D02*
X21202258Y-10199346D01*
X21202258Y-10199346D02*
X21192735Y-10151727D01*
X21192735Y-10151727D02*
X21183211Y-10123155D01*
X21183211Y-10123155D02*
X21173687Y-10104108D01*
X21173687Y-10104108D02*
X21154639Y-10075536D01*
X21154639Y-10075536D02*
X21145116Y-10066012D01*
M02*
