G04 Layer: BottomSilkscreenLayer*
G04 EasyEDA v6.5.25, 2024-03-23 21:11:36*
**********************************至少这一行要换成自己的************************************
G04 Gerber Generator version 0.2*
G04 Scale: 100 percent, Rotated: No, Reflected: No *
G04 Dimensions in millimeters  *
G04 leading zeros omitted , absolute positions ,3 integer and 6 decimal *
%TF.GenerationSoftware,KiCad,Pcbnew,7.0.9*%
%TF.CreationDate,2024-03-23T01:13:53+08:00*%
%TF.ProjectId,8643____,38363433-4bd5-4a5e-932e-6b696361645f,rev?*%
%TF.SameCoordinates,Original*%
%TF.FileFunction,Copper,L2,Inr*%
%TF.FilePolarity,Positive*%
%FSLAX46Y46*%
G04 Gerber Fmt 4.6, Leading zero omitted, Abs format (unit mm)*
G04 Created by KiCad (PCBNEW 7.0.9) date 2024-03-23 01:13:53*
%MOMM*%
%LPD*%
G01*
G04 APERTURE LIST*
%TA.AperFunction,ComponentPad*%
%ADD10C,1.358000*%
%TD*%
%TA.AperFunction,ViaPad*%
%ADD11C,0.350000*%
%TD*%
%TA.AperFunction,Conductor*%
%ADD12C,0.101600*%
%TD*%
G04 APERTURE END LIST*
D10*
%TO.N,GND*%
%TO.C,J1*%
X167998000Y-86904000D03*
X167998000Y-69104000D03*
X171498000Y-86904000D03*
X171498000Y-69104000D03*
X173606400Y-86904000D03*
X174498000Y-69104000D03*
%TD*%
D11*
%TO.N,Net-(J4-Pin_9)*%
X157098000Y-84604000D03*
X151892000Y-94979500D03*
%TO.N,Net-(J4-Pin_8)*%
X157098000Y-83804000D03*
X151892000Y-93248000D03*
%TO.N,Net-(J4-Pin_7)*%
X157098000Y-83004000D03*
X151892000Y-91248000D03*
%TO.N,Net-(J4-Pin_6)*%
X151892000Y-89248000D03*
X157098000Y-82204000D03*
%TO.N,Net-(J4-Pin_5)*%
X157098000Y-81404000D03*
X151892000Y-87248000D03*
%TO.N,Net-(J4-Pin_4)*%
X151892000Y-85248000D03*
X157098000Y-80604000D03*
%TO.N,Net-(J4-Pin_3)*%
X151892000Y-83248000D03*
X157098000Y-79804000D03*
%TO.N,Net-(J4-Pin_2)*%
X151892000Y-81248000D03*
X157098000Y-79004000D03*
%TO.N,Net-(J4-Pin_1)*%
X151892000Y-79248000D03*
X157098000Y-78204000D03*
%TO.N,Net-(J5-Pin_9)*%
X151892000Y-76738000D03*
X157098000Y-77404000D03*
%TO.N,Net-(J5-Pin_8)*%
X151892000Y-74738000D03*
X157098000Y-76604000D03*
%TO.N,Net-(J5-Pin_7)*%
X151892000Y-72738000D03*
X157098000Y-75804000D03*
%TO.N,Net-(J5-Pin_6)*%
X151892000Y-70738000D03*
X157098000Y-75004000D03*
%TO.N,Net-(J5-Pin_5)*%
X151892000Y-68738000D03*
X157098000Y-74204000D03*
%TO.N,Net-(J5-Pin_4)*%
X157098000Y-73404000D03*
X151892000Y-66738000D03*
%TO.N,Net-(J5-Pin_3)*%
X151892000Y-64738000D03*
X157098000Y-72604000D03*
%TO.N,Net-(J5-Pin_2)*%
X157098000Y-71804000D03*
X151892000Y-62738000D03*
%TO.N,Net-(J5-Pin_1)*%
X151892000Y-61028500D03*
X157098000Y-71004000D03*
%TO.N,Net-(J2-Pin_1)*%
X154588000Y-85004000D03*
X147320000Y-94979500D03*
%TO.N,Net-(J2-Pin_2)*%
X147320000Y-93218000D03*
X154588000Y-84204000D03*
%TO.N,Net-(J2-Pin_3)*%
X147320000Y-91218000D03*
X154588000Y-83404000D03*
%TO.N,Net-(J2-Pin_4)*%
X147320000Y-89218000D03*
X154588000Y-82604000D03*
%TO.N,Net-(J2-Pin_5)*%
X147320000Y-87218000D03*
X154588000Y-81804000D03*
%TO.N,Net-(J2-Pin_6)*%
X147320000Y-85218000D03*
X154588000Y-81004000D03*
%TO.N,Net-(J2-Pin_7)*%
X147320000Y-83218000D03*
X154588000Y-80204000D03*
%TO.N,Net-(J2-Pin_8)*%
X147320000Y-81218000D03*
X154588000Y-79404000D03*
%TO.N,Net-(J2-Pin_9)*%
X147320000Y-79218000D03*
X154588000Y-78604000D03*
%TO.N,Net-(J3-Pin_1)*%
X154588000Y-77804000D03*
X147320000Y-76834000D03*
%TO.N,Net-(J3-Pin_2)*%
X154588000Y-77004000D03*
X147320000Y-74834000D03*
%TO.N,Net-(J3-Pin_3)*%
X154588000Y-76204000D03*
X147320000Y-72834000D03*
%TO.N,Net-(J3-Pin_4)*%
X154588000Y-75404000D03*
X147320000Y-70834000D03*
%TO.N,Net-(J3-Pin_5)*%
X147320000Y-68834000D03*
X154588000Y-74604000D03*
%TO.N,Net-(J3-Pin_6)*%
X147320000Y-66834000D03*
X154588000Y-73804000D03*
%TO.N,Net-(J3-Pin_7)*%
X147320000Y-64834000D03*
X154588000Y-73004000D03*
%TO.N,Net-(J3-Pin_8)*%
X154588000Y-72204000D03*
X147320000Y-62834000D03*
%TO.N,Net-(J3-Pin_9)*%
X154588000Y-71404000D03*
X147331437Y-61028500D03*
%TD*%
D12*
%TO.N,Net-(J4-Pin_9)*%
X157098000Y-84604000D02*
X157098000Y-93625400D01*
X157098000Y-93625400D02*
X155743900Y-94979500D01*
X155743900Y-94979500D02*
X151892000Y-94979500D01*
%TO.N,Net-(J4-Pin_8)*%
X156770600Y-83919800D02*
X156770600Y-91920800D01*
X156770600Y-91920800D02*
X155443400Y-93248000D01*
X157098000Y-83804000D02*
X156886400Y-83804000D01*
X155443400Y-93248000D02*
X151892000Y-93248000D01*
X156886400Y-83804000D02*
X156770600Y-83919800D01*
%TO.N,Net-(J4-Pin_7)*%
X156567400Y-83534600D02*
X156567400Y-90092000D01*
X156567400Y-90092000D02*
X155411400Y-91248000D01*
X155411400Y-91248000D02*
X151892000Y-91248000D01*
X157098000Y-83004000D02*
X156567400Y-83534600D01*
%TO.N,Net-(J4-Pin_6)*%
X157098000Y-82204000D02*
X156860800Y-82204000D01*
X156364200Y-82700600D02*
X156364200Y-88136200D01*
X156860800Y-82204000D02*
X156364200Y-82700600D01*
X156364200Y-88136200D02*
X155252400Y-89248000D01*
X155252400Y-89248000D02*
X151892000Y-89248000D01*
%TO.N,Net-(J4-Pin_5)*%
X156161000Y-81811600D02*
X156161000Y-86409000D01*
X155322000Y-87248000D02*
X151892000Y-87248000D01*
X156161000Y-86409000D02*
X155322000Y-87248000D01*
X157098000Y-81404000D02*
X156568600Y-81404000D01*
X156568600Y-81404000D02*
X156161000Y-81811600D01*
%TO.N,Net-(J4-Pin_4)*%
X156327200Y-80604000D02*
X157098000Y-80604000D01*
X155957800Y-84504000D02*
X155957800Y-80973400D01*
X155092400Y-85369400D02*
X155957800Y-84504000D01*
X152013400Y-85369400D02*
X155092400Y-85369400D01*
X155957800Y-80973400D02*
X156327200Y-80604000D01*
X151892000Y-85248000D02*
X152013400Y-85369400D01*
%TO.N,Net-(J4-Pin_3)*%
X151892000Y-83248000D02*
X152063400Y-83076600D01*
X154972200Y-83076600D02*
X155754600Y-82294200D01*
X156111200Y-79804000D02*
X157098000Y-79804000D01*
X155754600Y-80160600D02*
X156111200Y-79804000D01*
X152063400Y-83076600D02*
X154972200Y-83076600D01*
X155754600Y-82294200D02*
X155754600Y-80160600D01*
%TO.N,Net-(J4-Pin_2)*%
X156022200Y-79004000D02*
X157098000Y-79004000D01*
X151892000Y-81248000D02*
X152000200Y-81356200D01*
X155551400Y-80744800D02*
X155551400Y-79474800D01*
X154940000Y-81356200D02*
X155551400Y-80744800D01*
X155551400Y-79474800D02*
X156022200Y-79004000D01*
X152000200Y-81356200D02*
X154940000Y-81356200D01*
%TO.N,Net-(J4-Pin_1)*%
X151892000Y-78892400D02*
X152580400Y-78204000D01*
X152580400Y-78204000D02*
X157098000Y-78204000D01*
X151892000Y-79248000D02*
X151892000Y-78892400D01*
%TO.N,Net-(J5-Pin_9)*%
X152552400Y-77419200D02*
X157082800Y-77419200D01*
X151892000Y-76758800D02*
X152552400Y-77419200D01*
X151892000Y-76738000D02*
X151892000Y-76758800D01*
X157082800Y-77419200D02*
X157098000Y-77404000D01*
%TO.N,Net-(J5-Pin_8)*%
X152211000Y-75057000D02*
X155067000Y-75057000D01*
X156614000Y-76604000D02*
X157098000Y-76604000D01*
X155067000Y-75057000D02*
X156614000Y-76604000D01*
X151892000Y-74738000D02*
X152211000Y-75057000D01*
%TO.N,Net-(J5-Pin_7)*%
X155379000Y-72676600D02*
X155702000Y-72999600D01*
X155702000Y-72999600D02*
X155702000Y-74447400D01*
X151953400Y-72676600D02*
X155379000Y-72676600D01*
X155702000Y-74447400D02*
X157058600Y-75804000D01*
X157058600Y-75804000D02*
X157098000Y-75804000D01*
X151892000Y-72738000D02*
X151953400Y-72676600D01*
%TO.N,Net-(J5-Pin_6)*%
X155905200Y-73811200D02*
X157098000Y-75004000D01*
X155243800Y-70738000D02*
X155905200Y-71399400D01*
X151892000Y-70738000D02*
X155243800Y-70738000D01*
X155905200Y-71399400D02*
X155905200Y-73811200D01*
%TO.N,Net-(J5-Pin_5)*%
X156108400Y-69596000D02*
X156108400Y-73214400D01*
X156108400Y-73214400D02*
X157098000Y-74204000D01*
X151892000Y-68738000D02*
X155250400Y-68738000D01*
X155250400Y-68738000D02*
X156108400Y-69596000D01*
%TO.N,Net-(J5-Pin_4)*%
X155180800Y-66738000D02*
X156311600Y-67868800D01*
X156311600Y-67868800D02*
X156311600Y-72617600D01*
X151892000Y-66738000D02*
X155180800Y-66738000D01*
X156311600Y-72617600D02*
X157098000Y-73404000D01*
%TO.N,Net-(J5-Pin_3)*%
X156567400Y-72073400D02*
X157098000Y-72604000D01*
X151892000Y-64738000D02*
X156127200Y-64738000D01*
X156127200Y-64738000D02*
X156567400Y-65178200D01*
X156567400Y-65178200D02*
X156567400Y-72073400D01*
%TO.N,Net-(J5-Pin_2)*%
X156770600Y-71476600D02*
X156770600Y-63298600D01*
X157098000Y-71804000D02*
X156770600Y-71476600D01*
X156210000Y-62738000D02*
X151892000Y-62738000D01*
X156770600Y-63298600D02*
X156210000Y-62738000D01*
%TO.N,Net-(J5-Pin_1)*%
X151892000Y-61028500D02*
X156278500Y-61028500D01*
X157098000Y-61848000D02*
X157098000Y-71004000D01*
X156278500Y-61028500D02*
X157098000Y-61848000D01*
%TD*%
M02*
