G04 Layer: BottomSilkscreenLayer*
G04 EasyEDA v6.5.25, 2024-03-23 21:11:36*
**********************************至少这一行要换成自己的************************************
G04 Gerber Generator version 0.2*
G04 Scale: 100 percent, Rotated: No, Reflected: No *
G04 Dimensions in millimeters  *
G04 leading zeros omitted , absolute positions ,3 integer and 6 decimal *
%TF.GenerationSoftware,KiCad,Pcbnew,7.0.9*%
%TF.CreationDate,2024-03-23T01:13:53+08:00*%
%TF.ProjectId,8643____,38363433-4bd5-4a5e-932e-6b696361645f,rev?*%
%TF.SameCoordinates,Original*%
%TF.FileFunction,Soldermask,Top*%
%TF.FilePolarity,Negative*%
%FSLAX46Y46*%
G04 Gerber Fmt 4.6, Leading zero omitted, Abs format (unit mm)*
G04 Created by KiCad (PCBNEW 7.0.9) date 2024-03-23 01:13:53*
%MOMM*%
%LPD*%
G01*
G04 APERTURE LIST*
G04 APERTURE END LIST*
G36*
X152053328Y-94541177D02*
G01*
X152206566Y-94594798D01*
X152344030Y-94681172D01*
X152458828Y-94795970D01*
X152545202Y-94933434D01*
X152598823Y-95086672D01*
X152617000Y-95248000D01*
X152598823Y-95409328D01*
X152545202Y-95562566D01*
X152458828Y-95700030D01*
X152344030Y-95814828D01*
X152206566Y-95901202D01*
X152053328Y-95954823D01*
X151892000Y-95973000D01*
X151730672Y-95954823D01*
X151577434Y-95901202D01*
X151439970Y-95814828D01*
X151325172Y-95700030D01*
X151238798Y-95562566D01*
X151185177Y-95409328D01*
X151167000Y-95248000D01*
X151185177Y-95086672D01*
X151238798Y-94933434D01*
X151325172Y-94795970D01*
X151439970Y-94681172D01*
X151577434Y-94594798D01*
X151730672Y-94541177D01*
X151892000Y-94523000D01*
X152053328Y-94541177D01*
G37*
G36*
X148014134Y-94496806D02*
G01*
X148030355Y-94507645D01*
X148041194Y-94523866D01*
X148045000Y-94543000D01*
X148045000Y-95893000D01*
X148041194Y-95912134D01*
X148030355Y-95928355D01*
X148014134Y-95939194D01*
X147995000Y-95943000D01*
X146645000Y-95943000D01*
X146625866Y-95939194D01*
X146609645Y-95928355D01*
X146598806Y-95912134D01*
X146595000Y-95893000D01*
X146595000Y-94543000D01*
X146598806Y-94523866D01*
X146609645Y-94507645D01*
X146625866Y-94496806D01*
X146645000Y-94493000D01*
X147995000Y-94493000D01*
X148014134Y-94496806D01*
G37*
G36*
X152053328Y-92541177D02*
G01*
X152206566Y-92594798D01*
X152344030Y-92681172D01*
X152458828Y-92795970D01*
X152545202Y-92933434D01*
X152598823Y-93086672D01*
X152617000Y-93248000D01*
X152598823Y-93409328D01*
X152545202Y-93562566D01*
X152458828Y-93700030D01*
X152344030Y-93814828D01*
X152206566Y-93901202D01*
X152053328Y-93954823D01*
X151892000Y-93973000D01*
X151730672Y-93954823D01*
X151577434Y-93901202D01*
X151439970Y-93814828D01*
X151325172Y-93700030D01*
X151238798Y-93562566D01*
X151185177Y-93409328D01*
X151167000Y-93248000D01*
X151185177Y-93086672D01*
X151238798Y-92933434D01*
X151325172Y-92795970D01*
X151439970Y-92681172D01*
X151577434Y-92594798D01*
X151730672Y-92541177D01*
X151892000Y-92523000D01*
X152053328Y-92541177D01*
G37*
G36*
X147481328Y-92511177D02*
G01*
X147634566Y-92564798D01*
X147772030Y-92651172D01*
X147886828Y-92765970D01*
X147973202Y-92903434D01*
X148026823Y-93056672D01*
X148045000Y-93218000D01*
X148026823Y-93379328D01*
X147973202Y-93532566D01*
X147886828Y-93670030D01*
X147772030Y-93784828D01*
X147634566Y-93871202D01*
X147481328Y-93924823D01*
X147320000Y-93943000D01*
X147158672Y-93924823D01*
X147005434Y-93871202D01*
X146867970Y-93784828D01*
X146753172Y-93670030D01*
X146666798Y-93532566D01*
X146613177Y-93379328D01*
X146595000Y-93218000D01*
X146613177Y-93056672D01*
X146666798Y-92903434D01*
X146753172Y-92765970D01*
X146867970Y-92651172D01*
X147005434Y-92564798D01*
X147158672Y-92511177D01*
X147320000Y-92493000D01*
X147481328Y-92511177D01*
G37*
G36*
X152053328Y-90541177D02*
G01*
X152206566Y-90594798D01*
X152344030Y-90681172D01*
X152458828Y-90795970D01*
X152545202Y-90933434D01*
X152598823Y-91086672D01*
X152617000Y-91248000D01*
X152598823Y-91409328D01*
X152545202Y-91562566D01*
X152458828Y-91700030D01*
X152344030Y-91814828D01*
X152206566Y-91901202D01*
X152053328Y-91954823D01*
X151892000Y-91973000D01*
X151730672Y-91954823D01*
X151577434Y-91901202D01*
X151439970Y-91814828D01*
X151325172Y-91700030D01*
X151238798Y-91562566D01*
X151185177Y-91409328D01*
X151167000Y-91248000D01*
X151185177Y-91086672D01*
X151238798Y-90933434D01*
X151325172Y-90795970D01*
X151439970Y-90681172D01*
X151577434Y-90594798D01*
X151730672Y-90541177D01*
X151892000Y-90523000D01*
X152053328Y-90541177D01*
G37*
G36*
X147481328Y-90511177D02*
G01*
X147634566Y-90564798D01*
X147772030Y-90651172D01*
X147886828Y-90765970D01*
X147973202Y-90903434D01*
X148026823Y-91056672D01*
X148045000Y-91218000D01*
X148026823Y-91379328D01*
X147973202Y-91532566D01*
X147886828Y-91670030D01*
X147772030Y-91784828D01*
X147634566Y-91871202D01*
X147481328Y-91924823D01*
X147320000Y-91943000D01*
X147158672Y-91924823D01*
X147005434Y-91871202D01*
X146867970Y-91784828D01*
X146753172Y-91670030D01*
X146666798Y-91532566D01*
X146613177Y-91379328D01*
X146595000Y-91218000D01*
X146613177Y-91056672D01*
X146666798Y-90903434D01*
X146753172Y-90765970D01*
X146867970Y-90651172D01*
X147005434Y-90564798D01*
X147158672Y-90511177D01*
X147320000Y-90493000D01*
X147481328Y-90511177D01*
G37*
G36*
X152053328Y-88541177D02*
G01*
X152206566Y-88594798D01*
X152344030Y-88681172D01*
X152458828Y-88795970D01*
X152545202Y-88933434D01*
X152598823Y-89086672D01*
X152617000Y-89248000D01*
X152598823Y-89409328D01*
X152545202Y-89562566D01*
X152458828Y-89700030D01*
X152344030Y-89814828D01*
X152206566Y-89901202D01*
X152053328Y-89954823D01*
X151892000Y-89973000D01*
X151730672Y-89954823D01*
X151577434Y-89901202D01*
X151439970Y-89814828D01*
X151325172Y-89700030D01*
X151238798Y-89562566D01*
X151185177Y-89409328D01*
X151167000Y-89248000D01*
X151185177Y-89086672D01*
X151238798Y-88933434D01*
X151325172Y-88795970D01*
X151439970Y-88681172D01*
X151577434Y-88594798D01*
X151730672Y-88541177D01*
X151892000Y-88523000D01*
X152053328Y-88541177D01*
G37*
G36*
X147481328Y-88511177D02*
G01*
X147634566Y-88564798D01*
X147772030Y-88651172D01*
X147886828Y-88765970D01*
X147973202Y-88903434D01*
X148026823Y-89056672D01*
X148045000Y-89218000D01*
X148026823Y-89379328D01*
X147973202Y-89532566D01*
X147886828Y-89670030D01*
X147772030Y-89784828D01*
X147634566Y-89871202D01*
X147481328Y-89924823D01*
X147320000Y-89943000D01*
X147158672Y-89924823D01*
X147005434Y-89871202D01*
X146867970Y-89784828D01*
X146753172Y-89670030D01*
X146666798Y-89532566D01*
X146613177Y-89379328D01*
X146595000Y-89218000D01*
X146613177Y-89056672D01*
X146666798Y-88903434D01*
X146753172Y-88765970D01*
X146867970Y-88651172D01*
X147005434Y-88564798D01*
X147158672Y-88511177D01*
X147320000Y-88493000D01*
X147481328Y-88511177D01*
G37*
G36*
X152053328Y-86541177D02*
G01*
X152206566Y-86594798D01*
X152344030Y-86681172D01*
X152458828Y-86795970D01*
X152545202Y-86933434D01*
X152598823Y-87086672D01*
X152617000Y-87248000D01*
X152598823Y-87409328D01*
X152545202Y-87562566D01*
X152458828Y-87700030D01*
X152344030Y-87814828D01*
X152206566Y-87901202D01*
X152053328Y-87954823D01*
X151892000Y-87973000D01*
X151730672Y-87954823D01*
X151577434Y-87901202D01*
X151439970Y-87814828D01*
X151325172Y-87700030D01*
X151238798Y-87562566D01*
X151185177Y-87409328D01*
X151167000Y-87248000D01*
X151185177Y-87086672D01*
X151238798Y-86933434D01*
X151325172Y-86795970D01*
X151439970Y-86681172D01*
X151577434Y-86594798D01*
X151730672Y-86541177D01*
X151892000Y-86523000D01*
X152053328Y-86541177D01*
G37*
G36*
X147481328Y-86511177D02*
G01*
X147634566Y-86564798D01*
X147772030Y-86651172D01*
X147886828Y-86765970D01*
X147973202Y-86903434D01*
X148026823Y-87056672D01*
X148045000Y-87218000D01*
X148026823Y-87379328D01*
X147973202Y-87532566D01*
X147886828Y-87670030D01*
X147772030Y-87784828D01*
X147634566Y-87871202D01*
X147481328Y-87924823D01*
X147320000Y-87943000D01*
X147158672Y-87924823D01*
X147005434Y-87871202D01*
X146867970Y-87784828D01*
X146753172Y-87670030D01*
X146666798Y-87532566D01*
X146613177Y-87379328D01*
X146595000Y-87218000D01*
X146613177Y-87056672D01*
X146666798Y-86903434D01*
X146753172Y-86765970D01*
X146867970Y-86651172D01*
X147005434Y-86564798D01*
X147158672Y-86511177D01*
X147320000Y-86493000D01*
X147481328Y-86511177D01*
G37*
G36*
X168038401Y-86127552D02*
G01*
X168079610Y-86127552D01*
X168126094Y-86137432D01*
X168171789Y-86142581D01*
X168205017Y-86154208D01*
X168239257Y-86161486D01*
X168288600Y-86183455D01*
X168336863Y-86200343D01*
X168361984Y-86216127D01*
X168388360Y-86227871D01*
X168437545Y-86263605D01*
X168484946Y-86293390D01*
X168501967Y-86310411D01*
X168520405Y-86323807D01*
X168565985Y-86374429D01*
X168608610Y-86417054D01*
X168618415Y-86432658D01*
X168629620Y-86445103D01*
X168667946Y-86511486D01*
X168701657Y-86565137D01*
X168705864Y-86577162D01*
X168711226Y-86586448D01*
X168738679Y-86670940D01*
X168759419Y-86730211D01*
X168760205Y-86737191D01*
X168761664Y-86741680D01*
X168774892Y-86867540D01*
X168779000Y-86904000D01*
X168774891Y-86940462D01*
X168761664Y-87066319D01*
X168760205Y-87070807D01*
X168759419Y-87077789D01*
X168738674Y-87137072D01*
X168711226Y-87221551D01*
X168705865Y-87230835D01*
X168701657Y-87242863D01*
X168667947Y-87296511D01*
X168629620Y-87362896D01*
X168618417Y-87375338D01*
X168608610Y-87390946D01*
X168565976Y-87433579D01*
X168520405Y-87484192D01*
X168501970Y-87497585D01*
X168484946Y-87514610D01*
X168437534Y-87544400D01*
X168388360Y-87580128D01*
X168361989Y-87591868D01*
X168336863Y-87607657D01*
X168288590Y-87624548D01*
X168239257Y-87646513D01*
X168205023Y-87653789D01*
X168171789Y-87665419D01*
X168126091Y-87670567D01*
X168079610Y-87680448D01*
X168038401Y-87680448D01*
X167998000Y-87685000D01*
X167957599Y-87680448D01*
X167916390Y-87680448D01*
X167869908Y-87670567D01*
X167824211Y-87665419D01*
X167790978Y-87653790D01*
X167756742Y-87646513D01*
X167707405Y-87624546D01*
X167659137Y-87607657D01*
X167634012Y-87591870D01*
X167607639Y-87580128D01*
X167558457Y-87544395D01*
X167511054Y-87514610D01*
X167494031Y-87497587D01*
X167475594Y-87484192D01*
X167430013Y-87433569D01*
X167387390Y-87390946D01*
X167377585Y-87375341D01*
X167366379Y-87362896D01*
X167328040Y-87296491D01*
X167294343Y-87242863D01*
X167290135Y-87230839D01*
X167284773Y-87221551D01*
X167257311Y-87137032D01*
X167236581Y-87077789D01*
X167235794Y-87070812D01*
X167234335Y-87066319D01*
X167221093Y-86940330D01*
X167217000Y-86904000D01*
X167221093Y-86867672D01*
X167234335Y-86741680D01*
X167235795Y-86737186D01*
X167236581Y-86730211D01*
X167257306Y-86670980D01*
X167284773Y-86586448D01*
X167290136Y-86577157D01*
X167294343Y-86565137D01*
X167328033Y-86511519D01*
X167366379Y-86445103D01*
X167377587Y-86432654D01*
X167387390Y-86417054D01*
X167430005Y-86374438D01*
X167475596Y-86323805D01*
X167494037Y-86310406D01*
X167511054Y-86293390D01*
X167558444Y-86263612D01*
X167607636Y-86227873D01*
X167634015Y-86216127D01*
X167659137Y-86200343D01*
X167707396Y-86183456D01*
X167756744Y-86161485D01*
X167790987Y-86154206D01*
X167824211Y-86142581D01*
X167869903Y-86137432D01*
X167916390Y-86127552D01*
X167957599Y-86127552D01*
X167998000Y-86123000D01*
X168038401Y-86127552D01*
G37*
G36*
X171538401Y-86127552D02*
G01*
X171579610Y-86127552D01*
X171626094Y-86137432D01*
X171671789Y-86142581D01*
X171705017Y-86154208D01*
X171739257Y-86161486D01*
X171788600Y-86183455D01*
X171836863Y-86200343D01*
X171861984Y-86216127D01*
X171888360Y-86227871D01*
X171937545Y-86263605D01*
X171984946Y-86293390D01*
X172001967Y-86310411D01*
X172020405Y-86323807D01*
X172065985Y-86374429D01*
X172108610Y-86417054D01*
X172118415Y-86432658D01*
X172129620Y-86445103D01*
X172167946Y-86511486D01*
X172201657Y-86565137D01*
X172205864Y-86577162D01*
X172211226Y-86586448D01*
X172238679Y-86670940D01*
X172259419Y-86730211D01*
X172260205Y-86737191D01*
X172261664Y-86741680D01*
X172274892Y-86867540D01*
X172279000Y-86904000D01*
X172274891Y-86940462D01*
X172261664Y-87066319D01*
X172260205Y-87070807D01*
X172259419Y-87077789D01*
X172238674Y-87137072D01*
X172211226Y-87221551D01*
X172205865Y-87230835D01*
X172201657Y-87242863D01*
X172167947Y-87296511D01*
X172129620Y-87362896D01*
X172118417Y-87375338D01*
X172108610Y-87390946D01*
X172065976Y-87433579D01*
X172020405Y-87484192D01*
X172001970Y-87497585D01*
X171984946Y-87514610D01*
X171937534Y-87544400D01*
X171888360Y-87580128D01*
X171861989Y-87591868D01*
X171836863Y-87607657D01*
X171788590Y-87624548D01*
X171739257Y-87646513D01*
X171705023Y-87653789D01*
X171671789Y-87665419D01*
X171626091Y-87670567D01*
X171579610Y-87680448D01*
X171538401Y-87680448D01*
X171498000Y-87685000D01*
X171457599Y-87680448D01*
X171416390Y-87680448D01*
X171369908Y-87670567D01*
X171324211Y-87665419D01*
X171290978Y-87653790D01*
X171256742Y-87646513D01*
X171207405Y-87624546D01*
X171159137Y-87607657D01*
X171134012Y-87591870D01*
X171107639Y-87580128D01*
X171058457Y-87544395D01*
X171011054Y-87514610D01*
X170994031Y-87497587D01*
X170975594Y-87484192D01*
X170930013Y-87433569D01*
X170887390Y-87390946D01*
X170877585Y-87375341D01*
X170866379Y-87362896D01*
X170828040Y-87296491D01*
X170794343Y-87242863D01*
X170790135Y-87230839D01*
X170784773Y-87221551D01*
X170757311Y-87137032D01*
X170736581Y-87077789D01*
X170735794Y-87070812D01*
X170734335Y-87066319D01*
X170721093Y-86940330D01*
X170717000Y-86904000D01*
X170721093Y-86867672D01*
X170734335Y-86741680D01*
X170735795Y-86737186D01*
X170736581Y-86730211D01*
X170757306Y-86670980D01*
X170784773Y-86586448D01*
X170790136Y-86577157D01*
X170794343Y-86565137D01*
X170828033Y-86511519D01*
X170866379Y-86445103D01*
X170877587Y-86432654D01*
X170887390Y-86417054D01*
X170930005Y-86374438D01*
X170975596Y-86323805D01*
X170994037Y-86310406D01*
X171011054Y-86293390D01*
X171058444Y-86263612D01*
X171107636Y-86227873D01*
X171134015Y-86216127D01*
X171159137Y-86200343D01*
X171207396Y-86183456D01*
X171256744Y-86161485D01*
X171290987Y-86154206D01*
X171324211Y-86142581D01*
X171369903Y-86137432D01*
X171416390Y-86127552D01*
X171457599Y-86127552D01*
X171498000Y-86123000D01*
X171538401Y-86127552D01*
G37*
G36*
X173646801Y-86127552D02*
G01*
X173688010Y-86127552D01*
X173734494Y-86137432D01*
X173780189Y-86142581D01*
X173813417Y-86154208D01*
X173847657Y-86161486D01*
X173897000Y-86183455D01*
X173945263Y-86200343D01*
X173970384Y-86216127D01*
X173996760Y-86227871D01*
X174045945Y-86263605D01*
X174093346Y-86293390D01*
X174110367Y-86310411D01*
X174128805Y-86323807D01*
X174174385Y-86374429D01*
X174217010Y-86417054D01*
X174226815Y-86432658D01*
X174238020Y-86445103D01*
X174276346Y-86511486D01*
X174310057Y-86565137D01*
X174314264Y-86577162D01*
X174319626Y-86586448D01*
X174347079Y-86670940D01*
X174367819Y-86730211D01*
X174368605Y-86737191D01*
X174370064Y-86741680D01*
X174383292Y-86867540D01*
X174387400Y-86904000D01*
X174383291Y-86940462D01*
X174370064Y-87066319D01*
X174368605Y-87070807D01*
X174367819Y-87077789D01*
X174347074Y-87137072D01*
X174319626Y-87221551D01*
X174314265Y-87230835D01*
X174310057Y-87242863D01*
X174276347Y-87296511D01*
X174238020Y-87362896D01*
X174226817Y-87375338D01*
X174217010Y-87390946D01*
X174174376Y-87433579D01*
X174128805Y-87484192D01*
X174110370Y-87497585D01*
X174093346Y-87514610D01*
X174045934Y-87544400D01*
X173996760Y-87580128D01*
X173970389Y-87591868D01*
X173945263Y-87607657D01*
X173896990Y-87624548D01*
X173847657Y-87646513D01*
X173813423Y-87653789D01*
X173780189Y-87665419D01*
X173734491Y-87670567D01*
X173688010Y-87680448D01*
X173646801Y-87680448D01*
X173606400Y-87685000D01*
X173565999Y-87680448D01*
X173524790Y-87680448D01*
X173478308Y-87670567D01*
X173432611Y-87665419D01*
X173399378Y-87653790D01*
X173365142Y-87646513D01*
X173315805Y-87624546D01*
X173267537Y-87607657D01*
X173242412Y-87591870D01*
X173216039Y-87580128D01*
X173166857Y-87544395D01*
X173119454Y-87514610D01*
X173102431Y-87497587D01*
X173083994Y-87484192D01*
X173038413Y-87433569D01*
X172995790Y-87390946D01*
X172985985Y-87375341D01*
X172974779Y-87362896D01*
X172936440Y-87296491D01*
X172902743Y-87242863D01*
X172898535Y-87230839D01*
X172893173Y-87221551D01*
X172865711Y-87137032D01*
X172844981Y-87077789D01*
X172844194Y-87070812D01*
X172842735Y-87066319D01*
X172829493Y-86940330D01*
X172825400Y-86904000D01*
X172829493Y-86867672D01*
X172842735Y-86741680D01*
X172844195Y-86737186D01*
X172844981Y-86730211D01*
X172865706Y-86670980D01*
X172893173Y-86586448D01*
X172898536Y-86577157D01*
X172902743Y-86565137D01*
X172936433Y-86511519D01*
X172974779Y-86445103D01*
X172985987Y-86432654D01*
X172995790Y-86417054D01*
X173038405Y-86374438D01*
X173083996Y-86323805D01*
X173102437Y-86310406D01*
X173119454Y-86293390D01*
X173166844Y-86263612D01*
X173216036Y-86227873D01*
X173242415Y-86216127D01*
X173267537Y-86200343D01*
X173315796Y-86183456D01*
X173365144Y-86161485D01*
X173399387Y-86154206D01*
X173432611Y-86142581D01*
X173478303Y-86137432D01*
X173524790Y-86127552D01*
X173565999Y-86127552D01*
X173606400Y-86123000D01*
X173646801Y-86127552D01*
G37*
G36*
X162539119Y-85200357D02*
G01*
X162700500Y-85272209D01*
X162843415Y-85376043D01*
X162961619Y-85507321D01*
X163049946Y-85660308D01*
X163104535Y-85828315D01*
X163123000Y-86004000D01*
X163104535Y-86179685D01*
X163049946Y-86347692D01*
X162961619Y-86500679D01*
X162843415Y-86631957D01*
X162700500Y-86735791D01*
X162539119Y-86807643D01*
X162366327Y-86844371D01*
X162189673Y-86844371D01*
X162016881Y-86807643D01*
X161855500Y-86735791D01*
X161712585Y-86631957D01*
X161594381Y-86500679D01*
X161506054Y-86347692D01*
X161451465Y-86179685D01*
X161433000Y-86004000D01*
X161451465Y-85828315D01*
X161506054Y-85660308D01*
X161594381Y-85507321D01*
X161712585Y-85376043D01*
X161855500Y-85272209D01*
X162016881Y-85200357D01*
X162189673Y-85163629D01*
X162366327Y-85163629D01*
X162539119Y-85200357D01*
G37*
G36*
X152053328Y-84541177D02*
G01*
X152206566Y-84594798D01*
X152344030Y-84681172D01*
X152458828Y-84795970D01*
X152545202Y-84933434D01*
X152598823Y-85086672D01*
X152617000Y-85248000D01*
X152598823Y-85409328D01*
X152545202Y-85562566D01*
X152458828Y-85700030D01*
X152344030Y-85814828D01*
X152206566Y-85901202D01*
X152053328Y-85954823D01*
X151892000Y-85973000D01*
X151730672Y-85954823D01*
X151577434Y-85901202D01*
X151439970Y-85814828D01*
X151325172Y-85700030D01*
X151238798Y-85562566D01*
X151185177Y-85409328D01*
X151167000Y-85248000D01*
X151185177Y-85086672D01*
X151238798Y-84933434D01*
X151325172Y-84795970D01*
X151439970Y-84681172D01*
X151577434Y-84594798D01*
X151730672Y-84541177D01*
X151892000Y-84523000D01*
X152053328Y-84541177D01*
G37*
G36*
X147481328Y-84511177D02*
G01*
X147634566Y-84564798D01*
X147772030Y-84651172D01*
X147886828Y-84765970D01*
X147973202Y-84903434D01*
X148026823Y-85056672D01*
X148045000Y-85218000D01*
X148026823Y-85379328D01*
X147973202Y-85532566D01*
X147886828Y-85670030D01*
X147772030Y-85784828D01*
X147634566Y-85871202D01*
X147481328Y-85924823D01*
X147320000Y-85943000D01*
X147158672Y-85924823D01*
X147005434Y-85871202D01*
X146867970Y-85784828D01*
X146753172Y-85670030D01*
X146666798Y-85532566D01*
X146613177Y-85379328D01*
X146595000Y-85218000D01*
X146613177Y-85056672D01*
X146666798Y-84903434D01*
X146753172Y-84765970D01*
X146867970Y-84651172D01*
X147005434Y-84564798D01*
X147158672Y-84511177D01*
X147320000Y-84493000D01*
X147481328Y-84511177D01*
G37*
G36*
X155363899Y-84731716D02*
G01*
X155387722Y-84740945D01*
X155407474Y-84744428D01*
X155429423Y-84757100D01*
X155458822Y-84768490D01*
X155475528Y-84783719D01*
X155490556Y-84792396D01*
X155508486Y-84813764D01*
X155534051Y-84837070D01*
X155542822Y-84854685D01*
X155552219Y-84865884D01*
X155562599Y-84894402D01*
X155579426Y-84928195D01*
X155580971Y-84944879D01*
X155585032Y-84956034D01*
X155585032Y-84988697D01*
X155588818Y-85029558D01*
X155585032Y-85042864D01*
X155585032Y-85051965D01*
X155573170Y-85084552D01*
X155560960Y-85127470D01*
X155554377Y-85136186D01*
X155552220Y-85142114D01*
X155529041Y-85169736D01*
X155499614Y-85208705D01*
X155492805Y-85212920D01*
X155490554Y-85215604D01*
X155459726Y-85233402D01*
X155413064Y-85262295D01*
X155408065Y-85263229D01*
X155407474Y-85263571D01*
X155385687Y-85267412D01*
X155313000Y-85281000D01*
X155308628Y-85281000D01*
X153867372Y-85281000D01*
X153863000Y-85281000D01*
X153812101Y-85276284D01*
X153788273Y-85267053D01*
X153768525Y-85263571D01*
X153746578Y-85250899D01*
X153717178Y-85239510D01*
X153700470Y-85224279D01*
X153685443Y-85215603D01*
X153667512Y-85194234D01*
X153641949Y-85170930D01*
X153633177Y-85153314D01*
X153623780Y-85142115D01*
X153613399Y-85113595D01*
X153596574Y-85079805D01*
X153595027Y-85063119D01*
X153590968Y-85051965D01*
X153590968Y-85019302D01*
X153587182Y-84978442D01*
X153590968Y-84965135D01*
X153590968Y-84956034D01*
X153602831Y-84923437D01*
X153615040Y-84880530D01*
X153621620Y-84871816D01*
X153623779Y-84865885D01*
X153646975Y-84838241D01*
X153676386Y-84799295D01*
X153683190Y-84795081D01*
X153685445Y-84792395D01*
X153716311Y-84774573D01*
X153762936Y-84745705D01*
X153767930Y-84744771D01*
X153768525Y-84744428D01*
X153790398Y-84740571D01*
X153863000Y-84727000D01*
X155313000Y-84727000D01*
X155363899Y-84731716D01*
G37*
G36*
X157873899Y-84331716D02*
G01*
X157897722Y-84340945D01*
X157917474Y-84344428D01*
X157939423Y-84357100D01*
X157968822Y-84368490D01*
X157985528Y-84383719D01*
X158000556Y-84392396D01*
X158018486Y-84413764D01*
X158044051Y-84437070D01*
X158052822Y-84454685D01*
X158062219Y-84465884D01*
X158072599Y-84494402D01*
X158089426Y-84528195D01*
X158090971Y-84544879D01*
X158095032Y-84556034D01*
X158095032Y-84588697D01*
X158098818Y-84629558D01*
X158095032Y-84642864D01*
X158095032Y-84651965D01*
X158083170Y-84684552D01*
X158070960Y-84727470D01*
X158064377Y-84736186D01*
X158062220Y-84742114D01*
X158039041Y-84769736D01*
X158009614Y-84808705D01*
X158002805Y-84812920D01*
X158000554Y-84815604D01*
X157969726Y-84833402D01*
X157923064Y-84862295D01*
X157918065Y-84863229D01*
X157917474Y-84863571D01*
X157895687Y-84867412D01*
X157823000Y-84881000D01*
X157818628Y-84881000D01*
X156377372Y-84881000D01*
X156373000Y-84881000D01*
X156322101Y-84876284D01*
X156298273Y-84867053D01*
X156278525Y-84863571D01*
X156256578Y-84850899D01*
X156227178Y-84839510D01*
X156210470Y-84824279D01*
X156195443Y-84815603D01*
X156177512Y-84794234D01*
X156151949Y-84770930D01*
X156143177Y-84753314D01*
X156133780Y-84742115D01*
X156123399Y-84713595D01*
X156106574Y-84679805D01*
X156105027Y-84663119D01*
X156100968Y-84651965D01*
X156100968Y-84619302D01*
X156097182Y-84578442D01*
X156100968Y-84565135D01*
X156100968Y-84556034D01*
X156112831Y-84523437D01*
X156125040Y-84480530D01*
X156131620Y-84471816D01*
X156133779Y-84465885D01*
X156156975Y-84438241D01*
X156186386Y-84399295D01*
X156193190Y-84395081D01*
X156195445Y-84392395D01*
X156226311Y-84374573D01*
X156272936Y-84345705D01*
X156277930Y-84344771D01*
X156278525Y-84344428D01*
X156300398Y-84340571D01*
X156373000Y-84327000D01*
X157823000Y-84327000D01*
X157873899Y-84331716D01*
G37*
G36*
X155363899Y-83931716D02*
G01*
X155387722Y-83940945D01*
X155407474Y-83944428D01*
X155429423Y-83957100D01*
X155458822Y-83968490D01*
X155475528Y-83983719D01*
X155490556Y-83992396D01*
X155508486Y-84013764D01*
X155534051Y-84037070D01*
X155542822Y-84054685D01*
X155552219Y-84065884D01*
X155562599Y-84094402D01*
X155579426Y-84128195D01*
X155580971Y-84144879D01*
X155585032Y-84156034D01*
X155585032Y-84188697D01*
X155588818Y-84229558D01*
X155585032Y-84242864D01*
X155585032Y-84251965D01*
X155573170Y-84284552D01*
X155560960Y-84327470D01*
X155554377Y-84336186D01*
X155552220Y-84342114D01*
X155529041Y-84369736D01*
X155499614Y-84408705D01*
X155492805Y-84412920D01*
X155490554Y-84415604D01*
X155459726Y-84433402D01*
X155413064Y-84462295D01*
X155408065Y-84463229D01*
X155407474Y-84463571D01*
X155385687Y-84467412D01*
X155313000Y-84481000D01*
X155308628Y-84481000D01*
X153867372Y-84481000D01*
X153863000Y-84481000D01*
X153812101Y-84476284D01*
X153788273Y-84467053D01*
X153768525Y-84463571D01*
X153746578Y-84450899D01*
X153717178Y-84439510D01*
X153700470Y-84424279D01*
X153685443Y-84415603D01*
X153667512Y-84394234D01*
X153641949Y-84370930D01*
X153633177Y-84353314D01*
X153623780Y-84342115D01*
X153613399Y-84313595D01*
X153596574Y-84279805D01*
X153595027Y-84263119D01*
X153590968Y-84251965D01*
X153590968Y-84219302D01*
X153587182Y-84178442D01*
X153590968Y-84165135D01*
X153590968Y-84156034D01*
X153602831Y-84123437D01*
X153615040Y-84080530D01*
X153621620Y-84071816D01*
X153623779Y-84065885D01*
X153646975Y-84038241D01*
X153676386Y-83999295D01*
X153683190Y-83995081D01*
X153685445Y-83992395D01*
X153716311Y-83974573D01*
X153762936Y-83945705D01*
X153767930Y-83944771D01*
X153768525Y-83944428D01*
X153790398Y-83940571D01*
X153863000Y-83927000D01*
X155313000Y-83927000D01*
X155363899Y-83931716D01*
G37*
G36*
X157873899Y-83531716D02*
G01*
X157897722Y-83540945D01*
X157917474Y-83544428D01*
X157939423Y-83557100D01*
X157968822Y-83568490D01*
X157985528Y-83583719D01*
X158000556Y-83592396D01*
X158018486Y-83613764D01*
X158044051Y-83637070D01*
X158052822Y-83654685D01*
X158062219Y-83665884D01*
X158072599Y-83694402D01*
X158089426Y-83728195D01*
X158090971Y-83744879D01*
X158095032Y-83756034D01*
X158095032Y-83788697D01*
X158098818Y-83829558D01*
X158095032Y-83842864D01*
X158095032Y-83851965D01*
X158083170Y-83884552D01*
X158070960Y-83927470D01*
X158064377Y-83936186D01*
X158062220Y-83942114D01*
X158039041Y-83969736D01*
X158009614Y-84008705D01*
X158002805Y-84012920D01*
X158000554Y-84015604D01*
X157969726Y-84033402D01*
X157923064Y-84062295D01*
X157918065Y-84063229D01*
X157917474Y-84063571D01*
X157895687Y-84067412D01*
X157823000Y-84081000D01*
X157818628Y-84081000D01*
X156377372Y-84081000D01*
X156373000Y-84081000D01*
X156322101Y-84076284D01*
X156298273Y-84067053D01*
X156278525Y-84063571D01*
X156256578Y-84050899D01*
X156227178Y-84039510D01*
X156210470Y-84024279D01*
X156195443Y-84015603D01*
X156177512Y-83994234D01*
X156151949Y-83970930D01*
X156143177Y-83953314D01*
X156133780Y-83942115D01*
X156123399Y-83913595D01*
X156106574Y-83879805D01*
X156105027Y-83863119D01*
X156100968Y-83851965D01*
X156100968Y-83819302D01*
X156097182Y-83778442D01*
X156100968Y-83765135D01*
X156100968Y-83756034D01*
X156112831Y-83723437D01*
X156125040Y-83680530D01*
X156131620Y-83671816D01*
X156133779Y-83665885D01*
X156156975Y-83638241D01*
X156186386Y-83599295D01*
X156193190Y-83595081D01*
X156195445Y-83592395D01*
X156226311Y-83574573D01*
X156272936Y-83545705D01*
X156277930Y-83544771D01*
X156278525Y-83544428D01*
X156300398Y-83540571D01*
X156373000Y-83527000D01*
X157823000Y-83527000D01*
X157873899Y-83531716D01*
G37*
G36*
X152053328Y-82541177D02*
G01*
X152206566Y-82594798D01*
X152344030Y-82681172D01*
X152458828Y-82795970D01*
X152545202Y-82933434D01*
X152598823Y-83086672D01*
X152617000Y-83248000D01*
X152598823Y-83409328D01*
X152545202Y-83562566D01*
X152458828Y-83700030D01*
X152344030Y-83814828D01*
X152206566Y-83901202D01*
X152053328Y-83954823D01*
X151892000Y-83973000D01*
X151730672Y-83954823D01*
X151577434Y-83901202D01*
X151439970Y-83814828D01*
X151325172Y-83700030D01*
X151238798Y-83562566D01*
X151185177Y-83409328D01*
X151167000Y-83248000D01*
X151185177Y-83086672D01*
X151238798Y-82933434D01*
X151325172Y-82795970D01*
X151439970Y-82681172D01*
X151577434Y-82594798D01*
X151730672Y-82541177D01*
X151892000Y-82523000D01*
X152053328Y-82541177D01*
G37*
G36*
X147481328Y-82511177D02*
G01*
X147634566Y-82564798D01*
X147772030Y-82651172D01*
X147886828Y-82765970D01*
X147973202Y-82903434D01*
X148026823Y-83056672D01*
X148045000Y-83218000D01*
X148026823Y-83379328D01*
X147973202Y-83532566D01*
X147886828Y-83670030D01*
X147772030Y-83784828D01*
X147634566Y-83871202D01*
X147481328Y-83924823D01*
X147320000Y-83943000D01*
X147158672Y-83924823D01*
X147005434Y-83871202D01*
X146867970Y-83784828D01*
X146753172Y-83670030D01*
X146666798Y-83532566D01*
X146613177Y-83379328D01*
X146595000Y-83218000D01*
X146613177Y-83056672D01*
X146666798Y-82903434D01*
X146753172Y-82765970D01*
X146867970Y-82651172D01*
X147005434Y-82564798D01*
X147158672Y-82511177D01*
X147320000Y-82493000D01*
X147481328Y-82511177D01*
G37*
G36*
X155363899Y-83131716D02*
G01*
X155387722Y-83140945D01*
X155407474Y-83144428D01*
X155429423Y-83157100D01*
X155458822Y-83168490D01*
X155475528Y-83183719D01*
X155490556Y-83192396D01*
X155508486Y-83213764D01*
X155534051Y-83237070D01*
X155542822Y-83254685D01*
X155552219Y-83265884D01*
X155562599Y-83294402D01*
X155579426Y-83328195D01*
X155580971Y-83344879D01*
X155585032Y-83356034D01*
X155585032Y-83388697D01*
X155588818Y-83429558D01*
X155585032Y-83442864D01*
X155585032Y-83451965D01*
X155573170Y-83484552D01*
X155560960Y-83527470D01*
X155554377Y-83536186D01*
X155552220Y-83542114D01*
X155529041Y-83569736D01*
X155499614Y-83608705D01*
X155492805Y-83612920D01*
X155490554Y-83615604D01*
X155459726Y-83633402D01*
X155413064Y-83662295D01*
X155408065Y-83663229D01*
X155407474Y-83663571D01*
X155385687Y-83667412D01*
X155313000Y-83681000D01*
X155308628Y-83681000D01*
X153867372Y-83681000D01*
X153863000Y-83681000D01*
X153812101Y-83676284D01*
X153788273Y-83667053D01*
X153768525Y-83663571D01*
X153746578Y-83650899D01*
X153717178Y-83639510D01*
X153700470Y-83624279D01*
X153685443Y-83615603D01*
X153667512Y-83594234D01*
X153641949Y-83570930D01*
X153633177Y-83553314D01*
X153623780Y-83542115D01*
X153613399Y-83513595D01*
X153596574Y-83479805D01*
X153595027Y-83463119D01*
X153590968Y-83451965D01*
X153590968Y-83419302D01*
X153587182Y-83378442D01*
X153590968Y-83365135D01*
X153590968Y-83356034D01*
X153602831Y-83323437D01*
X153615040Y-83280530D01*
X153621620Y-83271816D01*
X153623779Y-83265885D01*
X153646975Y-83238241D01*
X153676386Y-83199295D01*
X153683190Y-83195081D01*
X153685445Y-83192395D01*
X153716311Y-83174573D01*
X153762936Y-83145705D01*
X153767930Y-83144771D01*
X153768525Y-83144428D01*
X153790398Y-83140571D01*
X153863000Y-83127000D01*
X155313000Y-83127000D01*
X155363899Y-83131716D01*
G37*
G36*
X157873899Y-82731716D02*
G01*
X157897722Y-82740945D01*
X157917474Y-82744428D01*
X157939423Y-82757100D01*
X157968822Y-82768490D01*
X157985528Y-82783719D01*
X158000556Y-82792396D01*
X158018486Y-82813764D01*
X158044051Y-82837070D01*
X158052822Y-82854685D01*
X158062219Y-82865884D01*
X158072599Y-82894402D01*
X158089426Y-82928195D01*
X158090971Y-82944879D01*
X158095032Y-82956034D01*
X158095032Y-82988697D01*
X158098818Y-83029558D01*
X158095032Y-83042864D01*
X158095032Y-83051965D01*
X158083170Y-83084552D01*
X158070960Y-83127470D01*
X158064377Y-83136186D01*
X158062220Y-83142114D01*
X158039041Y-83169736D01*
X158009614Y-83208705D01*
X158002805Y-83212920D01*
X158000554Y-83215604D01*
X157969726Y-83233402D01*
X157923064Y-83262295D01*
X157918065Y-83263229D01*
X157917474Y-83263571D01*
X157895687Y-83267412D01*
X157823000Y-83281000D01*
X157818628Y-83281000D01*
X156377372Y-83281000D01*
X156373000Y-83281000D01*
X156322101Y-83276284D01*
X156298273Y-83267053D01*
X156278525Y-83263571D01*
X156256578Y-83250899D01*
X156227178Y-83239510D01*
X156210470Y-83224279D01*
X156195443Y-83215603D01*
X156177512Y-83194234D01*
X156151949Y-83170930D01*
X156143177Y-83153314D01*
X156133780Y-83142115D01*
X156123399Y-83113595D01*
X156106574Y-83079805D01*
X156105027Y-83063119D01*
X156100968Y-83051965D01*
X156100968Y-83019302D01*
X156097182Y-82978442D01*
X156100968Y-82965135D01*
X156100968Y-82956034D01*
X156112831Y-82923437D01*
X156125040Y-82880530D01*
X156131620Y-82871816D01*
X156133779Y-82865885D01*
X156156975Y-82838241D01*
X156186386Y-82799295D01*
X156193190Y-82795081D01*
X156195445Y-82792395D01*
X156226311Y-82774573D01*
X156272936Y-82745705D01*
X156277930Y-82744771D01*
X156278525Y-82744428D01*
X156300398Y-82740571D01*
X156373000Y-82727000D01*
X157823000Y-82727000D01*
X157873899Y-82731716D01*
G37*
G36*
X155363899Y-82331716D02*
G01*
X155387722Y-82340945D01*
X155407474Y-82344428D01*
X155429423Y-82357100D01*
X155458822Y-82368490D01*
X155475528Y-82383719D01*
X155490556Y-82392396D01*
X155508486Y-82413764D01*
X155534051Y-82437070D01*
X155542822Y-82454685D01*
X155552219Y-82465884D01*
X155562599Y-82494402D01*
X155579426Y-82528195D01*
X155580971Y-82544879D01*
X155585032Y-82556034D01*
X155585032Y-82588697D01*
X155588818Y-82629558D01*
X155585032Y-82642864D01*
X155585032Y-82651965D01*
X155573170Y-82684552D01*
X155560960Y-82727470D01*
X155554377Y-82736186D01*
X155552220Y-82742114D01*
X155529041Y-82769736D01*
X155499614Y-82808705D01*
X155492805Y-82812920D01*
X155490554Y-82815604D01*
X155459726Y-82833402D01*
X155413064Y-82862295D01*
X155408065Y-82863229D01*
X155407474Y-82863571D01*
X155385687Y-82867412D01*
X155313000Y-82881000D01*
X155308628Y-82881000D01*
X153867372Y-82881000D01*
X153863000Y-82881000D01*
X153812101Y-82876284D01*
X153788273Y-82867053D01*
X153768525Y-82863571D01*
X153746578Y-82850899D01*
X153717178Y-82839510D01*
X153700470Y-82824279D01*
X153685443Y-82815603D01*
X153667512Y-82794234D01*
X153641949Y-82770930D01*
X153633177Y-82753314D01*
X153623780Y-82742115D01*
X153613399Y-82713595D01*
X153596574Y-82679805D01*
X153595027Y-82663119D01*
X153590968Y-82651965D01*
X153590968Y-82619302D01*
X153587182Y-82578442D01*
X153590968Y-82565135D01*
X153590968Y-82556034D01*
X153602831Y-82523437D01*
X153615040Y-82480530D01*
X153621620Y-82471816D01*
X153623779Y-82465885D01*
X153646975Y-82438241D01*
X153676386Y-82399295D01*
X153683190Y-82395081D01*
X153685445Y-82392395D01*
X153716311Y-82374573D01*
X153762936Y-82345705D01*
X153767930Y-82344771D01*
X153768525Y-82344428D01*
X153790398Y-82340571D01*
X153863000Y-82327000D01*
X155313000Y-82327000D01*
X155363899Y-82331716D01*
G37*
G36*
X157873899Y-81931716D02*
G01*
X157897722Y-81940945D01*
X157917474Y-81944428D01*
X157939423Y-81957100D01*
X157968822Y-81968490D01*
X157985528Y-81983719D01*
X158000556Y-81992396D01*
X158018486Y-82013764D01*
X158044051Y-82037070D01*
X158052822Y-82054685D01*
X158062219Y-82065884D01*
X158072599Y-82094402D01*
X158089426Y-82128195D01*
X158090971Y-82144879D01*
X158095032Y-82156034D01*
X158095032Y-82188697D01*
X158098818Y-82229558D01*
X158095032Y-82242864D01*
X158095032Y-82251965D01*
X158083170Y-82284552D01*
X158070960Y-82327470D01*
X158064377Y-82336186D01*
X158062220Y-82342114D01*
X158039041Y-82369736D01*
X158009614Y-82408705D01*
X158002805Y-82412920D01*
X158000554Y-82415604D01*
X157969726Y-82433402D01*
X157923064Y-82462295D01*
X157918065Y-82463229D01*
X157917474Y-82463571D01*
X157895687Y-82467412D01*
X157823000Y-82481000D01*
X157818628Y-82481000D01*
X156377372Y-82481000D01*
X156373000Y-82481000D01*
X156322101Y-82476284D01*
X156298273Y-82467053D01*
X156278525Y-82463571D01*
X156256578Y-82450899D01*
X156227178Y-82439510D01*
X156210470Y-82424279D01*
X156195443Y-82415603D01*
X156177512Y-82394234D01*
X156151949Y-82370930D01*
X156143177Y-82353314D01*
X156133780Y-82342115D01*
X156123399Y-82313595D01*
X156106574Y-82279805D01*
X156105027Y-82263119D01*
X156100968Y-82251965D01*
X156100968Y-82219302D01*
X156097182Y-82178442D01*
X156100968Y-82165135D01*
X156100968Y-82156034D01*
X156112831Y-82123437D01*
X156125040Y-82080530D01*
X156131620Y-82071816D01*
X156133779Y-82065885D01*
X156156975Y-82038241D01*
X156186386Y-81999295D01*
X156193190Y-81995081D01*
X156195445Y-81992395D01*
X156226311Y-81974573D01*
X156272936Y-81945705D01*
X156277930Y-81944771D01*
X156278525Y-81944428D01*
X156300398Y-81940571D01*
X156373000Y-81927000D01*
X157823000Y-81927000D01*
X157873899Y-81931716D01*
G37*
G36*
X155363899Y-81531716D02*
G01*
X155387722Y-81540945D01*
X155407474Y-81544428D01*
X155429423Y-81557100D01*
X155458822Y-81568490D01*
X155475528Y-81583719D01*
X155490556Y-81592396D01*
X155508486Y-81613764D01*
X155534051Y-81637070D01*
X155542822Y-81654685D01*
X155552219Y-81665884D01*
X155562599Y-81694402D01*
X155579426Y-81728195D01*
X155580971Y-81744879D01*
X155585032Y-81756034D01*
X155585032Y-81788697D01*
X155588818Y-81829558D01*
X155585032Y-81842864D01*
X155585032Y-81851965D01*
X155573170Y-81884552D01*
X155560960Y-81927470D01*
X155554377Y-81936186D01*
X155552220Y-81942114D01*
X155529041Y-81969736D01*
X155499614Y-82008705D01*
X155492805Y-82012920D01*
X155490554Y-82015604D01*
X155459726Y-82033402D01*
X155413064Y-82062295D01*
X155408065Y-82063229D01*
X155407474Y-82063571D01*
X155385687Y-82067412D01*
X155313000Y-82081000D01*
X155308628Y-82081000D01*
X153867372Y-82081000D01*
X153863000Y-82081000D01*
X153812101Y-82076284D01*
X153788273Y-82067053D01*
X153768525Y-82063571D01*
X153746578Y-82050899D01*
X153717178Y-82039510D01*
X153700470Y-82024279D01*
X153685443Y-82015603D01*
X153667512Y-81994234D01*
X153641949Y-81970930D01*
X153633177Y-81953314D01*
X153623780Y-81942115D01*
X153613399Y-81913595D01*
X153596574Y-81879805D01*
X153595027Y-81863119D01*
X153590968Y-81851965D01*
X153590968Y-81819302D01*
X153587182Y-81778442D01*
X153590968Y-81765135D01*
X153590968Y-81756034D01*
X153602831Y-81723437D01*
X153615040Y-81680530D01*
X153621620Y-81671816D01*
X153623779Y-81665885D01*
X153646975Y-81638241D01*
X153676386Y-81599295D01*
X153683190Y-81595081D01*
X153685445Y-81592395D01*
X153716311Y-81574573D01*
X153762936Y-81545705D01*
X153767930Y-81544771D01*
X153768525Y-81544428D01*
X153790398Y-81540571D01*
X153863000Y-81527000D01*
X155313000Y-81527000D01*
X155363899Y-81531716D01*
G37*
G36*
X152053328Y-80541177D02*
G01*
X152206566Y-80594798D01*
X152344030Y-80681172D01*
X152458828Y-80795970D01*
X152545202Y-80933434D01*
X152598823Y-81086672D01*
X152617000Y-81248000D01*
X152598823Y-81409328D01*
X152545202Y-81562566D01*
X152458828Y-81700030D01*
X152344030Y-81814828D01*
X152206566Y-81901202D01*
X152053328Y-81954823D01*
X151892000Y-81973000D01*
X151730672Y-81954823D01*
X151577434Y-81901202D01*
X151439970Y-81814828D01*
X151325172Y-81700030D01*
X151238798Y-81562566D01*
X151185177Y-81409328D01*
X151167000Y-81248000D01*
X151185177Y-81086672D01*
X151238798Y-80933434D01*
X151325172Y-80795970D01*
X151439970Y-80681172D01*
X151577434Y-80594798D01*
X151730672Y-80541177D01*
X151892000Y-80523000D01*
X152053328Y-80541177D01*
G37*
G36*
X147481328Y-80511177D02*
G01*
X147634566Y-80564798D01*
X147772030Y-80651172D01*
X147886828Y-80765970D01*
X147973202Y-80903434D01*
X148026823Y-81056672D01*
X148045000Y-81218000D01*
X148026823Y-81379328D01*
X147973202Y-81532566D01*
X147886828Y-81670030D01*
X147772030Y-81784828D01*
X147634566Y-81871202D01*
X147481328Y-81924823D01*
X147320000Y-81943000D01*
X147158672Y-81924823D01*
X147005434Y-81871202D01*
X146867970Y-81784828D01*
X146753172Y-81670030D01*
X146666798Y-81532566D01*
X146613177Y-81379328D01*
X146595000Y-81218000D01*
X146613177Y-81056672D01*
X146666798Y-80903434D01*
X146753172Y-80765970D01*
X146867970Y-80651172D01*
X147005434Y-80564798D01*
X147158672Y-80511177D01*
X147320000Y-80493000D01*
X147481328Y-80511177D01*
G37*
G36*
X157873899Y-81131716D02*
G01*
X157897722Y-81140945D01*
X157917474Y-81144428D01*
X157939423Y-81157100D01*
X157968822Y-81168490D01*
X157985528Y-81183719D01*
X158000556Y-81192396D01*
X158018486Y-81213764D01*
X158044051Y-81237070D01*
X158052822Y-81254685D01*
X158062219Y-81265884D01*
X158072599Y-81294402D01*
X158089426Y-81328195D01*
X158090971Y-81344879D01*
X158095032Y-81356034D01*
X158095032Y-81388697D01*
X158098818Y-81429558D01*
X158095032Y-81442864D01*
X158095032Y-81451965D01*
X158083170Y-81484552D01*
X158070960Y-81527470D01*
X158064377Y-81536186D01*
X158062220Y-81542114D01*
X158039041Y-81569736D01*
X158009614Y-81608705D01*
X158002805Y-81612920D01*
X158000554Y-81615604D01*
X157969726Y-81633402D01*
X157923064Y-81662295D01*
X157918065Y-81663229D01*
X157917474Y-81663571D01*
X157895687Y-81667412D01*
X157823000Y-81681000D01*
X157818628Y-81681000D01*
X156377372Y-81681000D01*
X156373000Y-81681000D01*
X156322101Y-81676284D01*
X156298273Y-81667053D01*
X156278525Y-81663571D01*
X156256578Y-81650899D01*
X156227178Y-81639510D01*
X156210470Y-81624279D01*
X156195443Y-81615603D01*
X156177512Y-81594234D01*
X156151949Y-81570930D01*
X156143177Y-81553314D01*
X156133780Y-81542115D01*
X156123399Y-81513595D01*
X156106574Y-81479805D01*
X156105027Y-81463119D01*
X156100968Y-81451965D01*
X156100968Y-81419302D01*
X156097182Y-81378442D01*
X156100968Y-81365135D01*
X156100968Y-81356034D01*
X156112831Y-81323437D01*
X156125040Y-81280530D01*
X156131620Y-81271816D01*
X156133779Y-81265885D01*
X156156975Y-81238241D01*
X156186386Y-81199295D01*
X156193190Y-81195081D01*
X156195445Y-81192395D01*
X156226311Y-81174573D01*
X156272936Y-81145705D01*
X156277930Y-81144771D01*
X156278525Y-81144428D01*
X156300398Y-81140571D01*
X156373000Y-81127000D01*
X157823000Y-81127000D01*
X157873899Y-81131716D01*
G37*
G36*
X155363899Y-80731716D02*
G01*
X155387722Y-80740945D01*
X155407474Y-80744428D01*
X155429423Y-80757100D01*
X155458822Y-80768490D01*
X155475528Y-80783719D01*
X155490556Y-80792396D01*
X155508486Y-80813764D01*
X155534051Y-80837070D01*
X155542822Y-80854685D01*
X155552219Y-80865884D01*
X155562599Y-80894402D01*
X155579426Y-80928195D01*
X155580971Y-80944879D01*
X155585032Y-80956034D01*
X155585032Y-80988697D01*
X155588818Y-81029558D01*
X155585032Y-81042864D01*
X155585032Y-81051965D01*
X155573170Y-81084552D01*
X155560960Y-81127470D01*
X155554377Y-81136186D01*
X155552220Y-81142114D01*
X155529041Y-81169736D01*
X155499614Y-81208705D01*
X155492805Y-81212920D01*
X155490554Y-81215604D01*
X155459726Y-81233402D01*
X155413064Y-81262295D01*
X155408065Y-81263229D01*
X155407474Y-81263571D01*
X155385687Y-81267412D01*
X155313000Y-81281000D01*
X155308628Y-81281000D01*
X153867372Y-81281000D01*
X153863000Y-81281000D01*
X153812101Y-81276284D01*
X153788273Y-81267053D01*
X153768525Y-81263571D01*
X153746578Y-81250899D01*
X153717178Y-81239510D01*
X153700470Y-81224279D01*
X153685443Y-81215603D01*
X153667512Y-81194234D01*
X153641949Y-81170930D01*
X153633177Y-81153314D01*
X153623780Y-81142115D01*
X153613399Y-81113595D01*
X153596574Y-81079805D01*
X153595027Y-81063119D01*
X153590968Y-81051965D01*
X153590968Y-81019302D01*
X153587182Y-80978442D01*
X153590968Y-80965135D01*
X153590968Y-80956034D01*
X153602831Y-80923437D01*
X153615040Y-80880530D01*
X153621620Y-80871816D01*
X153623779Y-80865885D01*
X153646975Y-80838241D01*
X153676386Y-80799295D01*
X153683190Y-80795081D01*
X153685445Y-80792395D01*
X153716311Y-80774573D01*
X153762936Y-80745705D01*
X153767930Y-80744771D01*
X153768525Y-80744428D01*
X153790398Y-80740571D01*
X153863000Y-80727000D01*
X155313000Y-80727000D01*
X155363899Y-80731716D01*
G37*
G36*
X157873899Y-80331716D02*
G01*
X157897722Y-80340945D01*
X157917474Y-80344428D01*
X157939423Y-80357100D01*
X157968822Y-80368490D01*
X157985528Y-80383719D01*
X158000556Y-80392396D01*
X158018486Y-80413764D01*
X158044051Y-80437070D01*
X158052822Y-80454685D01*
X158062219Y-80465884D01*
X158072599Y-80494402D01*
X158089426Y-80528195D01*
X158090971Y-80544879D01*
X158095032Y-80556034D01*
X158095032Y-80588697D01*
X158098818Y-80629558D01*
X158095032Y-80642864D01*
X158095032Y-80651965D01*
X158083170Y-80684552D01*
X158070960Y-80727470D01*
X158064377Y-80736186D01*
X158062220Y-80742114D01*
X158039041Y-80769736D01*
X158009614Y-80808705D01*
X158002805Y-80812920D01*
X158000554Y-80815604D01*
X157969726Y-80833402D01*
X157923064Y-80862295D01*
X157918065Y-80863229D01*
X157917474Y-80863571D01*
X157895687Y-80867412D01*
X157823000Y-80881000D01*
X157818628Y-80881000D01*
X156377372Y-80881000D01*
X156373000Y-80881000D01*
X156322101Y-80876284D01*
X156298273Y-80867053D01*
X156278525Y-80863571D01*
X156256578Y-80850899D01*
X156227178Y-80839510D01*
X156210470Y-80824279D01*
X156195443Y-80815603D01*
X156177512Y-80794234D01*
X156151949Y-80770930D01*
X156143177Y-80753314D01*
X156133780Y-80742115D01*
X156123399Y-80713595D01*
X156106574Y-80679805D01*
X156105027Y-80663119D01*
X156100968Y-80651965D01*
X156100968Y-80619302D01*
X156097182Y-80578442D01*
X156100968Y-80565135D01*
X156100968Y-80556034D01*
X156112831Y-80523437D01*
X156125040Y-80480530D01*
X156131620Y-80471816D01*
X156133779Y-80465885D01*
X156156975Y-80438241D01*
X156186386Y-80399295D01*
X156193190Y-80395081D01*
X156195445Y-80392395D01*
X156226311Y-80374573D01*
X156272936Y-80345705D01*
X156277930Y-80344771D01*
X156278525Y-80344428D01*
X156300398Y-80340571D01*
X156373000Y-80327000D01*
X157823000Y-80327000D01*
X157873899Y-80331716D01*
G37*
G36*
X155363899Y-79931716D02*
G01*
X155387722Y-79940945D01*
X155407474Y-79944428D01*
X155429423Y-79957100D01*
X155458822Y-79968490D01*
X155475528Y-79983719D01*
X155490556Y-79992396D01*
X155508486Y-80013764D01*
X155534051Y-80037070D01*
X155542822Y-80054685D01*
X155552219Y-80065884D01*
X155562599Y-80094402D01*
X155579426Y-80128195D01*
X155580971Y-80144879D01*
X155585032Y-80156034D01*
X155585032Y-80188697D01*
X155588818Y-80229558D01*
X155585032Y-80242864D01*
X155585032Y-80251965D01*
X155573170Y-80284552D01*
X155560960Y-80327470D01*
X155554377Y-80336186D01*
X155552220Y-80342114D01*
X155529041Y-80369736D01*
X155499614Y-80408705D01*
X155492805Y-80412920D01*
X155490554Y-80415604D01*
X155459726Y-80433402D01*
X155413064Y-80462295D01*
X155408065Y-80463229D01*
X155407474Y-80463571D01*
X155385687Y-80467412D01*
X155313000Y-80481000D01*
X155308628Y-80481000D01*
X153867372Y-80481000D01*
X153863000Y-80481000D01*
X153812101Y-80476284D01*
X153788273Y-80467053D01*
X153768525Y-80463571D01*
X153746578Y-80450899D01*
X153717178Y-80439510D01*
X153700470Y-80424279D01*
X153685443Y-80415603D01*
X153667512Y-80394234D01*
X153641949Y-80370930D01*
X153633177Y-80353314D01*
X153623780Y-80342115D01*
X153613399Y-80313595D01*
X153596574Y-80279805D01*
X153595027Y-80263119D01*
X153590968Y-80251965D01*
X153590968Y-80219302D01*
X153587182Y-80178442D01*
X153590968Y-80165135D01*
X153590968Y-80156034D01*
X153602831Y-80123437D01*
X153615040Y-80080530D01*
X153621620Y-80071816D01*
X153623779Y-80065885D01*
X153646975Y-80038241D01*
X153676386Y-79999295D01*
X153683190Y-79995081D01*
X153685445Y-79992395D01*
X153716311Y-79974573D01*
X153762936Y-79945705D01*
X153767930Y-79944771D01*
X153768525Y-79944428D01*
X153790398Y-79940571D01*
X153863000Y-79927000D01*
X155313000Y-79927000D01*
X155363899Y-79931716D01*
G37*
G36*
X157873899Y-79531716D02*
G01*
X157897722Y-79540945D01*
X157917474Y-79544428D01*
X157939423Y-79557100D01*
X157968822Y-79568490D01*
X157985528Y-79583719D01*
X158000556Y-79592396D01*
X158018486Y-79613764D01*
X158044051Y-79637070D01*
X158052822Y-79654685D01*
X158062219Y-79665884D01*
X158072599Y-79694402D01*
X158089426Y-79728195D01*
X158090971Y-79744879D01*
X158095032Y-79756034D01*
X158095032Y-79788697D01*
X158098818Y-79829558D01*
X158095032Y-79842864D01*
X158095032Y-79851965D01*
X158083170Y-79884552D01*
X158070960Y-79927470D01*
X158064377Y-79936186D01*
X158062220Y-79942114D01*
X158039041Y-79969736D01*
X158009614Y-80008705D01*
X158002805Y-80012920D01*
X158000554Y-80015604D01*
X157969726Y-80033402D01*
X157923064Y-80062295D01*
X157918065Y-80063229D01*
X157917474Y-80063571D01*
X157895687Y-80067412D01*
X157823000Y-80081000D01*
X157818628Y-80081000D01*
X156377372Y-80081000D01*
X156373000Y-80081000D01*
X156322101Y-80076284D01*
X156298273Y-80067053D01*
X156278525Y-80063571D01*
X156256578Y-80050899D01*
X156227178Y-80039510D01*
X156210470Y-80024279D01*
X156195443Y-80015603D01*
X156177512Y-79994234D01*
X156151949Y-79970930D01*
X156143177Y-79953314D01*
X156133780Y-79942115D01*
X156123399Y-79913595D01*
X156106574Y-79879805D01*
X156105027Y-79863119D01*
X156100968Y-79851965D01*
X156100968Y-79819302D01*
X156097182Y-79778442D01*
X156100968Y-79765135D01*
X156100968Y-79756034D01*
X156112831Y-79723437D01*
X156125040Y-79680530D01*
X156131620Y-79671816D01*
X156133779Y-79665885D01*
X156156975Y-79638241D01*
X156186386Y-79599295D01*
X156193190Y-79595081D01*
X156195445Y-79592395D01*
X156226311Y-79574573D01*
X156272936Y-79545705D01*
X156277930Y-79544771D01*
X156278525Y-79544428D01*
X156300398Y-79540571D01*
X156373000Y-79527000D01*
X157823000Y-79527000D01*
X157873899Y-79531716D01*
G37*
G36*
X152586134Y-78526806D02*
G01*
X152602355Y-78537645D01*
X152613194Y-78553866D01*
X152617000Y-78573000D01*
X152617000Y-79923000D01*
X152613194Y-79942134D01*
X152602355Y-79958355D01*
X152586134Y-79969194D01*
X152567000Y-79973000D01*
X151217000Y-79973000D01*
X151197866Y-79969194D01*
X151181645Y-79958355D01*
X151170806Y-79942134D01*
X151167000Y-79923000D01*
X151167000Y-78573000D01*
X151170806Y-78553866D01*
X151181645Y-78537645D01*
X151197866Y-78526806D01*
X151217000Y-78523000D01*
X152567000Y-78523000D01*
X152586134Y-78526806D01*
G37*
G36*
X147481328Y-78511177D02*
G01*
X147634566Y-78564798D01*
X147772030Y-78651172D01*
X147886828Y-78765970D01*
X147973202Y-78903434D01*
X148026823Y-79056672D01*
X148045000Y-79218000D01*
X148026823Y-79379328D01*
X147973202Y-79532566D01*
X147886828Y-79670030D01*
X147772030Y-79784828D01*
X147634566Y-79871202D01*
X147481328Y-79924823D01*
X147320000Y-79943000D01*
X147158672Y-79924823D01*
X147005434Y-79871202D01*
X146867970Y-79784828D01*
X146753172Y-79670030D01*
X146666798Y-79532566D01*
X146613177Y-79379328D01*
X146595000Y-79218000D01*
X146613177Y-79056672D01*
X146666798Y-78903434D01*
X146753172Y-78765970D01*
X146867970Y-78651172D01*
X147005434Y-78564798D01*
X147158672Y-78511177D01*
X147320000Y-78493000D01*
X147481328Y-78511177D01*
G37*
G36*
X155363899Y-79131716D02*
G01*
X155387722Y-79140945D01*
X155407474Y-79144428D01*
X155429423Y-79157100D01*
X155458822Y-79168490D01*
X155475528Y-79183719D01*
X155490556Y-79192396D01*
X155508486Y-79213764D01*
X155534051Y-79237070D01*
X155542822Y-79254685D01*
X155552219Y-79265884D01*
X155562599Y-79294402D01*
X155579426Y-79328195D01*
X155580971Y-79344879D01*
X155585032Y-79356034D01*
X155585032Y-79388697D01*
X155588818Y-79429558D01*
X155585032Y-79442864D01*
X155585032Y-79451965D01*
X155573170Y-79484552D01*
X155560960Y-79527470D01*
X155554377Y-79536186D01*
X155552220Y-79542114D01*
X155529041Y-79569736D01*
X155499614Y-79608705D01*
X155492805Y-79612920D01*
X155490554Y-79615604D01*
X155459726Y-79633402D01*
X155413064Y-79662295D01*
X155408065Y-79663229D01*
X155407474Y-79663571D01*
X155385687Y-79667412D01*
X155313000Y-79681000D01*
X155308628Y-79681000D01*
X153867372Y-79681000D01*
X153863000Y-79681000D01*
X153812101Y-79676284D01*
X153788273Y-79667053D01*
X153768525Y-79663571D01*
X153746578Y-79650899D01*
X153717178Y-79639510D01*
X153700470Y-79624279D01*
X153685443Y-79615603D01*
X153667512Y-79594234D01*
X153641949Y-79570930D01*
X153633177Y-79553314D01*
X153623780Y-79542115D01*
X153613399Y-79513595D01*
X153596574Y-79479805D01*
X153595027Y-79463119D01*
X153590968Y-79451965D01*
X153590968Y-79419302D01*
X153587182Y-79378442D01*
X153590968Y-79365135D01*
X153590968Y-79356034D01*
X153602831Y-79323437D01*
X153615040Y-79280530D01*
X153621620Y-79271816D01*
X153623779Y-79265885D01*
X153646975Y-79238241D01*
X153676386Y-79199295D01*
X153683190Y-79195081D01*
X153685445Y-79192395D01*
X153716311Y-79174573D01*
X153762936Y-79145705D01*
X153767930Y-79144771D01*
X153768525Y-79144428D01*
X153790398Y-79140571D01*
X153863000Y-79127000D01*
X155313000Y-79127000D01*
X155363899Y-79131716D01*
G37*
G36*
X157873899Y-78731716D02*
G01*
X157897722Y-78740945D01*
X157917474Y-78744428D01*
X157939423Y-78757100D01*
X157968822Y-78768490D01*
X157985528Y-78783719D01*
X158000556Y-78792396D01*
X158018486Y-78813764D01*
X158044051Y-78837070D01*
X158052822Y-78854685D01*
X158062219Y-78865884D01*
X158072599Y-78894402D01*
X158089426Y-78928195D01*
X158090971Y-78944879D01*
X158095032Y-78956034D01*
X158095032Y-78988697D01*
X158098818Y-79029558D01*
X158095032Y-79042864D01*
X158095032Y-79051965D01*
X158083170Y-79084552D01*
X158070960Y-79127470D01*
X158064377Y-79136186D01*
X158062220Y-79142114D01*
X158039041Y-79169736D01*
X158009614Y-79208705D01*
X158002805Y-79212920D01*
X158000554Y-79215604D01*
X157969726Y-79233402D01*
X157923064Y-79262295D01*
X157918065Y-79263229D01*
X157917474Y-79263571D01*
X157895687Y-79267412D01*
X157823000Y-79281000D01*
X157818628Y-79281000D01*
X156377372Y-79281000D01*
X156373000Y-79281000D01*
X156322101Y-79276284D01*
X156298273Y-79267053D01*
X156278525Y-79263571D01*
X156256578Y-79250899D01*
X156227178Y-79239510D01*
X156210470Y-79224279D01*
X156195443Y-79215603D01*
X156177512Y-79194234D01*
X156151949Y-79170930D01*
X156143177Y-79153314D01*
X156133780Y-79142115D01*
X156123399Y-79113595D01*
X156106574Y-79079805D01*
X156105027Y-79063119D01*
X156100968Y-79051965D01*
X156100968Y-79019302D01*
X156097182Y-78978442D01*
X156100968Y-78965135D01*
X156100968Y-78956034D01*
X156112831Y-78923437D01*
X156125040Y-78880530D01*
X156131620Y-78871816D01*
X156133779Y-78865885D01*
X156156975Y-78838241D01*
X156186386Y-78799295D01*
X156193190Y-78795081D01*
X156195445Y-78792395D01*
X156226311Y-78774573D01*
X156272936Y-78745705D01*
X156277930Y-78744771D01*
X156278525Y-78744428D01*
X156300398Y-78740571D01*
X156373000Y-78727000D01*
X157823000Y-78727000D01*
X157873899Y-78731716D01*
G37*
G36*
X155363899Y-78331716D02*
G01*
X155387722Y-78340945D01*
X155407474Y-78344428D01*
X155429423Y-78357100D01*
X155458822Y-78368490D01*
X155475528Y-78383719D01*
X155490556Y-78392396D01*
X155508486Y-78413764D01*
X155534051Y-78437070D01*
X155542822Y-78454685D01*
X155552219Y-78465884D01*
X155562599Y-78494402D01*
X155579426Y-78528195D01*
X155580971Y-78544879D01*
X155585032Y-78556034D01*
X155585032Y-78588697D01*
X155588818Y-78629558D01*
X155585032Y-78642864D01*
X155585032Y-78651965D01*
X155573170Y-78684552D01*
X155560960Y-78727470D01*
X155554377Y-78736186D01*
X155552220Y-78742114D01*
X155529041Y-78769736D01*
X155499614Y-78808705D01*
X155492805Y-78812920D01*
X155490554Y-78815604D01*
X155459726Y-78833402D01*
X155413064Y-78862295D01*
X155408065Y-78863229D01*
X155407474Y-78863571D01*
X155385687Y-78867412D01*
X155313000Y-78881000D01*
X155308628Y-78881000D01*
X153867372Y-78881000D01*
X153863000Y-78881000D01*
X153812101Y-78876284D01*
X153788273Y-78867053D01*
X153768525Y-78863571D01*
X153746578Y-78850899D01*
X153717178Y-78839510D01*
X153700470Y-78824279D01*
X153685443Y-78815603D01*
X153667512Y-78794234D01*
X153641949Y-78770930D01*
X153633177Y-78753314D01*
X153623780Y-78742115D01*
X153613399Y-78713595D01*
X153596574Y-78679805D01*
X153595027Y-78663119D01*
X153590968Y-78651965D01*
X153590968Y-78619302D01*
X153587182Y-78578442D01*
X153590968Y-78565135D01*
X153590968Y-78556034D01*
X153602831Y-78523437D01*
X153615040Y-78480530D01*
X153621620Y-78471816D01*
X153623779Y-78465885D01*
X153646975Y-78438241D01*
X153676386Y-78399295D01*
X153683190Y-78395081D01*
X153685445Y-78392395D01*
X153716311Y-78374573D01*
X153762936Y-78345705D01*
X153767930Y-78344771D01*
X153768525Y-78344428D01*
X153790398Y-78340571D01*
X153863000Y-78327000D01*
X155313000Y-78327000D01*
X155363899Y-78331716D01*
G37*
G36*
X157873899Y-77931716D02*
G01*
X157897722Y-77940945D01*
X157917474Y-77944428D01*
X157939423Y-77957100D01*
X157968822Y-77968490D01*
X157985528Y-77983719D01*
X158000556Y-77992396D01*
X158018486Y-78013764D01*
X158044051Y-78037070D01*
X158052822Y-78054685D01*
X158062219Y-78065884D01*
X158072599Y-78094402D01*
X158089426Y-78128195D01*
X158090971Y-78144879D01*
X158095032Y-78156034D01*
X158095032Y-78188697D01*
X158098818Y-78229558D01*
X158095032Y-78242864D01*
X158095032Y-78251965D01*
X158083170Y-78284552D01*
X158070960Y-78327470D01*
X158064377Y-78336186D01*
X158062220Y-78342114D01*
X158039041Y-78369736D01*
X158009614Y-78408705D01*
X158002805Y-78412920D01*
X158000554Y-78415604D01*
X157969726Y-78433402D01*
X157923064Y-78462295D01*
X157918065Y-78463229D01*
X157917474Y-78463571D01*
X157895687Y-78467412D01*
X157823000Y-78481000D01*
X157818628Y-78481000D01*
X156377372Y-78481000D01*
X156373000Y-78481000D01*
X156322101Y-78476284D01*
X156298273Y-78467053D01*
X156278525Y-78463571D01*
X156256578Y-78450899D01*
X156227178Y-78439510D01*
X156210470Y-78424279D01*
X156195443Y-78415603D01*
X156177512Y-78394234D01*
X156151949Y-78370930D01*
X156143177Y-78353314D01*
X156133780Y-78342115D01*
X156123399Y-78313595D01*
X156106574Y-78279805D01*
X156105027Y-78263119D01*
X156100968Y-78251965D01*
X156100968Y-78219302D01*
X156097182Y-78178442D01*
X156100968Y-78165135D01*
X156100968Y-78156034D01*
X156112831Y-78123437D01*
X156125040Y-78080530D01*
X156131620Y-78071816D01*
X156133779Y-78065885D01*
X156156975Y-78038241D01*
X156186386Y-77999295D01*
X156193190Y-77995081D01*
X156195445Y-77992395D01*
X156226311Y-77974573D01*
X156272936Y-77945705D01*
X156277930Y-77944771D01*
X156278525Y-77944428D01*
X156300398Y-77940571D01*
X156373000Y-77927000D01*
X157823000Y-77927000D01*
X157873899Y-77931716D01*
G37*
G36*
X155363899Y-77531716D02*
G01*
X155387722Y-77540945D01*
X155407474Y-77544428D01*
X155429423Y-77557100D01*
X155458822Y-77568490D01*
X155475528Y-77583719D01*
X155490556Y-77592396D01*
X155508486Y-77613764D01*
X155534051Y-77637070D01*
X155542822Y-77654685D01*
X155552219Y-77665884D01*
X155562599Y-77694402D01*
X155579426Y-77728195D01*
X155580971Y-77744879D01*
X155585032Y-77756034D01*
X155585032Y-77788697D01*
X155588818Y-77829558D01*
X155585032Y-77842864D01*
X155585032Y-77851965D01*
X155573170Y-77884552D01*
X155560960Y-77927470D01*
X155554377Y-77936186D01*
X155552220Y-77942114D01*
X155529041Y-77969736D01*
X155499614Y-78008705D01*
X155492805Y-78012920D01*
X155490554Y-78015604D01*
X155459726Y-78033402D01*
X155413064Y-78062295D01*
X155408065Y-78063229D01*
X155407474Y-78063571D01*
X155385687Y-78067412D01*
X155313000Y-78081000D01*
X155308628Y-78081000D01*
X153867372Y-78081000D01*
X153863000Y-78081000D01*
X153812101Y-78076284D01*
X153788273Y-78067053D01*
X153768525Y-78063571D01*
X153746578Y-78050899D01*
X153717178Y-78039510D01*
X153700470Y-78024279D01*
X153685443Y-78015603D01*
X153667512Y-77994234D01*
X153641949Y-77970930D01*
X153633177Y-77953314D01*
X153623780Y-77942115D01*
X153613399Y-77913595D01*
X153596574Y-77879805D01*
X153595027Y-77863119D01*
X153590968Y-77851965D01*
X153590968Y-77819302D01*
X153587182Y-77778442D01*
X153590968Y-77765135D01*
X153590968Y-77756034D01*
X153602831Y-77723437D01*
X153615040Y-77680530D01*
X153621620Y-77671816D01*
X153623779Y-77665885D01*
X153646975Y-77638241D01*
X153676386Y-77599295D01*
X153683190Y-77595081D01*
X153685445Y-77592395D01*
X153716311Y-77574573D01*
X153762936Y-77545705D01*
X153767930Y-77544771D01*
X153768525Y-77544428D01*
X153790398Y-77540571D01*
X153863000Y-77527000D01*
X155313000Y-77527000D01*
X155363899Y-77531716D01*
G37*
G36*
X157873899Y-77131716D02*
G01*
X157897722Y-77140945D01*
X157917474Y-77144428D01*
X157939423Y-77157100D01*
X157968822Y-77168490D01*
X157985528Y-77183719D01*
X158000556Y-77192396D01*
X158018486Y-77213764D01*
X158044051Y-77237070D01*
X158052822Y-77254685D01*
X158062219Y-77265884D01*
X158072599Y-77294402D01*
X158089426Y-77328195D01*
X158090971Y-77344879D01*
X158095032Y-77356034D01*
X158095032Y-77388697D01*
X158098818Y-77429558D01*
X158095032Y-77442864D01*
X158095032Y-77451965D01*
X158083170Y-77484552D01*
X158070960Y-77527470D01*
X158064377Y-77536186D01*
X158062220Y-77542114D01*
X158039041Y-77569736D01*
X158009614Y-77608705D01*
X158002805Y-77612920D01*
X158000554Y-77615604D01*
X157969726Y-77633402D01*
X157923064Y-77662295D01*
X157918065Y-77663229D01*
X157917474Y-77663571D01*
X157895687Y-77667412D01*
X157823000Y-77681000D01*
X157818628Y-77681000D01*
X156377372Y-77681000D01*
X156373000Y-77681000D01*
X156322101Y-77676284D01*
X156298273Y-77667053D01*
X156278525Y-77663571D01*
X156256578Y-77650899D01*
X156227178Y-77639510D01*
X156210470Y-77624279D01*
X156195443Y-77615603D01*
X156177512Y-77594234D01*
X156151949Y-77570930D01*
X156143177Y-77553314D01*
X156133780Y-77542115D01*
X156123399Y-77513595D01*
X156106574Y-77479805D01*
X156105027Y-77463119D01*
X156100968Y-77451965D01*
X156100968Y-77419302D01*
X156097182Y-77378442D01*
X156100968Y-77365135D01*
X156100968Y-77356034D01*
X156112831Y-77323437D01*
X156125040Y-77280530D01*
X156131620Y-77271816D01*
X156133779Y-77265885D01*
X156156975Y-77238241D01*
X156186386Y-77199295D01*
X156193190Y-77195081D01*
X156195445Y-77192395D01*
X156226311Y-77174573D01*
X156272936Y-77145705D01*
X156277930Y-77144771D01*
X156278525Y-77144428D01*
X156300398Y-77140571D01*
X156373000Y-77127000D01*
X157823000Y-77127000D01*
X157873899Y-77131716D01*
G37*
G36*
X148014134Y-76112806D02*
G01*
X148030355Y-76123645D01*
X148041194Y-76139866D01*
X148045000Y-76159000D01*
X148045000Y-77509000D01*
X148041194Y-77528134D01*
X148030355Y-77544355D01*
X148014134Y-77555194D01*
X147995000Y-77559000D01*
X146645000Y-77559000D01*
X146625866Y-77555194D01*
X146609645Y-77544355D01*
X146598806Y-77528134D01*
X146595000Y-77509000D01*
X146595000Y-76159000D01*
X146598806Y-76139866D01*
X146609645Y-76123645D01*
X146625866Y-76112806D01*
X146645000Y-76109000D01*
X147995000Y-76109000D01*
X148014134Y-76112806D01*
G37*
G36*
X152053328Y-76031177D02*
G01*
X152206566Y-76084798D01*
X152344030Y-76171172D01*
X152458828Y-76285970D01*
X152545202Y-76423434D01*
X152598823Y-76576672D01*
X152617000Y-76738000D01*
X152598823Y-76899328D01*
X152545202Y-77052566D01*
X152458828Y-77190030D01*
X152344030Y-77304828D01*
X152206566Y-77391202D01*
X152053328Y-77444823D01*
X151892000Y-77463000D01*
X151730672Y-77444823D01*
X151577434Y-77391202D01*
X151439970Y-77304828D01*
X151325172Y-77190030D01*
X151238798Y-77052566D01*
X151185177Y-76899328D01*
X151167000Y-76738000D01*
X151185177Y-76576672D01*
X151238798Y-76423434D01*
X151325172Y-76285970D01*
X151439970Y-76171172D01*
X151577434Y-76084798D01*
X151730672Y-76031177D01*
X151892000Y-76013000D01*
X152053328Y-76031177D01*
G37*
G36*
X155363899Y-76731716D02*
G01*
X155387722Y-76740945D01*
X155407474Y-76744428D01*
X155429423Y-76757100D01*
X155458822Y-76768490D01*
X155475528Y-76783719D01*
X155490556Y-76792396D01*
X155508486Y-76813764D01*
X155534051Y-76837070D01*
X155542822Y-76854685D01*
X155552219Y-76865884D01*
X155562599Y-76894402D01*
X155579426Y-76928195D01*
X155580971Y-76944879D01*
X155585032Y-76956034D01*
X155585032Y-76988697D01*
X155588818Y-77029558D01*
X155585032Y-77042864D01*
X155585032Y-77051965D01*
X155573170Y-77084552D01*
X155560960Y-77127470D01*
X155554377Y-77136186D01*
X155552220Y-77142114D01*
X155529041Y-77169736D01*
X155499614Y-77208705D01*
X155492805Y-77212920D01*
X155490554Y-77215604D01*
X155459726Y-77233402D01*
X155413064Y-77262295D01*
X155408065Y-77263229D01*
X155407474Y-77263571D01*
X155385687Y-77267412D01*
X155313000Y-77281000D01*
X155308628Y-77281000D01*
X153867372Y-77281000D01*
X153863000Y-77281000D01*
X153812101Y-77276284D01*
X153788273Y-77267053D01*
X153768525Y-77263571D01*
X153746578Y-77250899D01*
X153717178Y-77239510D01*
X153700470Y-77224279D01*
X153685443Y-77215603D01*
X153667512Y-77194234D01*
X153641949Y-77170930D01*
X153633177Y-77153314D01*
X153623780Y-77142115D01*
X153613399Y-77113595D01*
X153596574Y-77079805D01*
X153595027Y-77063119D01*
X153590968Y-77051965D01*
X153590968Y-77019302D01*
X153587182Y-76978442D01*
X153590968Y-76965135D01*
X153590968Y-76956034D01*
X153602831Y-76923437D01*
X153615040Y-76880530D01*
X153621620Y-76871816D01*
X153623779Y-76865885D01*
X153646975Y-76838241D01*
X153676386Y-76799295D01*
X153683190Y-76795081D01*
X153685445Y-76792395D01*
X153716311Y-76774573D01*
X153762936Y-76745705D01*
X153767930Y-76744771D01*
X153768525Y-76744428D01*
X153790398Y-76740571D01*
X153863000Y-76727000D01*
X155313000Y-76727000D01*
X155363899Y-76731716D01*
G37*
G36*
X157873899Y-76331716D02*
G01*
X157897722Y-76340945D01*
X157917474Y-76344428D01*
X157939423Y-76357100D01*
X157968822Y-76368490D01*
X157985528Y-76383719D01*
X158000556Y-76392396D01*
X158018486Y-76413764D01*
X158044051Y-76437070D01*
X158052822Y-76454685D01*
X158062219Y-76465884D01*
X158072599Y-76494402D01*
X158089426Y-76528195D01*
X158090971Y-76544879D01*
X158095032Y-76556034D01*
X158095032Y-76588697D01*
X158098818Y-76629558D01*
X158095032Y-76642864D01*
X158095032Y-76651965D01*
X158083170Y-76684552D01*
X158070960Y-76727470D01*
X158064377Y-76736186D01*
X158062220Y-76742114D01*
X158039041Y-76769736D01*
X158009614Y-76808705D01*
X158002805Y-76812920D01*
X158000554Y-76815604D01*
X157969726Y-76833402D01*
X157923064Y-76862295D01*
X157918065Y-76863229D01*
X157917474Y-76863571D01*
X157895687Y-76867412D01*
X157823000Y-76881000D01*
X157818628Y-76881000D01*
X156377372Y-76881000D01*
X156373000Y-76881000D01*
X156322101Y-76876284D01*
X156298273Y-76867053D01*
X156278525Y-76863571D01*
X156256578Y-76850899D01*
X156227178Y-76839510D01*
X156210470Y-76824279D01*
X156195443Y-76815603D01*
X156177512Y-76794234D01*
X156151949Y-76770930D01*
X156143177Y-76753314D01*
X156133780Y-76742115D01*
X156123399Y-76713595D01*
X156106574Y-76679805D01*
X156105027Y-76663119D01*
X156100968Y-76651965D01*
X156100968Y-76619302D01*
X156097182Y-76578442D01*
X156100968Y-76565135D01*
X156100968Y-76556034D01*
X156112831Y-76523437D01*
X156125040Y-76480530D01*
X156131620Y-76471816D01*
X156133779Y-76465885D01*
X156156975Y-76438241D01*
X156186386Y-76399295D01*
X156193190Y-76395081D01*
X156195445Y-76392395D01*
X156226311Y-76374573D01*
X156272936Y-76345705D01*
X156277930Y-76344771D01*
X156278525Y-76344428D01*
X156300398Y-76340571D01*
X156373000Y-76327000D01*
X157823000Y-76327000D01*
X157873899Y-76331716D01*
G37*
G36*
X155363899Y-75931716D02*
G01*
X155387722Y-75940945D01*
X155407474Y-75944428D01*
X155429423Y-75957100D01*
X155458822Y-75968490D01*
X155475528Y-75983719D01*
X155490556Y-75992396D01*
X155508486Y-76013764D01*
X155534051Y-76037070D01*
X155542822Y-76054685D01*
X155552219Y-76065884D01*
X155562599Y-76094402D01*
X155579426Y-76128195D01*
X155580971Y-76144879D01*
X155585032Y-76156034D01*
X155585032Y-76188697D01*
X155588818Y-76229558D01*
X155585032Y-76242864D01*
X155585032Y-76251965D01*
X155573170Y-76284552D01*
X155560960Y-76327470D01*
X155554377Y-76336186D01*
X155552220Y-76342114D01*
X155529041Y-76369736D01*
X155499614Y-76408705D01*
X155492805Y-76412920D01*
X155490554Y-76415604D01*
X155459726Y-76433402D01*
X155413064Y-76462295D01*
X155408065Y-76463229D01*
X155407474Y-76463571D01*
X155385687Y-76467412D01*
X155313000Y-76481000D01*
X155308628Y-76481000D01*
X153867372Y-76481000D01*
X153863000Y-76481000D01*
X153812101Y-76476284D01*
X153788273Y-76467053D01*
X153768525Y-76463571D01*
X153746578Y-76450899D01*
X153717178Y-76439510D01*
X153700470Y-76424279D01*
X153685443Y-76415603D01*
X153667512Y-76394234D01*
X153641949Y-76370930D01*
X153633177Y-76353314D01*
X153623780Y-76342115D01*
X153613399Y-76313595D01*
X153596574Y-76279805D01*
X153595027Y-76263119D01*
X153590968Y-76251965D01*
X153590968Y-76219302D01*
X153587182Y-76178442D01*
X153590968Y-76165135D01*
X153590968Y-76156034D01*
X153602831Y-76123437D01*
X153615040Y-76080530D01*
X153621620Y-76071816D01*
X153623779Y-76065885D01*
X153646975Y-76038241D01*
X153676386Y-75999295D01*
X153683190Y-75995081D01*
X153685445Y-75992395D01*
X153716311Y-75974573D01*
X153762936Y-75945705D01*
X153767930Y-75944771D01*
X153768525Y-75944428D01*
X153790398Y-75940571D01*
X153863000Y-75927000D01*
X155313000Y-75927000D01*
X155363899Y-75931716D01*
G37*
G36*
X157873899Y-75531716D02*
G01*
X157897722Y-75540945D01*
X157917474Y-75544428D01*
X157939423Y-75557100D01*
X157968822Y-75568490D01*
X157985528Y-75583719D01*
X158000556Y-75592396D01*
X158018486Y-75613764D01*
X158044051Y-75637070D01*
X158052822Y-75654685D01*
X158062219Y-75665884D01*
X158072599Y-75694402D01*
X158089426Y-75728195D01*
X158090971Y-75744879D01*
X158095032Y-75756034D01*
X158095032Y-75788697D01*
X158098818Y-75829558D01*
X158095032Y-75842864D01*
X158095032Y-75851965D01*
X158083170Y-75884552D01*
X158070960Y-75927470D01*
X158064377Y-75936186D01*
X158062220Y-75942114D01*
X158039041Y-75969736D01*
X158009614Y-76008705D01*
X158002805Y-76012920D01*
X158000554Y-76015604D01*
X157969726Y-76033402D01*
X157923064Y-76062295D01*
X157918065Y-76063229D01*
X157917474Y-76063571D01*
X157895687Y-76067412D01*
X157823000Y-76081000D01*
X157818628Y-76081000D01*
X156377372Y-76081000D01*
X156373000Y-76081000D01*
X156322101Y-76076284D01*
X156298273Y-76067053D01*
X156278525Y-76063571D01*
X156256578Y-76050899D01*
X156227178Y-76039510D01*
X156210470Y-76024279D01*
X156195443Y-76015603D01*
X156177512Y-75994234D01*
X156151949Y-75970930D01*
X156143177Y-75953314D01*
X156133780Y-75942115D01*
X156123399Y-75913595D01*
X156106574Y-75879805D01*
X156105027Y-75863119D01*
X156100968Y-75851965D01*
X156100968Y-75819302D01*
X156097182Y-75778442D01*
X156100968Y-75765135D01*
X156100968Y-75756034D01*
X156112831Y-75723437D01*
X156125040Y-75680530D01*
X156131620Y-75671816D01*
X156133779Y-75665885D01*
X156156975Y-75638241D01*
X156186386Y-75599295D01*
X156193190Y-75595081D01*
X156195445Y-75592395D01*
X156226311Y-75574573D01*
X156272936Y-75545705D01*
X156277930Y-75544771D01*
X156278525Y-75544428D01*
X156300398Y-75540571D01*
X156373000Y-75527000D01*
X157823000Y-75527000D01*
X157873899Y-75531716D01*
G37*
G36*
X155363899Y-75131716D02*
G01*
X155387722Y-75140945D01*
X155407474Y-75144428D01*
X155429423Y-75157100D01*
X155458822Y-75168490D01*
X155475528Y-75183719D01*
X155490556Y-75192396D01*
X155508486Y-75213764D01*
X155534051Y-75237070D01*
X155542822Y-75254685D01*
X155552219Y-75265884D01*
X155562599Y-75294402D01*
X155579426Y-75328195D01*
X155580971Y-75344879D01*
X155585032Y-75356034D01*
X155585032Y-75388697D01*
X155588818Y-75429558D01*
X155585032Y-75442864D01*
X155585032Y-75451965D01*
X155573170Y-75484552D01*
X155560960Y-75527470D01*
X155554377Y-75536186D01*
X155552220Y-75542114D01*
X155529041Y-75569736D01*
X155499614Y-75608705D01*
X155492805Y-75612920D01*
X155490554Y-75615604D01*
X155459726Y-75633402D01*
X155413064Y-75662295D01*
X155408065Y-75663229D01*
X155407474Y-75663571D01*
X155385687Y-75667412D01*
X155313000Y-75681000D01*
X155308628Y-75681000D01*
X153867372Y-75681000D01*
X153863000Y-75681000D01*
X153812101Y-75676284D01*
X153788273Y-75667053D01*
X153768525Y-75663571D01*
X153746578Y-75650899D01*
X153717178Y-75639510D01*
X153700470Y-75624279D01*
X153685443Y-75615603D01*
X153667512Y-75594234D01*
X153641949Y-75570930D01*
X153633177Y-75553314D01*
X153623780Y-75542115D01*
X153613399Y-75513595D01*
X153596574Y-75479805D01*
X153595027Y-75463119D01*
X153590968Y-75451965D01*
X153590968Y-75419302D01*
X153587182Y-75378442D01*
X153590968Y-75365135D01*
X153590968Y-75356034D01*
X153602831Y-75323437D01*
X153615040Y-75280530D01*
X153621620Y-75271816D01*
X153623779Y-75265885D01*
X153646975Y-75238241D01*
X153676386Y-75199295D01*
X153683190Y-75195081D01*
X153685445Y-75192395D01*
X153716311Y-75174573D01*
X153762936Y-75145705D01*
X153767930Y-75144771D01*
X153768525Y-75144428D01*
X153790398Y-75140571D01*
X153863000Y-75127000D01*
X155313000Y-75127000D01*
X155363899Y-75131716D01*
G37*
G36*
X147481328Y-74127177D02*
G01*
X147634566Y-74180798D01*
X147772030Y-74267172D01*
X147886828Y-74381970D01*
X147973202Y-74519434D01*
X148026823Y-74672672D01*
X148045000Y-74834000D01*
X148026823Y-74995328D01*
X147973202Y-75148566D01*
X147886828Y-75286030D01*
X147772030Y-75400828D01*
X147634566Y-75487202D01*
X147481328Y-75540823D01*
X147320000Y-75559000D01*
X147158672Y-75540823D01*
X147005434Y-75487202D01*
X146867970Y-75400828D01*
X146753172Y-75286030D01*
X146666798Y-75148566D01*
X146613177Y-74995328D01*
X146595000Y-74834000D01*
X146613177Y-74672672D01*
X146666798Y-74519434D01*
X146753172Y-74381970D01*
X146867970Y-74267172D01*
X147005434Y-74180798D01*
X147158672Y-74127177D01*
X147320000Y-74109000D01*
X147481328Y-74127177D01*
G37*
G36*
X152053328Y-74031177D02*
G01*
X152206566Y-74084798D01*
X152344030Y-74171172D01*
X152458828Y-74285970D01*
X152545202Y-74423434D01*
X152598823Y-74576672D01*
X152617000Y-74738000D01*
X152598823Y-74899328D01*
X152545202Y-75052566D01*
X152458828Y-75190030D01*
X152344030Y-75304828D01*
X152206566Y-75391202D01*
X152053328Y-75444823D01*
X151892000Y-75463000D01*
X151730672Y-75444823D01*
X151577434Y-75391202D01*
X151439970Y-75304828D01*
X151325172Y-75190030D01*
X151238798Y-75052566D01*
X151185177Y-74899328D01*
X151167000Y-74738000D01*
X151185177Y-74576672D01*
X151238798Y-74423434D01*
X151325172Y-74285970D01*
X151439970Y-74171172D01*
X151577434Y-74084798D01*
X151730672Y-74031177D01*
X151892000Y-74013000D01*
X152053328Y-74031177D01*
G37*
G36*
X157873899Y-74731716D02*
G01*
X157897722Y-74740945D01*
X157917474Y-74744428D01*
X157939423Y-74757100D01*
X157968822Y-74768490D01*
X157985528Y-74783719D01*
X158000556Y-74792396D01*
X158018486Y-74813764D01*
X158044051Y-74837070D01*
X158052822Y-74854685D01*
X158062219Y-74865884D01*
X158072599Y-74894402D01*
X158089426Y-74928195D01*
X158090971Y-74944879D01*
X158095032Y-74956034D01*
X158095032Y-74988697D01*
X158098818Y-75029558D01*
X158095032Y-75042864D01*
X158095032Y-75051965D01*
X158083170Y-75084552D01*
X158070960Y-75127470D01*
X158064377Y-75136186D01*
X158062220Y-75142114D01*
X158039041Y-75169736D01*
X158009614Y-75208705D01*
X158002805Y-75212920D01*
X158000554Y-75215604D01*
X157969726Y-75233402D01*
X157923064Y-75262295D01*
X157918065Y-75263229D01*
X157917474Y-75263571D01*
X157895687Y-75267412D01*
X157823000Y-75281000D01*
X157818628Y-75281000D01*
X156377372Y-75281000D01*
X156373000Y-75281000D01*
X156322101Y-75276284D01*
X156298273Y-75267053D01*
X156278525Y-75263571D01*
X156256578Y-75250899D01*
X156227178Y-75239510D01*
X156210470Y-75224279D01*
X156195443Y-75215603D01*
X156177512Y-75194234D01*
X156151949Y-75170930D01*
X156143177Y-75153314D01*
X156133780Y-75142115D01*
X156123399Y-75113595D01*
X156106574Y-75079805D01*
X156105027Y-75063119D01*
X156100968Y-75051965D01*
X156100968Y-75019302D01*
X156097182Y-74978442D01*
X156100968Y-74965135D01*
X156100968Y-74956034D01*
X156112831Y-74923437D01*
X156125040Y-74880530D01*
X156131620Y-74871816D01*
X156133779Y-74865885D01*
X156156975Y-74838241D01*
X156186386Y-74799295D01*
X156193190Y-74795081D01*
X156195445Y-74792395D01*
X156226311Y-74774573D01*
X156272936Y-74745705D01*
X156277930Y-74744771D01*
X156278525Y-74744428D01*
X156300398Y-74740571D01*
X156373000Y-74727000D01*
X157823000Y-74727000D01*
X157873899Y-74731716D01*
G37*
G36*
X155363899Y-74331716D02*
G01*
X155387722Y-74340945D01*
X155407474Y-74344428D01*
X155429423Y-74357100D01*
X155458822Y-74368490D01*
X155475528Y-74383719D01*
X155490556Y-74392396D01*
X155508486Y-74413764D01*
X155534051Y-74437070D01*
X155542822Y-74454685D01*
X155552219Y-74465884D01*
X155562599Y-74494402D01*
X155579426Y-74528195D01*
X155580971Y-74544879D01*
X155585032Y-74556034D01*
X155585032Y-74588697D01*
X155588818Y-74629558D01*
X155585032Y-74642864D01*
X155585032Y-74651965D01*
X155573170Y-74684552D01*
X155560960Y-74727470D01*
X155554377Y-74736186D01*
X155552220Y-74742114D01*
X155529041Y-74769736D01*
X155499614Y-74808705D01*
X155492805Y-74812920D01*
X155490554Y-74815604D01*
X155459726Y-74833402D01*
X155413064Y-74862295D01*
X155408065Y-74863229D01*
X155407474Y-74863571D01*
X155385687Y-74867412D01*
X155313000Y-74881000D01*
X155308628Y-74881000D01*
X153867372Y-74881000D01*
X153863000Y-74881000D01*
X153812101Y-74876284D01*
X153788273Y-74867053D01*
X153768525Y-74863571D01*
X153746578Y-74850899D01*
X153717178Y-74839510D01*
X153700470Y-74824279D01*
X153685443Y-74815603D01*
X153667512Y-74794234D01*
X153641949Y-74770930D01*
X153633177Y-74753314D01*
X153623780Y-74742115D01*
X153613399Y-74713595D01*
X153596574Y-74679805D01*
X153595027Y-74663119D01*
X153590968Y-74651965D01*
X153590968Y-74619302D01*
X153587182Y-74578442D01*
X153590968Y-74565135D01*
X153590968Y-74556034D01*
X153602831Y-74523437D01*
X153615040Y-74480530D01*
X153621620Y-74471816D01*
X153623779Y-74465885D01*
X153646975Y-74438241D01*
X153676386Y-74399295D01*
X153683190Y-74395081D01*
X153685445Y-74392395D01*
X153716311Y-74374573D01*
X153762936Y-74345705D01*
X153767930Y-74344771D01*
X153768525Y-74344428D01*
X153790398Y-74340571D01*
X153863000Y-74327000D01*
X155313000Y-74327000D01*
X155363899Y-74331716D01*
G37*
G36*
X157873899Y-73931716D02*
G01*
X157897722Y-73940945D01*
X157917474Y-73944428D01*
X157939423Y-73957100D01*
X157968822Y-73968490D01*
X157985528Y-73983719D01*
X158000556Y-73992396D01*
X158018486Y-74013764D01*
X158044051Y-74037070D01*
X158052822Y-74054685D01*
X158062219Y-74065884D01*
X158072599Y-74094402D01*
X158089426Y-74128195D01*
X158090971Y-74144879D01*
X158095032Y-74156034D01*
X158095032Y-74188697D01*
X158098818Y-74229558D01*
X158095032Y-74242864D01*
X158095032Y-74251965D01*
X158083170Y-74284552D01*
X158070960Y-74327470D01*
X158064377Y-74336186D01*
X158062220Y-74342114D01*
X158039041Y-74369736D01*
X158009614Y-74408705D01*
X158002805Y-74412920D01*
X158000554Y-74415604D01*
X157969726Y-74433402D01*
X157923064Y-74462295D01*
X157918065Y-74463229D01*
X157917474Y-74463571D01*
X157895687Y-74467412D01*
X157823000Y-74481000D01*
X157818628Y-74481000D01*
X156377372Y-74481000D01*
X156373000Y-74481000D01*
X156322101Y-74476284D01*
X156298273Y-74467053D01*
X156278525Y-74463571D01*
X156256578Y-74450899D01*
X156227178Y-74439510D01*
X156210470Y-74424279D01*
X156195443Y-74415603D01*
X156177512Y-74394234D01*
X156151949Y-74370930D01*
X156143177Y-74353314D01*
X156133780Y-74342115D01*
X156123399Y-74313595D01*
X156106574Y-74279805D01*
X156105027Y-74263119D01*
X156100968Y-74251965D01*
X156100968Y-74219302D01*
X156097182Y-74178442D01*
X156100968Y-74165135D01*
X156100968Y-74156034D01*
X156112831Y-74123437D01*
X156125040Y-74080530D01*
X156131620Y-74071816D01*
X156133779Y-74065885D01*
X156156975Y-74038241D01*
X156186386Y-73999295D01*
X156193190Y-73995081D01*
X156195445Y-73992395D01*
X156226311Y-73974573D01*
X156272936Y-73945705D01*
X156277930Y-73944771D01*
X156278525Y-73944428D01*
X156300398Y-73940571D01*
X156373000Y-73927000D01*
X157823000Y-73927000D01*
X157873899Y-73931716D01*
G37*
G36*
X155363899Y-73531716D02*
G01*
X155387722Y-73540945D01*
X155407474Y-73544428D01*
X155429423Y-73557100D01*
X155458822Y-73568490D01*
X155475528Y-73583719D01*
X155490556Y-73592396D01*
X155508486Y-73613764D01*
X155534051Y-73637070D01*
X155542822Y-73654685D01*
X155552219Y-73665884D01*
X155562599Y-73694402D01*
X155579426Y-73728195D01*
X155580971Y-73744879D01*
X155585032Y-73756034D01*
X155585032Y-73788697D01*
X155588818Y-73829558D01*
X155585032Y-73842864D01*
X155585032Y-73851965D01*
X155573170Y-73884552D01*
X155560960Y-73927470D01*
X155554377Y-73936186D01*
X155552220Y-73942114D01*
X155529041Y-73969736D01*
X155499614Y-74008705D01*
X155492805Y-74012920D01*
X155490554Y-74015604D01*
X155459726Y-74033402D01*
X155413064Y-74062295D01*
X155408065Y-74063229D01*
X155407474Y-74063571D01*
X155385687Y-74067412D01*
X155313000Y-74081000D01*
X155308628Y-74081000D01*
X153867372Y-74081000D01*
X153863000Y-74081000D01*
X153812101Y-74076284D01*
X153788273Y-74067053D01*
X153768525Y-74063571D01*
X153746578Y-74050899D01*
X153717178Y-74039510D01*
X153700470Y-74024279D01*
X153685443Y-74015603D01*
X153667512Y-73994234D01*
X153641949Y-73970930D01*
X153633177Y-73953314D01*
X153623780Y-73942115D01*
X153613399Y-73913595D01*
X153596574Y-73879805D01*
X153595027Y-73863119D01*
X153590968Y-73851965D01*
X153590968Y-73819302D01*
X153587182Y-73778442D01*
X153590968Y-73765135D01*
X153590968Y-73756034D01*
X153602831Y-73723437D01*
X153615040Y-73680530D01*
X153621620Y-73671816D01*
X153623779Y-73665885D01*
X153646975Y-73638241D01*
X153676386Y-73599295D01*
X153683190Y-73595081D01*
X153685445Y-73592395D01*
X153716311Y-73574573D01*
X153762936Y-73545705D01*
X153767930Y-73544771D01*
X153768525Y-73544428D01*
X153790398Y-73540571D01*
X153863000Y-73527000D01*
X155313000Y-73527000D01*
X155363899Y-73531716D01*
G37*
G36*
X157873899Y-73131716D02*
G01*
X157897722Y-73140945D01*
X157917474Y-73144428D01*
X157939423Y-73157100D01*
X157968822Y-73168490D01*
X157985528Y-73183719D01*
X158000556Y-73192396D01*
X158018486Y-73213764D01*
X158044051Y-73237070D01*
X158052822Y-73254685D01*
X158062219Y-73265884D01*
X158072599Y-73294402D01*
X158089426Y-73328195D01*
X158090971Y-73344879D01*
X158095032Y-73356034D01*
X158095032Y-73388697D01*
X158098818Y-73429558D01*
X158095032Y-73442864D01*
X158095032Y-73451965D01*
X158083170Y-73484552D01*
X158070960Y-73527470D01*
X158064377Y-73536186D01*
X158062220Y-73542114D01*
X158039041Y-73569736D01*
X158009614Y-73608705D01*
X158002805Y-73612920D01*
X158000554Y-73615604D01*
X157969726Y-73633402D01*
X157923064Y-73662295D01*
X157918065Y-73663229D01*
X157917474Y-73663571D01*
X157895687Y-73667412D01*
X157823000Y-73681000D01*
X157818628Y-73681000D01*
X156377372Y-73681000D01*
X156373000Y-73681000D01*
X156322101Y-73676284D01*
X156298273Y-73667053D01*
X156278525Y-73663571D01*
X156256578Y-73650899D01*
X156227178Y-73639510D01*
X156210470Y-73624279D01*
X156195443Y-73615603D01*
X156177512Y-73594234D01*
X156151949Y-73570930D01*
X156143177Y-73553314D01*
X156133780Y-73542115D01*
X156123399Y-73513595D01*
X156106574Y-73479805D01*
X156105027Y-73463119D01*
X156100968Y-73451965D01*
X156100968Y-73419302D01*
X156097182Y-73378442D01*
X156100968Y-73365135D01*
X156100968Y-73356034D01*
X156112831Y-73323437D01*
X156125040Y-73280530D01*
X156131620Y-73271816D01*
X156133779Y-73265885D01*
X156156975Y-73238241D01*
X156186386Y-73199295D01*
X156193190Y-73195081D01*
X156195445Y-73192395D01*
X156226311Y-73174573D01*
X156272936Y-73145705D01*
X156277930Y-73144771D01*
X156278525Y-73144428D01*
X156300398Y-73140571D01*
X156373000Y-73127000D01*
X157823000Y-73127000D01*
X157873899Y-73131716D01*
G37*
G36*
X147481328Y-72127177D02*
G01*
X147634566Y-72180798D01*
X147772030Y-72267172D01*
X147886828Y-72381970D01*
X147973202Y-72519434D01*
X148026823Y-72672672D01*
X148045000Y-72834000D01*
X148026823Y-72995328D01*
X147973202Y-73148566D01*
X147886828Y-73286030D01*
X147772030Y-73400828D01*
X147634566Y-73487202D01*
X147481328Y-73540823D01*
X147320000Y-73559000D01*
X147158672Y-73540823D01*
X147005434Y-73487202D01*
X146867970Y-73400828D01*
X146753172Y-73286030D01*
X146666798Y-73148566D01*
X146613177Y-72995328D01*
X146595000Y-72834000D01*
X146613177Y-72672672D01*
X146666798Y-72519434D01*
X146753172Y-72381970D01*
X146867970Y-72267172D01*
X147005434Y-72180798D01*
X147158672Y-72127177D01*
X147320000Y-72109000D01*
X147481328Y-72127177D01*
G37*
G36*
X152053328Y-72031177D02*
G01*
X152206566Y-72084798D01*
X152344030Y-72171172D01*
X152458828Y-72285970D01*
X152545202Y-72423434D01*
X152598823Y-72576672D01*
X152617000Y-72738000D01*
X152598823Y-72899328D01*
X152545202Y-73052566D01*
X152458828Y-73190030D01*
X152344030Y-73304828D01*
X152206566Y-73391202D01*
X152053328Y-73444823D01*
X151892000Y-73463000D01*
X151730672Y-73444823D01*
X151577434Y-73391202D01*
X151439970Y-73304828D01*
X151325172Y-73190030D01*
X151238798Y-73052566D01*
X151185177Y-72899328D01*
X151167000Y-72738000D01*
X151185177Y-72576672D01*
X151238798Y-72423434D01*
X151325172Y-72285970D01*
X151439970Y-72171172D01*
X151577434Y-72084798D01*
X151730672Y-72031177D01*
X151892000Y-72013000D01*
X152053328Y-72031177D01*
G37*
G36*
X155363899Y-72731716D02*
G01*
X155387722Y-72740945D01*
X155407474Y-72744428D01*
X155429423Y-72757100D01*
X155458822Y-72768490D01*
X155475528Y-72783719D01*
X155490556Y-72792396D01*
X155508486Y-72813764D01*
X155534051Y-72837070D01*
X155542822Y-72854685D01*
X155552219Y-72865884D01*
X155562599Y-72894402D01*
X155579426Y-72928195D01*
X155580971Y-72944879D01*
X155585032Y-72956034D01*
X155585032Y-72988697D01*
X155588818Y-73029558D01*
X155585032Y-73042864D01*
X155585032Y-73051965D01*
X155573170Y-73084552D01*
X155560960Y-73127470D01*
X155554377Y-73136186D01*
X155552220Y-73142114D01*
X155529041Y-73169736D01*
X155499614Y-73208705D01*
X155492805Y-73212920D01*
X155490554Y-73215604D01*
X155459726Y-73233402D01*
X155413064Y-73262295D01*
X155408065Y-73263229D01*
X155407474Y-73263571D01*
X155385687Y-73267412D01*
X155313000Y-73281000D01*
X155308628Y-73281000D01*
X153867372Y-73281000D01*
X153863000Y-73281000D01*
X153812101Y-73276284D01*
X153788273Y-73267053D01*
X153768525Y-73263571D01*
X153746578Y-73250899D01*
X153717178Y-73239510D01*
X153700470Y-73224279D01*
X153685443Y-73215603D01*
X153667512Y-73194234D01*
X153641949Y-73170930D01*
X153633177Y-73153314D01*
X153623780Y-73142115D01*
X153613399Y-73113595D01*
X153596574Y-73079805D01*
X153595027Y-73063119D01*
X153590968Y-73051965D01*
X153590968Y-73019302D01*
X153587182Y-72978442D01*
X153590968Y-72965135D01*
X153590968Y-72956034D01*
X153602831Y-72923437D01*
X153615040Y-72880530D01*
X153621620Y-72871816D01*
X153623779Y-72865885D01*
X153646975Y-72838241D01*
X153676386Y-72799295D01*
X153683190Y-72795081D01*
X153685445Y-72792395D01*
X153716311Y-72774573D01*
X153762936Y-72745705D01*
X153767930Y-72744771D01*
X153768525Y-72744428D01*
X153790398Y-72740571D01*
X153863000Y-72727000D01*
X155313000Y-72727000D01*
X155363899Y-72731716D01*
G37*
G36*
X157873899Y-72331716D02*
G01*
X157897722Y-72340945D01*
X157917474Y-72344428D01*
X157939423Y-72357100D01*
X157968822Y-72368490D01*
X157985528Y-72383719D01*
X158000556Y-72392396D01*
X158018486Y-72413764D01*
X158044051Y-72437070D01*
X158052822Y-72454685D01*
X158062219Y-72465884D01*
X158072599Y-72494402D01*
X158089426Y-72528195D01*
X158090971Y-72544879D01*
X158095032Y-72556034D01*
X158095032Y-72588697D01*
X158098818Y-72629558D01*
X158095032Y-72642864D01*
X158095032Y-72651965D01*
X158083170Y-72684552D01*
X158070960Y-72727470D01*
X158064377Y-72736186D01*
X158062220Y-72742114D01*
X158039041Y-72769736D01*
X158009614Y-72808705D01*
X158002805Y-72812920D01*
X158000554Y-72815604D01*
X157969726Y-72833402D01*
X157923064Y-72862295D01*
X157918065Y-72863229D01*
X157917474Y-72863571D01*
X157895687Y-72867412D01*
X157823000Y-72881000D01*
X157818628Y-72881000D01*
X156377372Y-72881000D01*
X156373000Y-72881000D01*
X156322101Y-72876284D01*
X156298273Y-72867053D01*
X156278525Y-72863571D01*
X156256578Y-72850899D01*
X156227178Y-72839510D01*
X156210470Y-72824279D01*
X156195443Y-72815603D01*
X156177512Y-72794234D01*
X156151949Y-72770930D01*
X156143177Y-72753314D01*
X156133780Y-72742115D01*
X156123399Y-72713595D01*
X156106574Y-72679805D01*
X156105027Y-72663119D01*
X156100968Y-72651965D01*
X156100968Y-72619302D01*
X156097182Y-72578442D01*
X156100968Y-72565135D01*
X156100968Y-72556034D01*
X156112831Y-72523437D01*
X156125040Y-72480530D01*
X156131620Y-72471816D01*
X156133779Y-72465885D01*
X156156975Y-72438241D01*
X156186386Y-72399295D01*
X156193190Y-72395081D01*
X156195445Y-72392395D01*
X156226311Y-72374573D01*
X156272936Y-72345705D01*
X156277930Y-72344771D01*
X156278525Y-72344428D01*
X156300398Y-72340571D01*
X156373000Y-72327000D01*
X157823000Y-72327000D01*
X157873899Y-72331716D01*
G37*
G36*
X155363899Y-71931716D02*
G01*
X155387722Y-71940945D01*
X155407474Y-71944428D01*
X155429423Y-71957100D01*
X155458822Y-71968490D01*
X155475528Y-71983719D01*
X155490556Y-71992396D01*
X155508486Y-72013764D01*
X155534051Y-72037070D01*
X155542822Y-72054685D01*
X155552219Y-72065884D01*
X155562599Y-72094402D01*
X155579426Y-72128195D01*
X155580971Y-72144879D01*
X155585032Y-72156034D01*
X155585032Y-72188697D01*
X155588818Y-72229558D01*
X155585032Y-72242864D01*
X155585032Y-72251965D01*
X155573170Y-72284552D01*
X155560960Y-72327470D01*
X155554377Y-72336186D01*
X155552220Y-72342114D01*
X155529041Y-72369736D01*
X155499614Y-72408705D01*
X155492805Y-72412920D01*
X155490554Y-72415604D01*
X155459726Y-72433402D01*
X155413064Y-72462295D01*
X155408065Y-72463229D01*
X155407474Y-72463571D01*
X155385687Y-72467412D01*
X155313000Y-72481000D01*
X155308628Y-72481000D01*
X153867372Y-72481000D01*
X153863000Y-72481000D01*
X153812101Y-72476284D01*
X153788273Y-72467053D01*
X153768525Y-72463571D01*
X153746578Y-72450899D01*
X153717178Y-72439510D01*
X153700470Y-72424279D01*
X153685443Y-72415603D01*
X153667512Y-72394234D01*
X153641949Y-72370930D01*
X153633177Y-72353314D01*
X153623780Y-72342115D01*
X153613399Y-72313595D01*
X153596574Y-72279805D01*
X153595027Y-72263119D01*
X153590968Y-72251965D01*
X153590968Y-72219302D01*
X153587182Y-72178442D01*
X153590968Y-72165135D01*
X153590968Y-72156034D01*
X153602831Y-72123437D01*
X153615040Y-72080530D01*
X153621620Y-72071816D01*
X153623779Y-72065885D01*
X153646975Y-72038241D01*
X153676386Y-71999295D01*
X153683190Y-71995081D01*
X153685445Y-71992395D01*
X153716311Y-71974573D01*
X153762936Y-71945705D01*
X153767930Y-71944771D01*
X153768525Y-71944428D01*
X153790398Y-71940571D01*
X153863000Y-71927000D01*
X155313000Y-71927000D01*
X155363899Y-71931716D01*
G37*
G36*
X157873899Y-71531716D02*
G01*
X157897722Y-71540945D01*
X157917474Y-71544428D01*
X157939423Y-71557100D01*
X157968822Y-71568490D01*
X157985528Y-71583719D01*
X158000556Y-71592396D01*
X158018486Y-71613764D01*
X158044051Y-71637070D01*
X158052822Y-71654685D01*
X158062219Y-71665884D01*
X158072599Y-71694402D01*
X158089426Y-71728195D01*
X158090971Y-71744879D01*
X158095032Y-71756034D01*
X158095032Y-71788697D01*
X158098818Y-71829558D01*
X158095032Y-71842864D01*
X158095032Y-71851965D01*
X158083170Y-71884552D01*
X158070960Y-71927470D01*
X158064377Y-71936186D01*
X158062220Y-71942114D01*
X158039041Y-71969736D01*
X158009614Y-72008705D01*
X158002805Y-72012920D01*
X158000554Y-72015604D01*
X157969726Y-72033402D01*
X157923064Y-72062295D01*
X157918065Y-72063229D01*
X157917474Y-72063571D01*
X157895687Y-72067412D01*
X157823000Y-72081000D01*
X157818628Y-72081000D01*
X156377372Y-72081000D01*
X156373000Y-72081000D01*
X156322101Y-72076284D01*
X156298273Y-72067053D01*
X156278525Y-72063571D01*
X156256578Y-72050899D01*
X156227178Y-72039510D01*
X156210470Y-72024279D01*
X156195443Y-72015603D01*
X156177512Y-71994234D01*
X156151949Y-71970930D01*
X156143177Y-71953314D01*
X156133780Y-71942115D01*
X156123399Y-71913595D01*
X156106574Y-71879805D01*
X156105027Y-71863119D01*
X156100968Y-71851965D01*
X156100968Y-71819302D01*
X156097182Y-71778442D01*
X156100968Y-71765135D01*
X156100968Y-71756034D01*
X156112831Y-71723437D01*
X156125040Y-71680530D01*
X156131620Y-71671816D01*
X156133779Y-71665885D01*
X156156975Y-71638241D01*
X156186386Y-71599295D01*
X156193190Y-71595081D01*
X156195445Y-71592395D01*
X156226311Y-71574573D01*
X156272936Y-71545705D01*
X156277930Y-71544771D01*
X156278525Y-71544428D01*
X156300398Y-71540571D01*
X156373000Y-71527000D01*
X157823000Y-71527000D01*
X157873899Y-71531716D01*
G37*
G36*
X155363899Y-71131716D02*
G01*
X155387722Y-71140945D01*
X155407474Y-71144428D01*
X155429423Y-71157100D01*
X155458822Y-71168490D01*
X155475528Y-71183719D01*
X155490556Y-71192396D01*
X155508486Y-71213764D01*
X155534051Y-71237070D01*
X155542822Y-71254685D01*
X155552219Y-71265884D01*
X155562599Y-71294402D01*
X155579426Y-71328195D01*
X155580971Y-71344879D01*
X155585032Y-71356034D01*
X155585032Y-71388697D01*
X155588818Y-71429558D01*
X155585032Y-71442864D01*
X155585032Y-71451965D01*
X155573170Y-71484552D01*
X155560960Y-71527470D01*
X155554377Y-71536186D01*
X155552220Y-71542114D01*
X155529041Y-71569736D01*
X155499614Y-71608705D01*
X155492805Y-71612920D01*
X155490554Y-71615604D01*
X155459726Y-71633402D01*
X155413064Y-71662295D01*
X155408065Y-71663229D01*
X155407474Y-71663571D01*
X155385687Y-71667412D01*
X155313000Y-71681000D01*
X155308628Y-71681000D01*
X153867372Y-71681000D01*
X153863000Y-71681000D01*
X153812101Y-71676284D01*
X153788273Y-71667053D01*
X153768525Y-71663571D01*
X153746578Y-71650899D01*
X153717178Y-71639510D01*
X153700470Y-71624279D01*
X153685443Y-71615603D01*
X153667512Y-71594234D01*
X153641949Y-71570930D01*
X153633177Y-71553314D01*
X153623780Y-71542115D01*
X153613399Y-71513595D01*
X153596574Y-71479805D01*
X153595027Y-71463119D01*
X153590968Y-71451965D01*
X153590968Y-71419302D01*
X153587182Y-71378442D01*
X153590968Y-71365135D01*
X153590968Y-71356034D01*
X153602831Y-71323437D01*
X153615040Y-71280530D01*
X153621620Y-71271816D01*
X153623779Y-71265885D01*
X153646975Y-71238241D01*
X153676386Y-71199295D01*
X153683190Y-71195081D01*
X153685445Y-71192395D01*
X153716311Y-71174573D01*
X153762936Y-71145705D01*
X153767930Y-71144771D01*
X153768525Y-71144428D01*
X153790398Y-71140571D01*
X153863000Y-71127000D01*
X155313000Y-71127000D01*
X155363899Y-71131716D01*
G37*
G36*
X147481328Y-70127177D02*
G01*
X147634566Y-70180798D01*
X147772030Y-70267172D01*
X147886828Y-70381970D01*
X147973202Y-70519434D01*
X148026823Y-70672672D01*
X148045000Y-70834000D01*
X148026823Y-70995328D01*
X147973202Y-71148566D01*
X147886828Y-71286030D01*
X147772030Y-71400828D01*
X147634566Y-71487202D01*
X147481328Y-71540823D01*
X147320000Y-71559000D01*
X147158672Y-71540823D01*
X147005434Y-71487202D01*
X146867970Y-71400828D01*
X146753172Y-71286030D01*
X146666798Y-71148566D01*
X146613177Y-70995328D01*
X146595000Y-70834000D01*
X146613177Y-70672672D01*
X146666798Y-70519434D01*
X146753172Y-70381970D01*
X146867970Y-70267172D01*
X147005434Y-70180798D01*
X147158672Y-70127177D01*
X147320000Y-70109000D01*
X147481328Y-70127177D01*
G37*
G36*
X152053328Y-70031177D02*
G01*
X152206566Y-70084798D01*
X152344030Y-70171172D01*
X152458828Y-70285970D01*
X152545202Y-70423434D01*
X152598823Y-70576672D01*
X152617000Y-70738000D01*
X152598823Y-70899328D01*
X152545202Y-71052566D01*
X152458828Y-71190030D01*
X152344030Y-71304828D01*
X152206566Y-71391202D01*
X152053328Y-71444823D01*
X151892000Y-71463000D01*
X151730672Y-71444823D01*
X151577434Y-71391202D01*
X151439970Y-71304828D01*
X151325172Y-71190030D01*
X151238798Y-71052566D01*
X151185177Y-70899328D01*
X151167000Y-70738000D01*
X151185177Y-70576672D01*
X151238798Y-70423434D01*
X151325172Y-70285970D01*
X151439970Y-70171172D01*
X151577434Y-70084798D01*
X151730672Y-70031177D01*
X151892000Y-70013000D01*
X152053328Y-70031177D01*
G37*
G36*
X157873899Y-70731716D02*
G01*
X157897722Y-70740945D01*
X157917474Y-70744428D01*
X157939423Y-70757100D01*
X157968822Y-70768490D01*
X157985528Y-70783719D01*
X158000556Y-70792396D01*
X158018486Y-70813764D01*
X158044051Y-70837070D01*
X158052822Y-70854685D01*
X158062219Y-70865884D01*
X158072599Y-70894402D01*
X158089426Y-70928195D01*
X158090971Y-70944879D01*
X158095032Y-70956034D01*
X158095032Y-70988697D01*
X158098818Y-71029558D01*
X158095032Y-71042864D01*
X158095032Y-71051965D01*
X158083170Y-71084552D01*
X158070960Y-71127470D01*
X158064377Y-71136186D01*
X158062220Y-71142114D01*
X158039041Y-71169736D01*
X158009614Y-71208705D01*
X158002805Y-71212920D01*
X158000554Y-71215604D01*
X157969726Y-71233402D01*
X157923064Y-71262295D01*
X157918065Y-71263229D01*
X157917474Y-71263571D01*
X157895687Y-71267412D01*
X157823000Y-71281000D01*
X157818628Y-71281000D01*
X156377372Y-71281000D01*
X156373000Y-71281000D01*
X156322101Y-71276284D01*
X156298273Y-71267053D01*
X156278525Y-71263571D01*
X156256578Y-71250899D01*
X156227178Y-71239510D01*
X156210470Y-71224279D01*
X156195443Y-71215603D01*
X156177512Y-71194234D01*
X156151949Y-71170930D01*
X156143177Y-71153314D01*
X156133780Y-71142115D01*
X156123399Y-71113595D01*
X156106574Y-71079805D01*
X156105027Y-71063119D01*
X156100968Y-71051965D01*
X156100968Y-71019302D01*
X156097182Y-70978442D01*
X156100968Y-70965135D01*
X156100968Y-70956034D01*
X156112831Y-70923437D01*
X156125040Y-70880530D01*
X156131620Y-70871816D01*
X156133779Y-70865885D01*
X156156975Y-70838241D01*
X156186386Y-70799295D01*
X156193190Y-70795081D01*
X156195445Y-70792395D01*
X156226311Y-70774573D01*
X156272936Y-70745705D01*
X156277930Y-70744771D01*
X156278525Y-70744428D01*
X156300398Y-70740571D01*
X156373000Y-70727000D01*
X157823000Y-70727000D01*
X157873899Y-70731716D01*
G37*
G36*
X162539119Y-69200357D02*
G01*
X162700500Y-69272209D01*
X162843415Y-69376043D01*
X162961619Y-69507321D01*
X163049946Y-69660308D01*
X163104535Y-69828315D01*
X163123000Y-70004000D01*
X163104535Y-70179685D01*
X163049946Y-70347692D01*
X162961619Y-70500679D01*
X162843415Y-70631957D01*
X162700500Y-70735791D01*
X162539119Y-70807643D01*
X162366327Y-70844371D01*
X162189673Y-70844371D01*
X162016881Y-70807643D01*
X161855500Y-70735791D01*
X161712585Y-70631957D01*
X161594381Y-70500679D01*
X161506054Y-70347692D01*
X161451465Y-70179685D01*
X161433000Y-70004000D01*
X161451465Y-69828315D01*
X161506054Y-69660308D01*
X161594381Y-69507321D01*
X161712585Y-69376043D01*
X161855500Y-69272209D01*
X162016881Y-69200357D01*
X162189673Y-69163629D01*
X162366327Y-69163629D01*
X162539119Y-69200357D01*
G37*
G36*
X168038401Y-68327552D02*
G01*
X168079610Y-68327552D01*
X168126094Y-68337432D01*
X168171789Y-68342581D01*
X168205017Y-68354208D01*
X168239257Y-68361486D01*
X168288600Y-68383455D01*
X168336863Y-68400343D01*
X168361984Y-68416127D01*
X168388360Y-68427871D01*
X168437545Y-68463605D01*
X168484946Y-68493390D01*
X168501967Y-68510411D01*
X168520405Y-68523807D01*
X168565985Y-68574429D01*
X168608610Y-68617054D01*
X168618415Y-68632658D01*
X168629620Y-68645103D01*
X168667954Y-68711499D01*
X168701657Y-68765137D01*
X168705864Y-68777162D01*
X168711226Y-68786448D01*
X168738679Y-68870940D01*
X168759419Y-68930211D01*
X168760205Y-68937191D01*
X168761664Y-68941680D01*
X168774892Y-69067540D01*
X168779000Y-69104000D01*
X168774891Y-69140462D01*
X168761664Y-69266319D01*
X168760205Y-69270807D01*
X168759419Y-69277789D01*
X168738674Y-69337072D01*
X168711226Y-69421551D01*
X168705865Y-69430835D01*
X168701657Y-69442863D01*
X168667947Y-69496511D01*
X168629620Y-69562896D01*
X168618417Y-69575338D01*
X168608610Y-69590946D01*
X168565976Y-69633579D01*
X168520405Y-69684192D01*
X168501970Y-69697585D01*
X168484946Y-69714610D01*
X168437534Y-69744400D01*
X168388360Y-69780128D01*
X168361989Y-69791868D01*
X168336863Y-69807657D01*
X168288590Y-69824548D01*
X168239257Y-69846513D01*
X168205023Y-69853789D01*
X168171789Y-69865419D01*
X168126091Y-69870567D01*
X168079610Y-69880448D01*
X168038401Y-69880448D01*
X167998000Y-69885000D01*
X167957599Y-69880448D01*
X167916390Y-69880448D01*
X167869908Y-69870567D01*
X167824211Y-69865419D01*
X167790978Y-69853790D01*
X167756742Y-69846513D01*
X167707405Y-69824546D01*
X167659137Y-69807657D01*
X167634012Y-69791870D01*
X167607639Y-69780128D01*
X167558457Y-69744395D01*
X167511054Y-69714610D01*
X167494031Y-69697587D01*
X167475594Y-69684192D01*
X167430013Y-69633569D01*
X167387390Y-69590946D01*
X167377585Y-69575341D01*
X167366379Y-69562896D01*
X167328040Y-69496491D01*
X167294343Y-69442863D01*
X167290135Y-69430839D01*
X167284773Y-69421551D01*
X167257311Y-69337032D01*
X167236581Y-69277789D01*
X167235794Y-69270812D01*
X167234335Y-69266319D01*
X167221093Y-69140330D01*
X167217000Y-69104000D01*
X167221093Y-69067672D01*
X167234335Y-68941680D01*
X167235795Y-68937186D01*
X167236581Y-68930211D01*
X167257306Y-68870980D01*
X167284773Y-68786448D01*
X167290136Y-68777157D01*
X167294343Y-68765137D01*
X167328033Y-68711519D01*
X167366379Y-68645103D01*
X167377587Y-68632654D01*
X167387390Y-68617054D01*
X167430005Y-68574438D01*
X167475596Y-68523805D01*
X167494037Y-68510406D01*
X167511054Y-68493390D01*
X167558444Y-68463612D01*
X167607636Y-68427873D01*
X167634015Y-68416127D01*
X167659137Y-68400343D01*
X167707396Y-68383456D01*
X167756744Y-68361485D01*
X167790987Y-68354206D01*
X167824211Y-68342581D01*
X167869903Y-68337432D01*
X167916390Y-68327552D01*
X167957599Y-68327552D01*
X167998000Y-68323000D01*
X168038401Y-68327552D01*
G37*
G36*
X171538401Y-68327552D02*
G01*
X171579610Y-68327552D01*
X171626094Y-68337432D01*
X171671789Y-68342581D01*
X171705017Y-68354208D01*
X171739257Y-68361486D01*
X171788600Y-68383455D01*
X171836863Y-68400343D01*
X171861984Y-68416127D01*
X171888360Y-68427871D01*
X171937545Y-68463605D01*
X171984946Y-68493390D01*
X172001967Y-68510411D01*
X172020405Y-68523807D01*
X172065985Y-68574429D01*
X172108610Y-68617054D01*
X172118415Y-68632658D01*
X172129620Y-68645103D01*
X172167954Y-68711499D01*
X172201657Y-68765137D01*
X172205864Y-68777162D01*
X172211226Y-68786448D01*
X172238679Y-68870940D01*
X172259419Y-68930211D01*
X172260205Y-68937191D01*
X172261664Y-68941680D01*
X172274892Y-69067540D01*
X172279000Y-69104000D01*
X172274891Y-69140462D01*
X172261664Y-69266319D01*
X172260205Y-69270807D01*
X172259419Y-69277789D01*
X172238674Y-69337072D01*
X172211226Y-69421551D01*
X172205865Y-69430835D01*
X172201657Y-69442863D01*
X172167947Y-69496511D01*
X172129620Y-69562896D01*
X172118417Y-69575338D01*
X172108610Y-69590946D01*
X172065976Y-69633579D01*
X172020405Y-69684192D01*
X172001970Y-69697585D01*
X171984946Y-69714610D01*
X171937534Y-69744400D01*
X171888360Y-69780128D01*
X171861989Y-69791868D01*
X171836863Y-69807657D01*
X171788590Y-69824548D01*
X171739257Y-69846513D01*
X171705023Y-69853789D01*
X171671789Y-69865419D01*
X171626091Y-69870567D01*
X171579610Y-69880448D01*
X171538401Y-69880448D01*
X171498000Y-69885000D01*
X171457599Y-69880448D01*
X171416390Y-69880448D01*
X171369908Y-69870567D01*
X171324211Y-69865419D01*
X171290978Y-69853790D01*
X171256742Y-69846513D01*
X171207405Y-69824546D01*
X171159137Y-69807657D01*
X171134012Y-69791870D01*
X171107639Y-69780128D01*
X171058457Y-69744395D01*
X171011054Y-69714610D01*
X170994031Y-69697587D01*
X170975594Y-69684192D01*
X170930013Y-69633569D01*
X170887390Y-69590946D01*
X170877585Y-69575341D01*
X170866379Y-69562896D01*
X170828040Y-69496491D01*
X170794343Y-69442863D01*
X170790135Y-69430839D01*
X170784773Y-69421551D01*
X170757311Y-69337032D01*
X170736581Y-69277789D01*
X170735794Y-69270812D01*
X170734335Y-69266319D01*
X170721093Y-69140330D01*
X170717000Y-69104000D01*
X170721093Y-69067672D01*
X170734335Y-68941680D01*
X170735795Y-68937186D01*
X170736581Y-68930211D01*
X170757306Y-68870980D01*
X170784773Y-68786448D01*
X170790136Y-68777157D01*
X170794343Y-68765137D01*
X170828033Y-68711519D01*
X170866379Y-68645103D01*
X170877587Y-68632654D01*
X170887390Y-68617054D01*
X170930005Y-68574438D01*
X170975596Y-68523805D01*
X170994037Y-68510406D01*
X171011054Y-68493390D01*
X171058444Y-68463612D01*
X171107636Y-68427873D01*
X171134015Y-68416127D01*
X171159137Y-68400343D01*
X171207396Y-68383456D01*
X171256744Y-68361485D01*
X171290987Y-68354206D01*
X171324211Y-68342581D01*
X171369903Y-68337432D01*
X171416390Y-68327552D01*
X171457599Y-68327552D01*
X171498000Y-68323000D01*
X171538401Y-68327552D01*
G37*
G36*
X174538401Y-68327552D02*
G01*
X174579610Y-68327552D01*
X174626094Y-68337432D01*
X174671789Y-68342581D01*
X174705017Y-68354208D01*
X174739257Y-68361486D01*
X174788600Y-68383455D01*
X174836863Y-68400343D01*
X174861984Y-68416127D01*
X174888360Y-68427871D01*
X174937545Y-68463605D01*
X174984946Y-68493390D01*
X175001967Y-68510411D01*
X175020405Y-68523807D01*
X175065985Y-68574429D01*
X175108610Y-68617054D01*
X175118415Y-68632658D01*
X175129620Y-68645103D01*
X175167954Y-68711499D01*
X175201657Y-68765137D01*
X175205864Y-68777162D01*
X175211226Y-68786448D01*
X175238679Y-68870940D01*
X175259419Y-68930211D01*
X175260205Y-68937191D01*
X175261664Y-68941680D01*
X175274892Y-69067540D01*
X175279000Y-69104000D01*
X175274891Y-69140462D01*
X175261664Y-69266319D01*
X175260205Y-69270807D01*
X175259419Y-69277789D01*
X175238674Y-69337072D01*
X175211226Y-69421551D01*
X175205865Y-69430835D01*
X175201657Y-69442863D01*
X175167947Y-69496511D01*
X175129620Y-69562896D01*
X175118417Y-69575338D01*
X175108610Y-69590946D01*
X175065976Y-69633579D01*
X175020405Y-69684192D01*
X175001970Y-69697585D01*
X174984946Y-69714610D01*
X174937534Y-69744400D01*
X174888360Y-69780128D01*
X174861989Y-69791868D01*
X174836863Y-69807657D01*
X174788590Y-69824548D01*
X174739257Y-69846513D01*
X174705023Y-69853789D01*
X174671789Y-69865419D01*
X174626091Y-69870567D01*
X174579610Y-69880448D01*
X174538401Y-69880448D01*
X174498000Y-69885000D01*
X174457599Y-69880448D01*
X174416390Y-69880448D01*
X174369908Y-69870567D01*
X174324211Y-69865419D01*
X174290978Y-69853790D01*
X174256742Y-69846513D01*
X174207405Y-69824546D01*
X174159137Y-69807657D01*
X174134012Y-69791870D01*
X174107639Y-69780128D01*
X174058457Y-69744395D01*
X174011054Y-69714610D01*
X173994031Y-69697587D01*
X173975594Y-69684192D01*
X173930013Y-69633569D01*
X173887390Y-69590946D01*
X173877585Y-69575341D01*
X173866379Y-69562896D01*
X173828040Y-69496491D01*
X173794343Y-69442863D01*
X173790135Y-69430839D01*
X173784773Y-69421551D01*
X173757311Y-69337032D01*
X173736581Y-69277789D01*
X173735794Y-69270812D01*
X173734335Y-69266319D01*
X173721093Y-69140330D01*
X173717000Y-69104000D01*
X173721093Y-69067672D01*
X173734335Y-68941680D01*
X173735795Y-68937186D01*
X173736581Y-68930211D01*
X173757306Y-68870980D01*
X173784773Y-68786448D01*
X173790136Y-68777157D01*
X173794343Y-68765137D01*
X173828033Y-68711519D01*
X173866379Y-68645103D01*
X173877587Y-68632654D01*
X173887390Y-68617054D01*
X173930005Y-68574438D01*
X173975596Y-68523805D01*
X173994037Y-68510406D01*
X174011054Y-68493390D01*
X174058444Y-68463612D01*
X174107636Y-68427873D01*
X174134015Y-68416127D01*
X174159137Y-68400343D01*
X174207396Y-68383456D01*
X174256744Y-68361485D01*
X174290987Y-68354206D01*
X174324211Y-68342581D01*
X174369903Y-68337432D01*
X174416390Y-68327552D01*
X174457599Y-68327552D01*
X174498000Y-68323000D01*
X174538401Y-68327552D01*
G37*
G36*
X147481328Y-68127177D02*
G01*
X147634566Y-68180798D01*
X147772030Y-68267172D01*
X147886828Y-68381970D01*
X147973202Y-68519434D01*
X148026823Y-68672672D01*
X148045000Y-68834000D01*
X148026823Y-68995328D01*
X147973202Y-69148566D01*
X147886828Y-69286030D01*
X147772030Y-69400828D01*
X147634566Y-69487202D01*
X147481328Y-69540823D01*
X147320000Y-69559000D01*
X147158672Y-69540823D01*
X147005434Y-69487202D01*
X146867970Y-69400828D01*
X146753172Y-69286030D01*
X146666798Y-69148566D01*
X146613177Y-68995328D01*
X146595000Y-68834000D01*
X146613177Y-68672672D01*
X146666798Y-68519434D01*
X146753172Y-68381970D01*
X146867970Y-68267172D01*
X147005434Y-68180798D01*
X147158672Y-68127177D01*
X147320000Y-68109000D01*
X147481328Y-68127177D01*
G37*
G36*
X152053328Y-68031177D02*
G01*
X152206566Y-68084798D01*
X152344030Y-68171172D01*
X152458828Y-68285970D01*
X152545202Y-68423434D01*
X152598823Y-68576672D01*
X152617000Y-68738000D01*
X152598823Y-68899328D01*
X152545202Y-69052566D01*
X152458828Y-69190030D01*
X152344030Y-69304828D01*
X152206566Y-69391202D01*
X152053328Y-69444823D01*
X151892000Y-69463000D01*
X151730672Y-69444823D01*
X151577434Y-69391202D01*
X151439970Y-69304828D01*
X151325172Y-69190030D01*
X151238798Y-69052566D01*
X151185177Y-68899328D01*
X151167000Y-68738000D01*
X151185177Y-68576672D01*
X151238798Y-68423434D01*
X151325172Y-68285970D01*
X151439970Y-68171172D01*
X151577434Y-68084798D01*
X151730672Y-68031177D01*
X151892000Y-68013000D01*
X152053328Y-68031177D01*
G37*
G36*
X147481328Y-66127177D02*
G01*
X147634566Y-66180798D01*
X147772030Y-66267172D01*
X147886828Y-66381970D01*
X147973202Y-66519434D01*
X148026823Y-66672672D01*
X148045000Y-66834000D01*
X148026823Y-66995328D01*
X147973202Y-67148566D01*
X147886828Y-67286030D01*
X147772030Y-67400828D01*
X147634566Y-67487202D01*
X147481328Y-67540823D01*
X147320000Y-67559000D01*
X147158672Y-67540823D01*
X147005434Y-67487202D01*
X146867970Y-67400828D01*
X146753172Y-67286030D01*
X146666798Y-67148566D01*
X146613177Y-66995328D01*
X146595000Y-66834000D01*
X146613177Y-66672672D01*
X146666798Y-66519434D01*
X146753172Y-66381970D01*
X146867970Y-66267172D01*
X147005434Y-66180798D01*
X147158672Y-66127177D01*
X147320000Y-66109000D01*
X147481328Y-66127177D01*
G37*
G36*
X152053328Y-66031177D02*
G01*
X152206566Y-66084798D01*
X152344030Y-66171172D01*
X152458828Y-66285970D01*
X152545202Y-66423434D01*
X152598823Y-66576672D01*
X152617000Y-66738000D01*
X152598823Y-66899328D01*
X152545202Y-67052566D01*
X152458828Y-67190030D01*
X152344030Y-67304828D01*
X152206566Y-67391202D01*
X152053328Y-67444823D01*
X151892000Y-67463000D01*
X151730672Y-67444823D01*
X151577434Y-67391202D01*
X151439970Y-67304828D01*
X151325172Y-67190030D01*
X151238798Y-67052566D01*
X151185177Y-66899328D01*
X151167000Y-66738000D01*
X151185177Y-66576672D01*
X151238798Y-66423434D01*
X151325172Y-66285970D01*
X151439970Y-66171172D01*
X151577434Y-66084798D01*
X151730672Y-66031177D01*
X151892000Y-66013000D01*
X152053328Y-66031177D01*
G37*
G36*
X147481328Y-64127177D02*
G01*
X147634566Y-64180798D01*
X147772030Y-64267172D01*
X147886828Y-64381970D01*
X147973202Y-64519434D01*
X148026823Y-64672672D01*
X148045000Y-64834000D01*
X148026823Y-64995328D01*
X147973202Y-65148566D01*
X147886828Y-65286030D01*
X147772030Y-65400828D01*
X147634566Y-65487202D01*
X147481328Y-65540823D01*
X147320000Y-65559000D01*
X147158672Y-65540823D01*
X147005434Y-65487202D01*
X146867970Y-65400828D01*
X146753172Y-65286030D01*
X146666798Y-65148566D01*
X146613177Y-64995328D01*
X146595000Y-64834000D01*
X146613177Y-64672672D01*
X146666798Y-64519434D01*
X146753172Y-64381970D01*
X146867970Y-64267172D01*
X147005434Y-64180798D01*
X147158672Y-64127177D01*
X147320000Y-64109000D01*
X147481328Y-64127177D01*
G37*
G36*
X152053328Y-64031177D02*
G01*
X152206566Y-64084798D01*
X152344030Y-64171172D01*
X152458828Y-64285970D01*
X152545202Y-64423434D01*
X152598823Y-64576672D01*
X152617000Y-64738000D01*
X152598823Y-64899328D01*
X152545202Y-65052566D01*
X152458828Y-65190030D01*
X152344030Y-65304828D01*
X152206566Y-65391202D01*
X152053328Y-65444823D01*
X151892000Y-65463000D01*
X151730672Y-65444823D01*
X151577434Y-65391202D01*
X151439970Y-65304828D01*
X151325172Y-65190030D01*
X151238798Y-65052566D01*
X151185177Y-64899328D01*
X151167000Y-64738000D01*
X151185177Y-64576672D01*
X151238798Y-64423434D01*
X151325172Y-64285970D01*
X151439970Y-64171172D01*
X151577434Y-64084798D01*
X151730672Y-64031177D01*
X151892000Y-64013000D01*
X152053328Y-64031177D01*
G37*
G36*
X147481328Y-62127177D02*
G01*
X147634566Y-62180798D01*
X147772030Y-62267172D01*
X147886828Y-62381970D01*
X147973202Y-62519434D01*
X148026823Y-62672672D01*
X148045000Y-62834000D01*
X148026823Y-62995328D01*
X147973202Y-63148566D01*
X147886828Y-63286030D01*
X147772030Y-63400828D01*
X147634566Y-63487202D01*
X147481328Y-63540823D01*
X147320000Y-63559000D01*
X147158672Y-63540823D01*
X147005434Y-63487202D01*
X146867970Y-63400828D01*
X146753172Y-63286030D01*
X146666798Y-63148566D01*
X146613177Y-62995328D01*
X146595000Y-62834000D01*
X146613177Y-62672672D01*
X146666798Y-62519434D01*
X146753172Y-62381970D01*
X146867970Y-62267172D01*
X147005434Y-62180798D01*
X147158672Y-62127177D01*
X147320000Y-62109000D01*
X147481328Y-62127177D01*
G37*
G36*
X152053328Y-62031177D02*
G01*
X152206566Y-62084798D01*
X152344030Y-62171172D01*
X152458828Y-62285970D01*
X152545202Y-62423434D01*
X152598823Y-62576672D01*
X152617000Y-62738000D01*
X152598823Y-62899328D01*
X152545202Y-63052566D01*
X152458828Y-63190030D01*
X152344030Y-63304828D01*
X152206566Y-63391202D01*
X152053328Y-63444823D01*
X151892000Y-63463000D01*
X151730672Y-63444823D01*
X151577434Y-63391202D01*
X151439970Y-63304828D01*
X151325172Y-63190030D01*
X151238798Y-63052566D01*
X151185177Y-62899328D01*
X151167000Y-62738000D01*
X151185177Y-62576672D01*
X151238798Y-62423434D01*
X151325172Y-62285970D01*
X151439970Y-62171172D01*
X151577434Y-62084798D01*
X151730672Y-62031177D01*
X151892000Y-62013000D01*
X152053328Y-62031177D01*
G37*
G36*
X147481328Y-60127177D02*
G01*
X147634566Y-60180798D01*
X147772030Y-60267172D01*
X147886828Y-60381970D01*
X147973202Y-60519434D01*
X148026823Y-60672672D01*
X148045000Y-60834000D01*
X148026823Y-60995328D01*
X147973202Y-61148566D01*
X147886828Y-61286030D01*
X147772030Y-61400828D01*
X147634566Y-61487202D01*
X147481328Y-61540823D01*
X147320000Y-61559000D01*
X147158672Y-61540823D01*
X147005434Y-61487202D01*
X146867970Y-61400828D01*
X146753172Y-61286030D01*
X146666798Y-61148566D01*
X146613177Y-60995328D01*
X146595000Y-60834000D01*
X146613177Y-60672672D01*
X146666798Y-60519434D01*
X146753172Y-60381970D01*
X146867970Y-60267172D01*
X147005434Y-60180798D01*
X147158672Y-60127177D01*
X147320000Y-60109000D01*
X147481328Y-60127177D01*
G37*
G36*
X152586134Y-60016806D02*
G01*
X152602355Y-60027645D01*
X152613194Y-60043866D01*
X152617000Y-60063000D01*
X152617000Y-61413000D01*
X152613194Y-61432134D01*
X152602355Y-61448355D01*
X152586134Y-61459194D01*
X152567000Y-61463000D01*
X151217000Y-61463000D01*
X151197866Y-61459194D01*
X151181645Y-61448355D01*
X151170806Y-61432134D01*
X151167000Y-61413000D01*
X151167000Y-60063000D01*
X151170806Y-60043866D01*
X151181645Y-60027645D01*
X151197866Y-60016806D01*
X151217000Y-60013000D01*
X152567000Y-60013000D01*
X152586134Y-60016806D01*
G37*
M02*
