G04 #@! TF.GenerationSoftware,KiCad,Pcbnew,7.0.9*
G04 #@! TF.CreationDate,2024-04-10T09:45:46+08:00*
G04 #@! TF.ProjectId,6__ 2.5_NAS,36d84d20-322e-435f-984e-41532e6b6963,0.3*
G04 #@! TF.SameCoordinates,PXbbc77c0PY26f37c0*
G04 #@! TF.FileFunction,Paste,Bot*
G04 #@! TF.FilePolarity,Positive*
%FSLAX45Y45*%
G04 Gerber Fmt 4.5, Leading zero omitted, Abs format (unit mm)*
G04 Created by KiCad (PCBNEW 7.0.9) date 2024-04-10 09:45:46*
%MOMM*%
%LPD*%
G01*
G04 APERTURE LIST*
G04 Aperture macros list*
%AMRoundRect*
0 Rectangle with rounded corners*
0 $1 Rounding radius*
0 $2 $3 $4 $5 $6 $7 $8 $9 X,Y pos of 4 corners*
0 Add a 4 corners polygon primitive as box body*
4,1,4,$2,$3,$4,$5,$6,$7,$8,$9,$2,$3,0*
0 Add four circle primitives for the rounded corners*
1,1,$1+$1,$2,$3*
1,1,$1+$1,$4,$5*
1,1,$1+$1,$6,$7*
1,1,$1+$1,$8,$9*
0 Add four rect primitives between the rounded corners*
20,1,$1+$1,$2,$3,$4,$5,0*
20,1,$1+$1,$4,$5,$6,$7,0*
20,1,$1+$1,$6,$7,$8,$9,0*
20,1,$1+$1,$8,$9,$2,$3,0*%
G04 Aperture macros list end*
%ADD10RoundRect,0.147500X-0.172500X0.147500X-0.172500X-0.147500X0.172500X-0.147500X0.172500X0.147500X0*%
%ADD11R,1.000000X1.000000*%
%ADD12RoundRect,0.150000X-0.150000X0.675000X-0.150000X-0.675000X0.150000X-0.675000X0.150000X0.675000X0*%
%ADD13RoundRect,0.150000X-0.587500X-0.150000X0.587500X-0.150000X0.587500X0.150000X-0.587500X0.150000X0*%
%ADD14RoundRect,0.250000X1.500000X0.550000X-1.500000X0.550000X-1.500000X-0.550000X1.500000X-0.550000X0*%
%ADD15RoundRect,0.250000X-0.337500X-0.475000X0.337500X-0.475000X0.337500X0.475000X-0.337500X0.475000X0*%
%ADD16R,0.350000X1.200000*%
%ADD17RoundRect,0.250000X0.337500X0.475000X-0.337500X0.475000X-0.337500X-0.475000X0.337500X-0.475000X0*%
%ADD18RoundRect,0.254000X-0.254000X-1.752600X0.254000X-1.752600X0.254000X1.752600X-0.254000X1.752600X0*%
%ADD19RoundRect,0.457200X-0.457200X-0.457200X0.457200X-0.457200X0.457200X0.457200X-0.457200X0.457200X0*%
G04 APERTURE END LIST*
D10*
G04 #@! TO.C,200R*
X2783840Y388380D03*
X2783840Y485380D03*
G04 #@! TD*
G04 #@! TO.C,4K*
X3017520Y387200D03*
X3017520Y484200D03*
G04 #@! TD*
G04 #@! TO.C,R4*
X1513840Y-5933680D03*
X1513840Y-5836680D03*
G04 #@! TD*
G04 #@! TO.C,R1*
X-1518920Y-5933680D03*
X-1518920Y-5836680D03*
G04 #@! TD*
D11*
G04 #@! TO.C,R5*
X3404780Y-5722620D03*
X3234780Y-5722620D03*
G04 #@! TD*
G04 #@! TO.C,R5*
X382360Y-5722620D03*
X552360Y-5722620D03*
G04 #@! TD*
D12*
G04 #@! TO.C,REF\u002A\u002A*
X3180080Y600320D03*
X3307080Y600320D03*
X3434080Y600320D03*
X3561080Y600320D03*
X3561080Y75320D03*
X3434080Y75320D03*
X3307080Y75320D03*
X3180080Y75320D03*
G04 #@! TD*
D13*
G04 #@! TO.C,REF\u002A\u002A*
X2806930Y679700D03*
X2806930Y869700D03*
X2994430Y774700D03*
G04 #@! TD*
D14*
G04 #@! TO.C,C35*
X66640Y-4777740D03*
X-493360Y-4777740D03*
G04 #@! TD*
D15*
G04 #@! TO.C,C22*
X1448190Y-2105660D03*
X1655690Y-2105660D03*
G04 #@! TD*
D14*
G04 #@! TO.C,C36*
X66640Y-3307080D03*
X-493360Y-3307080D03*
G04 #@! TD*
G04 #@! TO.C,C6*
X4006180Y-2575560D03*
X3446180Y-2575560D03*
G04 #@! TD*
D16*
G04 #@! TO.C,J3*
X1133120Y81820D03*
X1058120Y81820D03*
X983120Y81820D03*
X908120Y81820D03*
X833120Y81820D03*
X758120Y81820D03*
X683120Y81820D03*
X608120Y81820D03*
X533120Y81820D03*
X1133120Y351820D03*
X1058120Y351820D03*
X983120Y351820D03*
X908120Y351820D03*
X833120Y351820D03*
X758120Y351820D03*
X683120Y351820D03*
X608120Y351820D03*
X533120Y351820D03*
X1133120Y704820D03*
X1058120Y704820D03*
X983120Y704820D03*
X908120Y704820D03*
X833120Y704820D03*
X758120Y704820D03*
X683120Y704820D03*
X608120Y704820D03*
X533120Y704820D03*
X1133120Y974820D03*
X1058120Y974820D03*
X983120Y974820D03*
X908120Y974820D03*
X833120Y974820D03*
X758120Y974820D03*
X683120Y974820D03*
X608120Y974820D03*
X533120Y974820D03*
G04 #@! TD*
D15*
G04 #@! TO.C,C14*
X1448580Y-1902460D03*
X1656080Y-1902460D03*
G04 #@! TD*
D17*
G04 #@! TO.C,C20*
X-1902850Y-1902460D03*
X-2110350Y-1902460D03*
G04 #@! TD*
D15*
G04 #@! TO.C,C24*
X3416690Y-2106940D03*
X3624190Y-2106940D03*
G04 #@! TD*
D14*
G04 #@! TO.C,C5*
X4008720Y-4043680D03*
X3448720Y-4043680D03*
G04 #@! TD*
G04 #@! TO.C,C38*
X4006180Y-3309620D03*
X3446180Y-3309620D03*
G04 #@! TD*
G04 #@! TO.C,C3*
X66640Y-4041140D03*
X-493360Y-4041140D03*
G04 #@! TD*
D15*
G04 #@! TO.C,C16*
X3416690Y-1905000D03*
X3624190Y-1905000D03*
G04 #@! TD*
D17*
G04 #@! TO.C,C48*
X4007340Y-1903740D03*
X3799840Y-1903740D03*
G04 #@! TD*
D14*
G04 #@! TO.C,C8*
X2037680Y-2573020D03*
X1477680Y-2573020D03*
G04 #@! TD*
D18*
G04 #@! TO.C,U1*
X-68580Y-5811876D03*
D19*
X-68580Y-5442864D03*
D18*
X-322580Y-5811876D03*
D19*
X-322580Y-5442864D03*
D18*
X-576580Y-5811876D03*
D19*
X-576580Y-5442864D03*
D18*
X-830580Y-5811876D03*
D19*
X-830580Y-5442864D03*
D18*
X-1084580Y-5811876D03*
D19*
X-1084580Y-5442864D03*
D18*
X-1338580Y-5811876D03*
D19*
X-1338580Y-5442864D03*
G04 #@! TD*
D15*
G04 #@! TO.C,C42*
X-522850Y-1902460D03*
X-315350Y-1902460D03*
G04 #@! TD*
G04 #@! TO.C,C44*
X-2491350Y-1902460D03*
X-2283850Y-1902460D03*
G04 #@! TD*
D17*
G04 #@! TO.C,C12*
X-1902850Y-2103120D03*
X-2110350Y-2103120D03*
G04 #@! TD*
D14*
G04 #@! TO.C,C39*
X2037680Y-4777740D03*
X1477680Y-4777740D03*
G04 #@! TD*
D17*
G04 #@! TO.C,C26*
X65650Y-2103120D03*
X-141850Y-2103120D03*
G04 #@! TD*
D14*
G04 #@! TO.C,C7*
X2039512Y-4041140D03*
X1479512Y-4041140D03*
G04 #@! TD*
D17*
G04 #@! TO.C,C46*
X2036690Y-2105660D03*
X1829190Y-2105660D03*
G04 #@! TD*
D14*
G04 #@! TO.C,C40*
X2037680Y-3307080D03*
X1477680Y-3307080D03*
G04 #@! TD*
G04 #@! TO.C,C37*
X4008720Y-4777740D03*
X3448720Y-4777740D03*
G04 #@! TD*
G04 #@! TO.C,C4*
X66640Y-2570480D03*
X-493360Y-2570480D03*
G04 #@! TD*
D18*
G04 #@! TO.C,U2*
X2966720Y-5824576D03*
D19*
X2966720Y-5455564D03*
D18*
X2712720Y-5824576D03*
D19*
X2712720Y-5455564D03*
D18*
X2458720Y-5824576D03*
D19*
X2458720Y-5455564D03*
D18*
X2204720Y-5824576D03*
D19*
X2204720Y-5455564D03*
D18*
X1950720Y-5824576D03*
D19*
X1950720Y-5455564D03*
D18*
X1696720Y-5824576D03*
D19*
X1696720Y-5455564D03*
G04 #@! TD*
D14*
G04 #@! TO.C,C33*
X-1901860Y-4777740D03*
X-2461860Y-4777740D03*
G04 #@! TD*
D15*
G04 #@! TO.C,C28*
X-2491350Y-2103120D03*
X-2283850Y-2103120D03*
G04 #@! TD*
D17*
G04 #@! TO.C,C32*
X4007340Y-2106940D03*
X3799840Y-2106940D03*
G04 #@! TD*
D14*
G04 #@! TO.C,C1*
X-1899320Y-4038600D03*
X-2459320Y-4038600D03*
G04 #@! TD*
D17*
G04 #@! TO.C,C10*
X65650Y-1902460D03*
X-141850Y-1902460D03*
G04 #@! TD*
D14*
G04 #@! TO.C,C2*
X-1901860Y-2570480D03*
X-2461860Y-2570480D03*
G04 #@! TD*
G04 #@! TO.C,C34*
X-1901860Y-3304540D03*
X-2461860Y-3304540D03*
G04 #@! TD*
D17*
G04 #@! TO.C,C30*
X2036690Y-1902460D03*
X1829190Y-1902460D03*
G04 #@! TD*
D15*
G04 #@! TO.C,C18*
X-522850Y-2103120D03*
X-315350Y-2103120D03*
G04 #@! TD*
M02*
