G04 #@! TF.GenerationSoftware,KiCad,Pcbnew,7.0.9*
G04 #@! TF.CreationDate,2024-04-10T09:45:46+08:00*
G04 #@! TF.ProjectId,6__ 2.5_NAS,36d84d20-322e-435f-984e-41532e6b6963,0.3*
G04 #@! TF.SameCoordinates,PXbbc77c0PY26f37c0*
G04 #@! TF.FileFunction,Soldermask,Top*
G04 #@! TF.FilePolarity,Negative*
%FSLAX45Y45*%
G04 Gerber Fmt 4.5, Leading zero omitted, Abs format (unit mm)*
G04 Created by KiCad (PCBNEW 7.0.9) date 2024-04-10 09:45:46*
%MOMM*%
%LPD*%
G01*
G04 APERTURE LIST*
G04 APERTURE END LIST*
G36*
X851453Y-5633001D02*
G01*
X853075Y-5634084D01*
X854159Y-5635707D01*
X854540Y-5637620D01*
X854540Y-5807620D01*
X854159Y-5809533D01*
X853075Y-5811155D01*
X851453Y-5812239D01*
X849540Y-5812620D01*
X679540Y-5812620D01*
X677627Y-5812239D01*
X676005Y-5811155D01*
X674921Y-5809533D01*
X674540Y-5807620D01*
X674540Y-5637620D01*
X674921Y-5635707D01*
X676005Y-5634084D01*
X677627Y-5633001D01*
X679540Y-5632620D01*
X849540Y-5632620D01*
X851453Y-5633001D01*
G37*
G36*
X3706413Y-5627921D02*
G01*
X3708035Y-5629004D01*
X3709119Y-5630627D01*
X3709500Y-5632540D01*
X3709500Y-5802540D01*
X3709119Y-5804453D01*
X3708035Y-5806075D01*
X3706413Y-5807159D01*
X3704500Y-5807540D01*
X3534500Y-5807540D01*
X3532587Y-5807159D01*
X3530964Y-5806075D01*
X3529881Y-5804453D01*
X3529500Y-5802540D01*
X3529500Y-5632540D01*
X3529881Y-5630627D01*
X3530964Y-5629004D01*
X3532587Y-5627921D01*
X3534500Y-5627540D01*
X3704500Y-5627540D01*
X3706413Y-5627921D01*
G37*
G36*
X769301Y-5379113D02*
G01*
X773948Y-5379113D01*
X777960Y-5379966D01*
X782093Y-5380373D01*
X787286Y-5381948D01*
X792351Y-5383025D01*
X795593Y-5384468D01*
X798972Y-5385493D01*
X804342Y-5388364D01*
X809540Y-5390678D01*
X811956Y-5392433D01*
X814528Y-5393808D01*
X819773Y-5398113D01*
X824762Y-5401737D01*
X826381Y-5403536D01*
X828162Y-5404997D01*
X832949Y-5410830D01*
X837351Y-5415719D01*
X838276Y-5417322D01*
X839352Y-5418632D01*
X843331Y-5426076D01*
X846759Y-5432014D01*
X847153Y-5433227D01*
X847667Y-5434188D01*
X850497Y-5443517D01*
X852573Y-5449908D01*
X852646Y-5450603D01*
X852787Y-5451067D01*
X854155Y-5464959D01*
X854540Y-5468620D01*
X854155Y-5472282D01*
X852787Y-5486173D01*
X852646Y-5486636D01*
X852573Y-5487332D01*
X850496Y-5493724D01*
X847667Y-5503052D01*
X847153Y-5504012D01*
X846759Y-5505226D01*
X843330Y-5511165D01*
X839352Y-5518608D01*
X838277Y-5519918D01*
X837351Y-5521521D01*
X832948Y-5526411D01*
X828162Y-5532243D01*
X826381Y-5533704D01*
X824762Y-5535503D01*
X819772Y-5539128D01*
X814528Y-5543432D01*
X811957Y-5544806D01*
X809540Y-5546562D01*
X804341Y-5548877D01*
X798972Y-5551747D01*
X795593Y-5552772D01*
X792351Y-5554215D01*
X787285Y-5555292D01*
X782093Y-5556867D01*
X777961Y-5557274D01*
X773948Y-5558127D01*
X769300Y-5558127D01*
X764540Y-5558596D01*
X759780Y-5558127D01*
X755132Y-5558127D01*
X751119Y-5557274D01*
X746987Y-5556867D01*
X741795Y-5555292D01*
X736728Y-5554215D01*
X733487Y-5552772D01*
X730108Y-5551747D01*
X724738Y-5548877D01*
X719540Y-5546562D01*
X717123Y-5544806D01*
X714552Y-5543432D01*
X709307Y-5539127D01*
X704318Y-5535503D01*
X702699Y-5533704D01*
X700917Y-5532243D01*
X696131Y-5526410D01*
X691729Y-5521521D01*
X690803Y-5519919D01*
X689728Y-5518608D01*
X685749Y-5511163D01*
X682321Y-5505226D01*
X681927Y-5504013D01*
X681413Y-5503052D01*
X678582Y-5493720D01*
X676507Y-5487332D01*
X676434Y-5486637D01*
X676293Y-5486173D01*
X674923Y-5472267D01*
X674540Y-5468620D01*
X674923Y-5464974D01*
X676293Y-5451067D01*
X676434Y-5450603D01*
X676507Y-5449908D01*
X678582Y-5443522D01*
X681413Y-5434188D01*
X681927Y-5433227D01*
X682321Y-5432014D01*
X685748Y-5426078D01*
X689728Y-5418632D01*
X690804Y-5417321D01*
X691729Y-5415719D01*
X696130Y-5410831D01*
X700917Y-5404997D01*
X702699Y-5403535D01*
X704318Y-5401737D01*
X709306Y-5398113D01*
X714552Y-5393808D01*
X717124Y-5392433D01*
X719540Y-5390678D01*
X724737Y-5388364D01*
X730108Y-5385493D01*
X733487Y-5384468D01*
X736728Y-5383025D01*
X741793Y-5381948D01*
X746987Y-5380373D01*
X751120Y-5379966D01*
X755132Y-5379113D01*
X759779Y-5379113D01*
X764540Y-5378644D01*
X769301Y-5379113D01*
G37*
G36*
X3624261Y-5374033D02*
G01*
X3628908Y-5374033D01*
X3632920Y-5374886D01*
X3637053Y-5375293D01*
X3642246Y-5376868D01*
X3647311Y-5377945D01*
X3650553Y-5379388D01*
X3653932Y-5380413D01*
X3659302Y-5383284D01*
X3664500Y-5385598D01*
X3666916Y-5387353D01*
X3669488Y-5388728D01*
X3674733Y-5393033D01*
X3679722Y-5396657D01*
X3681341Y-5398456D01*
X3683122Y-5399917D01*
X3687909Y-5405750D01*
X3692311Y-5410639D01*
X3693236Y-5412242D01*
X3694312Y-5413552D01*
X3698291Y-5420996D01*
X3701719Y-5426934D01*
X3702113Y-5428147D01*
X3702627Y-5429108D01*
X3705457Y-5438437D01*
X3707533Y-5444828D01*
X3707606Y-5445523D01*
X3707747Y-5445987D01*
X3709115Y-5459879D01*
X3709500Y-5463540D01*
X3709115Y-5467202D01*
X3707747Y-5481093D01*
X3707606Y-5481556D01*
X3707533Y-5482252D01*
X3705456Y-5488644D01*
X3702627Y-5497972D01*
X3702113Y-5498932D01*
X3701719Y-5500146D01*
X3698290Y-5506085D01*
X3694312Y-5513528D01*
X3693237Y-5514838D01*
X3692311Y-5516441D01*
X3687908Y-5521331D01*
X3683122Y-5527163D01*
X3681341Y-5528624D01*
X3679722Y-5530423D01*
X3674732Y-5534048D01*
X3669488Y-5538352D01*
X3666917Y-5539726D01*
X3664500Y-5541482D01*
X3659301Y-5543797D01*
X3653932Y-5546667D01*
X3650553Y-5547692D01*
X3647311Y-5549135D01*
X3642245Y-5550212D01*
X3637053Y-5551787D01*
X3632921Y-5552194D01*
X3628908Y-5553047D01*
X3624260Y-5553047D01*
X3619500Y-5553516D01*
X3614740Y-5553047D01*
X3610092Y-5553047D01*
X3606079Y-5552194D01*
X3601947Y-5551787D01*
X3596755Y-5550212D01*
X3591688Y-5549135D01*
X3588447Y-5547692D01*
X3585068Y-5546667D01*
X3579698Y-5543797D01*
X3574500Y-5541482D01*
X3572083Y-5539726D01*
X3569512Y-5538352D01*
X3564267Y-5534047D01*
X3559278Y-5530423D01*
X3557659Y-5528624D01*
X3555877Y-5527163D01*
X3551091Y-5521330D01*
X3546688Y-5516441D01*
X3545763Y-5514839D01*
X3544688Y-5513528D01*
X3540708Y-5506083D01*
X3537281Y-5500146D01*
X3536887Y-5498933D01*
X3536373Y-5497972D01*
X3533542Y-5488640D01*
X3531467Y-5482252D01*
X3531394Y-5481557D01*
X3531253Y-5481093D01*
X3529883Y-5467187D01*
X3529500Y-5463540D01*
X3529883Y-5459894D01*
X3531253Y-5445987D01*
X3531394Y-5445523D01*
X3531467Y-5444828D01*
X3533542Y-5438442D01*
X3536373Y-5429108D01*
X3536887Y-5428147D01*
X3537281Y-5426934D01*
X3540708Y-5420998D01*
X3544688Y-5413552D01*
X3545764Y-5412241D01*
X3546688Y-5410639D01*
X3551090Y-5405751D01*
X3555877Y-5399917D01*
X3557659Y-5398455D01*
X3559278Y-5396657D01*
X3564266Y-5393033D01*
X3569512Y-5388728D01*
X3572084Y-5387353D01*
X3574500Y-5385598D01*
X3579697Y-5383284D01*
X3585068Y-5380413D01*
X3588447Y-5379388D01*
X3591688Y-5377945D01*
X3596753Y-5376868D01*
X3601947Y-5375293D01*
X3606080Y-5374886D01*
X3610092Y-5374033D01*
X3614739Y-5374033D01*
X3619500Y-5373564D01*
X3624261Y-5374033D01*
G37*
G36*
X-1969007Y-4877786D02*
G01*
X-1965697Y-4879998D01*
X-1963486Y-4883307D01*
X-1962710Y-4887210D01*
X-1962710Y-5131210D01*
X-1963486Y-5135113D01*
X-1965697Y-5138423D01*
X-1969007Y-5140634D01*
X-1972910Y-5141410D01*
X-2254910Y-5141410D01*
X-2258813Y-5140634D01*
X-2262123Y-5138423D01*
X-2264334Y-5135113D01*
X-2265110Y-5131210D01*
X-2265110Y-4887210D01*
X-2264334Y-4883307D01*
X-2262123Y-4879998D01*
X-2258813Y-4877786D01*
X-2254910Y-4877010D01*
X-1972910Y-4877010D01*
X-1969007Y-4877786D01*
G37*
G36*
X293Y-4877786D02*
G01*
X3602Y-4879998D01*
X5814Y-4883307D01*
X6590Y-4887210D01*
X6590Y-5131210D01*
X5814Y-5135113D01*
X3602Y-5138423D01*
X293Y-5140634D01*
X-3610Y-5141410D01*
X-285610Y-5141410D01*
X-289513Y-5140634D01*
X-292823Y-5138423D01*
X-295034Y-5135113D01*
X-295810Y-5131210D01*
X-295810Y-4887210D01*
X-295034Y-4883307D01*
X-292823Y-4879998D01*
X-289513Y-4877786D01*
X-285610Y-4877010D01*
X-3610Y-4877010D01*
X293Y-4877786D01*
G37*
G36*
X1970293Y-4877786D02*
G01*
X1973602Y-4879998D01*
X1975814Y-4883307D01*
X1976590Y-4887210D01*
X1976590Y-5131210D01*
X1975814Y-5135113D01*
X1973602Y-5138423D01*
X1970293Y-5140634D01*
X1966390Y-5141410D01*
X1684390Y-5141410D01*
X1680487Y-5140634D01*
X1677177Y-5138423D01*
X1674966Y-5135113D01*
X1674190Y-5131210D01*
X1674190Y-4887210D01*
X1674966Y-4883307D01*
X1677177Y-4879998D01*
X1680487Y-4877786D01*
X1684390Y-4877010D01*
X1966390Y-4877010D01*
X1970293Y-4877786D01*
G37*
G36*
X3940293Y-4877786D02*
G01*
X3943602Y-4879998D01*
X3945814Y-4883307D01*
X3946590Y-4887210D01*
X3946590Y-5131210D01*
X3945814Y-5135113D01*
X3943602Y-5138423D01*
X3940293Y-5140634D01*
X3936390Y-5141410D01*
X3654390Y-5141410D01*
X3650487Y-5140634D01*
X3647177Y-5138423D01*
X3644966Y-5135113D01*
X3644190Y-5131210D01*
X3644190Y-4887210D01*
X3644966Y-4883307D01*
X3647177Y-4879998D01*
X3650487Y-4877786D01*
X3654390Y-4877010D01*
X3936390Y-4877010D01*
X3940293Y-4877786D01*
G37*
G36*
X-2087644Y-4609370D02*
G01*
X-2071410Y-4616598D01*
X-2057034Y-4627043D01*
X-2045144Y-4640248D01*
X-2036259Y-4655637D01*
X-2030767Y-4672538D01*
X-2028910Y-4690210D01*
X-2030767Y-4707883D01*
X-2036259Y-4724783D01*
X-2045144Y-4740172D01*
X-2057034Y-4753377D01*
X-2071410Y-4763822D01*
X-2087644Y-4771050D01*
X-2105025Y-4774744D01*
X-2122795Y-4774744D01*
X-2140176Y-4771050D01*
X-2156410Y-4763822D01*
X-2170786Y-4753377D01*
X-2182676Y-4740172D01*
X-2191561Y-4724783D01*
X-2197053Y-4707883D01*
X-2198910Y-4690210D01*
X-2197053Y-4672538D01*
X-2191561Y-4655637D01*
X-2182676Y-4640248D01*
X-2170786Y-4627043D01*
X-2156410Y-4616598D01*
X-2140176Y-4609370D01*
X-2122795Y-4605676D01*
X-2105025Y-4605676D01*
X-2087644Y-4609370D01*
G37*
G36*
X-118344Y-4609370D02*
G01*
X-102110Y-4616598D01*
X-87734Y-4627043D01*
X-75844Y-4640248D01*
X-66959Y-4655637D01*
X-61467Y-4672538D01*
X-59610Y-4690210D01*
X-61467Y-4707883D01*
X-66959Y-4724783D01*
X-75844Y-4740172D01*
X-87734Y-4753377D01*
X-102110Y-4763822D01*
X-118344Y-4771050D01*
X-135725Y-4774744D01*
X-153495Y-4774744D01*
X-170876Y-4771050D01*
X-187110Y-4763822D01*
X-201486Y-4753377D01*
X-213376Y-4740172D01*
X-222261Y-4724783D01*
X-227752Y-4707883D01*
X-229610Y-4690210D01*
X-227752Y-4672538D01*
X-222261Y-4655637D01*
X-213376Y-4640248D01*
X-201486Y-4627043D01*
X-187110Y-4616598D01*
X-170876Y-4609370D01*
X-153495Y-4605676D01*
X-135725Y-4605676D01*
X-118344Y-4609370D01*
G37*
G36*
X1851656Y-4609370D02*
G01*
X1867890Y-4616598D01*
X1882266Y-4627043D01*
X1894156Y-4640248D01*
X1903041Y-4655637D01*
X1908532Y-4672538D01*
X1910390Y-4690210D01*
X1908532Y-4707883D01*
X1903041Y-4724783D01*
X1894156Y-4740172D01*
X1882266Y-4753377D01*
X1867890Y-4763822D01*
X1851656Y-4771050D01*
X1834275Y-4774744D01*
X1816505Y-4774744D01*
X1799124Y-4771050D01*
X1782890Y-4763822D01*
X1768514Y-4753377D01*
X1756624Y-4740172D01*
X1747739Y-4724783D01*
X1742247Y-4707883D01*
X1740390Y-4690210D01*
X1742247Y-4672538D01*
X1747739Y-4655637D01*
X1756624Y-4640248D01*
X1768514Y-4627043D01*
X1782890Y-4616598D01*
X1799124Y-4609370D01*
X1816505Y-4605676D01*
X1834275Y-4605676D01*
X1851656Y-4609370D01*
G37*
G36*
X3821656Y-4609370D02*
G01*
X3837890Y-4616598D01*
X3852266Y-4627043D01*
X3864156Y-4640248D01*
X3873041Y-4655637D01*
X3878532Y-4672538D01*
X3880390Y-4690210D01*
X3878532Y-4707883D01*
X3873041Y-4724783D01*
X3864156Y-4740172D01*
X3852266Y-4753377D01*
X3837890Y-4763822D01*
X3821656Y-4771050D01*
X3804275Y-4774744D01*
X3786505Y-4774744D01*
X3769124Y-4771050D01*
X3752890Y-4763822D01*
X3738514Y-4753377D01*
X3726624Y-4740172D01*
X3717739Y-4724783D01*
X3712247Y-4707883D01*
X3710390Y-4690210D01*
X3712247Y-4672538D01*
X3717739Y-4655637D01*
X3726624Y-4640248D01*
X3738514Y-4627043D01*
X3752890Y-4616598D01*
X3769124Y-4609370D01*
X3786505Y-4605676D01*
X3804275Y-4605676D01*
X3821656Y-4609370D01*
G37*
G36*
X-1812607Y-4348786D02*
G01*
X-1809297Y-4350998D01*
X-1807086Y-4354307D01*
X-1806310Y-4358210D01*
X-1806310Y-4418210D01*
X-1807086Y-4422113D01*
X-1809297Y-4425423D01*
X-1812607Y-4427634D01*
X-1816510Y-4428410D01*
X-2106510Y-4428410D01*
X-2110413Y-4427634D01*
X-2113723Y-4425423D01*
X-2115934Y-4422113D01*
X-2116710Y-4418210D01*
X-2116710Y-4358210D01*
X-2115934Y-4354307D01*
X-2113723Y-4350998D01*
X-2110413Y-4348786D01*
X-2106510Y-4348010D01*
X-1816510Y-4348010D01*
X-1812607Y-4348786D01*
G37*
G36*
X156693Y-4348786D02*
G01*
X160003Y-4350998D01*
X162214Y-4354307D01*
X162990Y-4358210D01*
X162990Y-4418210D01*
X162214Y-4422113D01*
X160003Y-4425423D01*
X156693Y-4427634D01*
X152790Y-4428410D01*
X-137210Y-4428410D01*
X-141113Y-4427634D01*
X-144423Y-4425423D01*
X-146634Y-4422113D01*
X-147410Y-4418210D01*
X-147410Y-4358210D01*
X-146634Y-4354307D01*
X-144423Y-4350998D01*
X-141113Y-4348786D01*
X-137210Y-4348010D01*
X152790Y-4348010D01*
X156693Y-4348786D01*
G37*
G36*
X2126693Y-4348786D02*
G01*
X2130003Y-4350998D01*
X2132214Y-4354307D01*
X2132990Y-4358210D01*
X2132990Y-4418210D01*
X2132214Y-4422113D01*
X2130003Y-4425423D01*
X2126693Y-4427634D01*
X2122790Y-4428410D01*
X1832790Y-4428410D01*
X1828887Y-4427634D01*
X1825577Y-4425423D01*
X1823366Y-4422113D01*
X1822590Y-4418210D01*
X1822590Y-4358210D01*
X1823366Y-4354307D01*
X1825577Y-4350998D01*
X1828887Y-4348786D01*
X1832790Y-4348010D01*
X2122790Y-4348010D01*
X2126693Y-4348786D01*
G37*
G36*
X4096693Y-4348786D02*
G01*
X4100002Y-4350998D01*
X4102214Y-4354307D01*
X4102990Y-4358210D01*
X4102990Y-4418210D01*
X4102214Y-4422113D01*
X4100002Y-4425423D01*
X4096693Y-4427634D01*
X4092790Y-4428410D01*
X3802790Y-4428410D01*
X3798887Y-4427634D01*
X3795577Y-4425423D01*
X3793366Y-4422113D01*
X3792590Y-4418210D01*
X3792590Y-4358210D01*
X3793366Y-4354307D01*
X3795577Y-4350998D01*
X3798887Y-4348786D01*
X3802790Y-4348010D01*
X4092790Y-4348010D01*
X4096693Y-4348786D01*
G37*
G36*
X-1812607Y-4220786D02*
G01*
X-1809297Y-4222998D01*
X-1807086Y-4226307D01*
X-1806310Y-4230210D01*
X-1806310Y-4290210D01*
X-1807086Y-4294113D01*
X-1809297Y-4297423D01*
X-1812607Y-4299634D01*
X-1816510Y-4300410D01*
X-2106510Y-4300410D01*
X-2110413Y-4299634D01*
X-2113723Y-4297423D01*
X-2115934Y-4294113D01*
X-2116710Y-4290210D01*
X-2116710Y-4230210D01*
X-2115934Y-4226307D01*
X-2113723Y-4222998D01*
X-2110413Y-4220786D01*
X-2106510Y-4220010D01*
X-1816510Y-4220010D01*
X-1812607Y-4220786D01*
G37*
G36*
X156693Y-4220786D02*
G01*
X160003Y-4222998D01*
X162214Y-4226307D01*
X162990Y-4230210D01*
X162990Y-4290210D01*
X162214Y-4294113D01*
X160003Y-4297423D01*
X156693Y-4299634D01*
X152790Y-4300410D01*
X-137210Y-4300410D01*
X-141113Y-4299634D01*
X-144423Y-4297423D01*
X-146634Y-4294113D01*
X-147410Y-4290210D01*
X-147410Y-4230210D01*
X-146634Y-4226307D01*
X-144423Y-4222998D01*
X-141113Y-4220786D01*
X-137210Y-4220010D01*
X152790Y-4220010D01*
X156693Y-4220786D01*
G37*
G36*
X2126693Y-4220786D02*
G01*
X2130003Y-4222998D01*
X2132214Y-4226307D01*
X2132990Y-4230210D01*
X2132990Y-4290210D01*
X2132214Y-4294113D01*
X2130003Y-4297423D01*
X2126693Y-4299634D01*
X2122790Y-4300410D01*
X1832790Y-4300410D01*
X1828887Y-4299634D01*
X1825577Y-4297423D01*
X1823366Y-4294113D01*
X1822590Y-4290210D01*
X1822590Y-4230210D01*
X1823366Y-4226307D01*
X1825577Y-4222998D01*
X1828887Y-4220786D01*
X1832790Y-4220010D01*
X2122790Y-4220010D01*
X2126693Y-4220786D01*
G37*
G36*
X4096693Y-4220786D02*
G01*
X4100002Y-4222998D01*
X4102214Y-4226307D01*
X4102990Y-4230210D01*
X4102990Y-4290210D01*
X4102214Y-4294113D01*
X4100002Y-4297423D01*
X4096693Y-4299634D01*
X4092790Y-4300410D01*
X3802790Y-4300410D01*
X3798887Y-4299634D01*
X3795577Y-4297423D01*
X3793366Y-4294113D01*
X3792590Y-4290210D01*
X3792590Y-4230210D01*
X3793366Y-4226307D01*
X3795577Y-4222998D01*
X3798887Y-4220786D01*
X3802790Y-4220010D01*
X4092790Y-4220010D01*
X4096693Y-4220786D01*
G37*
G36*
X-1812607Y-4093786D02*
G01*
X-1809297Y-4095997D01*
X-1807086Y-4099307D01*
X-1806310Y-4103210D01*
X-1806310Y-4163210D01*
X-1807086Y-4167113D01*
X-1809297Y-4170422D01*
X-1812607Y-4172634D01*
X-1816510Y-4173410D01*
X-2106510Y-4173410D01*
X-2110413Y-4172634D01*
X-2113723Y-4170422D01*
X-2115934Y-4167113D01*
X-2116710Y-4163210D01*
X-2116710Y-4103210D01*
X-2115934Y-4099307D01*
X-2113723Y-4095997D01*
X-2110413Y-4093786D01*
X-2106510Y-4093010D01*
X-1816510Y-4093010D01*
X-1812607Y-4093786D01*
G37*
G36*
X156693Y-4093786D02*
G01*
X160003Y-4095997D01*
X162214Y-4099307D01*
X162990Y-4103210D01*
X162990Y-4163210D01*
X162214Y-4167113D01*
X160003Y-4170422D01*
X156693Y-4172634D01*
X152790Y-4173410D01*
X-137210Y-4173410D01*
X-141113Y-4172634D01*
X-144423Y-4170422D01*
X-146634Y-4167113D01*
X-147410Y-4163210D01*
X-147410Y-4103210D01*
X-146634Y-4099307D01*
X-144423Y-4095997D01*
X-141113Y-4093786D01*
X-137210Y-4093010D01*
X152790Y-4093010D01*
X156693Y-4093786D01*
G37*
G36*
X2126693Y-4093786D02*
G01*
X2130003Y-4095997D01*
X2132214Y-4099307D01*
X2132990Y-4103210D01*
X2132990Y-4163210D01*
X2132214Y-4167113D01*
X2130003Y-4170422D01*
X2126693Y-4172634D01*
X2122790Y-4173410D01*
X1832790Y-4173410D01*
X1828887Y-4172634D01*
X1825577Y-4170422D01*
X1823366Y-4167113D01*
X1822590Y-4163210D01*
X1822590Y-4103210D01*
X1823366Y-4099307D01*
X1825577Y-4095997D01*
X1828887Y-4093786D01*
X1832790Y-4093010D01*
X2122790Y-4093010D01*
X2126693Y-4093786D01*
G37*
G36*
X4096693Y-4093786D02*
G01*
X4100002Y-4095997D01*
X4102214Y-4099307D01*
X4102990Y-4103210D01*
X4102990Y-4163210D01*
X4102214Y-4167113D01*
X4100002Y-4170422D01*
X4096693Y-4172634D01*
X4092790Y-4173410D01*
X3802790Y-4173410D01*
X3798887Y-4172634D01*
X3795577Y-4170422D01*
X3793366Y-4167113D01*
X3792590Y-4163210D01*
X3792590Y-4103210D01*
X3793366Y-4099307D01*
X3795577Y-4095997D01*
X3798887Y-4093786D01*
X3802790Y-4093010D01*
X4092790Y-4093010D01*
X4096693Y-4093786D01*
G37*
G36*
X-1812607Y-3966786D02*
G01*
X-1809297Y-3968997D01*
X-1807086Y-3972307D01*
X-1806310Y-3976210D01*
X-1806310Y-4036210D01*
X-1807086Y-4040113D01*
X-1809297Y-4043422D01*
X-1812607Y-4045634D01*
X-1816510Y-4046410D01*
X-2106510Y-4046410D01*
X-2110413Y-4045634D01*
X-2113723Y-4043422D01*
X-2115934Y-4040113D01*
X-2116710Y-4036210D01*
X-2116710Y-3976210D01*
X-2115934Y-3972307D01*
X-2113723Y-3968997D01*
X-2110413Y-3966786D01*
X-2106510Y-3966010D01*
X-1816510Y-3966010D01*
X-1812607Y-3966786D01*
G37*
G36*
X156693Y-3966786D02*
G01*
X160003Y-3968997D01*
X162214Y-3972307D01*
X162990Y-3976210D01*
X162990Y-4036210D01*
X162214Y-4040113D01*
X160003Y-4043422D01*
X156693Y-4045634D01*
X152790Y-4046410D01*
X-137210Y-4046410D01*
X-141113Y-4045634D01*
X-144423Y-4043422D01*
X-146634Y-4040113D01*
X-147410Y-4036210D01*
X-147410Y-3976210D01*
X-146634Y-3972307D01*
X-144423Y-3968997D01*
X-141113Y-3966786D01*
X-137210Y-3966010D01*
X152790Y-3966010D01*
X156693Y-3966786D01*
G37*
G36*
X2126693Y-3966786D02*
G01*
X2130003Y-3968997D01*
X2132214Y-3972307D01*
X2132990Y-3976210D01*
X2132990Y-4036210D01*
X2132214Y-4040113D01*
X2130003Y-4043422D01*
X2126693Y-4045634D01*
X2122790Y-4046410D01*
X1832790Y-4046410D01*
X1828887Y-4045634D01*
X1825577Y-4043422D01*
X1823366Y-4040113D01*
X1822590Y-4036210D01*
X1822590Y-3976210D01*
X1823366Y-3972307D01*
X1825577Y-3968997D01*
X1828887Y-3966786D01*
X1832790Y-3966010D01*
X2122790Y-3966010D01*
X2126693Y-3966786D01*
G37*
G36*
X4096693Y-3966786D02*
G01*
X4100002Y-3968997D01*
X4102214Y-3972307D01*
X4102990Y-3976210D01*
X4102990Y-4036210D01*
X4102214Y-4040113D01*
X4100002Y-4043422D01*
X4096693Y-4045634D01*
X4092790Y-4046410D01*
X3802790Y-4046410D01*
X3798887Y-4045634D01*
X3795577Y-4043422D01*
X3793366Y-4040113D01*
X3792590Y-4036210D01*
X3792590Y-3976210D01*
X3793366Y-3972307D01*
X3795577Y-3968997D01*
X3798887Y-3966786D01*
X3802790Y-3966010D01*
X4092790Y-3966010D01*
X4096693Y-3966786D01*
G37*
G36*
X-1812607Y-3839786D02*
G01*
X-1809297Y-3841997D01*
X-1807086Y-3845307D01*
X-1806310Y-3849210D01*
X-1806310Y-3909210D01*
X-1807086Y-3913113D01*
X-1809297Y-3916422D01*
X-1812607Y-3918634D01*
X-1816510Y-3919410D01*
X-2106510Y-3919410D01*
X-2110413Y-3918634D01*
X-2113723Y-3916422D01*
X-2115934Y-3913113D01*
X-2116710Y-3909210D01*
X-2116710Y-3849210D01*
X-2115934Y-3845307D01*
X-2113723Y-3841997D01*
X-2110413Y-3839786D01*
X-2106510Y-3839010D01*
X-1816510Y-3839010D01*
X-1812607Y-3839786D01*
G37*
G36*
X156693Y-3839786D02*
G01*
X160003Y-3841997D01*
X162214Y-3845307D01*
X162990Y-3849210D01*
X162990Y-3909210D01*
X162214Y-3913113D01*
X160003Y-3916422D01*
X156693Y-3918634D01*
X152790Y-3919410D01*
X-137210Y-3919410D01*
X-141113Y-3918634D01*
X-144423Y-3916422D01*
X-146634Y-3913113D01*
X-147410Y-3909210D01*
X-147410Y-3849210D01*
X-146634Y-3845307D01*
X-144423Y-3841997D01*
X-141113Y-3839786D01*
X-137210Y-3839010D01*
X152790Y-3839010D01*
X156693Y-3839786D01*
G37*
G36*
X2126693Y-3839786D02*
G01*
X2130003Y-3841997D01*
X2132214Y-3845307D01*
X2132990Y-3849210D01*
X2132990Y-3909210D01*
X2132214Y-3913113D01*
X2130003Y-3916422D01*
X2126693Y-3918634D01*
X2122790Y-3919410D01*
X1832790Y-3919410D01*
X1828887Y-3918634D01*
X1825577Y-3916422D01*
X1823366Y-3913113D01*
X1822590Y-3909210D01*
X1822590Y-3849210D01*
X1823366Y-3845307D01*
X1825577Y-3841997D01*
X1828887Y-3839786D01*
X1832790Y-3839010D01*
X2122790Y-3839010D01*
X2126693Y-3839786D01*
G37*
G36*
X4096693Y-3839786D02*
G01*
X4100002Y-3841997D01*
X4102214Y-3845307D01*
X4102990Y-3849210D01*
X4102990Y-3909210D01*
X4102214Y-3913113D01*
X4100002Y-3916422D01*
X4096693Y-3918634D01*
X4092790Y-3919410D01*
X3802790Y-3919410D01*
X3798887Y-3918634D01*
X3795577Y-3916422D01*
X3793366Y-3913113D01*
X3792590Y-3909210D01*
X3792590Y-3849210D01*
X3793366Y-3845307D01*
X3795577Y-3841997D01*
X3798887Y-3839786D01*
X3802790Y-3839010D01*
X4092790Y-3839010D01*
X4096693Y-3839786D01*
G37*
G36*
X-1812607Y-3712786D02*
G01*
X-1809297Y-3714997D01*
X-1807086Y-3718307D01*
X-1806310Y-3722210D01*
X-1806310Y-3782210D01*
X-1807086Y-3786113D01*
X-1809297Y-3789422D01*
X-1812607Y-3791634D01*
X-1816510Y-3792410D01*
X-2106510Y-3792410D01*
X-2110413Y-3791634D01*
X-2113723Y-3789422D01*
X-2115934Y-3786113D01*
X-2116710Y-3782210D01*
X-2116710Y-3722210D01*
X-2115934Y-3718307D01*
X-2113723Y-3714997D01*
X-2110413Y-3712786D01*
X-2106510Y-3712010D01*
X-1816510Y-3712010D01*
X-1812607Y-3712786D01*
G37*
G36*
X156693Y-3712786D02*
G01*
X160003Y-3714997D01*
X162214Y-3718307D01*
X162990Y-3722210D01*
X162990Y-3782210D01*
X162214Y-3786113D01*
X160003Y-3789422D01*
X156693Y-3791634D01*
X152790Y-3792410D01*
X-137210Y-3792410D01*
X-141113Y-3791634D01*
X-144423Y-3789422D01*
X-146634Y-3786113D01*
X-147410Y-3782210D01*
X-147410Y-3722210D01*
X-146634Y-3718307D01*
X-144423Y-3714997D01*
X-141113Y-3712786D01*
X-137210Y-3712010D01*
X152790Y-3712010D01*
X156693Y-3712786D01*
G37*
G36*
X2126693Y-3712786D02*
G01*
X2130003Y-3714997D01*
X2132214Y-3718307D01*
X2132990Y-3722210D01*
X2132990Y-3782210D01*
X2132214Y-3786113D01*
X2130003Y-3789422D01*
X2126693Y-3791634D01*
X2122790Y-3792410D01*
X1832790Y-3792410D01*
X1828887Y-3791634D01*
X1825577Y-3789422D01*
X1823366Y-3786113D01*
X1822590Y-3782210D01*
X1822590Y-3722210D01*
X1823366Y-3718307D01*
X1825577Y-3714997D01*
X1828887Y-3712786D01*
X1832790Y-3712010D01*
X2122790Y-3712010D01*
X2126693Y-3712786D01*
G37*
G36*
X4096693Y-3712786D02*
G01*
X4100002Y-3714997D01*
X4102214Y-3718307D01*
X4102990Y-3722210D01*
X4102990Y-3782210D01*
X4102214Y-3786113D01*
X4100002Y-3789422D01*
X4096693Y-3791634D01*
X4092790Y-3792410D01*
X3802790Y-3792410D01*
X3798887Y-3791634D01*
X3795577Y-3789422D01*
X3793366Y-3786113D01*
X3792590Y-3782210D01*
X3792590Y-3722210D01*
X3793366Y-3718307D01*
X3795577Y-3714997D01*
X3798887Y-3712786D01*
X3802790Y-3712010D01*
X4092790Y-3712010D01*
X4096693Y-3712786D01*
G37*
G36*
X-1812607Y-3585786D02*
G01*
X-1809297Y-3587997D01*
X-1807086Y-3591307D01*
X-1806310Y-3595210D01*
X-1806310Y-3655210D01*
X-1807086Y-3659113D01*
X-1809297Y-3662422D01*
X-1812607Y-3664634D01*
X-1816510Y-3665410D01*
X-2106510Y-3665410D01*
X-2110413Y-3664634D01*
X-2113723Y-3662422D01*
X-2115934Y-3659113D01*
X-2116710Y-3655210D01*
X-2116710Y-3595210D01*
X-2115934Y-3591307D01*
X-2113723Y-3587997D01*
X-2110413Y-3585786D01*
X-2106510Y-3585010D01*
X-1816510Y-3585010D01*
X-1812607Y-3585786D01*
G37*
G36*
X156693Y-3585786D02*
G01*
X160003Y-3587997D01*
X162214Y-3591307D01*
X162990Y-3595210D01*
X162990Y-3655210D01*
X162214Y-3659113D01*
X160003Y-3662422D01*
X156693Y-3664634D01*
X152790Y-3665410D01*
X-137210Y-3665410D01*
X-141113Y-3664634D01*
X-144423Y-3662422D01*
X-146634Y-3659113D01*
X-147410Y-3655210D01*
X-147410Y-3595210D01*
X-146634Y-3591307D01*
X-144423Y-3587997D01*
X-141113Y-3585786D01*
X-137210Y-3585010D01*
X152790Y-3585010D01*
X156693Y-3585786D01*
G37*
G36*
X2126693Y-3585786D02*
G01*
X2130003Y-3587997D01*
X2132214Y-3591307D01*
X2132990Y-3595210D01*
X2132990Y-3655210D01*
X2132214Y-3659113D01*
X2130003Y-3662422D01*
X2126693Y-3664634D01*
X2122790Y-3665410D01*
X1832790Y-3665410D01*
X1828887Y-3664634D01*
X1825577Y-3662422D01*
X1823366Y-3659113D01*
X1822590Y-3655210D01*
X1822590Y-3595210D01*
X1823366Y-3591307D01*
X1825577Y-3587997D01*
X1828887Y-3585786D01*
X1832790Y-3585010D01*
X2122790Y-3585010D01*
X2126693Y-3585786D01*
G37*
G36*
X4096693Y-3585786D02*
G01*
X4100002Y-3587997D01*
X4102214Y-3591307D01*
X4102990Y-3595210D01*
X4102990Y-3655210D01*
X4102214Y-3659113D01*
X4100002Y-3662422D01*
X4096693Y-3664634D01*
X4092790Y-3665410D01*
X3802790Y-3665410D01*
X3798887Y-3664634D01*
X3795577Y-3662422D01*
X3793366Y-3659113D01*
X3792590Y-3655210D01*
X3792590Y-3595210D01*
X3793366Y-3591307D01*
X3795577Y-3587997D01*
X3798887Y-3585786D01*
X3802790Y-3585010D01*
X4092790Y-3585010D01*
X4096693Y-3585786D01*
G37*
G36*
X-1812607Y-3458786D02*
G01*
X-1809297Y-3460997D01*
X-1807086Y-3464307D01*
X-1806310Y-3468210D01*
X-1806310Y-3528210D01*
X-1807086Y-3532113D01*
X-1809297Y-3535422D01*
X-1812607Y-3537634D01*
X-1816510Y-3538410D01*
X-2106510Y-3538410D01*
X-2110413Y-3537634D01*
X-2113723Y-3535422D01*
X-2115934Y-3532113D01*
X-2116710Y-3528210D01*
X-2116710Y-3468210D01*
X-2115934Y-3464307D01*
X-2113723Y-3460997D01*
X-2110413Y-3458786D01*
X-2106510Y-3458010D01*
X-1816510Y-3458010D01*
X-1812607Y-3458786D01*
G37*
G36*
X156693Y-3458786D02*
G01*
X160003Y-3460997D01*
X162214Y-3464307D01*
X162990Y-3468210D01*
X162990Y-3528210D01*
X162214Y-3532113D01*
X160003Y-3535422D01*
X156693Y-3537634D01*
X152790Y-3538410D01*
X-137210Y-3538410D01*
X-141113Y-3537634D01*
X-144423Y-3535422D01*
X-146634Y-3532113D01*
X-147410Y-3528210D01*
X-147410Y-3468210D01*
X-146634Y-3464307D01*
X-144423Y-3460997D01*
X-141113Y-3458786D01*
X-137210Y-3458010D01*
X152790Y-3458010D01*
X156693Y-3458786D01*
G37*
G36*
X2126693Y-3458786D02*
G01*
X2130003Y-3460997D01*
X2132214Y-3464307D01*
X2132990Y-3468210D01*
X2132990Y-3528210D01*
X2132214Y-3532113D01*
X2130003Y-3535422D01*
X2126693Y-3537634D01*
X2122790Y-3538410D01*
X1832790Y-3538410D01*
X1828887Y-3537634D01*
X1825577Y-3535422D01*
X1823366Y-3532113D01*
X1822590Y-3528210D01*
X1822590Y-3468210D01*
X1823366Y-3464307D01*
X1825577Y-3460997D01*
X1828887Y-3458786D01*
X1832790Y-3458010D01*
X2122790Y-3458010D01*
X2126693Y-3458786D01*
G37*
G36*
X4096693Y-3458786D02*
G01*
X4100002Y-3460997D01*
X4102214Y-3464307D01*
X4102990Y-3468210D01*
X4102990Y-3528210D01*
X4102214Y-3532113D01*
X4100002Y-3535422D01*
X4096693Y-3537634D01*
X4092790Y-3538410D01*
X3802790Y-3538410D01*
X3798887Y-3537634D01*
X3795577Y-3535422D01*
X3793366Y-3532113D01*
X3792590Y-3528210D01*
X3792590Y-3468210D01*
X3793366Y-3464307D01*
X3795577Y-3460997D01*
X3798887Y-3458786D01*
X3802790Y-3458010D01*
X4092790Y-3458010D01*
X4096693Y-3458786D01*
G37*
G36*
X-1812607Y-3331786D02*
G01*
X-1809297Y-3333997D01*
X-1807086Y-3337307D01*
X-1806310Y-3341210D01*
X-1806310Y-3401210D01*
X-1807086Y-3405113D01*
X-1809297Y-3408422D01*
X-1812607Y-3410634D01*
X-1816510Y-3411410D01*
X-2106510Y-3411410D01*
X-2110413Y-3410634D01*
X-2113723Y-3408422D01*
X-2115934Y-3405113D01*
X-2116710Y-3401210D01*
X-2116710Y-3341210D01*
X-2115934Y-3337307D01*
X-2113723Y-3333997D01*
X-2110413Y-3331786D01*
X-2106510Y-3331010D01*
X-1816510Y-3331010D01*
X-1812607Y-3331786D01*
G37*
G36*
X156693Y-3331786D02*
G01*
X160003Y-3333997D01*
X162214Y-3337307D01*
X162990Y-3341210D01*
X162990Y-3401210D01*
X162214Y-3405113D01*
X160003Y-3408422D01*
X156693Y-3410634D01*
X152790Y-3411410D01*
X-137210Y-3411410D01*
X-141113Y-3410634D01*
X-144423Y-3408422D01*
X-146634Y-3405113D01*
X-147410Y-3401210D01*
X-147410Y-3341210D01*
X-146634Y-3337307D01*
X-144423Y-3333997D01*
X-141113Y-3331786D01*
X-137210Y-3331010D01*
X152790Y-3331010D01*
X156693Y-3331786D01*
G37*
G36*
X2126693Y-3331786D02*
G01*
X2130003Y-3333997D01*
X2132214Y-3337307D01*
X2132990Y-3341210D01*
X2132990Y-3401210D01*
X2132214Y-3405113D01*
X2130003Y-3408422D01*
X2126693Y-3410634D01*
X2122790Y-3411410D01*
X1832790Y-3411410D01*
X1828887Y-3410634D01*
X1825577Y-3408422D01*
X1823366Y-3405113D01*
X1822590Y-3401210D01*
X1822590Y-3341210D01*
X1823366Y-3337307D01*
X1825577Y-3333997D01*
X1828887Y-3331786D01*
X1832790Y-3331010D01*
X2122790Y-3331010D01*
X2126693Y-3331786D01*
G37*
G36*
X4096693Y-3331786D02*
G01*
X4100002Y-3333997D01*
X4102214Y-3337307D01*
X4102990Y-3341210D01*
X4102990Y-3401210D01*
X4102214Y-3405113D01*
X4100002Y-3408422D01*
X4096693Y-3410634D01*
X4092790Y-3411410D01*
X3802790Y-3411410D01*
X3798887Y-3410634D01*
X3795577Y-3408422D01*
X3793366Y-3405113D01*
X3792590Y-3401210D01*
X3792590Y-3341210D01*
X3793366Y-3337307D01*
X3795577Y-3333997D01*
X3798887Y-3331786D01*
X3802790Y-3331010D01*
X4092790Y-3331010D01*
X4096693Y-3331786D01*
G37*
G36*
X-1812607Y-3204786D02*
G01*
X-1809297Y-3206997D01*
X-1807086Y-3210307D01*
X-1806310Y-3214210D01*
X-1806310Y-3274210D01*
X-1807086Y-3278113D01*
X-1809297Y-3281422D01*
X-1812607Y-3283634D01*
X-1816510Y-3284410D01*
X-2106510Y-3284410D01*
X-2110413Y-3283634D01*
X-2113723Y-3281422D01*
X-2115934Y-3278113D01*
X-2116710Y-3274210D01*
X-2116710Y-3214210D01*
X-2115934Y-3210307D01*
X-2113723Y-3206997D01*
X-2110413Y-3204786D01*
X-2106510Y-3204010D01*
X-1816510Y-3204010D01*
X-1812607Y-3204786D01*
G37*
G36*
X156693Y-3204786D02*
G01*
X160003Y-3206997D01*
X162214Y-3210307D01*
X162990Y-3214210D01*
X162990Y-3274210D01*
X162214Y-3278113D01*
X160003Y-3281422D01*
X156693Y-3283634D01*
X152790Y-3284410D01*
X-137210Y-3284410D01*
X-141113Y-3283634D01*
X-144423Y-3281422D01*
X-146634Y-3278113D01*
X-147410Y-3274210D01*
X-147410Y-3214210D01*
X-146634Y-3210307D01*
X-144423Y-3206997D01*
X-141113Y-3204786D01*
X-137210Y-3204010D01*
X152790Y-3204010D01*
X156693Y-3204786D01*
G37*
G36*
X2126693Y-3204786D02*
G01*
X2130003Y-3206997D01*
X2132214Y-3210307D01*
X2132990Y-3214210D01*
X2132990Y-3274210D01*
X2132214Y-3278113D01*
X2130003Y-3281422D01*
X2126693Y-3283634D01*
X2122790Y-3284410D01*
X1832790Y-3284410D01*
X1828887Y-3283634D01*
X1825577Y-3281422D01*
X1823366Y-3278113D01*
X1822590Y-3274210D01*
X1822590Y-3214210D01*
X1823366Y-3210307D01*
X1825577Y-3206997D01*
X1828887Y-3204786D01*
X1832790Y-3204010D01*
X2122790Y-3204010D01*
X2126693Y-3204786D01*
G37*
G36*
X4096693Y-3204786D02*
G01*
X4100002Y-3206997D01*
X4102214Y-3210307D01*
X4102990Y-3214210D01*
X4102990Y-3274210D01*
X4102214Y-3278113D01*
X4100002Y-3281422D01*
X4096693Y-3283634D01*
X4092790Y-3284410D01*
X3802790Y-3284410D01*
X3798887Y-3283634D01*
X3795577Y-3281422D01*
X3793366Y-3278113D01*
X3792590Y-3274210D01*
X3792590Y-3214210D01*
X3793366Y-3210307D01*
X3795577Y-3206997D01*
X3798887Y-3204786D01*
X3802790Y-3204010D01*
X4092790Y-3204010D01*
X4096693Y-3204786D01*
G37*
G36*
X-1812607Y-3077786D02*
G01*
X-1809297Y-3079997D01*
X-1807086Y-3083307D01*
X-1806310Y-3087210D01*
X-1806310Y-3147210D01*
X-1807086Y-3151113D01*
X-1809297Y-3154422D01*
X-1812607Y-3156634D01*
X-1816510Y-3157410D01*
X-2106510Y-3157410D01*
X-2110413Y-3156634D01*
X-2113723Y-3154422D01*
X-2115934Y-3151113D01*
X-2116710Y-3147210D01*
X-2116710Y-3087210D01*
X-2115934Y-3083307D01*
X-2113723Y-3079997D01*
X-2110413Y-3077786D01*
X-2106510Y-3077010D01*
X-1816510Y-3077010D01*
X-1812607Y-3077786D01*
G37*
G36*
X156693Y-3077786D02*
G01*
X160003Y-3079997D01*
X162214Y-3083307D01*
X162990Y-3087210D01*
X162990Y-3147210D01*
X162214Y-3151113D01*
X160003Y-3154422D01*
X156693Y-3156634D01*
X152790Y-3157410D01*
X-137210Y-3157410D01*
X-141113Y-3156634D01*
X-144423Y-3154422D01*
X-146634Y-3151113D01*
X-147410Y-3147210D01*
X-147410Y-3087210D01*
X-146634Y-3083307D01*
X-144423Y-3079997D01*
X-141113Y-3077786D01*
X-137210Y-3077010D01*
X152790Y-3077010D01*
X156693Y-3077786D01*
G37*
G36*
X2126693Y-3077786D02*
G01*
X2130003Y-3079997D01*
X2132214Y-3083307D01*
X2132990Y-3087210D01*
X2132990Y-3147210D01*
X2132214Y-3151113D01*
X2130003Y-3154422D01*
X2126693Y-3156634D01*
X2122790Y-3157410D01*
X1832790Y-3157410D01*
X1828887Y-3156634D01*
X1825577Y-3154422D01*
X1823366Y-3151113D01*
X1822590Y-3147210D01*
X1822590Y-3087210D01*
X1823366Y-3083307D01*
X1825577Y-3079997D01*
X1828887Y-3077786D01*
X1832790Y-3077010D01*
X2122790Y-3077010D01*
X2126693Y-3077786D01*
G37*
G36*
X4096693Y-3077786D02*
G01*
X4100002Y-3079997D01*
X4102214Y-3083307D01*
X4102990Y-3087210D01*
X4102990Y-3147210D01*
X4102214Y-3151113D01*
X4100002Y-3154422D01*
X4096693Y-3156634D01*
X4092790Y-3157410D01*
X3802790Y-3157410D01*
X3798887Y-3156634D01*
X3795577Y-3154422D01*
X3793366Y-3151113D01*
X3792590Y-3147210D01*
X3792590Y-3087210D01*
X3793366Y-3083307D01*
X3795577Y-3079997D01*
X3798887Y-3077786D01*
X3802790Y-3077010D01*
X4092790Y-3077010D01*
X4096693Y-3077786D01*
G37*
G36*
X-1812607Y-2950786D02*
G01*
X-1809297Y-2952997D01*
X-1807086Y-2956307D01*
X-1806310Y-2960210D01*
X-1806310Y-3020210D01*
X-1807086Y-3024113D01*
X-1809297Y-3027422D01*
X-1812607Y-3029634D01*
X-1816510Y-3030410D01*
X-2106510Y-3030410D01*
X-2110413Y-3029634D01*
X-2113723Y-3027422D01*
X-2115934Y-3024113D01*
X-2116710Y-3020210D01*
X-2116710Y-2960210D01*
X-2115934Y-2956307D01*
X-2113723Y-2952997D01*
X-2110413Y-2950786D01*
X-2106510Y-2950010D01*
X-1816510Y-2950010D01*
X-1812607Y-2950786D01*
G37*
G36*
X156693Y-2950786D02*
G01*
X160003Y-2952997D01*
X162214Y-2956307D01*
X162990Y-2960210D01*
X162990Y-3020210D01*
X162214Y-3024113D01*
X160003Y-3027422D01*
X156693Y-3029634D01*
X152790Y-3030410D01*
X-137210Y-3030410D01*
X-141113Y-3029634D01*
X-144423Y-3027422D01*
X-146634Y-3024113D01*
X-147410Y-3020210D01*
X-147410Y-2960210D01*
X-146634Y-2956307D01*
X-144423Y-2952997D01*
X-141113Y-2950786D01*
X-137210Y-2950010D01*
X152790Y-2950010D01*
X156693Y-2950786D01*
G37*
G36*
X2126693Y-2950786D02*
G01*
X2130003Y-2952997D01*
X2132214Y-2956307D01*
X2132990Y-2960210D01*
X2132990Y-3020210D01*
X2132214Y-3024113D01*
X2130003Y-3027422D01*
X2126693Y-3029634D01*
X2122790Y-3030410D01*
X1832790Y-3030410D01*
X1828887Y-3029634D01*
X1825577Y-3027422D01*
X1823366Y-3024113D01*
X1822590Y-3020210D01*
X1822590Y-2960210D01*
X1823366Y-2956307D01*
X1825577Y-2952997D01*
X1828887Y-2950786D01*
X1832790Y-2950010D01*
X2122790Y-2950010D01*
X2126693Y-2950786D01*
G37*
G36*
X4096693Y-2950786D02*
G01*
X4100002Y-2952997D01*
X4102214Y-2956307D01*
X4102990Y-2960210D01*
X4102990Y-3020210D01*
X4102214Y-3024113D01*
X4100002Y-3027422D01*
X4096693Y-3029634D01*
X4092790Y-3030410D01*
X3802790Y-3030410D01*
X3798887Y-3029634D01*
X3795577Y-3027422D01*
X3793366Y-3024113D01*
X3792590Y-3020210D01*
X3792590Y-2960210D01*
X3793366Y-2956307D01*
X3795577Y-2952997D01*
X3798887Y-2950786D01*
X3802790Y-2950010D01*
X4092790Y-2950010D01*
X4096693Y-2950786D01*
G37*
G36*
X-1812607Y-2823786D02*
G01*
X-1809297Y-2825997D01*
X-1807086Y-2829307D01*
X-1806310Y-2833210D01*
X-1806310Y-2893210D01*
X-1807086Y-2897113D01*
X-1809297Y-2900422D01*
X-1812607Y-2902634D01*
X-1816510Y-2903410D01*
X-2106510Y-2903410D01*
X-2110413Y-2902634D01*
X-2113723Y-2900422D01*
X-2115934Y-2897113D01*
X-2116710Y-2893210D01*
X-2116710Y-2833210D01*
X-2115934Y-2829307D01*
X-2113723Y-2825997D01*
X-2110413Y-2823786D01*
X-2106510Y-2823010D01*
X-1816510Y-2823010D01*
X-1812607Y-2823786D01*
G37*
G36*
X156693Y-2823786D02*
G01*
X160003Y-2825997D01*
X162214Y-2829307D01*
X162990Y-2833210D01*
X162990Y-2893210D01*
X162214Y-2897113D01*
X160003Y-2900422D01*
X156693Y-2902634D01*
X152790Y-2903410D01*
X-137210Y-2903410D01*
X-141113Y-2902634D01*
X-144423Y-2900422D01*
X-146634Y-2897113D01*
X-147410Y-2893210D01*
X-147410Y-2833210D01*
X-146634Y-2829307D01*
X-144423Y-2825997D01*
X-141113Y-2823786D01*
X-137210Y-2823010D01*
X152790Y-2823010D01*
X156693Y-2823786D01*
G37*
G36*
X2126693Y-2823786D02*
G01*
X2130003Y-2825997D01*
X2132214Y-2829307D01*
X2132990Y-2833210D01*
X2132990Y-2893210D01*
X2132214Y-2897113D01*
X2130003Y-2900422D01*
X2126693Y-2902634D01*
X2122790Y-2903410D01*
X1832790Y-2903410D01*
X1828887Y-2902634D01*
X1825577Y-2900422D01*
X1823366Y-2897113D01*
X1822590Y-2893210D01*
X1822590Y-2833210D01*
X1823366Y-2829307D01*
X1825577Y-2825997D01*
X1828887Y-2823786D01*
X1832790Y-2823010D01*
X2122790Y-2823010D01*
X2126693Y-2823786D01*
G37*
G36*
X4096693Y-2823786D02*
G01*
X4100002Y-2825997D01*
X4102214Y-2829307D01*
X4102990Y-2833210D01*
X4102990Y-2893210D01*
X4102214Y-2897113D01*
X4100002Y-2900422D01*
X4096693Y-2902634D01*
X4092790Y-2903410D01*
X3802790Y-2903410D01*
X3798887Y-2902634D01*
X3795577Y-2900422D01*
X3793366Y-2897113D01*
X3792590Y-2893210D01*
X3792590Y-2833210D01*
X3793366Y-2829307D01*
X3795577Y-2825997D01*
X3798887Y-2823786D01*
X3802790Y-2823010D01*
X4092790Y-2823010D01*
X4096693Y-2823786D01*
G37*
G36*
X-1812607Y-2696786D02*
G01*
X-1809297Y-2698998D01*
X-1807086Y-2702307D01*
X-1806310Y-2706210D01*
X-1806310Y-2766210D01*
X-1807086Y-2770113D01*
X-1809297Y-2773423D01*
X-1812607Y-2775634D01*
X-1816510Y-2776410D01*
X-2106510Y-2776410D01*
X-2110413Y-2775634D01*
X-2113723Y-2773423D01*
X-2115934Y-2770113D01*
X-2116710Y-2766210D01*
X-2116710Y-2706210D01*
X-2115934Y-2702307D01*
X-2113723Y-2698998D01*
X-2110413Y-2696786D01*
X-2106510Y-2696010D01*
X-1816510Y-2696010D01*
X-1812607Y-2696786D01*
G37*
G36*
X156693Y-2696786D02*
G01*
X160003Y-2698998D01*
X162214Y-2702307D01*
X162990Y-2706210D01*
X162990Y-2766210D01*
X162214Y-2770113D01*
X160003Y-2773423D01*
X156693Y-2775634D01*
X152790Y-2776410D01*
X-137210Y-2776410D01*
X-141113Y-2775634D01*
X-144423Y-2773423D01*
X-146634Y-2770113D01*
X-147410Y-2766210D01*
X-147410Y-2706210D01*
X-146634Y-2702307D01*
X-144423Y-2698998D01*
X-141113Y-2696786D01*
X-137210Y-2696010D01*
X152790Y-2696010D01*
X156693Y-2696786D01*
G37*
G36*
X2126693Y-2696786D02*
G01*
X2130003Y-2698998D01*
X2132214Y-2702307D01*
X2132990Y-2706210D01*
X2132990Y-2766210D01*
X2132214Y-2770113D01*
X2130003Y-2773423D01*
X2126693Y-2775634D01*
X2122790Y-2776410D01*
X1832790Y-2776410D01*
X1828887Y-2775634D01*
X1825577Y-2773423D01*
X1823366Y-2770113D01*
X1822590Y-2766210D01*
X1822590Y-2706210D01*
X1823366Y-2702307D01*
X1825577Y-2698998D01*
X1828887Y-2696786D01*
X1832790Y-2696010D01*
X2122790Y-2696010D01*
X2126693Y-2696786D01*
G37*
G36*
X4096693Y-2696786D02*
G01*
X4100002Y-2698998D01*
X4102214Y-2702307D01*
X4102990Y-2706210D01*
X4102990Y-2766210D01*
X4102214Y-2770113D01*
X4100002Y-2773423D01*
X4096693Y-2775634D01*
X4092790Y-2776410D01*
X3802790Y-2776410D01*
X3798887Y-2775634D01*
X3795577Y-2773423D01*
X3793366Y-2770113D01*
X3792590Y-2766210D01*
X3792590Y-2706210D01*
X3793366Y-2702307D01*
X3795577Y-2698998D01*
X3798887Y-2696786D01*
X3802790Y-2696010D01*
X4092790Y-2696010D01*
X4096693Y-2696786D01*
G37*
G36*
X-1812607Y-2569786D02*
G01*
X-1809297Y-2571998D01*
X-1807086Y-2575307D01*
X-1806310Y-2579210D01*
X-1806310Y-2639210D01*
X-1807086Y-2643113D01*
X-1809297Y-2646423D01*
X-1812607Y-2648634D01*
X-1816510Y-2649410D01*
X-2106510Y-2649410D01*
X-2110413Y-2648634D01*
X-2113723Y-2646423D01*
X-2115934Y-2643113D01*
X-2116710Y-2639210D01*
X-2116710Y-2579210D01*
X-2115934Y-2575307D01*
X-2113723Y-2571998D01*
X-2110413Y-2569786D01*
X-2106510Y-2569010D01*
X-1816510Y-2569010D01*
X-1812607Y-2569786D01*
G37*
G36*
X156693Y-2569786D02*
G01*
X160003Y-2571998D01*
X162214Y-2575307D01*
X162990Y-2579210D01*
X162990Y-2639210D01*
X162214Y-2643113D01*
X160003Y-2646423D01*
X156693Y-2648634D01*
X152790Y-2649410D01*
X-137210Y-2649410D01*
X-141113Y-2648634D01*
X-144423Y-2646423D01*
X-146634Y-2643113D01*
X-147410Y-2639210D01*
X-147410Y-2579210D01*
X-146634Y-2575307D01*
X-144423Y-2571998D01*
X-141113Y-2569786D01*
X-137210Y-2569010D01*
X152790Y-2569010D01*
X156693Y-2569786D01*
G37*
G36*
X2126693Y-2569786D02*
G01*
X2130003Y-2571998D01*
X2132214Y-2575307D01*
X2132990Y-2579210D01*
X2132990Y-2639210D01*
X2132214Y-2643113D01*
X2130003Y-2646423D01*
X2126693Y-2648634D01*
X2122790Y-2649410D01*
X1832790Y-2649410D01*
X1828887Y-2648634D01*
X1825577Y-2646423D01*
X1823366Y-2643113D01*
X1822590Y-2639210D01*
X1822590Y-2579210D01*
X1823366Y-2575307D01*
X1825577Y-2571998D01*
X1828887Y-2569786D01*
X1832790Y-2569010D01*
X2122790Y-2569010D01*
X2126693Y-2569786D01*
G37*
G36*
X4096693Y-2569786D02*
G01*
X4100002Y-2571998D01*
X4102214Y-2575307D01*
X4102990Y-2579210D01*
X4102990Y-2639210D01*
X4102214Y-2643113D01*
X4100002Y-2646423D01*
X4096693Y-2648634D01*
X4092790Y-2649410D01*
X3802790Y-2649410D01*
X3798887Y-2648634D01*
X3795577Y-2646423D01*
X3793366Y-2643113D01*
X3792590Y-2639210D01*
X3792590Y-2579210D01*
X3793366Y-2575307D01*
X3795577Y-2571998D01*
X3798887Y-2569786D01*
X3802790Y-2569010D01*
X4092790Y-2569010D01*
X4096693Y-2569786D01*
G37*
G36*
X-1812607Y-1934786D02*
G01*
X-1809297Y-1936997D01*
X-1807086Y-1940307D01*
X-1806310Y-1944210D01*
X-1806310Y-2004210D01*
X-1807086Y-2008113D01*
X-1809297Y-2011422D01*
X-1812607Y-2013634D01*
X-1816510Y-2014410D01*
X-2106510Y-2014410D01*
X-2110413Y-2013634D01*
X-2113723Y-2011422D01*
X-2115934Y-2008113D01*
X-2116710Y-2004210D01*
X-2116710Y-1944210D01*
X-2115934Y-1940307D01*
X-2113723Y-1936997D01*
X-2110413Y-1934786D01*
X-2106510Y-1934010D01*
X-1816510Y-1934010D01*
X-1812607Y-1934786D01*
G37*
G36*
X156693Y-1934786D02*
G01*
X160003Y-1936997D01*
X162214Y-1940307D01*
X162990Y-1944210D01*
X162990Y-2004210D01*
X162214Y-2008113D01*
X160003Y-2011422D01*
X156693Y-2013634D01*
X152790Y-2014410D01*
X-137210Y-2014410D01*
X-141113Y-2013634D01*
X-144423Y-2011422D01*
X-146634Y-2008113D01*
X-147410Y-2004210D01*
X-147410Y-1944210D01*
X-146634Y-1940307D01*
X-144423Y-1936997D01*
X-141113Y-1934786D01*
X-137210Y-1934010D01*
X152790Y-1934010D01*
X156693Y-1934786D01*
G37*
G36*
X2126693Y-1934786D02*
G01*
X2130003Y-1936997D01*
X2132214Y-1940307D01*
X2132990Y-1944210D01*
X2132990Y-2004210D01*
X2132214Y-2008113D01*
X2130003Y-2011422D01*
X2126693Y-2013634D01*
X2122790Y-2014410D01*
X1832790Y-2014410D01*
X1828887Y-2013634D01*
X1825577Y-2011422D01*
X1823366Y-2008113D01*
X1822590Y-2004210D01*
X1822590Y-1944210D01*
X1823366Y-1940307D01*
X1825577Y-1936997D01*
X1828887Y-1934786D01*
X1832790Y-1934010D01*
X2122790Y-1934010D01*
X2126693Y-1934786D01*
G37*
G36*
X4096693Y-1934786D02*
G01*
X4100002Y-1936997D01*
X4102214Y-1940307D01*
X4102990Y-1944210D01*
X4102990Y-2004210D01*
X4102214Y-2008113D01*
X4100002Y-2011422D01*
X4096693Y-2013634D01*
X4092790Y-2014410D01*
X3802790Y-2014410D01*
X3798887Y-2013634D01*
X3795577Y-2011422D01*
X3793366Y-2008113D01*
X3792590Y-2004210D01*
X3792590Y-1944210D01*
X3793366Y-1940307D01*
X3795577Y-1936997D01*
X3798887Y-1934786D01*
X3802790Y-1934010D01*
X4092790Y-1934010D01*
X4096693Y-1934786D01*
G37*
G36*
X-1812607Y-1807786D02*
G01*
X-1809297Y-1809997D01*
X-1807086Y-1813307D01*
X-1806310Y-1817210D01*
X-1806310Y-1877210D01*
X-1807086Y-1881113D01*
X-1809297Y-1884422D01*
X-1812607Y-1886634D01*
X-1816510Y-1887410D01*
X-2106510Y-1887410D01*
X-2110413Y-1886634D01*
X-2113723Y-1884422D01*
X-2115934Y-1881113D01*
X-2116710Y-1877210D01*
X-2116710Y-1817210D01*
X-2115934Y-1813307D01*
X-2113723Y-1809997D01*
X-2110413Y-1807786D01*
X-2106510Y-1807010D01*
X-1816510Y-1807010D01*
X-1812607Y-1807786D01*
G37*
G36*
X156693Y-1807786D02*
G01*
X160003Y-1809997D01*
X162214Y-1813307D01*
X162990Y-1817210D01*
X162990Y-1877210D01*
X162214Y-1881113D01*
X160003Y-1884422D01*
X156693Y-1886634D01*
X152790Y-1887410D01*
X-137210Y-1887410D01*
X-141113Y-1886634D01*
X-144423Y-1884422D01*
X-146634Y-1881113D01*
X-147410Y-1877210D01*
X-147410Y-1817210D01*
X-146634Y-1813307D01*
X-144423Y-1809997D01*
X-141113Y-1807786D01*
X-137210Y-1807010D01*
X152790Y-1807010D01*
X156693Y-1807786D01*
G37*
G36*
X2126693Y-1807786D02*
G01*
X2130003Y-1809997D01*
X2132214Y-1813307D01*
X2132990Y-1817210D01*
X2132990Y-1877210D01*
X2132214Y-1881113D01*
X2130003Y-1884422D01*
X2126693Y-1886634D01*
X2122790Y-1887410D01*
X1832790Y-1887410D01*
X1828887Y-1886634D01*
X1825577Y-1884422D01*
X1823366Y-1881113D01*
X1822590Y-1877210D01*
X1822590Y-1817210D01*
X1823366Y-1813307D01*
X1825577Y-1809997D01*
X1828887Y-1807786D01*
X1832790Y-1807010D01*
X2122790Y-1807010D01*
X2126693Y-1807786D01*
G37*
G36*
X4096693Y-1807786D02*
G01*
X4100002Y-1809997D01*
X4102214Y-1813307D01*
X4102990Y-1817210D01*
X4102990Y-1877210D01*
X4102214Y-1881113D01*
X4100002Y-1884422D01*
X4096693Y-1886634D01*
X4092790Y-1887410D01*
X3802790Y-1887410D01*
X3798887Y-1886634D01*
X3795577Y-1884422D01*
X3793366Y-1881113D01*
X3792590Y-1877210D01*
X3792590Y-1817210D01*
X3793366Y-1813307D01*
X3795577Y-1809997D01*
X3798887Y-1807786D01*
X3802790Y-1807010D01*
X4092790Y-1807010D01*
X4096693Y-1807786D01*
G37*
G36*
X-1812607Y-1680786D02*
G01*
X-1809297Y-1682997D01*
X-1807086Y-1686307D01*
X-1806310Y-1690210D01*
X-1806310Y-1750210D01*
X-1807086Y-1754113D01*
X-1809297Y-1757422D01*
X-1812607Y-1759634D01*
X-1816510Y-1760410D01*
X-2106510Y-1760410D01*
X-2110413Y-1759634D01*
X-2113723Y-1757422D01*
X-2115934Y-1754113D01*
X-2116710Y-1750210D01*
X-2116710Y-1690210D01*
X-2115934Y-1686307D01*
X-2113723Y-1682997D01*
X-2110413Y-1680786D01*
X-2106510Y-1680010D01*
X-1816510Y-1680010D01*
X-1812607Y-1680786D01*
G37*
G36*
X156693Y-1680786D02*
G01*
X160003Y-1682997D01*
X162214Y-1686307D01*
X162990Y-1690210D01*
X162990Y-1750210D01*
X162214Y-1754113D01*
X160003Y-1757422D01*
X156693Y-1759634D01*
X152790Y-1760410D01*
X-137210Y-1760410D01*
X-141113Y-1759634D01*
X-144423Y-1757422D01*
X-146634Y-1754113D01*
X-147410Y-1750210D01*
X-147410Y-1690210D01*
X-146634Y-1686307D01*
X-144423Y-1682997D01*
X-141113Y-1680786D01*
X-137210Y-1680010D01*
X152790Y-1680010D01*
X156693Y-1680786D01*
G37*
G36*
X2126693Y-1680786D02*
G01*
X2130003Y-1682997D01*
X2132214Y-1686307D01*
X2132990Y-1690210D01*
X2132990Y-1750210D01*
X2132214Y-1754113D01*
X2130003Y-1757422D01*
X2126693Y-1759634D01*
X2122790Y-1760410D01*
X1832790Y-1760410D01*
X1828887Y-1759634D01*
X1825577Y-1757422D01*
X1823366Y-1754113D01*
X1822590Y-1750210D01*
X1822590Y-1690210D01*
X1823366Y-1686307D01*
X1825577Y-1682997D01*
X1828887Y-1680786D01*
X1832790Y-1680010D01*
X2122790Y-1680010D01*
X2126693Y-1680786D01*
G37*
G36*
X4096693Y-1680786D02*
G01*
X4100002Y-1682997D01*
X4102214Y-1686307D01*
X4102990Y-1690210D01*
X4102990Y-1750210D01*
X4102214Y-1754113D01*
X4100002Y-1757422D01*
X4096693Y-1759634D01*
X4092790Y-1760410D01*
X3802790Y-1760410D01*
X3798887Y-1759634D01*
X3795577Y-1757422D01*
X3793366Y-1754113D01*
X3792590Y-1750210D01*
X3792590Y-1690210D01*
X3793366Y-1686307D01*
X3795577Y-1682997D01*
X3798887Y-1680786D01*
X3802790Y-1680010D01*
X4092790Y-1680010D01*
X4096693Y-1680786D01*
G37*
G36*
X-1812607Y-1553786D02*
G01*
X-1809297Y-1555997D01*
X-1807086Y-1559307D01*
X-1806310Y-1563210D01*
X-1806310Y-1623210D01*
X-1807086Y-1627113D01*
X-1809297Y-1630422D01*
X-1812607Y-1632634D01*
X-1816510Y-1633410D01*
X-2106510Y-1633410D01*
X-2110413Y-1632634D01*
X-2113723Y-1630422D01*
X-2115934Y-1627113D01*
X-2116710Y-1623210D01*
X-2116710Y-1563210D01*
X-2115934Y-1559307D01*
X-2113723Y-1555997D01*
X-2110413Y-1553786D01*
X-2106510Y-1553010D01*
X-1816510Y-1553010D01*
X-1812607Y-1553786D01*
G37*
G36*
X156693Y-1553786D02*
G01*
X160003Y-1555997D01*
X162214Y-1559307D01*
X162990Y-1563210D01*
X162990Y-1623210D01*
X162214Y-1627113D01*
X160003Y-1630422D01*
X156693Y-1632634D01*
X152790Y-1633410D01*
X-137210Y-1633410D01*
X-141113Y-1632634D01*
X-144423Y-1630422D01*
X-146634Y-1627113D01*
X-147410Y-1623210D01*
X-147410Y-1563210D01*
X-146634Y-1559307D01*
X-144423Y-1555997D01*
X-141113Y-1553786D01*
X-137210Y-1553010D01*
X152790Y-1553010D01*
X156693Y-1553786D01*
G37*
G36*
X2126693Y-1553786D02*
G01*
X2130003Y-1555997D01*
X2132214Y-1559307D01*
X2132990Y-1563210D01*
X2132990Y-1623210D01*
X2132214Y-1627113D01*
X2130003Y-1630422D01*
X2126693Y-1632634D01*
X2122790Y-1633410D01*
X1832790Y-1633410D01*
X1828887Y-1632634D01*
X1825577Y-1630422D01*
X1823366Y-1627113D01*
X1822590Y-1623210D01*
X1822590Y-1563210D01*
X1823366Y-1559307D01*
X1825577Y-1555997D01*
X1828887Y-1553786D01*
X1832790Y-1553010D01*
X2122790Y-1553010D01*
X2126693Y-1553786D01*
G37*
G36*
X4096693Y-1553786D02*
G01*
X4100002Y-1555997D01*
X4102214Y-1559307D01*
X4102990Y-1563210D01*
X4102990Y-1623210D01*
X4102214Y-1627113D01*
X4100002Y-1630422D01*
X4096693Y-1632634D01*
X4092790Y-1633410D01*
X3802790Y-1633410D01*
X3798887Y-1632634D01*
X3795577Y-1630422D01*
X3793366Y-1627113D01*
X3792590Y-1623210D01*
X3792590Y-1563210D01*
X3793366Y-1559307D01*
X3795577Y-1555997D01*
X3798887Y-1553786D01*
X3802790Y-1553010D01*
X4092790Y-1553010D01*
X4096693Y-1553786D01*
G37*
G36*
X-1812607Y-1426786D02*
G01*
X-1809297Y-1428997D01*
X-1807086Y-1432307D01*
X-1806310Y-1436210D01*
X-1806310Y-1496210D01*
X-1807086Y-1500113D01*
X-1809297Y-1503422D01*
X-1812607Y-1505634D01*
X-1816510Y-1506410D01*
X-2106510Y-1506410D01*
X-2110413Y-1505634D01*
X-2113723Y-1503422D01*
X-2115934Y-1500113D01*
X-2116710Y-1496210D01*
X-2116710Y-1436210D01*
X-2115934Y-1432307D01*
X-2113723Y-1428997D01*
X-2110413Y-1426786D01*
X-2106510Y-1426010D01*
X-1816510Y-1426010D01*
X-1812607Y-1426786D01*
G37*
G36*
X156693Y-1426786D02*
G01*
X160003Y-1428997D01*
X162214Y-1432307D01*
X162990Y-1436210D01*
X162990Y-1496210D01*
X162214Y-1500113D01*
X160003Y-1503422D01*
X156693Y-1505634D01*
X152790Y-1506410D01*
X-137210Y-1506410D01*
X-141113Y-1505634D01*
X-144423Y-1503422D01*
X-146634Y-1500113D01*
X-147410Y-1496210D01*
X-147410Y-1436210D01*
X-146634Y-1432307D01*
X-144423Y-1428997D01*
X-141113Y-1426786D01*
X-137210Y-1426010D01*
X152790Y-1426010D01*
X156693Y-1426786D01*
G37*
G36*
X2126693Y-1426786D02*
G01*
X2130003Y-1428997D01*
X2132214Y-1432307D01*
X2132990Y-1436210D01*
X2132990Y-1496210D01*
X2132214Y-1500113D01*
X2130003Y-1503422D01*
X2126693Y-1505634D01*
X2122790Y-1506410D01*
X1832790Y-1506410D01*
X1828887Y-1505634D01*
X1825577Y-1503422D01*
X1823366Y-1500113D01*
X1822590Y-1496210D01*
X1822590Y-1436210D01*
X1823366Y-1432307D01*
X1825577Y-1428997D01*
X1828887Y-1426786D01*
X1832790Y-1426010D01*
X2122790Y-1426010D01*
X2126693Y-1426786D01*
G37*
G36*
X4096693Y-1426786D02*
G01*
X4100002Y-1428997D01*
X4102214Y-1432307D01*
X4102990Y-1436210D01*
X4102990Y-1496210D01*
X4102214Y-1500113D01*
X4100002Y-1503422D01*
X4096693Y-1505634D01*
X4092790Y-1506410D01*
X3802790Y-1506410D01*
X3798887Y-1505634D01*
X3795577Y-1503422D01*
X3793366Y-1500113D01*
X3792590Y-1496210D01*
X3792590Y-1436210D01*
X3793366Y-1432307D01*
X3795577Y-1428997D01*
X3798887Y-1426786D01*
X3802790Y-1426010D01*
X4092790Y-1426010D01*
X4096693Y-1426786D01*
G37*
G36*
X-1812607Y-1299786D02*
G01*
X-1809297Y-1301998D01*
X-1807086Y-1305307D01*
X-1806310Y-1309210D01*
X-1806310Y-1369210D01*
X-1807086Y-1373113D01*
X-1809297Y-1376423D01*
X-1812607Y-1378634D01*
X-1816510Y-1379410D01*
X-2106510Y-1379410D01*
X-2110413Y-1378634D01*
X-2113723Y-1376423D01*
X-2115934Y-1373113D01*
X-2116710Y-1369210D01*
X-2116710Y-1309210D01*
X-2115934Y-1305307D01*
X-2113723Y-1301998D01*
X-2110413Y-1299786D01*
X-2106510Y-1299010D01*
X-1816510Y-1299010D01*
X-1812607Y-1299786D01*
G37*
G36*
X156693Y-1299786D02*
G01*
X160003Y-1301998D01*
X162214Y-1305307D01*
X162990Y-1309210D01*
X162990Y-1369210D01*
X162214Y-1373113D01*
X160003Y-1376423D01*
X156693Y-1378634D01*
X152790Y-1379410D01*
X-137210Y-1379410D01*
X-141113Y-1378634D01*
X-144423Y-1376423D01*
X-146634Y-1373113D01*
X-147410Y-1369210D01*
X-147410Y-1309210D01*
X-146634Y-1305307D01*
X-144423Y-1301998D01*
X-141113Y-1299786D01*
X-137210Y-1299010D01*
X152790Y-1299010D01*
X156693Y-1299786D01*
G37*
G36*
X2126693Y-1299786D02*
G01*
X2130003Y-1301998D01*
X2132214Y-1305307D01*
X2132990Y-1309210D01*
X2132990Y-1369210D01*
X2132214Y-1373113D01*
X2130003Y-1376423D01*
X2126693Y-1378634D01*
X2122790Y-1379410D01*
X1832790Y-1379410D01*
X1828887Y-1378634D01*
X1825577Y-1376423D01*
X1823366Y-1373113D01*
X1822590Y-1369210D01*
X1822590Y-1309210D01*
X1823366Y-1305307D01*
X1825577Y-1301998D01*
X1828887Y-1299786D01*
X1832790Y-1299010D01*
X2122790Y-1299010D01*
X2126693Y-1299786D01*
G37*
G36*
X4096693Y-1299786D02*
G01*
X4100002Y-1301998D01*
X4102214Y-1305307D01*
X4102990Y-1309210D01*
X4102990Y-1369210D01*
X4102214Y-1373113D01*
X4100002Y-1376423D01*
X4096693Y-1378634D01*
X4092790Y-1379410D01*
X3802790Y-1379410D01*
X3798887Y-1378634D01*
X3795577Y-1376423D01*
X3793366Y-1373113D01*
X3792590Y-1369210D01*
X3792590Y-1309210D01*
X3793366Y-1305307D01*
X3795577Y-1301998D01*
X3798887Y-1299786D01*
X3802790Y-1299010D01*
X4092790Y-1299010D01*
X4096693Y-1299786D01*
G37*
G36*
X-1812607Y-1172786D02*
G01*
X-1809297Y-1174998D01*
X-1807086Y-1178307D01*
X-1806310Y-1182210D01*
X-1806310Y-1242210D01*
X-1807086Y-1246113D01*
X-1809297Y-1249423D01*
X-1812607Y-1251634D01*
X-1816510Y-1252410D01*
X-2106510Y-1252410D01*
X-2110413Y-1251634D01*
X-2113723Y-1249423D01*
X-2115934Y-1246113D01*
X-2116710Y-1242210D01*
X-2116710Y-1182210D01*
X-2115934Y-1178307D01*
X-2113723Y-1174998D01*
X-2110413Y-1172786D01*
X-2106510Y-1172010D01*
X-1816510Y-1172010D01*
X-1812607Y-1172786D01*
G37*
G36*
X156693Y-1172786D02*
G01*
X160003Y-1174998D01*
X162214Y-1178307D01*
X162990Y-1182210D01*
X162990Y-1242210D01*
X162214Y-1246113D01*
X160003Y-1249423D01*
X156693Y-1251634D01*
X152790Y-1252410D01*
X-137210Y-1252410D01*
X-141113Y-1251634D01*
X-144423Y-1249423D01*
X-146634Y-1246113D01*
X-147410Y-1242210D01*
X-147410Y-1182210D01*
X-146634Y-1178307D01*
X-144423Y-1174998D01*
X-141113Y-1172786D01*
X-137210Y-1172010D01*
X152790Y-1172010D01*
X156693Y-1172786D01*
G37*
G36*
X2126693Y-1172786D02*
G01*
X2130003Y-1174998D01*
X2132214Y-1178307D01*
X2132990Y-1182210D01*
X2132990Y-1242210D01*
X2132214Y-1246113D01*
X2130003Y-1249423D01*
X2126693Y-1251634D01*
X2122790Y-1252410D01*
X1832790Y-1252410D01*
X1828887Y-1251634D01*
X1825577Y-1249423D01*
X1823366Y-1246113D01*
X1822590Y-1242210D01*
X1822590Y-1182210D01*
X1823366Y-1178307D01*
X1825577Y-1174998D01*
X1828887Y-1172786D01*
X1832790Y-1172010D01*
X2122790Y-1172010D01*
X2126693Y-1172786D01*
G37*
G36*
X4096693Y-1172786D02*
G01*
X4100002Y-1174998D01*
X4102214Y-1178307D01*
X4102990Y-1182210D01*
X4102990Y-1242210D01*
X4102214Y-1246113D01*
X4100002Y-1249423D01*
X4096693Y-1251634D01*
X4092790Y-1252410D01*
X3802790Y-1252410D01*
X3798887Y-1251634D01*
X3795577Y-1249423D01*
X3793366Y-1246113D01*
X3792590Y-1242210D01*
X3792590Y-1182210D01*
X3793366Y-1178307D01*
X3795577Y-1174998D01*
X3798887Y-1172786D01*
X3802790Y-1172010D01*
X4092790Y-1172010D01*
X4096693Y-1172786D01*
G37*
G36*
X-2090861Y-849434D02*
G01*
X-2076986Y-856716D01*
X-2065257Y-867107D01*
X-2056355Y-880003D01*
X-2050799Y-894654D01*
X-2048910Y-910210D01*
X-2050799Y-925765D01*
X-2056355Y-940417D01*
X-2065257Y-953313D01*
X-2076986Y-963704D01*
X-2090861Y-970986D01*
X-2106075Y-974736D01*
X-2121745Y-974736D01*
X-2136959Y-970986D01*
X-2150834Y-963704D01*
X-2162563Y-953313D01*
X-2171465Y-940417D01*
X-2177021Y-925765D01*
X-2178910Y-910210D01*
X-2177021Y-894654D01*
X-2171465Y-880003D01*
X-2162563Y-867107D01*
X-2150834Y-856716D01*
X-2136959Y-849434D01*
X-2121745Y-845684D01*
X-2106075Y-845684D01*
X-2090861Y-849434D01*
G37*
G36*
X-121561Y-849434D02*
G01*
X-107686Y-856716D01*
X-95957Y-867107D01*
X-87055Y-880003D01*
X-81499Y-894654D01*
X-79610Y-910210D01*
X-81499Y-925765D01*
X-87055Y-940417D01*
X-95957Y-953313D01*
X-107686Y-963704D01*
X-121561Y-970986D01*
X-136775Y-974736D01*
X-152445Y-974736D01*
X-167659Y-970986D01*
X-181534Y-963704D01*
X-193263Y-953313D01*
X-202165Y-940417D01*
X-207721Y-925765D01*
X-209610Y-910210D01*
X-207721Y-894654D01*
X-202165Y-880003D01*
X-193263Y-867107D01*
X-181534Y-856716D01*
X-167659Y-849434D01*
X-152445Y-845684D01*
X-136775Y-845684D01*
X-121561Y-849434D01*
G37*
G36*
X1848439Y-849434D02*
G01*
X1862314Y-856716D01*
X1874043Y-867107D01*
X1882945Y-880003D01*
X1888501Y-894654D01*
X1890390Y-910210D01*
X1888501Y-925765D01*
X1882945Y-940417D01*
X1874043Y-953313D01*
X1862314Y-963704D01*
X1848439Y-970986D01*
X1833225Y-974736D01*
X1817555Y-974736D01*
X1802341Y-970986D01*
X1788466Y-963704D01*
X1776737Y-953313D01*
X1767835Y-940417D01*
X1762279Y-925765D01*
X1760390Y-910210D01*
X1762279Y-894654D01*
X1767835Y-880003D01*
X1776737Y-867107D01*
X1788466Y-856716D01*
X1802341Y-849434D01*
X1817555Y-845684D01*
X1833225Y-845684D01*
X1848439Y-849434D01*
G37*
G36*
X3818439Y-849434D02*
G01*
X3832314Y-856716D01*
X3844043Y-867107D01*
X3852945Y-880003D01*
X3858501Y-894654D01*
X3860390Y-910210D01*
X3858501Y-925765D01*
X3852945Y-940417D01*
X3844043Y-953313D01*
X3832314Y-963704D01*
X3818439Y-970986D01*
X3803225Y-974736D01*
X3787555Y-974736D01*
X3772341Y-970986D01*
X3758466Y-963704D01*
X3746737Y-953313D01*
X3737835Y-940417D01*
X3732279Y-925765D01*
X3730390Y-910210D01*
X3732279Y-894654D01*
X3737835Y-880003D01*
X3746737Y-867107D01*
X3758466Y-856716D01*
X3772341Y-849434D01*
X3787555Y-845684D01*
X3803225Y-845684D01*
X3818439Y-849434D01*
G37*
G36*
X-1969007Y-459786D02*
G01*
X-1965697Y-461997D01*
X-1963486Y-465307D01*
X-1962710Y-469210D01*
X-1962710Y-713210D01*
X-1963486Y-717113D01*
X-1965697Y-720422D01*
X-1969007Y-722634D01*
X-1972910Y-723410D01*
X-2254910Y-723410D01*
X-2258813Y-722634D01*
X-2262123Y-720422D01*
X-2264334Y-717113D01*
X-2265110Y-713210D01*
X-2265110Y-469210D01*
X-2264334Y-465307D01*
X-2262123Y-461997D01*
X-2258813Y-459786D01*
X-2254910Y-459010D01*
X-1972910Y-459010D01*
X-1969007Y-459786D01*
G37*
G36*
X293Y-459786D02*
G01*
X3602Y-461997D01*
X5814Y-465307D01*
X6590Y-469210D01*
X6590Y-713210D01*
X5814Y-717113D01*
X3602Y-720422D01*
X293Y-722634D01*
X-3610Y-723410D01*
X-285610Y-723410D01*
X-289513Y-722634D01*
X-292823Y-720422D01*
X-295034Y-717113D01*
X-295810Y-713210D01*
X-295810Y-469210D01*
X-295034Y-465307D01*
X-292823Y-461997D01*
X-289513Y-459786D01*
X-285610Y-459010D01*
X-3610Y-459010D01*
X293Y-459786D01*
G37*
G36*
X1970293Y-459786D02*
G01*
X1973602Y-461997D01*
X1975814Y-465307D01*
X1976590Y-469210D01*
X1976590Y-713210D01*
X1975814Y-717113D01*
X1973602Y-720422D01*
X1970293Y-722634D01*
X1966390Y-723410D01*
X1684390Y-723410D01*
X1680487Y-722634D01*
X1677177Y-720422D01*
X1674966Y-717113D01*
X1674190Y-713210D01*
X1674190Y-469210D01*
X1674966Y-465307D01*
X1677177Y-461997D01*
X1680487Y-459786D01*
X1684390Y-459010D01*
X1966390Y-459010D01*
X1970293Y-459786D01*
G37*
G36*
X3940293Y-459786D02*
G01*
X3943602Y-461997D01*
X3945814Y-465307D01*
X3946590Y-469210D01*
X3946590Y-713210D01*
X3945814Y-717113D01*
X3943602Y-720422D01*
X3940293Y-722634D01*
X3936390Y-723410D01*
X3654390Y-723410D01*
X3650487Y-722634D01*
X3647177Y-720422D01*
X3644966Y-717113D01*
X3644190Y-713210D01*
X3644190Y-469210D01*
X3644966Y-465307D01*
X3647177Y-461997D01*
X3650487Y-459786D01*
X3654390Y-459010D01*
X3936390Y-459010D01*
X3940293Y-459786D01*
G37*
G36*
X-2350591Y-163280D02*
G01*
X-2334739Y-168827D01*
X-2320518Y-177763D01*
X-2308643Y-189638D01*
X-2299707Y-203859D01*
X-2294160Y-219711D01*
X-2292280Y-236400D01*
X-2294160Y-253089D01*
X-2299707Y-268941D01*
X-2308643Y-283162D01*
X-2320518Y-295037D01*
X-2334739Y-303973D01*
X-2350591Y-309520D01*
X-2367280Y-311400D01*
X-2383969Y-309520D01*
X-2399821Y-303973D01*
X-2414042Y-295037D01*
X-2425917Y-283162D01*
X-2434853Y-268941D01*
X-2440400Y-253089D01*
X-2442280Y-236400D01*
X-2440400Y-219711D01*
X-2434853Y-203859D01*
X-2425917Y-189638D01*
X-2414042Y-177763D01*
X-2399821Y-168827D01*
X-2383969Y-163280D01*
X-2367280Y-161400D01*
X-2350591Y-163280D01*
G37*
G36*
X4913809Y-163280D02*
G01*
X4929661Y-168827D01*
X4943882Y-177763D01*
X4955757Y-189638D01*
X4964693Y-203859D01*
X4970240Y-219711D01*
X4972120Y-236400D01*
X4970240Y-253089D01*
X4964693Y-268941D01*
X4955757Y-283162D01*
X4943882Y-295037D01*
X4929661Y-303973D01*
X4913809Y-309520D01*
X4897120Y-311400D01*
X4880431Y-309520D01*
X4864579Y-303973D01*
X4850358Y-295037D01*
X4838483Y-283162D01*
X4829547Y-268941D01*
X4824000Y-253089D01*
X4822120Y-236400D01*
X4824000Y-219711D01*
X4829547Y-203859D01*
X4838483Y-189638D01*
X4850358Y-177763D01*
X4864579Y-168827D01*
X4880431Y-163280D01*
X4897120Y-161400D01*
X4913809Y-163280D01*
G37*
G36*
X-1860422Y243097D02*
G01*
X-1853829Y243097D01*
X-1847875Y242199D01*
X-1841665Y241755D01*
X-1834302Y240153D01*
X-1827226Y239087D01*
X-1822027Y237483D01*
X-1816572Y236297D01*
X-1808886Y233430D01*
X-1801519Y231157D01*
X-1797141Y229049D01*
X-1792510Y227322D01*
X-1784711Y223063D01*
X-1777280Y219485D01*
X-1773751Y217079D01*
X-1769971Y215015D01*
X-1762290Y209265D01*
X-1755052Y204330D01*
X-1752355Y201827D01*
X-1749414Y199626D01*
X-1742104Y192316D01*
X-1735331Y186031D01*
X-1733407Y183619D01*
X-1731254Y181466D01*
X-1724580Y172550D01*
X-1718557Y164998D01*
X-1717312Y162842D01*
X-1715865Y160909D01*
X-1710093Y150338D01*
X-1705106Y141699D01*
X-1704414Y139938D01*
X-1703558Y138370D01*
X-1698949Y126013D01*
X-1695277Y116656D01*
X-1694989Y115396D01*
X-1694583Y114308D01*
X-1691382Y99591D01*
X-1689290Y90428D01*
X-1689239Y89740D01*
X-1689125Y89215D01*
X-1687563Y67370D01*
X-1687280Y63600D01*
X-1687563Y59830D01*
X-1689125Y37985D01*
X-1689239Y37461D01*
X-1689290Y36772D01*
X-1691382Y27607D01*
X-1694583Y12892D01*
X-1694989Y11804D01*
X-1695277Y10544D01*
X-1698950Y1186D01*
X-1703558Y-11170D01*
X-1704414Y-12737D01*
X-1705106Y-14499D01*
X-1710094Y-23140D01*
X-1715865Y-33709D01*
X-1717312Y-35641D01*
X-1718557Y-37798D01*
X-1724581Y-45351D01*
X-1731254Y-54266D01*
X-1733406Y-56418D01*
X-1735331Y-58831D01*
X-1742106Y-65117D01*
X-1749414Y-72426D01*
X-1752354Y-74627D01*
X-1755052Y-77130D01*
X-1762292Y-82066D01*
X-1769971Y-87815D01*
X-1773751Y-89878D01*
X-1777280Y-92285D01*
X-1784712Y-95864D01*
X-1792510Y-100122D01*
X-1797140Y-101848D01*
X-1801519Y-103957D01*
X-1808888Y-106230D01*
X-1816572Y-109097D01*
X-1822026Y-110283D01*
X-1827226Y-111887D01*
X-1834303Y-112954D01*
X-1841665Y-114555D01*
X-1847874Y-114999D01*
X-1853829Y-115897D01*
X-1860423Y-115897D01*
X-1867280Y-116387D01*
X-1874137Y-115897D01*
X-1880731Y-115897D01*
X-1886686Y-114999D01*
X-1892895Y-114555D01*
X-1900257Y-112954D01*
X-1907334Y-111887D01*
X-1912534Y-110283D01*
X-1917988Y-109097D01*
X-1925673Y-106230D01*
X-1933041Y-103957D01*
X-1937420Y-101849D01*
X-1942050Y-100122D01*
X-1949849Y-95863D01*
X-1957280Y-92285D01*
X-1960809Y-89878D01*
X-1964589Y-87815D01*
X-1972269Y-82065D01*
X-1979508Y-77130D01*
X-1982205Y-74627D01*
X-1985146Y-72426D01*
X-1992456Y-65116D01*
X-1999229Y-58831D01*
X-2001153Y-56418D01*
X-2003306Y-54266D01*
X-2009981Y-45349D01*
X-2016003Y-37798D01*
X-2017248Y-35642D01*
X-2018695Y-33709D01*
X-2024468Y-23136D01*
X-2029454Y-14499D01*
X-2030146Y-12738D01*
X-2031002Y-11170D01*
X-2035612Y1191D01*
X-2039283Y10544D01*
X-2039571Y11803D01*
X-2039977Y12892D01*
X-2043180Y27616D01*
X-2045269Y36772D01*
X-2045321Y37460D01*
X-2045435Y37985D01*
X-2047000Y59859D01*
X-2047280Y63600D01*
X-2047000Y67341D01*
X-2045435Y89215D01*
X-2045321Y89740D01*
X-2045269Y90428D01*
X-2043180Y99582D01*
X-2039977Y114308D01*
X-2039570Y115397D01*
X-2039283Y116656D01*
X-2035613Y126007D01*
X-2031002Y138370D01*
X-2030145Y139939D01*
X-2029454Y141699D01*
X-2024469Y150335D01*
X-2018695Y160909D01*
X-2017247Y162842D01*
X-2016003Y164998D01*
X-2009982Y172548D01*
X-2003306Y181466D01*
X-2001153Y183619D01*
X-1999229Y186031D01*
X-1992457Y192315D01*
X-1985146Y199626D01*
X-1982205Y201828D01*
X-1979508Y204330D01*
X-1972271Y209264D01*
X-1964589Y215015D01*
X-1960808Y217079D01*
X-1957280Y219485D01*
X-1949850Y223063D01*
X-1942050Y227322D01*
X-1937419Y229049D01*
X-1933041Y231157D01*
X-1925674Y233430D01*
X-1917988Y236297D01*
X-1912533Y237483D01*
X-1907334Y239087D01*
X-1900259Y240153D01*
X-1892895Y241755D01*
X-1886685Y242199D01*
X-1880731Y243097D01*
X-1874138Y243097D01*
X-1867280Y243587D01*
X-1860422Y243097D01*
G37*
G36*
X3903978Y243097D02*
G01*
X3910571Y243097D01*
X3916525Y242199D01*
X3922735Y241755D01*
X3930098Y240153D01*
X3937174Y239087D01*
X3942373Y237483D01*
X3947828Y236297D01*
X3955514Y233430D01*
X3962881Y231157D01*
X3967259Y229049D01*
X3971890Y227322D01*
X3979689Y223063D01*
X3987120Y219485D01*
X3990649Y217079D01*
X3994429Y215015D01*
X4002110Y209265D01*
X4009348Y204330D01*
X4012045Y201827D01*
X4014986Y199626D01*
X4022295Y192316D01*
X4029069Y186031D01*
X4030993Y183619D01*
X4033146Y181466D01*
X4039820Y172550D01*
X4045843Y164998D01*
X4047088Y162842D01*
X4048535Y160909D01*
X4054307Y150338D01*
X4059294Y141699D01*
X4059986Y139938D01*
X4060842Y138370D01*
X4065451Y126013D01*
X4069123Y116656D01*
X4069411Y115396D01*
X4069817Y114308D01*
X4073018Y99591D01*
X4075109Y90428D01*
X4075161Y89740D01*
X4075275Y89215D01*
X4076837Y67370D01*
X4077120Y63600D01*
X4076837Y59830D01*
X4075275Y37985D01*
X4075161Y37461D01*
X4075109Y36772D01*
X4073017Y27607D01*
X4069817Y12892D01*
X4069411Y11804D01*
X4069123Y10544D01*
X4065450Y1186D01*
X4060842Y-11170D01*
X4059986Y-12737D01*
X4059294Y-14499D01*
X4054306Y-23140D01*
X4048535Y-33709D01*
X4047088Y-35641D01*
X4045843Y-37798D01*
X4039819Y-45351D01*
X4033146Y-54266D01*
X4030994Y-56418D01*
X4029069Y-58831D01*
X4022294Y-65117D01*
X4014986Y-72426D01*
X4012046Y-74627D01*
X4009348Y-77130D01*
X4002108Y-82066D01*
X3994429Y-87815D01*
X3990649Y-89878D01*
X3987120Y-92285D01*
X3979688Y-95864D01*
X3971890Y-100122D01*
X3967260Y-101848D01*
X3962881Y-103957D01*
X3955512Y-106230D01*
X3947828Y-109097D01*
X3942374Y-110283D01*
X3937174Y-111887D01*
X3930097Y-112954D01*
X3922735Y-114555D01*
X3916526Y-114999D01*
X3910571Y-115897D01*
X3903977Y-115897D01*
X3897120Y-116387D01*
X3890263Y-115897D01*
X3883669Y-115897D01*
X3877714Y-114999D01*
X3871505Y-114555D01*
X3864143Y-112954D01*
X3857066Y-111887D01*
X3851866Y-110283D01*
X3846412Y-109097D01*
X3838727Y-106230D01*
X3831359Y-103957D01*
X3826980Y-101849D01*
X3822350Y-100122D01*
X3814551Y-95863D01*
X3807120Y-92285D01*
X3803591Y-89878D01*
X3799811Y-87815D01*
X3792131Y-82065D01*
X3784892Y-77130D01*
X3782194Y-74627D01*
X3779254Y-72426D01*
X3771944Y-65116D01*
X3765171Y-58831D01*
X3763247Y-56418D01*
X3761094Y-54266D01*
X3754419Y-45349D01*
X3748397Y-37798D01*
X3747152Y-35642D01*
X3745705Y-33709D01*
X3739932Y-23136D01*
X3734946Y-14499D01*
X3734254Y-12738D01*
X3733398Y-11170D01*
X3728788Y1191D01*
X3725117Y10544D01*
X3724829Y11803D01*
X3724423Y12892D01*
X3721220Y27616D01*
X3719130Y36772D01*
X3719079Y37460D01*
X3718965Y37985D01*
X3717400Y59859D01*
X3717120Y63600D01*
X3717400Y67341D01*
X3718965Y89215D01*
X3719079Y89740D01*
X3719130Y90428D01*
X3721220Y99582D01*
X3724423Y114308D01*
X3724829Y115397D01*
X3725117Y116656D01*
X3728787Y126007D01*
X3733398Y138370D01*
X3734254Y139939D01*
X3734946Y141699D01*
X3739931Y150335D01*
X3745705Y160909D01*
X3747152Y162842D01*
X3748397Y164998D01*
X3754418Y172548D01*
X3761094Y181466D01*
X3763247Y183619D01*
X3765171Y186031D01*
X3771943Y192315D01*
X3779254Y199626D01*
X3782195Y201828D01*
X3784892Y204330D01*
X3792129Y209264D01*
X3799811Y215015D01*
X3803592Y217079D01*
X3807120Y219485D01*
X3814550Y223063D01*
X3822350Y227322D01*
X3826981Y229049D01*
X3831359Y231157D01*
X3838726Y233430D01*
X3846412Y236297D01*
X3851867Y237483D01*
X3857066Y239087D01*
X3864141Y240153D01*
X3871505Y241755D01*
X3877715Y242199D01*
X3883669Y243097D01*
X3890262Y243097D01*
X3897120Y243587D01*
X3903978Y243097D01*
G37*
G36*
X296496Y138026D02*
G01*
X298173Y138026D01*
X303916Y136611D01*
X309995Y135451D01*
X311507Y134740D01*
X312841Y134411D01*
X318346Y131522D01*
X324216Y128759D01*
X325270Y127888D01*
X326217Y127391D01*
X331100Y123064D01*
X336326Y118741D01*
X336951Y117881D01*
X337524Y117373D01*
X341407Y111748D01*
X345564Y106026D01*
X345844Y105320D01*
X346106Y104941D01*
X348642Y98253D01*
X351350Y91413D01*
X351407Y90962D01*
X351462Y90816D01*
X352374Y83304D01*
X353320Y75820D01*
X353320Y-19180D01*
X352826Y-27038D01*
X351883Y-30707D01*
X351462Y-34176D01*
X350009Y-38008D01*
X348917Y-42261D01*
X347237Y-45317D01*
X346106Y-48301D01*
X343606Y-51923D01*
X341345Y-56034D01*
X339165Y-58355D01*
X337524Y-60733D01*
X334004Y-63852D01*
X330587Y-67491D01*
X328152Y-69036D01*
X326217Y-70751D01*
X321786Y-73076D01*
X317316Y-75913D01*
X314862Y-76710D01*
X312841Y-77771D01*
X307687Y-79041D01*
X302369Y-80769D01*
X300096Y-80912D01*
X298173Y-81386D01*
X292562Y-81386D01*
X286683Y-81756D01*
X284744Y-81386D01*
X283067Y-81386D01*
X277324Y-79971D01*
X271245Y-78811D01*
X269733Y-78100D01*
X268399Y-77771D01*
X262894Y-74882D01*
X257024Y-72119D01*
X255970Y-71248D01*
X255023Y-70751D01*
X250140Y-66425D01*
X244914Y-62101D01*
X244289Y-61241D01*
X243716Y-60733D01*
X239832Y-55107D01*
X235676Y-49386D01*
X235396Y-48680D01*
X235134Y-48301D01*
X232597Y-41610D01*
X229890Y-34773D01*
X229833Y-34322D01*
X229777Y-34176D01*
X228864Y-26656D01*
X227920Y-19180D01*
X227920Y75820D01*
X228414Y83678D01*
X229356Y87347D01*
X229777Y90816D01*
X231231Y94649D01*
X232323Y98901D01*
X234002Y101956D01*
X235134Y104941D01*
X237635Y108564D01*
X239895Y112674D01*
X242074Y114995D01*
X243716Y117373D01*
X247237Y120493D01*
X250653Y124131D01*
X253087Y125675D01*
X255023Y127391D01*
X259455Y129717D01*
X263924Y132553D01*
X266377Y133350D01*
X268399Y134411D01*
X273554Y135682D01*
X278871Y137409D01*
X281144Y137552D01*
X283067Y138026D01*
X288678Y138026D01*
X294557Y138396D01*
X296496Y138026D01*
G37*
G36*
X1381496Y138026D02*
G01*
X1383173Y138026D01*
X1388916Y136611D01*
X1394995Y135451D01*
X1396507Y134740D01*
X1397841Y134411D01*
X1403346Y131522D01*
X1409216Y128759D01*
X1410270Y127888D01*
X1411217Y127391D01*
X1416100Y123064D01*
X1421326Y118741D01*
X1421951Y117881D01*
X1422524Y117373D01*
X1426407Y111748D01*
X1430564Y106026D01*
X1430844Y105320D01*
X1431105Y104941D01*
X1433642Y98253D01*
X1436350Y91413D01*
X1436407Y90962D01*
X1436462Y90816D01*
X1437374Y83304D01*
X1438320Y75820D01*
X1438320Y-19180D01*
X1437826Y-27038D01*
X1436883Y-30707D01*
X1436462Y-34176D01*
X1435009Y-38008D01*
X1433917Y-42261D01*
X1432237Y-45317D01*
X1431105Y-48301D01*
X1428605Y-51923D01*
X1426345Y-56034D01*
X1424165Y-58355D01*
X1422524Y-60733D01*
X1419004Y-63852D01*
X1415586Y-67491D01*
X1413152Y-69036D01*
X1411217Y-70751D01*
X1406786Y-73076D01*
X1402316Y-75913D01*
X1399862Y-76710D01*
X1397841Y-77771D01*
X1392687Y-79041D01*
X1387369Y-80769D01*
X1385096Y-80912D01*
X1383173Y-81386D01*
X1377562Y-81386D01*
X1371683Y-81756D01*
X1369744Y-81386D01*
X1368067Y-81386D01*
X1362324Y-79971D01*
X1356245Y-78811D01*
X1354733Y-78100D01*
X1353399Y-77771D01*
X1347894Y-74882D01*
X1342024Y-72119D01*
X1340970Y-71248D01*
X1340023Y-70751D01*
X1335140Y-66425D01*
X1329914Y-62101D01*
X1329289Y-61241D01*
X1328716Y-60733D01*
X1324832Y-55107D01*
X1320676Y-49386D01*
X1320396Y-48680D01*
X1320134Y-48301D01*
X1317597Y-41610D01*
X1314890Y-34773D01*
X1314833Y-34322D01*
X1314778Y-34176D01*
X1313864Y-26656D01*
X1312920Y-19180D01*
X1312920Y75820D01*
X1313414Y83678D01*
X1314356Y87347D01*
X1314778Y90816D01*
X1316231Y94649D01*
X1317323Y98901D01*
X1319002Y101956D01*
X1320134Y104941D01*
X1322635Y108564D01*
X1324895Y112674D01*
X1327074Y114995D01*
X1328716Y117373D01*
X1332237Y120493D01*
X1335654Y124131D01*
X1338087Y125675D01*
X1340023Y127391D01*
X1344455Y129717D01*
X1348924Y132553D01*
X1351377Y133350D01*
X1353399Y134411D01*
X1358554Y135682D01*
X1363871Y137409D01*
X1366144Y137552D01*
X1368067Y138026D01*
X1373678Y138026D01*
X1379557Y138396D01*
X1381496Y138026D01*
G37*
G36*
X2920281Y73133D02*
G01*
X2926636Y72296D01*
X2928234Y71551D01*
X2930164Y71167D01*
X2932719Y69459D01*
X2935369Y68224D01*
X2936981Y66611D01*
X2939085Y65205D01*
X2940491Y63101D01*
X2942103Y61489D01*
X2943339Y58840D01*
X2945047Y56284D01*
X2945430Y54354D01*
X2946176Y52756D01*
X2947012Y46402D01*
X2947140Y45760D01*
X2947140Y-49240D01*
X2947012Y-49882D01*
X2946176Y-56236D01*
X2945430Y-57834D01*
X2945047Y-59764D01*
X2943339Y-62320D01*
X2942103Y-64969D01*
X2940492Y-66581D01*
X2939085Y-68685D01*
X2936981Y-70092D01*
X2935369Y-71704D01*
X2932720Y-72939D01*
X2930164Y-74647D01*
X2928234Y-75031D01*
X2926636Y-75776D01*
X2920282Y-76612D01*
X2919640Y-76740D01*
X2874640Y-76740D01*
X2873998Y-76612D01*
X2867644Y-75776D01*
X2866046Y-75031D01*
X2864116Y-74647D01*
X2861560Y-72939D01*
X2858911Y-71704D01*
X2857299Y-70091D01*
X2855195Y-68685D01*
X2853789Y-66581D01*
X2852176Y-64969D01*
X2850941Y-62319D01*
X2849233Y-59764D01*
X2848849Y-57834D01*
X2848104Y-56236D01*
X2847267Y-49881D01*
X2847140Y-49240D01*
X2847140Y45760D01*
X2847267Y46401D01*
X2848104Y52756D01*
X2848849Y54355D01*
X2849233Y56284D01*
X2850941Y58839D01*
X2852176Y61489D01*
X2853789Y63102D01*
X2855195Y65205D01*
X2857298Y66611D01*
X2858911Y68224D01*
X2861561Y69459D01*
X2864116Y71167D01*
X2866045Y71551D01*
X2867644Y72296D01*
X2873999Y73133D01*
X2874640Y73260D01*
X2919640Y73260D01*
X2920281Y73133D01*
G37*
G36*
X2773783Y72751D02*
G01*
X2779256Y72751D01*
X2780918Y72263D01*
X2782303Y72168D01*
X2787354Y70373D01*
X2792911Y68742D01*
X2794106Y67974D01*
X2795122Y67613D01*
X2799737Y64354D01*
X2804883Y61047D01*
X2805609Y60210D01*
X2806235Y59767D01*
X2809975Y55171D01*
X2814203Y50292D01*
X2814533Y49568D01*
X2814821Y49215D01*
X2817275Y43564D01*
X2820115Y37347D01*
X2820183Y36869D01*
X2820241Y36737D01*
X2821074Y30671D01*
X2822140Y23260D01*
X2822140Y-26740D01*
X2822118Y-26894D01*
X2821674Y-33375D01*
X2820671Y-36956D01*
X2820115Y-40827D01*
X2818748Y-43819D01*
X2817957Y-46641D01*
X2815957Y-49931D01*
X2814203Y-53772D01*
X2812252Y-56023D01*
X2810889Y-58265D01*
X2807852Y-61101D01*
X2804883Y-64527D01*
X2802639Y-65970D01*
X2800947Y-67550D01*
X2796988Y-69602D01*
X2792911Y-72222D01*
X2790650Y-72885D01*
X2788868Y-73809D01*
X2784207Y-74777D01*
X2779256Y-76231D01*
X2777211Y-76231D01*
X2775549Y-76577D01*
X2770499Y-76231D01*
X2765024Y-76231D01*
X2763362Y-75743D01*
X2761977Y-75648D01*
X2756927Y-73854D01*
X2751369Y-72222D01*
X2750174Y-71453D01*
X2749158Y-71093D01*
X2744543Y-67835D01*
X2739397Y-64527D01*
X2738671Y-63690D01*
X2738044Y-63247D01*
X2734304Y-58650D01*
X2730077Y-53772D01*
X2729747Y-53048D01*
X2729459Y-52695D01*
X2727003Y-47041D01*
X2724165Y-40827D01*
X2724097Y-40349D01*
X2724039Y-40217D01*
X2723205Y-34145D01*
X2722140Y-26740D01*
X2722140Y23260D01*
X2722162Y23414D01*
X2722605Y29895D01*
X2723609Y33477D01*
X2724165Y37347D01*
X2725531Y40338D01*
X2726323Y43161D01*
X2728324Y46452D01*
X2730077Y50292D01*
X2732027Y52542D01*
X2733391Y54785D01*
X2736429Y57622D01*
X2739397Y61047D01*
X2741640Y62489D01*
X2743333Y64070D01*
X2747294Y66122D01*
X2751369Y68742D01*
X2753629Y69405D01*
X2755412Y70329D01*
X2760075Y71298D01*
X2765024Y72751D01*
X2767069Y72751D01*
X2768731Y73097D01*
X2773783Y72751D01*
G37*
G36*
X4375446Y553622D02*
G01*
X4395269Y545943D01*
X4413344Y534752D01*
X4429054Y520430D01*
X4441865Y503465D01*
X4451341Y484435D01*
X4457159Y463988D01*
X4459120Y442820D01*
X4459120Y232820D01*
X4457159Y211652D01*
X4451341Y191205D01*
X4441865Y172175D01*
X4429054Y155210D01*
X4413344Y140888D01*
X4395269Y129697D01*
X4375446Y122018D01*
X4354549Y118111D01*
X4333291Y118111D01*
X4312394Y122018D01*
X4292571Y129697D01*
X4274497Y140888D01*
X4258786Y155210D01*
X4245975Y172175D01*
X4236499Y191205D01*
X4230682Y211652D01*
X4228720Y232820D01*
X4228720Y442820D01*
X4230682Y463988D01*
X4236499Y484435D01*
X4245975Y503465D01*
X4258786Y520430D01*
X4274497Y534752D01*
X4292571Y545943D01*
X4312394Y553622D01*
X4333291Y557529D01*
X4354549Y557529D01*
X4375446Y553622D01*
G37*
G36*
X-1690367Y743219D02*
G01*
X-1688744Y742135D01*
X-1687661Y740513D01*
X-1687280Y738600D01*
X-1687280Y388600D01*
X-1687661Y386687D01*
X-1688744Y385064D01*
X-1690367Y383981D01*
X-1692280Y383600D01*
X-2042280Y383600D01*
X-2044193Y383981D01*
X-2045815Y385064D01*
X-2046899Y386687D01*
X-2047280Y388600D01*
X-2047280Y738600D01*
X-2046899Y740513D01*
X-2045815Y742135D01*
X-2044193Y743219D01*
X-2042280Y743600D01*
X-1692280Y743600D01*
X-1690367Y743219D01*
G37*
G36*
X4074033Y743219D02*
G01*
X4075655Y742135D01*
X4076739Y740513D01*
X4077120Y738600D01*
X4077120Y388600D01*
X4076739Y386687D01*
X4075655Y385064D01*
X4074033Y383981D01*
X4072120Y383600D01*
X3722120Y383600D01*
X3720207Y383981D01*
X3718584Y385064D01*
X3717501Y386687D01*
X3717120Y388600D01*
X3717120Y738600D01*
X3717501Y740513D01*
X3718584Y742135D01*
X3720207Y743219D01*
X3722120Y743600D01*
X4072120Y743600D01*
X4074033Y743219D01*
G37*
G36*
X309208Y531828D02*
G01*
X313256Y531828D01*
X316665Y530988D01*
X320133Y530597D01*
X324619Y529027D01*
X329056Y527934D01*
X331679Y526557D01*
X334394Y525607D01*
X338981Y522725D01*
X343464Y520371D01*
X345266Y518775D01*
X347185Y517569D01*
X351518Y513236D01*
X355644Y509581D01*
X356693Y508061D01*
X357869Y506885D01*
X361566Y501002D01*
X364888Y496189D01*
X365342Y494993D01*
X365907Y494094D01*
X368578Y486460D01*
X370659Y480974D01*
X370744Y480269D01*
X370897Y479833D01*
X372180Y468444D01*
X372620Y464820D01*
X372180Y461196D01*
X370897Y449807D01*
X370744Y449371D01*
X370659Y448666D01*
X368577Y443179D01*
X365907Y435546D01*
X365342Y434647D01*
X364888Y433451D01*
X361565Y428637D01*
X357869Y422755D01*
X356694Y421579D01*
X355644Y420059D01*
X351517Y416403D01*
X347185Y412071D01*
X345267Y410865D01*
X343464Y409269D01*
X338980Y406915D01*
X334394Y404033D01*
X331680Y403084D01*
X329056Y401706D01*
X324618Y400613D01*
X320133Y399043D01*
X316666Y398653D01*
X313256Y397812D01*
X309207Y397812D01*
X305120Y397352D01*
X301033Y397812D01*
X296984Y397812D01*
X293574Y398653D01*
X290107Y399043D01*
X285621Y400613D01*
X281184Y401706D01*
X278561Y403083D01*
X275846Y404033D01*
X271260Y406915D01*
X266776Y409269D01*
X264974Y410865D01*
X263055Y412071D01*
X258721Y416404D01*
X254595Y420059D01*
X253546Y421579D01*
X252371Y422755D01*
X248673Y428639D01*
X245352Y433451D01*
X244898Y434647D01*
X244333Y435546D01*
X241661Y443182D01*
X239581Y448666D01*
X239496Y449370D01*
X239343Y449807D01*
X238059Y461207D01*
X237620Y464820D01*
X238059Y468433D01*
X239343Y479833D01*
X239496Y480270D01*
X239581Y480974D01*
X241661Y486456D01*
X244333Y494094D01*
X244898Y494993D01*
X245352Y496189D01*
X248673Y501000D01*
X252371Y506885D01*
X253547Y508062D01*
X254595Y509581D01*
X258721Y513235D01*
X263055Y517569D01*
X264974Y518775D01*
X266776Y520371D01*
X271259Y522724D01*
X275846Y525607D01*
X278561Y526557D01*
X281184Y527934D01*
X285620Y529027D01*
X290107Y530597D01*
X293575Y530988D01*
X296984Y531828D01*
X301032Y531828D01*
X305120Y532288D01*
X309208Y531828D01*
G37*
G36*
X1365208Y531828D02*
G01*
X1369256Y531828D01*
X1372665Y530988D01*
X1376133Y530597D01*
X1380619Y529027D01*
X1385056Y527934D01*
X1387679Y526557D01*
X1390394Y525607D01*
X1394981Y522725D01*
X1399464Y520371D01*
X1401266Y518775D01*
X1403185Y517569D01*
X1407518Y513236D01*
X1411644Y509581D01*
X1412693Y508061D01*
X1413869Y506885D01*
X1417566Y501002D01*
X1420888Y496189D01*
X1421342Y494993D01*
X1421907Y494094D01*
X1424578Y486460D01*
X1426659Y480974D01*
X1426744Y480269D01*
X1426897Y479833D01*
X1428180Y468444D01*
X1428620Y464820D01*
X1428180Y461196D01*
X1426897Y449807D01*
X1426744Y449371D01*
X1426659Y448666D01*
X1424577Y443179D01*
X1421907Y435546D01*
X1421342Y434647D01*
X1420888Y433451D01*
X1417565Y428637D01*
X1413869Y422755D01*
X1412694Y421579D01*
X1411644Y420059D01*
X1407517Y416403D01*
X1403185Y412071D01*
X1401267Y410865D01*
X1399464Y409269D01*
X1394980Y406915D01*
X1390394Y404033D01*
X1387680Y403084D01*
X1385056Y401706D01*
X1380618Y400613D01*
X1376133Y399043D01*
X1372666Y398653D01*
X1369256Y397812D01*
X1365207Y397812D01*
X1361120Y397352D01*
X1357033Y397812D01*
X1352984Y397812D01*
X1349574Y398653D01*
X1346107Y399043D01*
X1341621Y400613D01*
X1337184Y401706D01*
X1334561Y403083D01*
X1331846Y404033D01*
X1327260Y406915D01*
X1322776Y409269D01*
X1320974Y410865D01*
X1319055Y412071D01*
X1314722Y416404D01*
X1310596Y420059D01*
X1309547Y421579D01*
X1308371Y422755D01*
X1304674Y428639D01*
X1301352Y433451D01*
X1300898Y434647D01*
X1300333Y435546D01*
X1297661Y443182D01*
X1295581Y448666D01*
X1295496Y449370D01*
X1295343Y449807D01*
X1294059Y461207D01*
X1293620Y464820D01*
X1294059Y468433D01*
X1295343Y479833D01*
X1295496Y480270D01*
X1295581Y480974D01*
X1297661Y486456D01*
X1300333Y494094D01*
X1300898Y494993D01*
X1301352Y496189D01*
X1304673Y501000D01*
X1308371Y506885D01*
X1309547Y508062D01*
X1310596Y509581D01*
X1314721Y513235D01*
X1319055Y517569D01*
X1320974Y518775D01*
X1322776Y520371D01*
X1327259Y522724D01*
X1331846Y525607D01*
X1334561Y526557D01*
X1337184Y527934D01*
X1341620Y529027D01*
X1346107Y530597D01*
X1349575Y530988D01*
X1352984Y531828D01*
X1357032Y531828D01*
X1361120Y532288D01*
X1365208Y531828D01*
G37*
G36*
X5054395Y727521D02*
G01*
X5059322Y726571D01*
X5064166Y726123D01*
X5069446Y724620D01*
X5074967Y723556D01*
X5079343Y721804D01*
X5083721Y720559D01*
X5088915Y717972D01*
X5094417Y715770D01*
X5098127Y713385D01*
X5101922Y711496D01*
X5106803Y707810D01*
X5112041Y704443D01*
X5115012Y701610D01*
X5118147Y699243D01*
X5122480Y694489D01*
X5127204Y689986D01*
X5129408Y686890D01*
X5131844Y684217D01*
X5135397Y678479D01*
X5139356Y672920D01*
X5140808Y669741D01*
X5142548Y666931D01*
X5145100Y660342D01*
X5148059Y653863D01*
X5148811Y650763D01*
X5149893Y647972D01*
X5151250Y640709D01*
X5152998Y633503D01*
X5153135Y630624D01*
X5153629Y627986D01*
X5153629Y620272D01*
X5153995Y612577D01*
X5153629Y610027D01*
X5153629Y607654D01*
X5152151Y599750D01*
X5151014Y591839D01*
X5150271Y589695D01*
X5149893Y587668D01*
X5146867Y579859D01*
X5144161Y572041D01*
X5143180Y570342D01*
X5142548Y568709D01*
X5137958Y561296D01*
X5133686Y553898D01*
X5132602Y552647D01*
X5131844Y551423D01*
X5125727Y544712D01*
X5119967Y538065D01*
X5118907Y537232D01*
X5118147Y536397D01*
X5110586Y530688D01*
X5103499Y525114D01*
X5102574Y524638D01*
X5101922Y524144D01*
X5093028Y519716D01*
X5084877Y515514D01*
X5084175Y515308D01*
X5083721Y515081D01*
X5073517Y512178D01*
X5064776Y509611D01*
X5064355Y509571D01*
X5064166Y509517D01*
X5051510Y508345D01*
X5043920Y507620D01*
X5043689Y507620D01*
X4844151Y507620D01*
X4843920Y507620D01*
X4833445Y508119D01*
X4828517Y509069D01*
X4823674Y509517D01*
X4818395Y511020D01*
X4812873Y512084D01*
X4808497Y513836D01*
X4804119Y515081D01*
X4798925Y517668D01*
X4793423Y519870D01*
X4789713Y522255D01*
X4785918Y524144D01*
X4781038Y527830D01*
X4775799Y531197D01*
X4772828Y534030D01*
X4769693Y536397D01*
X4765360Y541151D01*
X4760636Y545654D01*
X4758432Y548750D01*
X4755996Y551423D01*
X4752442Y557161D01*
X4748484Y562720D01*
X4747032Y565899D01*
X4745292Y568709D01*
X4742739Y575300D01*
X4739781Y581777D01*
X4739029Y584877D01*
X4737947Y587668D01*
X4736590Y594932D01*
X4734842Y602137D01*
X4734705Y605016D01*
X4734211Y607654D01*
X4734211Y615368D01*
X4733845Y623064D01*
X4734211Y625613D01*
X4734211Y627986D01*
X4735689Y635892D01*
X4736826Y643801D01*
X4737568Y645945D01*
X4737947Y647972D01*
X4740974Y655784D01*
X4743679Y663599D01*
X4744660Y665298D01*
X4745292Y666931D01*
X4749885Y674348D01*
X4754154Y681742D01*
X4755237Y682993D01*
X4755996Y684217D01*
X4762117Y690932D01*
X4767873Y697576D01*
X4768932Y698408D01*
X4769693Y699243D01*
X4777260Y704957D01*
X4784341Y710526D01*
X4785265Y711002D01*
X4785918Y711496D01*
X4794821Y715929D01*
X4802963Y720126D01*
X4803664Y720332D01*
X4804119Y720559D01*
X4814338Y723466D01*
X4823065Y726028D01*
X4823485Y726069D01*
X4823674Y726123D01*
X4836344Y727297D01*
X4843920Y728020D01*
X5043920Y728020D01*
X5054395Y727521D01*
G37*
G36*
X4684395Y977521D02*
G01*
X4689322Y976571D01*
X4694166Y976123D01*
X4699446Y974620D01*
X4704967Y973556D01*
X4709343Y971804D01*
X4713721Y970559D01*
X4718915Y967972D01*
X4724417Y965770D01*
X4728127Y963385D01*
X4731922Y961496D01*
X4736803Y957810D01*
X4742041Y954443D01*
X4745012Y951610D01*
X4748147Y949243D01*
X4752480Y944489D01*
X4757204Y939986D01*
X4759408Y936890D01*
X4761844Y934217D01*
X4765397Y928479D01*
X4769356Y922920D01*
X4770808Y919741D01*
X4772548Y916931D01*
X4775100Y910342D01*
X4778059Y903863D01*
X4778811Y900763D01*
X4779893Y897972D01*
X4781250Y890709D01*
X4782998Y883503D01*
X4783135Y880624D01*
X4783629Y877986D01*
X4783629Y870272D01*
X4783995Y862576D01*
X4783629Y860027D01*
X4783629Y857654D01*
X4782151Y849750D01*
X4781014Y841839D01*
X4780271Y839695D01*
X4779893Y837668D01*
X4776867Y829859D01*
X4774161Y822041D01*
X4773180Y820342D01*
X4772548Y818709D01*
X4767958Y811296D01*
X4763686Y803898D01*
X4762602Y802647D01*
X4761844Y801423D01*
X4755727Y794712D01*
X4749967Y788064D01*
X4748907Y787231D01*
X4748147Y786397D01*
X4740586Y780688D01*
X4733499Y775114D01*
X4732574Y774637D01*
X4731922Y774144D01*
X4723028Y769716D01*
X4714877Y765514D01*
X4714175Y765308D01*
X4713721Y765081D01*
X4703517Y762178D01*
X4694776Y759611D01*
X4694355Y759571D01*
X4694166Y759517D01*
X4681510Y758345D01*
X4673920Y757620D01*
X4673689Y757620D01*
X4474151Y757620D01*
X4473920Y757620D01*
X4463445Y758119D01*
X4458517Y759069D01*
X4453674Y759517D01*
X4448395Y761020D01*
X4442873Y762084D01*
X4438497Y763836D01*
X4434119Y765081D01*
X4428925Y767668D01*
X4423423Y769870D01*
X4419713Y772255D01*
X4415918Y774144D01*
X4411038Y777830D01*
X4405799Y781197D01*
X4402828Y784030D01*
X4399693Y786397D01*
X4395360Y791151D01*
X4390636Y795654D01*
X4388432Y798750D01*
X4385996Y801423D01*
X4382442Y807161D01*
X4378484Y812720D01*
X4377032Y815899D01*
X4375292Y818709D01*
X4372739Y825299D01*
X4369781Y831777D01*
X4369029Y834876D01*
X4367947Y837668D01*
X4366590Y844932D01*
X4364842Y852137D01*
X4364705Y855016D01*
X4364211Y857654D01*
X4364211Y865368D01*
X4363845Y873063D01*
X4364211Y875613D01*
X4364211Y877986D01*
X4365689Y885892D01*
X4366826Y893801D01*
X4367568Y895945D01*
X4367947Y897972D01*
X4370974Y905784D01*
X4373679Y913599D01*
X4374660Y915298D01*
X4375292Y916931D01*
X4379885Y924348D01*
X4384154Y931742D01*
X4385237Y932993D01*
X4385996Y934217D01*
X4392117Y940932D01*
X4397873Y947575D01*
X4398932Y948408D01*
X4399693Y949243D01*
X4407260Y954957D01*
X4414341Y960526D01*
X4415265Y961002D01*
X4415918Y961496D01*
X4424821Y965929D01*
X4432963Y970126D01*
X4433664Y970332D01*
X4434119Y970559D01*
X4444338Y973466D01*
X4453065Y976028D01*
X4453485Y976069D01*
X4453674Y976123D01*
X4466344Y977297D01*
X4473920Y978020D01*
X4673920Y978020D01*
X4684395Y977521D01*
G37*
G36*
X-2350591Y936720D02*
G01*
X-2334739Y931173D01*
X-2320518Y922237D01*
X-2308643Y910362D01*
X-2299707Y896141D01*
X-2294160Y880289D01*
X-2292280Y863600D01*
X-2294160Y846911D01*
X-2299707Y831059D01*
X-2308643Y816838D01*
X-2320518Y804963D01*
X-2334739Y796027D01*
X-2350591Y790480D01*
X-2367280Y788600D01*
X-2383969Y790480D01*
X-2399821Y796027D01*
X-2414042Y804963D01*
X-2425917Y816838D01*
X-2434853Y831059D01*
X-2440400Y846911D01*
X-2442280Y863600D01*
X-2440400Y880289D01*
X-2434853Y896141D01*
X-2425917Y910362D01*
X-2414042Y922237D01*
X-2399821Y931173D01*
X-2383969Y936720D01*
X-2367280Y938600D01*
X-2350591Y936720D01*
G37*
G36*
X4913809Y936720D02*
G01*
X4929661Y931173D01*
X4943882Y922237D01*
X4955757Y910362D01*
X4964693Y896141D01*
X4970240Y880289D01*
X4972120Y863600D01*
X4970240Y846911D01*
X4964693Y831059D01*
X4955757Y816838D01*
X4943882Y804963D01*
X4929661Y796027D01*
X4913809Y790480D01*
X4897120Y788600D01*
X4880431Y790480D01*
X4864579Y796027D01*
X4850358Y804963D01*
X4838483Y816838D01*
X4829547Y831059D01*
X4824000Y846911D01*
X4822120Y863600D01*
X4824000Y880289D01*
X4829547Y896141D01*
X4838483Y910362D01*
X4850358Y922237D01*
X4864579Y931173D01*
X4880431Y936720D01*
X4897120Y938600D01*
X4913809Y936720D01*
G37*
G36*
X296496Y1030026D02*
G01*
X298173Y1030026D01*
X303916Y1028611D01*
X309995Y1027451D01*
X311507Y1026740D01*
X312841Y1026411D01*
X318346Y1023522D01*
X324216Y1020759D01*
X325270Y1019888D01*
X326217Y1019391D01*
X331100Y1015064D01*
X336326Y1010741D01*
X336951Y1009881D01*
X337524Y1009373D01*
X341407Y1003748D01*
X345564Y998026D01*
X345844Y997320D01*
X346106Y996941D01*
X348642Y990253D01*
X351350Y983413D01*
X351407Y982962D01*
X351462Y982816D01*
X352374Y975304D01*
X353320Y967820D01*
X353320Y872820D01*
X352826Y864962D01*
X351883Y861293D01*
X351462Y857824D01*
X350009Y853992D01*
X348917Y849739D01*
X347237Y846683D01*
X346106Y843699D01*
X343606Y840077D01*
X341345Y835966D01*
X339165Y833644D01*
X337524Y831267D01*
X334004Y828148D01*
X330587Y824509D01*
X328152Y822964D01*
X326217Y821249D01*
X321786Y818924D01*
X317316Y816087D01*
X314862Y815290D01*
X312841Y814229D01*
X307687Y812959D01*
X302369Y811231D01*
X300096Y811088D01*
X298173Y810614D01*
X292562Y810614D01*
X286683Y810244D01*
X284744Y810614D01*
X283067Y810614D01*
X277324Y812029D01*
X271245Y813189D01*
X269733Y813900D01*
X268399Y814229D01*
X262894Y817118D01*
X257024Y819881D01*
X255970Y820752D01*
X255023Y821249D01*
X250140Y825575D01*
X244914Y829899D01*
X244289Y830759D01*
X243716Y831267D01*
X239832Y836893D01*
X235676Y842614D01*
X235396Y843320D01*
X235134Y843699D01*
X232597Y850390D01*
X229890Y857227D01*
X229833Y857678D01*
X229777Y857824D01*
X228864Y865344D01*
X227920Y872820D01*
X227920Y967820D01*
X228414Y975678D01*
X229356Y979347D01*
X229777Y982816D01*
X231231Y986649D01*
X232323Y990901D01*
X234002Y993956D01*
X235134Y996941D01*
X237635Y1000564D01*
X239895Y1004674D01*
X242074Y1006995D01*
X243716Y1009373D01*
X247237Y1012493D01*
X250653Y1016131D01*
X253087Y1017675D01*
X255023Y1019391D01*
X259455Y1021717D01*
X263924Y1024553D01*
X266377Y1025350D01*
X268399Y1026411D01*
X273554Y1027682D01*
X278871Y1029409D01*
X281144Y1029552D01*
X283067Y1030026D01*
X288678Y1030026D01*
X294557Y1030396D01*
X296496Y1030026D01*
G37*
G36*
X1381496Y1030026D02*
G01*
X1383173Y1030026D01*
X1388916Y1028611D01*
X1394995Y1027451D01*
X1396507Y1026740D01*
X1397841Y1026411D01*
X1403346Y1023522D01*
X1409216Y1020759D01*
X1410270Y1019888D01*
X1411217Y1019391D01*
X1416100Y1015064D01*
X1421326Y1010741D01*
X1421951Y1009881D01*
X1422524Y1009373D01*
X1426407Y1003748D01*
X1430564Y998026D01*
X1430844Y997320D01*
X1431105Y996941D01*
X1433642Y990253D01*
X1436350Y983413D01*
X1436407Y982962D01*
X1436462Y982816D01*
X1437374Y975304D01*
X1438320Y967820D01*
X1438320Y872820D01*
X1437826Y864962D01*
X1436883Y861293D01*
X1436462Y857824D01*
X1435009Y853992D01*
X1433917Y849739D01*
X1432237Y846683D01*
X1431105Y843699D01*
X1428605Y840077D01*
X1426345Y835966D01*
X1424165Y833644D01*
X1422524Y831267D01*
X1419004Y828148D01*
X1415586Y824509D01*
X1413152Y822964D01*
X1411217Y821249D01*
X1406786Y818924D01*
X1402316Y816087D01*
X1399862Y815290D01*
X1397841Y814229D01*
X1392687Y812959D01*
X1387369Y811231D01*
X1385096Y811088D01*
X1383173Y810614D01*
X1377562Y810614D01*
X1371683Y810244D01*
X1369744Y810614D01*
X1368067Y810614D01*
X1362324Y812029D01*
X1356245Y813189D01*
X1354733Y813900D01*
X1353399Y814229D01*
X1347894Y817118D01*
X1342024Y819881D01*
X1340970Y820752D01*
X1340023Y821249D01*
X1335140Y825575D01*
X1329914Y829899D01*
X1329289Y830759D01*
X1328716Y831267D01*
X1324832Y836893D01*
X1320676Y842614D01*
X1320396Y843320D01*
X1320134Y843699D01*
X1317597Y850390D01*
X1314890Y857227D01*
X1314833Y857678D01*
X1314778Y857824D01*
X1313864Y865344D01*
X1312920Y872820D01*
X1312920Y967820D01*
X1313414Y975678D01*
X1314356Y979347D01*
X1314778Y982816D01*
X1316231Y986649D01*
X1317323Y990901D01*
X1319002Y993956D01*
X1320134Y996941D01*
X1322635Y1000564D01*
X1324895Y1004674D01*
X1327074Y1006995D01*
X1328716Y1009373D01*
X1332237Y1012493D01*
X1335654Y1016131D01*
X1338087Y1017675D01*
X1340023Y1019391D01*
X1344455Y1021717D01*
X1348924Y1024553D01*
X1351377Y1025350D01*
X1353399Y1026411D01*
X1358554Y1027682D01*
X1363871Y1029409D01*
X1366144Y1029552D01*
X1368067Y1030026D01*
X1373678Y1030026D01*
X1379557Y1030396D01*
X1381496Y1030026D01*
G37*
G36*
X-1898172Y1175957D02*
G01*
X-1891765Y1171675D01*
X-1887483Y1165268D01*
X-1885980Y1157710D01*
X-1885980Y1123210D01*
X-1887483Y1115652D01*
X-1891765Y1109245D01*
X-1898172Y1104963D01*
X-1905730Y1103460D01*
X-1935230Y1103460D01*
X-1942788Y1104963D01*
X-1949195Y1109245D01*
X-1953477Y1115652D01*
X-1954980Y1123210D01*
X-1954980Y1157710D01*
X-1953477Y1165268D01*
X-1949195Y1171675D01*
X-1942788Y1175957D01*
X-1935230Y1177460D01*
X-1905730Y1177460D01*
X-1898172Y1175957D01*
G37*
G36*
X-1801172Y1175957D02*
G01*
X-1794765Y1171675D01*
X-1790483Y1165268D01*
X-1788980Y1157710D01*
X-1788980Y1123210D01*
X-1790483Y1115652D01*
X-1794765Y1109245D01*
X-1801172Y1104963D01*
X-1808730Y1103460D01*
X-1838230Y1103460D01*
X-1845788Y1104963D01*
X-1852195Y1109245D01*
X-1856477Y1115652D01*
X-1857980Y1123210D01*
X-1857980Y1157710D01*
X-1856477Y1165268D01*
X-1852195Y1171675D01*
X-1845788Y1175957D01*
X-1838230Y1177460D01*
X-1808730Y1177460D01*
X-1801172Y1175957D01*
G37*
G36*
X-1153952Y1178497D02*
G01*
X-1147545Y1174215D01*
X-1143263Y1167808D01*
X-1141760Y1160250D01*
X-1141760Y1125750D01*
X-1143263Y1118192D01*
X-1147545Y1111785D01*
X-1153952Y1107503D01*
X-1161510Y1106000D01*
X-1191010Y1106000D01*
X-1198568Y1107503D01*
X-1204975Y1111785D01*
X-1209257Y1118192D01*
X-1210760Y1125750D01*
X-1210760Y1160250D01*
X-1209257Y1167808D01*
X-1204975Y1174215D01*
X-1198568Y1178497D01*
X-1191010Y1180000D01*
X-1161510Y1180000D01*
X-1153952Y1178497D01*
G37*
G36*
X-1056952Y1178497D02*
G01*
X-1050545Y1174215D01*
X-1046263Y1167808D01*
X-1044760Y1160250D01*
X-1044760Y1125750D01*
X-1046263Y1118192D01*
X-1050545Y1111785D01*
X-1056952Y1107503D01*
X-1064510Y1106000D01*
X-1094010Y1106000D01*
X-1101568Y1107503D01*
X-1107975Y1111785D01*
X-1112257Y1118192D01*
X-1113760Y1125750D01*
X-1113760Y1160250D01*
X-1112257Y1167808D01*
X-1107975Y1174215D01*
X-1101568Y1178497D01*
X-1094010Y1180000D01*
X-1064510Y1180000D01*
X-1056952Y1178497D01*
G37*
G36*
X161768Y1178497D02*
G01*
X168175Y1174215D01*
X172457Y1167808D01*
X173960Y1160250D01*
X173960Y1125750D01*
X172457Y1118192D01*
X168175Y1111785D01*
X161768Y1107503D01*
X154210Y1106000D01*
X124710Y1106000D01*
X117152Y1107503D01*
X110745Y1111785D01*
X106463Y1118192D01*
X104960Y1125750D01*
X104960Y1160250D01*
X106463Y1167808D01*
X110745Y1174215D01*
X117152Y1178497D01*
X124710Y1180000D01*
X154210Y1180000D01*
X161768Y1178497D01*
G37*
G36*
X258768Y1178497D02*
G01*
X265175Y1174215D01*
X269457Y1167808D01*
X270960Y1160250D01*
X270960Y1125750D01*
X269457Y1118192D01*
X265175Y1111785D01*
X258768Y1107503D01*
X251210Y1106000D01*
X221710Y1106000D01*
X214152Y1107503D01*
X207745Y1111785D01*
X203463Y1118192D01*
X201960Y1125750D01*
X201960Y1160250D01*
X203463Y1167808D01*
X207745Y1174215D01*
X214152Y1178497D01*
X221710Y1180000D01*
X251210Y1180000D01*
X258768Y1178497D01*
G37*
G36*
X674848Y1178497D02*
G01*
X681255Y1174215D01*
X685537Y1167808D01*
X687040Y1160250D01*
X687040Y1125750D01*
X685537Y1118192D01*
X681255Y1111785D01*
X674848Y1107503D01*
X667290Y1106000D01*
X637790Y1106000D01*
X630232Y1107503D01*
X623825Y1111785D01*
X619543Y1118192D01*
X618040Y1125750D01*
X618040Y1160250D01*
X619543Y1167808D01*
X623825Y1174215D01*
X630232Y1178497D01*
X637790Y1180000D01*
X667290Y1180000D01*
X674848Y1178497D01*
G37*
G36*
X771848Y1178497D02*
G01*
X778255Y1174215D01*
X782537Y1167808D01*
X784040Y1160250D01*
X784040Y1125750D01*
X782537Y1118192D01*
X778255Y1111785D01*
X771848Y1107503D01*
X764290Y1106000D01*
X734790Y1106000D01*
X727232Y1107503D01*
X720825Y1111785D01*
X716543Y1118192D01*
X715040Y1125750D01*
X715040Y1160250D01*
X716543Y1167808D01*
X720825Y1174215D01*
X727232Y1178497D01*
X734790Y1180000D01*
X764290Y1180000D01*
X771848Y1178497D01*
G37*
G36*
X2130268Y1181037D02*
G01*
X2136675Y1176755D01*
X2140957Y1170348D01*
X2142460Y1162790D01*
X2142460Y1128290D01*
X2140957Y1120732D01*
X2136675Y1114325D01*
X2130268Y1110043D01*
X2122710Y1108540D01*
X2093210Y1108540D01*
X2085652Y1110043D01*
X2079245Y1114325D01*
X2074963Y1120732D01*
X2073460Y1128290D01*
X2073460Y1162790D01*
X2074963Y1170348D01*
X2079245Y1176755D01*
X2085652Y1181037D01*
X2093210Y1182540D01*
X2122710Y1182540D01*
X2130268Y1181037D01*
G37*
G36*
X2227268Y1181037D02*
G01*
X2233675Y1176755D01*
X2237957Y1170348D01*
X2239460Y1162790D01*
X2239460Y1128290D01*
X2237957Y1120732D01*
X2233675Y1114325D01*
X2227268Y1110043D01*
X2219710Y1108540D01*
X2190210Y1108540D01*
X2182652Y1110043D01*
X2176245Y1114325D01*
X2171963Y1120732D01*
X2170460Y1128290D01*
X2170460Y1162790D01*
X2171963Y1170348D01*
X2176245Y1176755D01*
X2182652Y1181037D01*
X2190210Y1182540D01*
X2219710Y1182540D01*
X2227268Y1181037D01*
G37*
G36*
X2645888Y1181037D02*
G01*
X2652295Y1176755D01*
X2656577Y1170348D01*
X2658080Y1162790D01*
X2658080Y1128290D01*
X2656577Y1120732D01*
X2652295Y1114325D01*
X2645888Y1110043D01*
X2638330Y1108540D01*
X2608830Y1108540D01*
X2601272Y1110043D01*
X2594865Y1114325D01*
X2590583Y1120732D01*
X2589080Y1128290D01*
X2589080Y1162790D01*
X2590583Y1170348D01*
X2594865Y1176755D01*
X2601272Y1181037D01*
X2608830Y1182540D01*
X2638330Y1182540D01*
X2645888Y1181037D01*
G37*
G36*
X2742888Y1181037D02*
G01*
X2749295Y1176755D01*
X2753577Y1170348D01*
X2755080Y1162790D01*
X2755080Y1128290D01*
X2753577Y1120732D01*
X2749295Y1114325D01*
X2742888Y1110043D01*
X2735330Y1108540D01*
X2705830Y1108540D01*
X2698272Y1110043D01*
X2691865Y1114325D01*
X2687583Y1120732D01*
X2686080Y1128290D01*
X2686080Y1162790D01*
X2687583Y1170348D01*
X2691865Y1176755D01*
X2698272Y1181037D01*
X2705830Y1182540D01*
X2735330Y1182540D01*
X2742888Y1181037D01*
G37*
G36*
X4117728Y1181037D02*
G01*
X4124135Y1176755D01*
X4128417Y1170348D01*
X4129920Y1162790D01*
X4129920Y1128290D01*
X4128417Y1120732D01*
X4124135Y1114325D01*
X4117728Y1110043D01*
X4110170Y1108540D01*
X4080670Y1108540D01*
X4073112Y1110043D01*
X4066705Y1114325D01*
X4062423Y1120732D01*
X4060920Y1128290D01*
X4060920Y1162790D01*
X4062423Y1170348D01*
X4066705Y1176755D01*
X4073112Y1181037D01*
X4080670Y1182540D01*
X4110170Y1182540D01*
X4117728Y1181037D01*
G37*
G36*
X4214728Y1181037D02*
G01*
X4221135Y1176755D01*
X4225417Y1170348D01*
X4226920Y1162790D01*
X4226920Y1128290D01*
X4225417Y1120732D01*
X4221135Y1114325D01*
X4214728Y1110043D01*
X4207170Y1108540D01*
X4177670Y1108540D01*
X4170112Y1110043D01*
X4163705Y1114325D01*
X4159423Y1120732D01*
X4157920Y1128290D01*
X4157920Y1162790D01*
X4159423Y1170348D01*
X4163705Y1176755D01*
X4170112Y1181037D01*
X4177670Y1182540D01*
X4207170Y1182540D01*
X4214728Y1181037D01*
G37*
G36*
X4616928Y1181037D02*
G01*
X4623335Y1176755D01*
X4627617Y1170348D01*
X4629120Y1162790D01*
X4629120Y1128290D01*
X4627617Y1120732D01*
X4623335Y1114325D01*
X4616928Y1110043D01*
X4609370Y1108540D01*
X4579870Y1108540D01*
X4572312Y1110043D01*
X4565905Y1114325D01*
X4561623Y1120732D01*
X4560120Y1128290D01*
X4560120Y1162790D01*
X4561623Y1170348D01*
X4565905Y1176755D01*
X4572312Y1181037D01*
X4579870Y1182540D01*
X4609370Y1182540D01*
X4616928Y1181037D01*
G37*
G36*
X4713928Y1181037D02*
G01*
X4720335Y1176755D01*
X4724617Y1170348D01*
X4726120Y1162790D01*
X4726120Y1128290D01*
X4724617Y1120732D01*
X4720335Y1114325D01*
X4713928Y1110043D01*
X4706370Y1108540D01*
X4676870Y1108540D01*
X4669312Y1110043D01*
X4662905Y1114325D01*
X4658623Y1120732D01*
X4657120Y1128290D01*
X4657120Y1162790D01*
X4658623Y1170348D01*
X4662905Y1176755D01*
X4669312Y1181037D01*
X4676870Y1182540D01*
X4706370Y1182540D01*
X4713928Y1181037D01*
G37*
G36*
X-1837830Y1417410D02*
G01*
X-1837351Y1417199D01*
X-1837074Y1417162D01*
X-1833598Y1415541D01*
X-1827954Y1413049D01*
X-1820321Y1405416D01*
X-1817828Y1399770D01*
X-1816208Y1396297D01*
X-1816172Y1396019D01*
X-1815960Y1395540D01*
X-1815180Y1388815D01*
X-1815180Y1297565D01*
X-1815960Y1290840D01*
X-1816172Y1290361D01*
X-1816208Y1290084D01*
X-1817827Y1286612D01*
X-1820321Y1280964D01*
X-1827954Y1273331D01*
X-1833602Y1270837D01*
X-1837074Y1269218D01*
X-1837351Y1269182D01*
X-1837830Y1268970D01*
X-1844555Y1268190D01*
X-1893305Y1268190D01*
X-1900030Y1268970D01*
X-1900509Y1269182D01*
X-1900786Y1269218D01*
X-1904260Y1270838D01*
X-1909906Y1273331D01*
X-1917539Y1280964D01*
X-1920031Y1286608D01*
X-1921652Y1290084D01*
X-1921689Y1290362D01*
X-1921900Y1290840D01*
X-1922680Y1297565D01*
X-1922680Y1388815D01*
X-1921900Y1395540D01*
X-1921689Y1396019D01*
X-1921652Y1396297D01*
X-1920030Y1399774D01*
X-1917539Y1405416D01*
X-1909906Y1413049D01*
X-1904264Y1415540D01*
X-1900786Y1417162D01*
X-1900509Y1417199D01*
X-1900030Y1417410D01*
X-1893305Y1418190D01*
X-1844555Y1418190D01*
X-1837830Y1417410D01*
G37*
G36*
X-1650330Y1417410D02*
G01*
X-1649851Y1417199D01*
X-1649574Y1417162D01*
X-1646098Y1415541D01*
X-1640454Y1413049D01*
X-1632821Y1405416D01*
X-1630328Y1399770D01*
X-1628708Y1396297D01*
X-1628672Y1396019D01*
X-1628460Y1395540D01*
X-1627680Y1388815D01*
X-1627680Y1297565D01*
X-1628460Y1290840D01*
X-1628672Y1290361D01*
X-1628708Y1290084D01*
X-1630327Y1286612D01*
X-1632821Y1280964D01*
X-1640454Y1273331D01*
X-1646102Y1270837D01*
X-1649574Y1269218D01*
X-1649851Y1269182D01*
X-1650330Y1268970D01*
X-1657055Y1268190D01*
X-1705805Y1268190D01*
X-1712530Y1268970D01*
X-1713009Y1269182D01*
X-1713286Y1269218D01*
X-1716760Y1270838D01*
X-1722406Y1273331D01*
X-1730039Y1280964D01*
X-1732531Y1286608D01*
X-1734152Y1290084D01*
X-1734189Y1290362D01*
X-1734400Y1290840D01*
X-1735180Y1297565D01*
X-1735180Y1388815D01*
X-1734400Y1395540D01*
X-1734189Y1396019D01*
X-1734152Y1396297D01*
X-1732530Y1399774D01*
X-1730039Y1405416D01*
X-1722406Y1413049D01*
X-1716764Y1415540D01*
X-1713286Y1417162D01*
X-1713009Y1417199D01*
X-1712530Y1417410D01*
X-1705805Y1418190D01*
X-1657055Y1418190D01*
X-1650330Y1417410D01*
G37*
G36*
X-1337830Y1417410D02*
G01*
X-1337352Y1417199D01*
X-1337074Y1417162D01*
X-1333598Y1415541D01*
X-1327954Y1413049D01*
X-1320321Y1405416D01*
X-1317828Y1399770D01*
X-1316208Y1396297D01*
X-1316172Y1396019D01*
X-1315960Y1395540D01*
X-1315180Y1388815D01*
X-1315180Y1297565D01*
X-1315960Y1290840D01*
X-1316172Y1290361D01*
X-1316208Y1290084D01*
X-1317827Y1286612D01*
X-1320321Y1280964D01*
X-1327954Y1273331D01*
X-1333602Y1270837D01*
X-1337074Y1269218D01*
X-1337351Y1269182D01*
X-1337830Y1268970D01*
X-1344555Y1268190D01*
X-1393305Y1268190D01*
X-1400030Y1268970D01*
X-1400509Y1269182D01*
X-1400786Y1269218D01*
X-1404260Y1270838D01*
X-1409906Y1273331D01*
X-1417539Y1280964D01*
X-1420031Y1286608D01*
X-1421652Y1290084D01*
X-1421689Y1290362D01*
X-1421900Y1290840D01*
X-1422680Y1297565D01*
X-1422680Y1388815D01*
X-1421900Y1395540D01*
X-1421689Y1396019D01*
X-1421652Y1396297D01*
X-1420030Y1399774D01*
X-1417539Y1405416D01*
X-1409906Y1413049D01*
X-1404264Y1415540D01*
X-1400786Y1417162D01*
X-1400509Y1417199D01*
X-1400030Y1417410D01*
X-1393305Y1418190D01*
X-1344555Y1418190D01*
X-1337830Y1417410D01*
G37*
G36*
X-1150330Y1417410D02*
G01*
X-1149852Y1417199D01*
X-1149574Y1417162D01*
X-1146098Y1415541D01*
X-1140454Y1413049D01*
X-1132821Y1405416D01*
X-1130328Y1399770D01*
X-1128708Y1396297D01*
X-1128672Y1396019D01*
X-1128460Y1395540D01*
X-1127680Y1388815D01*
X-1127680Y1297565D01*
X-1128460Y1290840D01*
X-1128672Y1290361D01*
X-1128708Y1290084D01*
X-1130327Y1286612D01*
X-1132821Y1280964D01*
X-1140454Y1273331D01*
X-1146102Y1270837D01*
X-1149574Y1269218D01*
X-1149851Y1269182D01*
X-1150330Y1268970D01*
X-1157055Y1268190D01*
X-1205805Y1268190D01*
X-1212530Y1268970D01*
X-1213009Y1269182D01*
X-1213287Y1269218D01*
X-1216760Y1270838D01*
X-1222406Y1273331D01*
X-1230039Y1280964D01*
X-1232531Y1286608D01*
X-1234152Y1290084D01*
X-1234189Y1290362D01*
X-1234400Y1290840D01*
X-1235180Y1297565D01*
X-1235180Y1388815D01*
X-1234400Y1395540D01*
X-1234189Y1396019D01*
X-1234152Y1396297D01*
X-1232530Y1399774D01*
X-1230039Y1405416D01*
X-1222406Y1413049D01*
X-1216764Y1415540D01*
X-1213287Y1417162D01*
X-1213009Y1417199D01*
X-1212530Y1417410D01*
X-1205805Y1418190D01*
X-1157055Y1418190D01*
X-1150330Y1417410D01*
G37*
G36*
X132170Y1417410D02*
G01*
X132649Y1417199D01*
X132926Y1417162D01*
X136402Y1415541D01*
X142046Y1413049D01*
X149679Y1405416D01*
X152172Y1399770D01*
X153792Y1396297D01*
X153828Y1396019D01*
X154040Y1395540D01*
X154820Y1388815D01*
X154820Y1297565D01*
X154040Y1290840D01*
X153828Y1290361D01*
X153792Y1290084D01*
X152173Y1286612D01*
X149679Y1280964D01*
X142046Y1273331D01*
X136398Y1270837D01*
X132926Y1269218D01*
X132649Y1269182D01*
X132170Y1268970D01*
X125445Y1268190D01*
X76695Y1268190D01*
X69970Y1268970D01*
X69491Y1269182D01*
X69214Y1269218D01*
X65740Y1270838D01*
X60094Y1273331D01*
X52461Y1280964D01*
X49969Y1286608D01*
X48348Y1290084D01*
X48311Y1290362D01*
X48100Y1290840D01*
X47320Y1297565D01*
X47320Y1388815D01*
X48100Y1395540D01*
X48311Y1396019D01*
X48348Y1396297D01*
X49970Y1399774D01*
X52461Y1405416D01*
X60094Y1413049D01*
X65736Y1415540D01*
X69214Y1417162D01*
X69491Y1417199D01*
X69970Y1417410D01*
X76695Y1418190D01*
X125445Y1418190D01*
X132170Y1417410D01*
G37*
G36*
X319670Y1417410D02*
G01*
X320149Y1417199D01*
X320426Y1417162D01*
X323902Y1415541D01*
X329546Y1413049D01*
X337179Y1405416D01*
X339672Y1399770D01*
X341292Y1396297D01*
X341328Y1396019D01*
X341540Y1395540D01*
X342320Y1388815D01*
X342320Y1297565D01*
X341540Y1290840D01*
X341328Y1290361D01*
X341292Y1290084D01*
X339673Y1286612D01*
X337179Y1280964D01*
X329546Y1273331D01*
X323898Y1270837D01*
X320426Y1269218D01*
X320149Y1269182D01*
X319670Y1268970D01*
X312945Y1268190D01*
X264195Y1268190D01*
X257470Y1268970D01*
X256991Y1269182D01*
X256713Y1269218D01*
X253240Y1270838D01*
X247594Y1273331D01*
X239961Y1280964D01*
X237469Y1286608D01*
X235848Y1290084D01*
X235811Y1290362D01*
X235600Y1290840D01*
X234820Y1297565D01*
X234820Y1388815D01*
X235600Y1395540D01*
X235811Y1396019D01*
X235848Y1396297D01*
X237470Y1399774D01*
X239961Y1405416D01*
X247594Y1413049D01*
X253236Y1415540D01*
X256713Y1417162D01*
X256991Y1417199D01*
X257470Y1417410D01*
X264195Y1418190D01*
X312945Y1418190D01*
X319670Y1417410D01*
G37*
G36*
X632170Y1417410D02*
G01*
X632649Y1417199D01*
X632926Y1417162D01*
X636402Y1415541D01*
X642046Y1413049D01*
X649679Y1405416D01*
X652172Y1399770D01*
X653792Y1396297D01*
X653828Y1396019D01*
X654040Y1395540D01*
X654820Y1388815D01*
X654820Y1297565D01*
X654040Y1290840D01*
X653828Y1290361D01*
X653792Y1290084D01*
X652173Y1286612D01*
X649679Y1280964D01*
X642046Y1273331D01*
X636398Y1270837D01*
X632926Y1269218D01*
X632649Y1269182D01*
X632170Y1268970D01*
X625445Y1268190D01*
X576695Y1268190D01*
X569970Y1268970D01*
X569491Y1269182D01*
X569214Y1269218D01*
X565740Y1270838D01*
X560094Y1273331D01*
X552461Y1280964D01*
X549969Y1286608D01*
X548348Y1290084D01*
X548311Y1290362D01*
X548100Y1290840D01*
X547320Y1297565D01*
X547320Y1388815D01*
X548100Y1395540D01*
X548311Y1396019D01*
X548348Y1396297D01*
X549970Y1399774D01*
X552461Y1405416D01*
X560094Y1413049D01*
X565736Y1415540D01*
X569214Y1417162D01*
X569491Y1417199D01*
X569970Y1417410D01*
X576695Y1418190D01*
X625445Y1418190D01*
X632170Y1417410D01*
G37*
G36*
X819670Y1417410D02*
G01*
X820148Y1417199D01*
X820426Y1417162D01*
X823902Y1415541D01*
X829546Y1413049D01*
X837179Y1405416D01*
X839672Y1399770D01*
X841292Y1396297D01*
X841328Y1396019D01*
X841540Y1395540D01*
X842320Y1388815D01*
X842320Y1297565D01*
X841540Y1290840D01*
X841328Y1290361D01*
X841292Y1290084D01*
X839673Y1286612D01*
X837179Y1280964D01*
X829546Y1273331D01*
X823898Y1270837D01*
X820426Y1269218D01*
X820149Y1269182D01*
X819670Y1268970D01*
X812945Y1268190D01*
X764195Y1268190D01*
X757470Y1268970D01*
X756991Y1269182D01*
X756713Y1269218D01*
X753240Y1270838D01*
X747594Y1273331D01*
X739961Y1280964D01*
X737469Y1286608D01*
X735848Y1290084D01*
X735811Y1290362D01*
X735600Y1290840D01*
X734820Y1297565D01*
X734820Y1388815D01*
X735600Y1395540D01*
X735811Y1396019D01*
X735848Y1396297D01*
X737470Y1399774D01*
X739961Y1405416D01*
X747594Y1413049D01*
X753236Y1415540D01*
X756713Y1417162D01*
X756991Y1417199D01*
X757470Y1417410D01*
X764195Y1418190D01*
X812945Y1418190D01*
X819670Y1417410D01*
G37*
G36*
X2102170Y1417410D02*
G01*
X2102649Y1417199D01*
X2102926Y1417162D01*
X2106402Y1415541D01*
X2112046Y1413049D01*
X2119679Y1405416D01*
X2122172Y1399770D01*
X2123792Y1396297D01*
X2123828Y1396019D01*
X2124040Y1395540D01*
X2124820Y1388815D01*
X2124820Y1297565D01*
X2124040Y1290840D01*
X2123828Y1290361D01*
X2123792Y1290084D01*
X2122173Y1286612D01*
X2119679Y1280964D01*
X2112046Y1273331D01*
X2106398Y1270837D01*
X2102926Y1269218D01*
X2102649Y1269182D01*
X2102170Y1268970D01*
X2095445Y1268190D01*
X2046695Y1268190D01*
X2039970Y1268970D01*
X2039491Y1269182D01*
X2039213Y1269218D01*
X2035740Y1270838D01*
X2030094Y1273331D01*
X2022461Y1280964D01*
X2019969Y1286608D01*
X2018348Y1290084D01*
X2018311Y1290362D01*
X2018100Y1290840D01*
X2017320Y1297565D01*
X2017320Y1388815D01*
X2018100Y1395540D01*
X2018311Y1396019D01*
X2018348Y1396297D01*
X2019970Y1399774D01*
X2022461Y1405416D01*
X2030094Y1413049D01*
X2035736Y1415540D01*
X2039213Y1417162D01*
X2039491Y1417199D01*
X2039970Y1417410D01*
X2046695Y1418190D01*
X2095445Y1418190D01*
X2102170Y1417410D01*
G37*
G36*
X2289670Y1417410D02*
G01*
X2290149Y1417199D01*
X2290426Y1417162D01*
X2293902Y1415541D01*
X2299546Y1413049D01*
X2307179Y1405416D01*
X2309672Y1399770D01*
X2311292Y1396297D01*
X2311328Y1396019D01*
X2311540Y1395540D01*
X2312320Y1388815D01*
X2312320Y1297565D01*
X2311540Y1290840D01*
X2311328Y1290361D01*
X2311292Y1290084D01*
X2309673Y1286612D01*
X2307179Y1280964D01*
X2299546Y1273331D01*
X2293898Y1270837D01*
X2290426Y1269218D01*
X2290149Y1269182D01*
X2289670Y1268970D01*
X2282945Y1268190D01*
X2234195Y1268190D01*
X2227470Y1268970D01*
X2226991Y1269182D01*
X2226714Y1269218D01*
X2223240Y1270838D01*
X2217594Y1273331D01*
X2209961Y1280964D01*
X2207469Y1286608D01*
X2205848Y1290084D01*
X2205811Y1290362D01*
X2205600Y1290840D01*
X2204820Y1297565D01*
X2204820Y1388815D01*
X2205600Y1395540D01*
X2205811Y1396019D01*
X2205848Y1396297D01*
X2207470Y1399774D01*
X2209961Y1405416D01*
X2217594Y1413049D01*
X2223236Y1415540D01*
X2226714Y1417162D01*
X2226991Y1417199D01*
X2227470Y1417410D01*
X2234195Y1418190D01*
X2282945Y1418190D01*
X2289670Y1417410D01*
G37*
G36*
X2602170Y1417410D02*
G01*
X2602649Y1417199D01*
X2602926Y1417162D01*
X2606402Y1415541D01*
X2612046Y1413049D01*
X2619679Y1405416D01*
X2622172Y1399770D01*
X2623792Y1396297D01*
X2623828Y1396019D01*
X2624040Y1395540D01*
X2624820Y1388815D01*
X2624820Y1297565D01*
X2624040Y1290840D01*
X2623828Y1290361D01*
X2623792Y1290084D01*
X2622173Y1286612D01*
X2619679Y1280964D01*
X2612046Y1273331D01*
X2606398Y1270837D01*
X2602926Y1269218D01*
X2602649Y1269182D01*
X2602170Y1268970D01*
X2595445Y1268190D01*
X2546695Y1268190D01*
X2539970Y1268970D01*
X2539491Y1269182D01*
X2539214Y1269218D01*
X2535740Y1270838D01*
X2530094Y1273331D01*
X2522461Y1280964D01*
X2519969Y1286608D01*
X2518348Y1290084D01*
X2518311Y1290362D01*
X2518100Y1290840D01*
X2517320Y1297565D01*
X2517320Y1388815D01*
X2518100Y1395540D01*
X2518311Y1396019D01*
X2518348Y1396297D01*
X2519970Y1399774D01*
X2522461Y1405416D01*
X2530094Y1413049D01*
X2535736Y1415540D01*
X2539214Y1417162D01*
X2539491Y1417199D01*
X2539970Y1417410D01*
X2546695Y1418190D01*
X2595445Y1418190D01*
X2602170Y1417410D01*
G37*
G36*
X2789670Y1417410D02*
G01*
X2790149Y1417199D01*
X2790426Y1417162D01*
X2793902Y1415541D01*
X2799546Y1413049D01*
X2807179Y1405416D01*
X2809672Y1399770D01*
X2811292Y1396297D01*
X2811328Y1396019D01*
X2811540Y1395540D01*
X2812320Y1388815D01*
X2812320Y1297565D01*
X2811540Y1290840D01*
X2811328Y1290361D01*
X2811292Y1290084D01*
X2809673Y1286612D01*
X2807179Y1280964D01*
X2799546Y1273331D01*
X2793898Y1270837D01*
X2790426Y1269218D01*
X2790149Y1269182D01*
X2789670Y1268970D01*
X2782945Y1268190D01*
X2734195Y1268190D01*
X2727470Y1268970D01*
X2726991Y1269182D01*
X2726714Y1269218D01*
X2723240Y1270838D01*
X2717594Y1273331D01*
X2709961Y1280964D01*
X2707469Y1286608D01*
X2705848Y1290084D01*
X2705811Y1290362D01*
X2705600Y1290840D01*
X2704820Y1297565D01*
X2704820Y1388815D01*
X2705600Y1395540D01*
X2705811Y1396019D01*
X2705848Y1396297D01*
X2707470Y1399774D01*
X2709961Y1405416D01*
X2717594Y1413049D01*
X2723236Y1415540D01*
X2726714Y1417162D01*
X2726991Y1417199D01*
X2727470Y1417410D01*
X2734195Y1418190D01*
X2782945Y1418190D01*
X2789670Y1417410D01*
G37*
G36*
X4072170Y1417410D02*
G01*
X4072648Y1417199D01*
X4072926Y1417162D01*
X4076402Y1415541D01*
X4082046Y1413049D01*
X4089679Y1405416D01*
X4092172Y1399770D01*
X4093792Y1396297D01*
X4093828Y1396019D01*
X4094040Y1395540D01*
X4094820Y1388815D01*
X4094820Y1297565D01*
X4094040Y1290840D01*
X4093828Y1290361D01*
X4093792Y1290084D01*
X4092173Y1286612D01*
X4089679Y1280964D01*
X4082046Y1273331D01*
X4076398Y1270837D01*
X4072926Y1269218D01*
X4072649Y1269182D01*
X4072170Y1268970D01*
X4065445Y1268190D01*
X4016695Y1268190D01*
X4009970Y1268970D01*
X4009491Y1269182D01*
X4009213Y1269218D01*
X4005740Y1270838D01*
X4000094Y1273331D01*
X3992461Y1280964D01*
X3989969Y1286608D01*
X3988348Y1290084D01*
X3988311Y1290362D01*
X3988100Y1290840D01*
X3987320Y1297565D01*
X3987320Y1388815D01*
X3988100Y1395540D01*
X3988311Y1396019D01*
X3988348Y1396297D01*
X3989970Y1399774D01*
X3992461Y1405416D01*
X4000094Y1413049D01*
X4005736Y1415540D01*
X4009213Y1417162D01*
X4009491Y1417199D01*
X4009970Y1417410D01*
X4016695Y1418190D01*
X4065445Y1418190D01*
X4072170Y1417410D01*
G37*
G36*
X4259670Y1417410D02*
G01*
X4260149Y1417199D01*
X4260426Y1417162D01*
X4263902Y1415541D01*
X4269546Y1413049D01*
X4277179Y1405416D01*
X4279672Y1399770D01*
X4281292Y1396297D01*
X4281328Y1396019D01*
X4281540Y1395540D01*
X4282320Y1388815D01*
X4282320Y1297565D01*
X4281540Y1290840D01*
X4281328Y1290361D01*
X4281292Y1290084D01*
X4279673Y1286612D01*
X4277179Y1280964D01*
X4269546Y1273331D01*
X4263898Y1270837D01*
X4260426Y1269218D01*
X4260149Y1269182D01*
X4259670Y1268970D01*
X4252945Y1268190D01*
X4204195Y1268190D01*
X4197470Y1268970D01*
X4196991Y1269182D01*
X4196714Y1269218D01*
X4193240Y1270838D01*
X4187594Y1273331D01*
X4179961Y1280964D01*
X4177469Y1286608D01*
X4175848Y1290084D01*
X4175811Y1290362D01*
X4175600Y1290840D01*
X4174820Y1297565D01*
X4174820Y1388815D01*
X4175600Y1395540D01*
X4175811Y1396019D01*
X4175848Y1396297D01*
X4177470Y1399774D01*
X4179961Y1405416D01*
X4187594Y1413049D01*
X4193236Y1415540D01*
X4196714Y1417162D01*
X4196991Y1417199D01*
X4197470Y1417410D01*
X4204195Y1418190D01*
X4252945Y1418190D01*
X4259670Y1417410D01*
G37*
G36*
X4572170Y1417410D02*
G01*
X4572649Y1417199D01*
X4572926Y1417162D01*
X4576402Y1415541D01*
X4582046Y1413049D01*
X4589679Y1405416D01*
X4592172Y1399770D01*
X4593792Y1396297D01*
X4593828Y1396019D01*
X4594040Y1395540D01*
X4594820Y1388815D01*
X4594820Y1297565D01*
X4594040Y1290840D01*
X4593828Y1290361D01*
X4593792Y1290084D01*
X4592173Y1286612D01*
X4589679Y1280964D01*
X4582046Y1273331D01*
X4576398Y1270837D01*
X4572926Y1269218D01*
X4572649Y1269182D01*
X4572170Y1268970D01*
X4565445Y1268190D01*
X4516695Y1268190D01*
X4509970Y1268970D01*
X4509491Y1269182D01*
X4509214Y1269218D01*
X4505740Y1270838D01*
X4500094Y1273331D01*
X4492461Y1280964D01*
X4489969Y1286608D01*
X4488348Y1290084D01*
X4488311Y1290362D01*
X4488100Y1290840D01*
X4487320Y1297565D01*
X4487320Y1388815D01*
X4488100Y1395540D01*
X4488311Y1396019D01*
X4488348Y1396297D01*
X4489970Y1399774D01*
X4492461Y1405416D01*
X4500094Y1413049D01*
X4505736Y1415540D01*
X4509214Y1417162D01*
X4509491Y1417199D01*
X4509970Y1417410D01*
X4516695Y1418190D01*
X4565445Y1418190D01*
X4572170Y1417410D01*
G37*
G36*
X4759670Y1417410D02*
G01*
X4760149Y1417199D01*
X4760426Y1417162D01*
X4763902Y1415541D01*
X4769546Y1413049D01*
X4777179Y1405416D01*
X4779672Y1399770D01*
X4781292Y1396297D01*
X4781328Y1396019D01*
X4781540Y1395540D01*
X4782320Y1388815D01*
X4782320Y1297565D01*
X4781540Y1290840D01*
X4781328Y1290361D01*
X4781292Y1290084D01*
X4779673Y1286612D01*
X4777179Y1280964D01*
X4769546Y1273331D01*
X4763898Y1270837D01*
X4760426Y1269218D01*
X4760149Y1269182D01*
X4759670Y1268970D01*
X4752945Y1268190D01*
X4704195Y1268190D01*
X4697470Y1268970D01*
X4696991Y1269182D01*
X4696714Y1269218D01*
X4693240Y1270838D01*
X4687594Y1273331D01*
X4679961Y1280964D01*
X4677469Y1286608D01*
X4675848Y1290084D01*
X4675811Y1290362D01*
X4675600Y1290840D01*
X4674820Y1297565D01*
X4674820Y1388815D01*
X4675600Y1395540D01*
X4675811Y1396019D01*
X4675848Y1396297D01*
X4677470Y1399774D01*
X4679961Y1405416D01*
X4687594Y1413049D01*
X4693236Y1415540D01*
X4696714Y1417162D01*
X4696991Y1417199D01*
X4697470Y1417410D01*
X4704195Y1418190D01*
X4752945Y1418190D01*
X4759670Y1417410D01*
G37*
M02*
