%TF.GenerationSoftware,KiCad,Pcbnew,7.0.9*%
%TF.CreationDate,2024-04-10T09:45:45+08:00*%
%TF.ProjectId,6__ 2.5_NAS,36d84d20-322e-435f-984e-41532e6b6963,0.3*%
%TF.SameCoordinates,PXbbc77c0PY26f37c0*%
%TF.FileFunction,Drillmap*%
%TF.FilePolarity,Positive*%
%FSLAX45Y45*%
G04 Gerber Fmt 4.5, Leading zero omitted, Abs format (unit mm)*
G04 Created by KiCad (PCBNEW 7.0.9) date 2024-04-10 09:45:45*
%MOMM*%
%LPD*%
G01*
G04 APERTURE LIST*
%ADD10C,0.100000*%
%ADD11C,0.200000*%
%ADD12C,0.190000*%
G04 APERTURE END LIST*
D10*
X-1522930Y-391410D02*
X-779498Y-391410D01*
X2337070Y-471410D02*
X2417070Y-391410D01*
X-2672230Y-5676900D02*
X-2172230Y-6176900D01*
X-1602230Y-471410D02*
X-1522930Y-391410D01*
X3157070Y-5071410D02*
X2417070Y-5071410D01*
X3160501Y-391410D02*
X3237070Y-471410D01*
X-2019230Y-5666210D02*
G75*
G03*
X-2019230Y-5666210I-150000J0D01*
G01*
X5207000Y-4991410D02*
X5207000Y-5676900D01*
X-1602230Y-4954810D02*
X-1522230Y-5034810D01*
X367070Y-4991410D02*
X447070Y-5071410D01*
X1190502Y-391410D02*
X1267070Y-471410D01*
X-1330820Y919480D02*
G75*
G03*
X-1330820Y919480I-150000J0D01*
G01*
X-1602230Y-471410D02*
X-1602230Y-4954810D01*
X5206620Y1074800D02*
X4706620Y1574800D01*
X-2479230Y-6166810D02*
X-2479230Y-6166810D01*
X5130502Y-391410D02*
X5207070Y-471410D01*
X5127070Y-5071410D02*
X4387070Y-5071410D01*
X4387070Y-391410D02*
X5130502Y-391410D01*
X447070Y-391410D02*
X1190502Y-391410D01*
X1187070Y-5071410D02*
X447070Y-5071410D01*
X3237070Y-4991410D02*
X3157070Y-5071410D01*
X2337070Y-471410D02*
X2337070Y-4991410D01*
X2417070Y-391410D02*
X3160501Y-391410D01*
X2337070Y-4991410D02*
X2417070Y-5071410D01*
X-2172230Y1583190D02*
X4706620Y1574800D01*
X367070Y-471410D02*
X367075Y-4991410D01*
X5207070Y-471410D02*
X5206620Y1074800D01*
X-702930Y-4954810D02*
X-702930Y-471410D01*
X1267070Y-4991410D02*
X1267070Y-471410D01*
X1267070Y-4991410D02*
X1187070Y-5071410D01*
X-2672230Y-5676900D02*
X-2672230Y1083190D01*
X3655200Y1074420D02*
G75*
G03*
X3655200Y1074420I-150000J0D01*
G01*
X-782230Y-5034810D02*
X-1522230Y-5034810D01*
X-779498Y-391410D02*
X-702930Y-471410D01*
X4307070Y-4991410D02*
X4387070Y-5071410D01*
X5207000Y-5676900D02*
X4707000Y-6176900D01*
X-2172230Y-6176900D02*
X4707000Y-6176900D01*
X4307070Y-471410D02*
X4307070Y-4991410D01*
X4307070Y-471410D02*
X4387070Y-391410D01*
X-702230Y-4954810D02*
X-782230Y-5034810D01*
X5207070Y-4991410D02*
X5127070Y-5071410D01*
X367070Y-471410D02*
X447070Y-391410D01*
X-2172230Y1583190D02*
X-2672230Y1083190D01*
X4856620Y-5676900D02*
G75*
G03*
X4856620Y-5676900I-150000J0D01*
G01*
X3237070Y-4991410D02*
X3237070Y-471410D01*
D11*
D10*
X-2250160Y-1506500D02*
X-2215160Y-1541500D01*
X-2215160Y-1506500D02*
X-2250160Y-1541500D01*
X-2232380Y-4940580D02*
X-2197380Y-4975580D01*
X-2197380Y-4940580D02*
X-2232380Y-4975580D01*
X-2232380Y-5016780D02*
X-2197380Y-5051780D01*
X-2197380Y-5016780D02*
X-2232380Y-5051780D01*
X-2232380Y-5092980D02*
X-2197380Y-5127980D01*
X-2197380Y-5092980D02*
X-2232380Y-5127980D01*
X-2156180Y-4940580D02*
X-2121180Y-4975580D01*
X-2121180Y-4940580D02*
X-2156180Y-4975580D01*
X-2156180Y-5016780D02*
X-2121180Y-5051780D01*
X-2121180Y-5016780D02*
X-2156180Y-5051780D01*
X-2156180Y-5092980D02*
X-2121180Y-5127980D01*
X-2121180Y-5092980D02*
X-2156180Y-5127980D01*
X-2079980Y-4940580D02*
X-2044980Y-4975580D01*
X-2044980Y-4940580D02*
X-2079980Y-4975580D01*
X-2079980Y-5016780D02*
X-2044980Y-5051780D01*
X-2044980Y-5016780D02*
X-2079980Y-5051780D01*
X-2079980Y-5092980D02*
X-2044980Y-5127980D01*
X-2044980Y-5092980D02*
X-2079980Y-5127980D01*
X-2024100Y-1702080D02*
X-1989100Y-1737080D01*
X-1989100Y-1702080D02*
X-2024100Y-1737080D01*
X-2024100Y-1829080D02*
X-1989100Y-1864080D01*
X-1989100Y-1829080D02*
X-2024100Y-1864080D01*
X-2024100Y-1958620D02*
X-1989100Y-1993620D01*
X-1989100Y-1958620D02*
X-2024100Y-1993620D01*
X-2006320Y1157960D02*
X-1971320Y1122960D01*
X-1971320Y1157960D02*
X-2006320Y1122960D01*
X-2003780Y-4940580D02*
X-1968780Y-4975580D01*
X-1968780Y-4940580D02*
X-2003780Y-4975580D01*
X-2003780Y-5016780D02*
X-1968780Y-5051780D01*
X-1968780Y-5016780D02*
X-2003780Y-5051780D01*
X-2003780Y-5092980D02*
X-1968780Y-5127980D01*
X-1968780Y-5092980D02*
X-2003780Y-5127980D01*
X-1986000Y-1196620D02*
X-1951000Y-1231620D01*
X-1951000Y-1196620D02*
X-1986000Y-1231620D01*
X-1978380Y-1321080D02*
X-1943380Y-1356080D01*
X-1943380Y-1321080D02*
X-1978380Y-1356080D01*
X-1978380Y-1450620D02*
X-1943380Y-1485620D01*
X-1943380Y-1450620D02*
X-1978380Y-1485620D01*
X-1978380Y-1575080D02*
X-1943380Y-1610080D01*
X-1943380Y-1575080D02*
X-1978380Y-1610080D01*
X-1259560Y1160500D02*
X-1224560Y1125500D01*
X-1224560Y1160500D02*
X-1259560Y1125500D01*
X-657580Y-3213380D02*
X-622580Y-3248380D01*
X-622580Y-3213380D02*
X-657580Y-3248380D01*
X-657580Y-3289580D02*
X-622580Y-3324580D01*
X-622580Y-3289580D02*
X-657580Y-3324580D01*
X-581380Y-3213380D02*
X-546380Y-3248380D01*
X-546380Y-3213380D02*
X-581380Y-3248380D01*
X-581380Y-3289580D02*
X-546380Y-3324580D01*
X-546380Y-3289580D02*
X-581380Y-3324580D01*
X-505180Y-3213380D02*
X-470180Y-3248380D01*
X-470180Y-3213380D02*
X-505180Y-3248380D01*
X-505180Y-3289580D02*
X-470180Y-3324580D01*
X-470180Y-3289580D02*
X-505180Y-3324580D01*
X-428980Y-3213380D02*
X-393980Y-3248380D01*
X-393980Y-3213380D02*
X-428980Y-3248380D01*
X-352780Y-3213380D02*
X-317780Y-3248380D01*
X-317780Y-3213380D02*
X-352780Y-3248380D01*
X-251180Y-4940580D02*
X-216180Y-4975580D01*
X-216180Y-4940580D02*
X-251180Y-4975580D01*
X-251180Y-5016780D02*
X-216180Y-5051780D01*
X-216180Y-5016780D02*
X-251180Y-5051780D01*
X-251180Y-5092980D02*
X-216180Y-5127980D01*
X-216180Y-5092980D02*
X-251180Y-5127980D01*
X-174980Y-4940580D02*
X-139980Y-4975580D01*
X-139980Y-4940580D02*
X-174980Y-4975580D01*
X-174980Y-5016780D02*
X-139980Y-5051780D01*
X-139980Y-5016780D02*
X-174980Y-5051780D01*
X-174980Y-5092980D02*
X-139980Y-5127980D01*
X-139980Y-5092980D02*
X-174980Y-5127980D01*
X-98780Y-4940580D02*
X-63780Y-4975580D01*
X-63780Y-4940580D02*
X-98780Y-4975580D01*
X-98780Y-5016780D02*
X-63780Y-5051780D01*
X-63780Y-5016780D02*
X-98780Y-5051780D01*
X-98780Y-5092980D02*
X-63780Y-5127980D01*
X-63780Y-5092980D02*
X-98780Y-5127980D01*
X-55600Y-1958620D02*
X-20600Y-1993620D01*
X-20600Y-1958620D02*
X-55600Y-1993620D01*
X-22580Y-4940580D02*
X12420Y-4975580D01*
X12420Y-4940580D02*
X-22580Y-4975580D01*
X-22580Y-5016780D02*
X12420Y-5051780D01*
X12420Y-5016780D02*
X-22580Y-5051780D01*
X-22580Y-5092980D02*
X12420Y-5127980D01*
X12420Y-5092980D02*
X-22580Y-5127980D01*
X-9710Y-1194710D02*
X25290Y-1229710D01*
X25290Y-1194710D02*
X-9710Y-1229710D01*
X44240Y1160500D02*
X79240Y1125500D01*
X79240Y1160500D02*
X44240Y1125500D01*
X515900Y462000D02*
X550900Y427000D01*
X550900Y462000D02*
X515900Y427000D01*
X515900Y2260D02*
X550900Y-32740D01*
X550900Y2260D02*
X515900Y-32740D01*
X594270Y802947D02*
X629270Y767947D01*
X629270Y802947D02*
X594270Y767947D01*
X594270Y198414D02*
X629270Y163414D01*
X629270Y198414D02*
X594270Y163414D01*
X661970Y802947D02*
X696970Y767947D01*
X696970Y802947D02*
X661970Y767947D01*
X661970Y198414D02*
X696970Y163414D01*
X696970Y198414D02*
X661970Y163414D01*
X739420Y-280D02*
X774420Y-35280D01*
X774420Y-280D02*
X739420Y-35280D01*
X740620Y616940D02*
X775620Y581940D01*
X775620Y616940D02*
X740620Y581940D01*
X797840Y1160500D02*
X832840Y1125500D01*
X832840Y1160500D02*
X797840Y1125500D01*
X819270Y618165D02*
X854270Y583165D01*
X854270Y618165D02*
X819270Y583165D01*
X819270Y-4235D02*
X854270Y-39235D01*
X854270Y-4235D02*
X819270Y-39235D01*
X886970Y618165D02*
X921970Y583165D01*
X921970Y618165D02*
X886970Y583165D01*
X886970Y-4235D02*
X921970Y-39235D01*
X921970Y-4235D02*
X886970Y-39235D01*
X965620Y616940D02*
X1000620Y581940D01*
X1000620Y616940D02*
X965620Y581940D01*
X965620Y-280D02*
X1000620Y-35280D01*
X1000620Y-280D02*
X965620Y-35280D01*
X1374420Y-2476780D02*
X1409420Y-2511780D01*
X1409420Y-2476780D02*
X1374420Y-2511780D01*
X1374420Y-2552980D02*
X1409420Y-2587980D01*
X1409420Y-2552980D02*
X1374420Y-2587980D01*
X1374420Y-2629180D02*
X1409420Y-2664180D01*
X1409420Y-2629180D02*
X1374420Y-2664180D01*
X1391994Y-1143280D02*
X1426994Y-1178280D01*
X1426994Y-1143280D02*
X1391994Y-1178280D01*
X1392551Y-1004910D02*
X1427551Y-1039910D01*
X1427551Y-1004910D02*
X1392551Y-1039910D01*
X1437140Y-1265980D02*
X1472140Y-1300980D01*
X1472140Y-1265980D02*
X1437140Y-1300980D01*
X1450620Y-2476780D02*
X1485620Y-2511780D01*
X1485620Y-2476780D02*
X1450620Y-2511780D01*
X1450620Y-2552980D02*
X1485620Y-2587980D01*
X1485620Y-2552980D02*
X1450620Y-2587980D01*
X1450620Y-2629180D02*
X1485620Y-2664180D01*
X1485620Y-2629180D02*
X1450620Y-2664180D01*
X1499660Y-1112020D02*
X1534660Y-1147020D01*
X1534660Y-1112020D02*
X1499660Y-1147020D01*
X1526820Y-2476780D02*
X1561820Y-2511780D01*
X1561820Y-2476780D02*
X1526820Y-2511780D01*
X1526820Y-2552980D02*
X1561820Y-2587980D01*
X1561820Y-2552980D02*
X1526820Y-2587980D01*
X1526820Y-2629180D02*
X1561820Y-2664180D01*
X1561820Y-2629180D02*
X1526820Y-2664180D01*
X1577620Y-1325248D02*
X1612620Y-1360248D01*
X1612620Y-1325248D02*
X1577620Y-1360248D01*
X1603020Y-2476780D02*
X1638020Y-2511780D01*
X1638020Y-2476780D02*
X1603020Y-2511780D01*
X1603020Y-2552980D02*
X1638020Y-2587980D01*
X1638020Y-2552980D02*
X1603020Y-2587980D01*
X1603020Y-2629180D02*
X1638020Y-2664180D01*
X1638020Y-2629180D02*
X1603020Y-2664180D01*
X1620800Y-1167682D02*
X1655800Y-1202682D01*
X1655800Y-1167682D02*
X1620800Y-1202682D01*
X1704620Y-4940580D02*
X1739620Y-4975580D01*
X1739620Y-4940580D02*
X1704620Y-4975580D01*
X1704620Y-5016780D02*
X1739620Y-5051780D01*
X1739620Y-5016780D02*
X1704620Y-5051780D01*
X1704620Y-5092980D02*
X1739620Y-5127980D01*
X1739620Y-5092980D02*
X1704620Y-5127980D01*
X1717320Y-1325248D02*
X1752320Y-1360248D01*
X1752320Y-1325248D02*
X1717320Y-1360248D01*
X1750340Y-1167682D02*
X1785340Y-1202682D01*
X1785340Y-1167682D02*
X1750340Y-1202682D01*
X1780820Y-4940580D02*
X1815820Y-4975580D01*
X1815820Y-4940580D02*
X1780820Y-4975580D01*
X1780820Y-5016780D02*
X1815820Y-5051780D01*
X1815820Y-5016780D02*
X1780820Y-5051780D01*
X1780820Y-5092980D02*
X1815820Y-5127980D01*
X1815820Y-5092980D02*
X1780820Y-5127980D01*
X1857020Y-4940580D02*
X1892020Y-4975580D01*
X1892020Y-4940580D02*
X1857020Y-4975580D01*
X1857020Y-5016780D02*
X1892020Y-5051780D01*
X1892020Y-5016780D02*
X1857020Y-5051780D01*
X1857020Y-5092980D02*
X1892020Y-5127980D01*
X1892020Y-5092980D02*
X1857020Y-5127980D01*
X1915440Y-1956080D02*
X1950440Y-1991080D01*
X1950440Y-1956080D02*
X1915440Y-1991080D01*
X1933220Y-4940580D02*
X1968220Y-4975580D01*
X1968220Y-4940580D02*
X1933220Y-4975580D01*
X1933220Y-5016780D02*
X1968220Y-5051780D01*
X1968220Y-5016780D02*
X1933220Y-5051780D01*
X1933220Y-5092980D02*
X1968220Y-5127980D01*
X1968220Y-5092980D02*
X1933220Y-5127980D01*
X1961160Y-1194080D02*
X1996160Y-1229080D01*
X1996160Y-1194080D02*
X1961160Y-1229080D01*
X1961160Y-1577620D02*
X1996160Y-1612620D01*
X1996160Y-1577620D02*
X1961160Y-1612620D01*
X2255800Y1165580D02*
X2290800Y1130580D01*
X2290800Y1165580D02*
X2255800Y1130580D01*
X2517420Y1163040D02*
X2552420Y1128040D01*
X2552420Y1163040D02*
X2517420Y1128040D01*
X3279420Y-2603780D02*
X3314420Y-2638780D01*
X3314420Y-2603780D02*
X3279420Y-2638780D01*
X3304820Y-3238780D02*
X3339820Y-3273780D01*
X3339820Y-3238780D02*
X3304820Y-3273780D01*
X3355620Y-2603780D02*
X3390620Y-2638780D01*
X3390620Y-2603780D02*
X3355620Y-2638780D01*
X3364782Y-1120420D02*
X3399782Y-1155420D01*
X3399782Y-1120420D02*
X3364782Y-1155420D01*
X3364782Y-1219480D02*
X3399782Y-1254480D01*
X3399782Y-1219480D02*
X3364782Y-1254480D01*
X3381020Y-3238780D02*
X3416020Y-3273780D01*
X3416020Y-3238780D02*
X3381020Y-3273780D01*
X3415993Y-1325888D02*
X3450993Y-1360888D01*
X3450993Y-1325888D02*
X3415993Y-1360888D01*
X3431820Y-2603780D02*
X3466820Y-2638780D01*
X3466820Y-2603780D02*
X3431820Y-2638780D01*
X3457220Y-3238780D02*
X3492220Y-3273780D01*
X3492220Y-3238780D02*
X3457220Y-3273780D01*
X3508020Y-2603780D02*
X3543020Y-2638780D01*
X3543020Y-2603780D02*
X3508020Y-2638780D01*
X3508020Y-2603780D02*
X3543020Y-2638780D01*
X3543020Y-2603780D02*
X3508020Y-2638780D01*
X3528340Y-1160062D02*
X3563340Y-1195062D01*
X3563340Y-1160062D02*
X3528340Y-1195062D01*
X3533420Y-3238780D02*
X3568420Y-3273780D01*
X3568420Y-3238780D02*
X3533420Y-3273780D01*
X3561360Y-1325888D02*
X3596360Y-1360888D01*
X3596360Y-1325888D02*
X3561360Y-1360888D01*
X3584220Y-2603780D02*
X3619220Y-2638780D01*
X3619220Y-2603780D02*
X3584220Y-2638780D01*
X3609620Y-3238780D02*
X3644620Y-3273780D01*
X3644620Y-3238780D02*
X3609620Y-3273780D01*
X3660420Y-4889780D02*
X3695420Y-4924780D01*
X3695420Y-4889780D02*
X3660420Y-4924780D01*
X3660420Y-4965980D02*
X3695420Y-5000980D01*
X3695420Y-4965980D02*
X3660420Y-5000980D01*
X3660420Y-5042180D02*
X3695420Y-5077180D01*
X3695420Y-5042180D02*
X3660420Y-5077180D01*
X3660420Y-5118380D02*
X3695420Y-5153380D01*
X3695420Y-5118380D02*
X3660420Y-5153380D01*
X3695980Y-1160062D02*
X3730980Y-1195062D01*
X3730980Y-1160062D02*
X3695980Y-1195062D01*
X3713760Y-1325888D02*
X3748760Y-1360888D01*
X3748760Y-1325888D02*
X3713760Y-1360888D01*
X3886480Y-1704620D02*
X3921480Y-1739620D01*
X3921480Y-1704620D02*
X3886480Y-1739620D01*
X3886480Y-1829080D02*
X3921480Y-1864080D01*
X3921480Y-1829080D02*
X3886480Y-1864080D01*
X3886480Y-1956080D02*
X3921480Y-1991080D01*
X3921480Y-1956080D02*
X3886480Y-1991080D01*
X3929660Y-1575080D02*
X3964660Y-1610080D01*
X3964660Y-1575080D02*
X3929660Y-1610080D01*
X3932200Y-1194080D02*
X3967200Y-1229080D01*
X3967200Y-1194080D02*
X3932200Y-1229080D01*
X3932200Y-1321080D02*
X3967200Y-1356080D01*
X3967200Y-1321080D02*
X3932200Y-1356080D01*
X3932200Y-1450620D02*
X3967200Y-1485620D01*
X3967200Y-1450620D02*
X3932200Y-1485620D01*
X4016020Y-739420D02*
X4051020Y-774420D01*
X4051020Y-739420D02*
X4016020Y-774420D01*
X4016020Y-795300D02*
X4051020Y-830300D01*
X4051020Y-795300D02*
X4016020Y-830300D01*
X4016020Y-851180D02*
X4051020Y-886180D01*
X4051020Y-851180D02*
X4016020Y-886180D01*
X4016020Y-907060D02*
X4051020Y-942060D01*
X4051020Y-907060D02*
X4016020Y-942060D01*
X4021100Y-493040D02*
X4056100Y-528040D01*
X4056100Y-493040D02*
X4021100Y-528040D01*
X4021100Y-548920D02*
X4056100Y-583920D01*
X4056100Y-548920D02*
X4021100Y-583920D01*
X4021100Y-604800D02*
X4056100Y-639800D01*
X4056100Y-604800D02*
X4021100Y-639800D01*
X4021100Y-660680D02*
X4056100Y-695680D01*
X4056100Y-660680D02*
X4021100Y-695680D01*
X4071900Y-739420D02*
X4106900Y-774420D01*
X4106900Y-739420D02*
X4071900Y-774420D01*
X4071900Y-795300D02*
X4106900Y-830300D01*
X4106900Y-795300D02*
X4071900Y-830300D01*
X4071900Y-851180D02*
X4106900Y-886180D01*
X4106900Y-851180D02*
X4071900Y-886180D01*
X4071900Y-851180D02*
X4106900Y-886180D01*
X4106900Y-851180D02*
X4071900Y-886180D01*
X4071900Y-907060D02*
X4106900Y-942060D01*
X4106900Y-907060D02*
X4071900Y-942060D01*
X4076980Y-493040D02*
X4111980Y-528040D01*
X4111980Y-493040D02*
X4076980Y-528040D01*
X4076980Y-548920D02*
X4111980Y-583920D01*
X4111980Y-548920D02*
X4076980Y-583920D01*
X4076980Y-604800D02*
X4111980Y-639800D01*
X4111980Y-604800D02*
X4076980Y-639800D01*
X4076980Y-604800D02*
X4111980Y-639800D01*
X4111980Y-604800D02*
X4076980Y-639800D01*
X4076980Y-660680D02*
X4111980Y-695680D01*
X4111980Y-660680D02*
X4076980Y-695680D01*
X4155720Y-495580D02*
X4190720Y-530580D01*
X4190720Y-495580D02*
X4155720Y-530580D01*
X4155720Y-551460D02*
X4190720Y-586460D01*
X4190720Y-551460D02*
X4155720Y-586460D01*
X4155720Y-607340D02*
X4190720Y-642340D01*
X4190720Y-607340D02*
X4155720Y-642340D01*
X4155720Y-663220D02*
X4190720Y-698220D01*
X4190720Y-663220D02*
X4155720Y-698220D01*
X4155720Y-736880D02*
X4190720Y-771880D01*
X4190720Y-736880D02*
X4155720Y-771880D01*
X4155720Y-792760D02*
X4190720Y-827760D01*
X4190720Y-792760D02*
X4155720Y-827760D01*
X4155720Y-848640D02*
X4190720Y-883640D01*
X4190720Y-848640D02*
X4155720Y-883640D01*
X4155720Y-904520D02*
X4190720Y-939520D01*
X4190720Y-904520D02*
X4155720Y-939520D01*
X4158260Y-1994180D02*
X4193260Y-2029180D01*
X4193260Y-1994180D02*
X4158260Y-2029180D01*
X4158260Y-2050060D02*
X4193260Y-2085060D01*
X4193260Y-2050060D02*
X4158260Y-2085060D01*
X4158260Y-2105940D02*
X4193260Y-2140940D01*
X4193260Y-2105940D02*
X4158260Y-2140940D01*
X4158260Y-2161820D02*
X4193260Y-2196820D01*
X4193260Y-2161820D02*
X4158260Y-2196820D01*
X4163340Y-3866160D02*
X4198340Y-3901160D01*
X4198340Y-3866160D02*
X4163340Y-3901160D01*
X4163340Y-3922040D02*
X4198340Y-3957040D01*
X4198340Y-3922040D02*
X4163340Y-3957040D01*
X4163340Y-3977920D02*
X4198340Y-4012920D01*
X4198340Y-3977920D02*
X4163340Y-4012920D01*
X4163340Y-4033800D02*
X4198340Y-4068800D01*
X4198340Y-4033800D02*
X4163340Y-4068800D01*
X4211600Y-495580D02*
X4246600Y-530580D01*
X4246600Y-495580D02*
X4211600Y-530580D01*
X4211600Y-551460D02*
X4246600Y-586460D01*
X4246600Y-551460D02*
X4211600Y-586460D01*
X4211600Y-607340D02*
X4246600Y-642340D01*
X4246600Y-607340D02*
X4211600Y-642340D01*
X4211600Y-607340D02*
X4246600Y-642340D01*
X4246600Y-607340D02*
X4211600Y-642340D01*
X4211600Y-663220D02*
X4246600Y-698220D01*
X4246600Y-663220D02*
X4211600Y-698220D01*
X4211600Y-736880D02*
X4246600Y-771880D01*
X4246600Y-736880D02*
X4211600Y-771880D01*
X4211600Y-792760D02*
X4246600Y-827760D01*
X4246600Y-792760D02*
X4211600Y-827760D01*
X4211600Y-848640D02*
X4246600Y-883640D01*
X4246600Y-848640D02*
X4211600Y-883640D01*
X4211600Y-848640D02*
X4246600Y-883640D01*
X4246600Y-848640D02*
X4211600Y-883640D01*
X4211600Y-904520D02*
X4246600Y-939520D01*
X4246600Y-904520D02*
X4211600Y-939520D01*
X4214140Y-1994180D02*
X4249140Y-2029180D01*
X4249140Y-1994180D02*
X4214140Y-2029180D01*
X4214140Y-2050060D02*
X4249140Y-2085060D01*
X4249140Y-2050060D02*
X4214140Y-2085060D01*
X4214140Y-2105940D02*
X4249140Y-2140940D01*
X4249140Y-2105940D02*
X4214140Y-2140940D01*
X4214140Y-2105940D02*
X4249140Y-2140940D01*
X4249140Y-2105940D02*
X4214140Y-2140940D01*
X4214140Y-2161820D02*
X4249140Y-2196820D01*
X4249140Y-2161820D02*
X4214140Y-2196820D01*
X4219220Y-3866160D02*
X4254220Y-3901160D01*
X4254220Y-3866160D02*
X4219220Y-3901160D01*
X4219220Y-3922040D02*
X4254220Y-3957040D01*
X4254220Y-3922040D02*
X4219220Y-3957040D01*
X4219220Y-3977920D02*
X4254220Y-4012920D01*
X4254220Y-3977920D02*
X4219220Y-4012920D01*
X4219220Y-3977920D02*
X4254220Y-4012920D01*
X4254220Y-3977920D02*
X4219220Y-4012920D01*
X4219220Y-4033800D02*
X4254220Y-4068800D01*
X4254220Y-4033800D02*
X4219220Y-4068800D01*
X4242080Y1163040D02*
X4277080Y1128040D01*
X4277080Y1163040D02*
X4242080Y1128040D01*
X4506240Y1163040D02*
X4541240Y1128040D01*
X4541240Y1163040D02*
X4506240Y1128040D01*
X-2022160Y-4147820D02*
G75*
G03*
X-2022160Y-4147820I-20000J0D01*
G01*
X-2022160Y-4147820D02*
G75*
G03*
X-2022160Y-4147820I-20000J0D01*
G01*
X-2022160Y-4224020D02*
G75*
G03*
X-2022160Y-4224020I-20000J0D01*
G01*
X-2022160Y-4224020D02*
G75*
G03*
X-2022160Y-4224020I-20000J0D01*
G01*
X-2022160Y-4300220D02*
G75*
G03*
X-2022160Y-4300220I-20000J0D01*
G01*
X-2022160Y-4300220D02*
G75*
G03*
X-2022160Y-4300220I-20000J0D01*
G01*
X-2022160Y-4376420D02*
G75*
G03*
X-2022160Y-4376420I-20000J0D01*
G01*
X-2022160Y-4376420D02*
G75*
G03*
X-2022160Y-4376420I-20000J0D01*
G01*
X-2001840Y-3388360D02*
G75*
G03*
X-2001840Y-3388360I-20000J0D01*
G01*
X-2001840Y-3388360D02*
G75*
G03*
X-2001840Y-3388360I-20000J0D01*
G01*
X-2001840Y-3464560D02*
G75*
G03*
X-2001840Y-3464560I-20000J0D01*
G01*
X-2001840Y-3464560D02*
G75*
G03*
X-2001840Y-3464560I-20000J0D01*
G01*
X-2001840Y-3540760D02*
G75*
G03*
X-2001840Y-3540760I-20000J0D01*
G01*
X-2001840Y-3540760D02*
G75*
G03*
X-2001840Y-3540760I-20000J0D01*
G01*
X-2001840Y-3616960D02*
G75*
G03*
X-2001840Y-3616960I-20000J0D01*
G01*
X-2001840Y-3616960D02*
G75*
G03*
X-2001840Y-3616960I-20000J0D01*
G01*
X-1945960Y-4147820D02*
G75*
G03*
X-1945960Y-4147820I-20000J0D01*
G01*
X-1945960Y-4224020D02*
G75*
G03*
X-1945960Y-4224020I-20000J0D01*
G01*
X-1945960Y-4300220D02*
G75*
G03*
X-1945960Y-4300220I-20000J0D01*
G01*
X-1945960Y-4376420D02*
G75*
G03*
X-1945960Y-4376420I-20000J0D01*
G01*
X-1925640Y-3388360D02*
G75*
G03*
X-1925640Y-3388360I-20000J0D01*
G01*
X-1925640Y-3464560D02*
G75*
G03*
X-1925640Y-3464560I-20000J0D01*
G01*
X-1925640Y-3540760D02*
G75*
G03*
X-1925640Y-3540760I-20000J0D01*
G01*
X-1925640Y-3616960D02*
G75*
G03*
X-1925640Y-3616960I-20000J0D01*
G01*
X-1869760Y-4147820D02*
G75*
G03*
X-1869760Y-4147820I-20000J0D01*
G01*
X-1869760Y-4224020D02*
G75*
G03*
X-1869760Y-4224020I-20000J0D01*
G01*
X-1869760Y-4300220D02*
G75*
G03*
X-1869760Y-4300220I-20000J0D01*
G01*
X-1869760Y-4376420D02*
G75*
G03*
X-1869760Y-4376420I-20000J0D01*
G01*
X-1849440Y-3388360D02*
G75*
G03*
X-1849440Y-3388360I-20000J0D01*
G01*
X-1849440Y-3464560D02*
G75*
G03*
X-1849440Y-3464560I-20000J0D01*
G01*
X-1849440Y-3540760D02*
G75*
G03*
X-1849440Y-3540760I-20000J0D01*
G01*
X-1849440Y-3616960D02*
G75*
G03*
X-1849440Y-3616960I-20000J0D01*
G01*
X-1140780Y-5364480D02*
G75*
G03*
X-1140780Y-5364480I-20000J0D01*
G01*
X-1140780Y-5440680D02*
G75*
G03*
X-1140780Y-5440680I-20000J0D01*
G01*
X-1140780Y-5516880D02*
G75*
G03*
X-1140780Y-5516880I-20000J0D01*
G01*
X-1064580Y-5364480D02*
G75*
G03*
X-1064580Y-5364480I-20000J0D01*
G01*
X-1064580Y-5440680D02*
G75*
G03*
X-1064580Y-5440680I-20000J0D01*
G01*
X-1064580Y-5516880D02*
G75*
G03*
X-1064580Y-5516880I-20000J0D01*
G01*
X-988380Y-5364480D02*
G75*
G03*
X-988380Y-5364480I-20000J0D01*
G01*
X-988380Y-5440680D02*
G75*
G03*
X-988380Y-5440680I-20000J0D01*
G01*
X-988380Y-5516880D02*
G75*
G03*
X-988380Y-5516880I-20000J0D01*
G01*
X-376240Y-5674360D02*
G75*
G03*
X-376240Y-5674360I-20000J0D01*
G01*
X-376240Y-5750560D02*
G75*
G03*
X-376240Y-5750560I-20000J0D01*
G01*
X-376240Y-5826760D02*
G75*
G03*
X-376240Y-5826760I-20000J0D01*
G01*
X-376240Y-5902960D02*
G75*
G03*
X-376240Y-5902960I-20000J0D01*
G01*
X-376240Y-5979160D02*
G75*
G03*
X-376240Y-5979160I-20000J0D01*
G01*
X-300040Y-5674360D02*
G75*
G03*
X-300040Y-5674360I-20000J0D01*
G01*
X-300040Y-5750560D02*
G75*
G03*
X-300040Y-5750560I-20000J0D01*
G01*
X-300040Y-5826760D02*
G75*
G03*
X-300040Y-5826760I-20000J0D01*
G01*
X-300040Y-5902960D02*
G75*
G03*
X-300040Y-5902960I-20000J0D01*
G01*
X-300040Y-5979160D02*
G75*
G03*
X-300040Y-5979160I-20000J0D01*
G01*
X-223840Y-5674360D02*
G75*
G03*
X-223840Y-5674360I-20000J0D01*
G01*
X-223840Y-5750560D02*
G75*
G03*
X-223840Y-5750560I-20000J0D01*
G01*
X-223840Y-5750560D02*
G75*
G03*
X-223840Y-5750560I-20000J0D01*
G01*
X-223840Y-5826760D02*
G75*
G03*
X-223840Y-5826760I-20000J0D01*
G01*
X-223840Y-5826760D02*
G75*
G03*
X-223840Y-5826760I-20000J0D01*
G01*
X-223840Y-5902960D02*
G75*
G03*
X-223840Y-5902960I-20000J0D01*
G01*
X-223840Y-5902960D02*
G75*
G03*
X-223840Y-5902960I-20000J0D01*
G01*
X-223840Y-5979160D02*
G75*
G03*
X-223840Y-5979160I-20000J0D01*
G01*
X-223840Y-5979160D02*
G75*
G03*
X-223840Y-5979160I-20000J0D01*
G01*
X-46040Y-3383280D02*
G75*
G03*
X-46040Y-3383280I-20000J0D01*
G01*
X-46040Y-3383280D02*
G75*
G03*
X-46040Y-3383280I-20000J0D01*
G01*
X-46040Y-3459480D02*
G75*
G03*
X-46040Y-3459480I-20000J0D01*
G01*
X-46040Y-3459480D02*
G75*
G03*
X-46040Y-3459480I-20000J0D01*
G01*
X-46040Y-3535680D02*
G75*
G03*
X-46040Y-3535680I-20000J0D01*
G01*
X-46040Y-3535680D02*
G75*
G03*
X-46040Y-3535680I-20000J0D01*
G01*
X-46040Y-3611880D02*
G75*
G03*
X-46040Y-3611880I-20000J0D01*
G01*
X-46040Y-3611880D02*
G75*
G03*
X-46040Y-3611880I-20000J0D01*
G01*
X-46040Y-4145280D02*
G75*
G03*
X-46040Y-4145280I-20000J0D01*
G01*
X-46040Y-4145280D02*
G75*
G03*
X-46040Y-4145280I-20000J0D01*
G01*
X-46040Y-4221480D02*
G75*
G03*
X-46040Y-4221480I-20000J0D01*
G01*
X-46040Y-4221480D02*
G75*
G03*
X-46040Y-4221480I-20000J0D01*
G01*
X-46040Y-4297680D02*
G75*
G03*
X-46040Y-4297680I-20000J0D01*
G01*
X-46040Y-4297680D02*
G75*
G03*
X-46040Y-4297680I-20000J0D01*
G01*
X-46040Y-4373880D02*
G75*
G03*
X-46040Y-4373880I-20000J0D01*
G01*
X-46040Y-4373880D02*
G75*
G03*
X-46040Y-4373880I-20000J0D01*
G01*
X30160Y-3383280D02*
G75*
G03*
X30160Y-3383280I-20000J0D01*
G01*
X30160Y-3459480D02*
G75*
G03*
X30160Y-3459480I-20000J0D01*
G01*
X30160Y-3535680D02*
G75*
G03*
X30160Y-3535680I-20000J0D01*
G01*
X30160Y-3611880D02*
G75*
G03*
X30160Y-3611880I-20000J0D01*
G01*
X30160Y-4145280D02*
G75*
G03*
X30160Y-4145280I-20000J0D01*
G01*
X30160Y-4221480D02*
G75*
G03*
X30160Y-4221480I-20000J0D01*
G01*
X30160Y-4297680D02*
G75*
G03*
X30160Y-4297680I-20000J0D01*
G01*
X30160Y-4373880D02*
G75*
G03*
X30160Y-4373880I-20000J0D01*
G01*
X106360Y-3383280D02*
G75*
G03*
X106360Y-3383280I-20000J0D01*
G01*
X106360Y-3459480D02*
G75*
G03*
X106360Y-3459480I-20000J0D01*
G01*
X106360Y-3535680D02*
G75*
G03*
X106360Y-3535680I-20000J0D01*
G01*
X106360Y-3611880D02*
G75*
G03*
X106360Y-3611880I-20000J0D01*
G01*
X106360Y-4145280D02*
G75*
G03*
X106360Y-4145280I-20000J0D01*
G01*
X106360Y-4221480D02*
G75*
G03*
X106360Y-4221480I-20000J0D01*
G01*
X106360Y-4297680D02*
G75*
G03*
X106360Y-4297680I-20000J0D01*
G01*
X106360Y-4373880D02*
G75*
G03*
X106360Y-4373880I-20000J0D01*
G01*
X1894520Y-5379720D02*
G75*
G03*
X1894520Y-5379720I-20000J0D01*
G01*
X1894520Y-5455920D02*
G75*
G03*
X1894520Y-5455920I-20000J0D01*
G01*
X1894520Y-5532120D02*
G75*
G03*
X1894520Y-5532120I-20000J0D01*
G01*
X1922460Y-3385820D02*
G75*
G03*
X1922460Y-3385820I-20000J0D01*
G01*
X1922460Y-3385820D02*
G75*
G03*
X1922460Y-3385820I-20000J0D01*
G01*
X1922460Y-3462020D02*
G75*
G03*
X1922460Y-3462020I-20000J0D01*
G01*
X1922460Y-3462020D02*
G75*
G03*
X1922460Y-3462020I-20000J0D01*
G01*
X1922460Y-3538220D02*
G75*
G03*
X1922460Y-3538220I-20000J0D01*
G01*
X1922460Y-3538220D02*
G75*
G03*
X1922460Y-3538220I-20000J0D01*
G01*
X1922460Y-3614420D02*
G75*
G03*
X1922460Y-3614420I-20000J0D01*
G01*
X1922460Y-3614420D02*
G75*
G03*
X1922460Y-3614420I-20000J0D01*
G01*
X1922460Y-4147820D02*
G75*
G03*
X1922460Y-4147820I-20000J0D01*
G01*
X1922460Y-4147820D02*
G75*
G03*
X1922460Y-4147820I-20000J0D01*
G01*
X1922460Y-4224020D02*
G75*
G03*
X1922460Y-4224020I-20000J0D01*
G01*
X1922460Y-4224020D02*
G75*
G03*
X1922460Y-4224020I-20000J0D01*
G01*
X1922460Y-4300220D02*
G75*
G03*
X1922460Y-4300220I-20000J0D01*
G01*
X1922460Y-4300220D02*
G75*
G03*
X1922460Y-4300220I-20000J0D01*
G01*
X1922460Y-4376420D02*
G75*
G03*
X1922460Y-4376420I-20000J0D01*
G01*
X1922460Y-4376420D02*
G75*
G03*
X1922460Y-4376420I-20000J0D01*
G01*
X1970720Y-5379720D02*
G75*
G03*
X1970720Y-5379720I-20000J0D01*
G01*
X1970720Y-5455920D02*
G75*
G03*
X1970720Y-5455920I-20000J0D01*
G01*
X1970720Y-5532120D02*
G75*
G03*
X1970720Y-5532120I-20000J0D01*
G01*
X1998660Y-3385820D02*
G75*
G03*
X1998660Y-3385820I-20000J0D01*
G01*
X1998660Y-3462020D02*
G75*
G03*
X1998660Y-3462020I-20000J0D01*
G01*
X1998660Y-3538220D02*
G75*
G03*
X1998660Y-3538220I-20000J0D01*
G01*
X1998660Y-3614420D02*
G75*
G03*
X1998660Y-3614420I-20000J0D01*
G01*
X1998660Y-4147820D02*
G75*
G03*
X1998660Y-4147820I-20000J0D01*
G01*
X1998660Y-4224020D02*
G75*
G03*
X1998660Y-4224020I-20000J0D01*
G01*
X1998660Y-4300220D02*
G75*
G03*
X1998660Y-4300220I-20000J0D01*
G01*
X1998660Y-4376420D02*
G75*
G03*
X1998660Y-4376420I-20000J0D01*
G01*
X2046920Y-5379720D02*
G75*
G03*
X2046920Y-5379720I-20000J0D01*
G01*
X2046920Y-5455920D02*
G75*
G03*
X2046920Y-5455920I-20000J0D01*
G01*
X2046920Y-5532120D02*
G75*
G03*
X2046920Y-5532120I-20000J0D01*
G01*
X2074860Y-3385820D02*
G75*
G03*
X2074860Y-3385820I-20000J0D01*
G01*
X2074860Y-3462020D02*
G75*
G03*
X2074860Y-3462020I-20000J0D01*
G01*
X2074860Y-3538220D02*
G75*
G03*
X2074860Y-3538220I-20000J0D01*
G01*
X2074860Y-3614420D02*
G75*
G03*
X2074860Y-3614420I-20000J0D01*
G01*
X2074860Y-4147820D02*
G75*
G03*
X2074860Y-4147820I-20000J0D01*
G01*
X2074860Y-4224020D02*
G75*
G03*
X2074860Y-4224020I-20000J0D01*
G01*
X2074860Y-4300220D02*
G75*
G03*
X2074860Y-4300220I-20000J0D01*
G01*
X2074860Y-4376420D02*
G75*
G03*
X2074860Y-4376420I-20000J0D01*
G01*
X2656520Y-5669280D02*
G75*
G03*
X2656520Y-5669280I-20000J0D01*
G01*
X2656520Y-5745480D02*
G75*
G03*
X2656520Y-5745480I-20000J0D01*
G01*
X2656520Y-5821680D02*
G75*
G03*
X2656520Y-5821680I-20000J0D01*
G01*
X2656520Y-5897880D02*
G75*
G03*
X2656520Y-5897880I-20000J0D01*
G01*
X2656520Y-5974080D02*
G75*
G03*
X2656520Y-5974080I-20000J0D01*
G01*
X2732720Y-5669280D02*
G75*
G03*
X2732720Y-5669280I-20000J0D01*
G01*
X2732720Y-5745480D02*
G75*
G03*
X2732720Y-5745480I-20000J0D01*
G01*
X2732720Y-5821680D02*
G75*
G03*
X2732720Y-5821680I-20000J0D01*
G01*
X2732720Y-5897880D02*
G75*
G03*
X2732720Y-5897880I-20000J0D01*
G01*
X2732720Y-5974080D02*
G75*
G03*
X2732720Y-5974080I-20000J0D01*
G01*
X2808920Y-5669280D02*
G75*
G03*
X2808920Y-5669280I-20000J0D01*
G01*
X2808920Y-5745480D02*
G75*
G03*
X2808920Y-5745480I-20000J0D01*
G01*
X2808920Y-5745480D02*
G75*
G03*
X2808920Y-5745480I-20000J0D01*
G01*
X2808920Y-5821680D02*
G75*
G03*
X2808920Y-5821680I-20000J0D01*
G01*
X2808920Y-5821680D02*
G75*
G03*
X2808920Y-5821680I-20000J0D01*
G01*
X2808920Y-5897880D02*
G75*
G03*
X2808920Y-5897880I-20000J0D01*
G01*
X2808920Y-5897880D02*
G75*
G03*
X2808920Y-5897880I-20000J0D01*
G01*
X2808920Y-5974080D02*
G75*
G03*
X2808920Y-5974080I-20000J0D01*
G01*
X2808920Y-5974080D02*
G75*
G03*
X2808920Y-5974080I-20000J0D01*
G01*
X3890960Y-4145280D02*
G75*
G03*
X3890960Y-4145280I-20000J0D01*
G01*
X3890960Y-4145280D02*
G75*
G03*
X3890960Y-4145280I-20000J0D01*
G01*
X3890960Y-4221480D02*
G75*
G03*
X3890960Y-4221480I-20000J0D01*
G01*
X3890960Y-4221480D02*
G75*
G03*
X3890960Y-4221480I-20000J0D01*
G01*
X3890960Y-4297680D02*
G75*
G03*
X3890960Y-4297680I-20000J0D01*
G01*
X3890960Y-4297680D02*
G75*
G03*
X3890960Y-4297680I-20000J0D01*
G01*
X3890960Y-4373880D02*
G75*
G03*
X3890960Y-4373880I-20000J0D01*
G01*
X3890960Y-4373880D02*
G75*
G03*
X3890960Y-4373880I-20000J0D01*
G01*
X3893500Y-3380740D02*
G75*
G03*
X3893500Y-3380740I-20000J0D01*
G01*
X3893500Y-3380740D02*
G75*
G03*
X3893500Y-3380740I-20000J0D01*
G01*
X3893500Y-3456940D02*
G75*
G03*
X3893500Y-3456940I-20000J0D01*
G01*
X3893500Y-3456940D02*
G75*
G03*
X3893500Y-3456940I-20000J0D01*
G01*
X3893500Y-3533140D02*
G75*
G03*
X3893500Y-3533140I-20000J0D01*
G01*
X3893500Y-3533140D02*
G75*
G03*
X3893500Y-3533140I-20000J0D01*
G01*
X3893500Y-3609340D02*
G75*
G03*
X3893500Y-3609340I-20000J0D01*
G01*
X3893500Y-3609340D02*
G75*
G03*
X3893500Y-3609340I-20000J0D01*
G01*
X3901120Y-5745480D02*
G75*
G03*
X3901120Y-5745480I-20000J0D01*
G01*
X3901120Y-5821680D02*
G75*
G03*
X3901120Y-5821680I-20000J0D01*
G01*
X3901120Y-5897880D02*
G75*
G03*
X3901120Y-5897880I-20000J0D01*
G01*
X3967160Y-4145280D02*
G75*
G03*
X3967160Y-4145280I-20000J0D01*
G01*
X3967160Y-4221480D02*
G75*
G03*
X3967160Y-4221480I-20000J0D01*
G01*
X3967160Y-4297680D02*
G75*
G03*
X3967160Y-4297680I-20000J0D01*
G01*
X3967160Y-4373880D02*
G75*
G03*
X3967160Y-4373880I-20000J0D01*
G01*
X3969700Y-3380740D02*
G75*
G03*
X3969700Y-3380740I-20000J0D01*
G01*
X3969700Y-3456940D02*
G75*
G03*
X3969700Y-3456940I-20000J0D01*
G01*
X3969700Y-3533140D02*
G75*
G03*
X3969700Y-3533140I-20000J0D01*
G01*
X3969700Y-3609340D02*
G75*
G03*
X3969700Y-3609340I-20000J0D01*
G01*
X3977320Y-5745480D02*
G75*
G03*
X3977320Y-5745480I-20000J0D01*
G01*
X3977320Y-5745480D02*
G75*
G03*
X3977320Y-5745480I-20000J0D01*
G01*
X3977320Y-5821680D02*
G75*
G03*
X3977320Y-5821680I-20000J0D01*
G01*
X3977320Y-5897880D02*
G75*
G03*
X3977320Y-5897880I-20000J0D01*
G01*
X4043360Y-4145280D02*
G75*
G03*
X4043360Y-4145280I-20000J0D01*
G01*
X4043360Y-4221480D02*
G75*
G03*
X4043360Y-4221480I-20000J0D01*
G01*
X4043360Y-4297680D02*
G75*
G03*
X4043360Y-4297680I-20000J0D01*
G01*
X4043360Y-4373880D02*
G75*
G03*
X4043360Y-4373880I-20000J0D01*
G01*
X4045900Y-3380740D02*
G75*
G03*
X4045900Y-3380740I-20000J0D01*
G01*
X4045900Y-3456940D02*
G75*
G03*
X4045900Y-3456940I-20000J0D01*
G01*
X4045900Y-3533140D02*
G75*
G03*
X4045900Y-3533140I-20000J0D01*
G01*
X4045900Y-3609340D02*
G75*
G03*
X4045900Y-3609340I-20000J0D01*
G01*
X4053520Y-5745480D02*
G75*
G03*
X4053520Y-5745480I-20000J0D01*
G01*
X4053520Y-5745480D02*
G75*
G03*
X4053520Y-5745480I-20000J0D01*
G01*
X4053520Y-5821680D02*
G75*
G03*
X4053520Y-5821680I-20000J0D01*
G01*
X4053520Y-5897880D02*
G75*
G03*
X4053520Y-5897880I-20000J0D01*
G01*
X4129720Y-5745480D02*
G75*
G03*
X4129720Y-5745480I-20000J0D01*
G01*
X4129720Y-5745480D02*
G75*
G03*
X4129720Y-5745480I-20000J0D01*
G01*
X4129720Y-5821680D02*
G75*
G03*
X4129720Y-5821680I-20000J0D01*
G01*
X4129720Y-5897880D02*
G75*
G03*
X4129720Y-5897880I-20000J0D01*
G01*
X4205920Y-5745480D02*
G75*
G03*
X4205920Y-5745480I-20000J0D01*
G01*
X4205920Y-5745480D02*
G75*
G03*
X4205920Y-5745480I-20000J0D01*
G01*
X4205920Y-5821680D02*
G75*
G03*
X4205920Y-5821680I-20000J0D01*
G01*
X4205920Y-5897880D02*
G75*
G03*
X4205920Y-5897880I-20000J0D01*
G01*
X290620Y947820D02*
X290620Y892820D01*
X263120Y920320D02*
X318120Y920320D01*
X318120Y872820D02*
X318120Y967820D01*
X318120Y967820D02*
G75*
G03*
X263120Y967820I-27500J0D01*
G01*
X263120Y967820D02*
X263120Y872820D01*
X263120Y872820D02*
G75*
G03*
X318120Y872820I27500J0D01*
G01*
X290620Y55820D02*
X290620Y820D01*
X263120Y28320D02*
X318120Y28320D01*
X318120Y-19180D02*
X318120Y75820D01*
X318120Y75820D02*
G75*
G03*
X263120Y75820I-27500J0D01*
G01*
X263120Y75820D02*
X263120Y-19180D01*
X263120Y-19180D02*
G75*
G03*
X318120Y-19180I27500J0D01*
G01*
X1375620Y947820D02*
X1375620Y892820D01*
X1348120Y920320D02*
X1403120Y920320D01*
X1403120Y872820D02*
X1403120Y967820D01*
X1403120Y967820D02*
G75*
G03*
X1348120Y967820I-27500J0D01*
G01*
X1348120Y967820D02*
X1348120Y872820D01*
X1348120Y872820D02*
G75*
G03*
X1403120Y872820I27500J0D01*
G01*
X1375620Y55820D02*
X1375620Y820D01*
X1348120Y28320D02*
X1403120Y28320D01*
X1403120Y-19180D02*
X1403120Y75820D01*
X1403120Y75820D02*
G75*
G03*
X1348120Y75820I-27500J0D01*
G01*
X1348120Y75820D02*
X1348120Y-19180D01*
X1348120Y-19180D02*
G75*
G03*
X1403120Y-19180I27500J0D01*
G01*
X2793353Y-22953D02*
X2793353Y19473D01*
X2750927Y19473D01*
X2750927Y-22953D01*
X2793353Y-22953D01*
X2918353Y-22953D02*
X2918353Y19473D01*
X2875927Y19473D01*
X2875927Y-22953D01*
X2918353Y-22953D01*
X4595133Y846607D02*
X4595133Y889033D01*
X4552707Y889033D01*
X4552707Y846607D01*
X4595133Y846607D01*
X4965133Y596607D02*
X4965133Y639033D01*
X4922707Y639033D01*
X4922707Y596607D01*
X4965133Y596607D01*
X4343920Y297820D02*
X4383920Y337820D01*
X4343920Y377820D01*
X4303920Y337820D01*
X4343920Y297820D01*
X-2417280Y913600D02*
X-2317280Y813600D01*
X-2317280Y913600D02*
X-2417280Y813600D01*
X-2317280Y863600D02*
G75*
G03*
X-2317280Y863600I-50000J0D01*
G01*
X-2417280Y-186400D02*
X-2317280Y-286400D01*
X-2317280Y-186400D02*
X-2417280Y-286400D01*
X-2317280Y-236400D02*
G75*
G03*
X-2317280Y-236400I-50000J0D01*
G01*
X714540Y-5418620D02*
X814540Y-5518620D01*
X814540Y-5418620D02*
X714540Y-5518620D01*
X814540Y-5468620D02*
G75*
G03*
X814540Y-5468620I-50000J0D01*
G01*
X714540Y-5672620D02*
X814540Y-5772620D01*
X814540Y-5672620D02*
X714540Y-5772620D01*
X814540Y-5722620D02*
G75*
G03*
X814540Y-5722620I-50000J0D01*
G01*
X3569500Y-5413540D02*
X3669500Y-5513540D01*
X3669500Y-5413540D02*
X3569500Y-5513540D01*
X3669500Y-5463540D02*
G75*
G03*
X3669500Y-5463540I-50000J0D01*
G01*
X3569500Y-5667540D02*
X3669500Y-5767540D01*
X3669500Y-5667540D02*
X3569500Y-5767540D01*
X3669500Y-5717540D02*
G75*
G03*
X3669500Y-5717540I-50000J0D01*
G01*
X4847120Y913600D02*
X4947120Y813600D01*
X4947120Y913600D02*
X4847120Y813600D01*
X4947120Y863600D02*
G75*
G03*
X4947120Y863600I-50000J0D01*
G01*
X4847120Y-186400D02*
X4947120Y-286400D01*
X4947120Y-186400D02*
X4847120Y-286400D01*
X4947120Y-236400D02*
G75*
G03*
X4947120Y-236400I-50000J0D01*
G01*
D12*
X-1962280Y658600D02*
X-1772280Y468600D01*
X-1772280Y658600D02*
X-1962280Y468600D01*
X-1867280Y658600D02*
X-1867280Y468600D01*
X-1962280Y563600D02*
X-1772280Y563600D01*
X-1962280Y158600D02*
X-1772280Y-31400D01*
X-1772280Y158600D02*
X-1962280Y-31400D01*
X-1867280Y158600D02*
X-1867280Y-31400D01*
X-1962280Y63600D02*
X-1772280Y63600D01*
X3802120Y658600D02*
X3992120Y468600D01*
X3992120Y658600D02*
X3802120Y468600D01*
X3897120Y658600D02*
X3897120Y468600D01*
X3802120Y563600D02*
X3992120Y563600D01*
X3802120Y158600D02*
X3992120Y-31400D01*
X3992120Y158600D02*
X3802120Y-31400D01*
X3897120Y158600D02*
X3897120Y-31400D01*
X3802120Y63600D02*
X3992120Y63600D01*
D11*
X-2416453Y-6493384D02*
X-2416453Y-6293384D01*
X-2416453Y-6293384D02*
X-2368834Y-6293384D01*
X-2368834Y-6293384D02*
X-2340263Y-6302908D01*
X-2340263Y-6302908D02*
X-2321215Y-6321955D01*
X-2321215Y-6321955D02*
X-2311691Y-6341003D01*
X-2311691Y-6341003D02*
X-2302168Y-6379098D01*
X-2302168Y-6379098D02*
X-2302168Y-6407669D01*
X-2302168Y-6407669D02*
X-2311691Y-6445765D01*
X-2311691Y-6445765D02*
X-2321215Y-6464812D01*
X-2321215Y-6464812D02*
X-2340263Y-6483860D01*
X-2340263Y-6483860D02*
X-2368834Y-6493384D01*
X-2368834Y-6493384D02*
X-2416453Y-6493384D01*
X-2216453Y-6493384D02*
X-2216453Y-6360050D01*
X-2216453Y-6398146D02*
X-2206929Y-6379098D01*
X-2206929Y-6379098D02*
X-2197406Y-6369574D01*
X-2197406Y-6369574D02*
X-2178358Y-6360050D01*
X-2178358Y-6360050D02*
X-2159310Y-6360050D01*
X-2092644Y-6493384D02*
X-2092644Y-6360050D01*
X-2092644Y-6293384D02*
X-2102168Y-6302908D01*
X-2102168Y-6302908D02*
X-2092644Y-6312431D01*
X-2092644Y-6312431D02*
X-2083120Y-6302908D01*
X-2083120Y-6302908D02*
X-2092644Y-6293384D01*
X-2092644Y-6293384D02*
X-2092644Y-6312431D01*
X-1968834Y-6493384D02*
X-1987882Y-6483860D01*
X-1987882Y-6483860D02*
X-1997406Y-6464812D01*
X-1997406Y-6464812D02*
X-1997406Y-6293384D01*
X-1864072Y-6493384D02*
X-1883120Y-6483860D01*
X-1883120Y-6483860D02*
X-1892644Y-6464812D01*
X-1892644Y-6464812D02*
X-1892644Y-6293384D01*
X-1635501Y-6493384D02*
X-1635501Y-6293384D01*
X-1635501Y-6293384D02*
X-1568834Y-6436241D01*
X-1568834Y-6436241D02*
X-1502167Y-6293384D01*
X-1502167Y-6293384D02*
X-1502167Y-6493384D01*
X-1321215Y-6493384D02*
X-1321215Y-6388622D01*
X-1321215Y-6388622D02*
X-1330739Y-6369574D01*
X-1330739Y-6369574D02*
X-1349787Y-6360050D01*
X-1349787Y-6360050D02*
X-1387882Y-6360050D01*
X-1387882Y-6360050D02*
X-1406929Y-6369574D01*
X-1321215Y-6483860D02*
X-1340263Y-6493384D01*
X-1340263Y-6493384D02*
X-1387882Y-6493384D01*
X-1387882Y-6493384D02*
X-1406929Y-6483860D01*
X-1406929Y-6483860D02*
X-1416453Y-6464812D01*
X-1416453Y-6464812D02*
X-1416453Y-6445765D01*
X-1416453Y-6445765D02*
X-1406929Y-6426717D01*
X-1406929Y-6426717D02*
X-1387882Y-6417193D01*
X-1387882Y-6417193D02*
X-1340263Y-6417193D01*
X-1340263Y-6417193D02*
X-1321215Y-6407669D01*
X-1225977Y-6360050D02*
X-1225977Y-6560050D01*
X-1225977Y-6369574D02*
X-1206929Y-6360050D01*
X-1206929Y-6360050D02*
X-1168834Y-6360050D01*
X-1168834Y-6360050D02*
X-1149787Y-6369574D01*
X-1149787Y-6369574D02*
X-1140263Y-6379098D01*
X-1140263Y-6379098D02*
X-1130739Y-6398146D01*
X-1130739Y-6398146D02*
X-1130739Y-6455288D01*
X-1130739Y-6455288D02*
X-1140263Y-6474336D01*
X-1140263Y-6474336D02*
X-1149787Y-6483860D01*
X-1149787Y-6483860D02*
X-1168834Y-6493384D01*
X-1168834Y-6493384D02*
X-1206929Y-6493384D01*
X-1206929Y-6493384D02*
X-1225977Y-6483860D01*
X-1045025Y-6474336D02*
X-1035501Y-6483860D01*
X-1035501Y-6483860D02*
X-1045025Y-6493384D01*
X-1045025Y-6493384D02*
X-1054548Y-6483860D01*
X-1054548Y-6483860D02*
X-1045025Y-6474336D01*
X-1045025Y-6474336D02*
X-1045025Y-6493384D01*
X-1045025Y-6369574D02*
X-1035501Y-6379098D01*
X-1035501Y-6379098D02*
X-1045025Y-6388622D01*
X-1045025Y-6388622D02*
X-1054548Y-6379098D01*
X-1054548Y-6379098D02*
X-1045025Y-6369574D01*
X-1045025Y-6369574D02*
X-1045025Y-6388622D01*
D10*
X-2712230Y-6804400D02*
X-2677230Y-6839400D01*
X-2677230Y-6804400D02*
X-2712230Y-6839400D01*
D11*
X-2378358Y-6713384D02*
X-2359310Y-6713384D01*
X-2359310Y-6713384D02*
X-2340263Y-6722908D01*
X-2340263Y-6722908D02*
X-2330739Y-6732431D01*
X-2330739Y-6732431D02*
X-2321215Y-6751479D01*
X-2321215Y-6751479D02*
X-2311691Y-6789574D01*
X-2311691Y-6789574D02*
X-2311691Y-6837193D01*
X-2311691Y-6837193D02*
X-2321215Y-6875288D01*
X-2321215Y-6875288D02*
X-2330739Y-6894336D01*
X-2330739Y-6894336D02*
X-2340263Y-6903860D01*
X-2340263Y-6903860D02*
X-2359310Y-6913384D01*
X-2359310Y-6913384D02*
X-2378358Y-6913384D01*
X-2378358Y-6913384D02*
X-2397406Y-6903860D01*
X-2397406Y-6903860D02*
X-2406929Y-6894336D01*
X-2406929Y-6894336D02*
X-2416453Y-6875288D01*
X-2416453Y-6875288D02*
X-2425977Y-6837193D01*
X-2425977Y-6837193D02*
X-2425977Y-6789574D01*
X-2425977Y-6789574D02*
X-2416453Y-6751479D01*
X-2416453Y-6751479D02*
X-2406929Y-6732431D01*
X-2406929Y-6732431D02*
X-2397406Y-6722908D01*
X-2397406Y-6722908D02*
X-2378358Y-6713384D01*
X-2225977Y-6894336D02*
X-2216453Y-6903860D01*
X-2216453Y-6903860D02*
X-2225977Y-6913384D01*
X-2225977Y-6913384D02*
X-2235501Y-6903860D01*
X-2235501Y-6903860D02*
X-2225977Y-6894336D01*
X-2225977Y-6894336D02*
X-2225977Y-6913384D01*
X-2149787Y-6713384D02*
X-2025977Y-6713384D01*
X-2025977Y-6713384D02*
X-2092644Y-6789574D01*
X-2092644Y-6789574D02*
X-2064072Y-6789574D01*
X-2064072Y-6789574D02*
X-2045025Y-6799098D01*
X-2045025Y-6799098D02*
X-2035501Y-6808622D01*
X-2035501Y-6808622D02*
X-2025977Y-6827669D01*
X-2025977Y-6827669D02*
X-2025977Y-6875288D01*
X-2025977Y-6875288D02*
X-2035501Y-6894336D01*
X-2035501Y-6894336D02*
X-2045025Y-6903860D01*
X-2045025Y-6903860D02*
X-2064072Y-6913384D01*
X-2064072Y-6913384D02*
X-2121215Y-6913384D01*
X-2121215Y-6913384D02*
X-2140263Y-6903860D01*
X-2140263Y-6903860D02*
X-2149787Y-6894336D01*
X-1845025Y-6713384D02*
X-1940263Y-6713384D01*
X-1940263Y-6713384D02*
X-1949786Y-6808622D01*
X-1949786Y-6808622D02*
X-1940263Y-6799098D01*
X-1940263Y-6799098D02*
X-1921215Y-6789574D01*
X-1921215Y-6789574D02*
X-1873596Y-6789574D01*
X-1873596Y-6789574D02*
X-1854548Y-6799098D01*
X-1854548Y-6799098D02*
X-1845025Y-6808622D01*
X-1845025Y-6808622D02*
X-1835501Y-6827669D01*
X-1835501Y-6827669D02*
X-1835501Y-6875288D01*
X-1835501Y-6875288D02*
X-1845025Y-6894336D01*
X-1845025Y-6894336D02*
X-1854548Y-6903860D01*
X-1854548Y-6903860D02*
X-1873596Y-6913384D01*
X-1873596Y-6913384D02*
X-1921215Y-6913384D01*
X-1921215Y-6913384D02*
X-1940263Y-6903860D01*
X-1940263Y-6903860D02*
X-1949786Y-6894336D01*
X-1711691Y-6713384D02*
X-1692644Y-6713384D01*
X-1692644Y-6713384D02*
X-1673596Y-6722908D01*
X-1673596Y-6722908D02*
X-1664072Y-6732431D01*
X-1664072Y-6732431D02*
X-1654548Y-6751479D01*
X-1654548Y-6751479D02*
X-1645025Y-6789574D01*
X-1645025Y-6789574D02*
X-1645025Y-6837193D01*
X-1645025Y-6837193D02*
X-1654548Y-6875288D01*
X-1654548Y-6875288D02*
X-1664072Y-6894336D01*
X-1664072Y-6894336D02*
X-1673596Y-6903860D01*
X-1673596Y-6903860D02*
X-1692644Y-6913384D01*
X-1692644Y-6913384D02*
X-1711691Y-6913384D01*
X-1711691Y-6913384D02*
X-1730739Y-6903860D01*
X-1730739Y-6903860D02*
X-1740263Y-6894336D01*
X-1740263Y-6894336D02*
X-1749786Y-6875288D01*
X-1749786Y-6875288D02*
X-1759310Y-6837193D01*
X-1759310Y-6837193D02*
X-1759310Y-6789574D01*
X-1759310Y-6789574D02*
X-1749786Y-6751479D01*
X-1749786Y-6751479D02*
X-1740263Y-6732431D01*
X-1740263Y-6732431D02*
X-1730739Y-6722908D01*
X-1730739Y-6722908D02*
X-1711691Y-6713384D01*
X-1559310Y-6913384D02*
X-1559310Y-6780050D01*
X-1559310Y-6799098D02*
X-1549786Y-6789574D01*
X-1549786Y-6789574D02*
X-1530739Y-6780050D01*
X-1530739Y-6780050D02*
X-1502167Y-6780050D01*
X-1502167Y-6780050D02*
X-1483120Y-6789574D01*
X-1483120Y-6789574D02*
X-1473596Y-6808622D01*
X-1473596Y-6808622D02*
X-1473596Y-6913384D01*
X-1473596Y-6808622D02*
X-1464072Y-6789574D01*
X-1464072Y-6789574D02*
X-1445025Y-6780050D01*
X-1445025Y-6780050D02*
X-1416453Y-6780050D01*
X-1416453Y-6780050D02*
X-1397406Y-6789574D01*
X-1397406Y-6789574D02*
X-1387882Y-6808622D01*
X-1387882Y-6808622D02*
X-1387882Y-6913384D01*
X-1292644Y-6913384D02*
X-1292644Y-6780050D01*
X-1292644Y-6799098D02*
X-1283120Y-6789574D01*
X-1283120Y-6789574D02*
X-1264072Y-6780050D01*
X-1264072Y-6780050D02*
X-1235501Y-6780050D01*
X-1235501Y-6780050D02*
X-1216453Y-6789574D01*
X-1216453Y-6789574D02*
X-1206929Y-6808622D01*
X-1206929Y-6808622D02*
X-1206929Y-6913384D01*
X-1206929Y-6808622D02*
X-1197406Y-6789574D01*
X-1197406Y-6789574D02*
X-1178358Y-6780050D01*
X-1178358Y-6780050D02*
X-1149787Y-6780050D01*
X-1149787Y-6780050D02*
X-1130739Y-6789574D01*
X-1130739Y-6789574D02*
X-1121215Y-6808622D01*
X-1121215Y-6808622D02*
X-1121215Y-6913384D01*
X-730739Y-6703860D02*
X-902167Y-6961003D01*
X-473596Y-6713384D02*
X-454548Y-6713384D01*
X-454548Y-6713384D02*
X-435501Y-6722908D01*
X-435501Y-6722908D02*
X-425977Y-6732431D01*
X-425977Y-6732431D02*
X-416453Y-6751479D01*
X-416453Y-6751479D02*
X-406929Y-6789574D01*
X-406929Y-6789574D02*
X-406929Y-6837193D01*
X-406929Y-6837193D02*
X-416453Y-6875288D01*
X-416453Y-6875288D02*
X-425977Y-6894336D01*
X-425977Y-6894336D02*
X-435501Y-6903860D01*
X-435501Y-6903860D02*
X-454548Y-6913384D01*
X-454548Y-6913384D02*
X-473596Y-6913384D01*
X-473596Y-6913384D02*
X-492643Y-6903860D01*
X-492643Y-6903860D02*
X-502167Y-6894336D01*
X-502167Y-6894336D02*
X-511691Y-6875288D01*
X-511691Y-6875288D02*
X-521215Y-6837193D01*
X-521215Y-6837193D02*
X-521215Y-6789574D01*
X-521215Y-6789574D02*
X-511691Y-6751479D01*
X-511691Y-6751479D02*
X-502167Y-6732431D01*
X-502167Y-6732431D02*
X-492643Y-6722908D01*
X-492643Y-6722908D02*
X-473596Y-6713384D01*
X-321215Y-6894336D02*
X-311691Y-6903860D01*
X-311691Y-6903860D02*
X-321215Y-6913384D01*
X-321215Y-6913384D02*
X-330739Y-6903860D01*
X-330739Y-6903860D02*
X-321215Y-6894336D01*
X-321215Y-6894336D02*
X-321215Y-6913384D01*
X-187882Y-6713384D02*
X-168834Y-6713384D01*
X-168834Y-6713384D02*
X-149786Y-6722908D01*
X-149786Y-6722908D02*
X-140263Y-6732431D01*
X-140263Y-6732431D02*
X-130739Y-6751479D01*
X-130739Y-6751479D02*
X-121215Y-6789574D01*
X-121215Y-6789574D02*
X-121215Y-6837193D01*
X-121215Y-6837193D02*
X-130739Y-6875288D01*
X-130739Y-6875288D02*
X-140263Y-6894336D01*
X-140263Y-6894336D02*
X-149786Y-6903860D01*
X-149786Y-6903860D02*
X-168834Y-6913384D01*
X-168834Y-6913384D02*
X-187882Y-6913384D01*
X-187882Y-6913384D02*
X-206929Y-6903860D01*
X-206929Y-6903860D02*
X-216453Y-6894336D01*
X-216453Y-6894336D02*
X-225977Y-6875288D01*
X-225977Y-6875288D02*
X-235501Y-6837193D01*
X-235501Y-6837193D02*
X-235501Y-6789574D01*
X-235501Y-6789574D02*
X-225977Y-6751479D01*
X-225977Y-6751479D02*
X-216453Y-6732431D01*
X-216453Y-6732431D02*
X-206929Y-6722908D01*
X-206929Y-6722908D02*
X-187882Y-6713384D01*
X69261Y-6913384D02*
X-45024Y-6913384D01*
X12118Y-6913384D02*
X12118Y-6713384D01*
X12118Y-6713384D02*
X-6929Y-6741955D01*
X-6929Y-6741955D02*
X-25977Y-6761003D01*
X-25977Y-6761003D02*
X-45024Y-6770527D01*
X135928Y-6713384D02*
X259737Y-6713384D01*
X259737Y-6713384D02*
X193071Y-6789574D01*
X193071Y-6789574D02*
X221642Y-6789574D01*
X221642Y-6789574D02*
X240690Y-6799098D01*
X240690Y-6799098D02*
X250214Y-6808622D01*
X250214Y-6808622D02*
X259737Y-6827669D01*
X259737Y-6827669D02*
X259737Y-6875288D01*
X259737Y-6875288D02*
X250214Y-6894336D01*
X250214Y-6894336D02*
X240690Y-6903860D01*
X240690Y-6903860D02*
X221642Y-6913384D01*
X221642Y-6913384D02*
X164499Y-6913384D01*
X164499Y-6913384D02*
X145452Y-6903860D01*
X145452Y-6903860D02*
X135928Y-6894336D01*
X374023Y-6799098D02*
X354976Y-6789574D01*
X354976Y-6789574D02*
X345452Y-6780050D01*
X345452Y-6780050D02*
X335928Y-6761003D01*
X335928Y-6761003D02*
X335928Y-6751479D01*
X335928Y-6751479D02*
X345452Y-6732431D01*
X345452Y-6732431D02*
X354976Y-6722908D01*
X354976Y-6722908D02*
X374023Y-6713384D01*
X374023Y-6713384D02*
X412118Y-6713384D01*
X412118Y-6713384D02*
X431166Y-6722908D01*
X431166Y-6722908D02*
X440690Y-6732431D01*
X440690Y-6732431D02*
X450214Y-6751479D01*
X450214Y-6751479D02*
X450214Y-6761003D01*
X450214Y-6761003D02*
X440690Y-6780050D01*
X440690Y-6780050D02*
X431166Y-6789574D01*
X431166Y-6789574D02*
X412118Y-6799098D01*
X412118Y-6799098D02*
X374023Y-6799098D01*
X374023Y-6799098D02*
X354976Y-6808622D01*
X354976Y-6808622D02*
X345452Y-6818146D01*
X345452Y-6818146D02*
X335928Y-6837193D01*
X335928Y-6837193D02*
X335928Y-6875288D01*
X335928Y-6875288D02*
X345452Y-6894336D01*
X345452Y-6894336D02*
X354976Y-6903860D01*
X354976Y-6903860D02*
X374023Y-6913384D01*
X374023Y-6913384D02*
X412118Y-6913384D01*
X412118Y-6913384D02*
X431166Y-6903860D01*
X431166Y-6903860D02*
X440690Y-6894336D01*
X440690Y-6894336D02*
X450214Y-6875288D01*
X450214Y-6875288D02*
X450214Y-6837193D01*
X450214Y-6837193D02*
X440690Y-6818146D01*
X440690Y-6818146D02*
X431166Y-6808622D01*
X431166Y-6808622D02*
X412118Y-6799098D01*
X526404Y-6713384D02*
X526404Y-6751479D01*
X602595Y-6713384D02*
X602595Y-6751479D01*
X897833Y-6989574D02*
X888309Y-6980050D01*
X888309Y-6980050D02*
X869261Y-6951479D01*
X869261Y-6951479D02*
X859738Y-6932431D01*
X859738Y-6932431D02*
X850214Y-6903860D01*
X850214Y-6903860D02*
X840690Y-6856241D01*
X840690Y-6856241D02*
X840690Y-6818146D01*
X840690Y-6818146D02*
X850214Y-6770527D01*
X850214Y-6770527D02*
X859738Y-6741955D01*
X859738Y-6741955D02*
X869261Y-6722908D01*
X869261Y-6722908D02*
X888309Y-6694336D01*
X888309Y-6694336D02*
X897833Y-6684812D01*
X1078785Y-6913384D02*
X964499Y-6913384D01*
X1021642Y-6913384D02*
X1021642Y-6713384D01*
X1021642Y-6713384D02*
X1002595Y-6741955D01*
X1002595Y-6741955D02*
X983547Y-6761003D01*
X983547Y-6761003D02*
X964499Y-6770527D01*
X1193071Y-6799098D02*
X1174023Y-6789574D01*
X1174023Y-6789574D02*
X1164500Y-6780050D01*
X1164500Y-6780050D02*
X1154976Y-6761003D01*
X1154976Y-6761003D02*
X1154976Y-6751479D01*
X1154976Y-6751479D02*
X1164500Y-6732431D01*
X1164500Y-6732431D02*
X1174023Y-6722908D01*
X1174023Y-6722908D02*
X1193071Y-6713384D01*
X1193071Y-6713384D02*
X1231166Y-6713384D01*
X1231166Y-6713384D02*
X1250214Y-6722908D01*
X1250214Y-6722908D02*
X1259738Y-6732431D01*
X1259738Y-6732431D02*
X1269261Y-6751479D01*
X1269261Y-6751479D02*
X1269261Y-6761003D01*
X1269261Y-6761003D02*
X1259738Y-6780050D01*
X1259738Y-6780050D02*
X1250214Y-6789574D01*
X1250214Y-6789574D02*
X1231166Y-6799098D01*
X1231166Y-6799098D02*
X1193071Y-6799098D01*
X1193071Y-6799098D02*
X1174023Y-6808622D01*
X1174023Y-6808622D02*
X1164500Y-6818146D01*
X1164500Y-6818146D02*
X1154976Y-6837193D01*
X1154976Y-6837193D02*
X1154976Y-6875288D01*
X1154976Y-6875288D02*
X1164500Y-6894336D01*
X1164500Y-6894336D02*
X1174023Y-6903860D01*
X1174023Y-6903860D02*
X1193071Y-6913384D01*
X1193071Y-6913384D02*
X1231166Y-6913384D01*
X1231166Y-6913384D02*
X1250214Y-6903860D01*
X1250214Y-6903860D02*
X1259738Y-6894336D01*
X1259738Y-6894336D02*
X1269261Y-6875288D01*
X1269261Y-6875288D02*
X1269261Y-6837193D01*
X1269261Y-6837193D02*
X1259738Y-6818146D01*
X1259738Y-6818146D02*
X1250214Y-6808622D01*
X1250214Y-6808622D02*
X1231166Y-6799098D01*
X1345452Y-6732431D02*
X1354976Y-6722908D01*
X1354976Y-6722908D02*
X1374023Y-6713384D01*
X1374023Y-6713384D02*
X1421642Y-6713384D01*
X1421642Y-6713384D02*
X1440690Y-6722908D01*
X1440690Y-6722908D02*
X1450214Y-6732431D01*
X1450214Y-6732431D02*
X1459738Y-6751479D01*
X1459738Y-6751479D02*
X1459738Y-6770527D01*
X1459738Y-6770527D02*
X1450214Y-6799098D01*
X1450214Y-6799098D02*
X1335928Y-6913384D01*
X1335928Y-6913384D02*
X1459738Y-6913384D01*
X1697833Y-6913384D02*
X1697833Y-6713384D01*
X1783547Y-6913384D02*
X1783547Y-6808622D01*
X1783547Y-6808622D02*
X1774023Y-6789574D01*
X1774023Y-6789574D02*
X1754976Y-6780050D01*
X1754976Y-6780050D02*
X1726404Y-6780050D01*
X1726404Y-6780050D02*
X1707357Y-6789574D01*
X1707357Y-6789574D02*
X1697833Y-6799098D01*
X1907357Y-6913384D02*
X1888309Y-6903860D01*
X1888309Y-6903860D02*
X1878785Y-6894336D01*
X1878785Y-6894336D02*
X1869261Y-6875288D01*
X1869261Y-6875288D02*
X1869261Y-6818146D01*
X1869261Y-6818146D02*
X1878785Y-6799098D01*
X1878785Y-6799098D02*
X1888309Y-6789574D01*
X1888309Y-6789574D02*
X1907357Y-6780050D01*
X1907357Y-6780050D02*
X1935928Y-6780050D01*
X1935928Y-6780050D02*
X1954976Y-6789574D01*
X1954976Y-6789574D02*
X1964500Y-6799098D01*
X1964500Y-6799098D02*
X1974023Y-6818146D01*
X1974023Y-6818146D02*
X1974023Y-6875288D01*
X1974023Y-6875288D02*
X1964500Y-6894336D01*
X1964500Y-6894336D02*
X1954976Y-6903860D01*
X1954976Y-6903860D02*
X1935928Y-6913384D01*
X1935928Y-6913384D02*
X1907357Y-6913384D01*
X2088309Y-6913384D02*
X2069261Y-6903860D01*
X2069261Y-6903860D02*
X2059738Y-6884812D01*
X2059738Y-6884812D02*
X2059738Y-6713384D01*
X2240690Y-6903860D02*
X2221643Y-6913384D01*
X2221643Y-6913384D02*
X2183547Y-6913384D01*
X2183547Y-6913384D02*
X2164500Y-6903860D01*
X2164500Y-6903860D02*
X2154976Y-6884812D01*
X2154976Y-6884812D02*
X2154976Y-6808622D01*
X2154976Y-6808622D02*
X2164500Y-6789574D01*
X2164500Y-6789574D02*
X2183547Y-6780050D01*
X2183547Y-6780050D02*
X2221643Y-6780050D01*
X2221643Y-6780050D02*
X2240690Y-6789574D01*
X2240690Y-6789574D02*
X2250214Y-6808622D01*
X2250214Y-6808622D02*
X2250214Y-6827669D01*
X2250214Y-6827669D02*
X2154976Y-6846717D01*
X2326404Y-6903860D02*
X2345452Y-6913384D01*
X2345452Y-6913384D02*
X2383547Y-6913384D01*
X2383547Y-6913384D02*
X2402595Y-6903860D01*
X2402595Y-6903860D02*
X2412119Y-6884812D01*
X2412119Y-6884812D02*
X2412119Y-6875288D01*
X2412119Y-6875288D02*
X2402595Y-6856241D01*
X2402595Y-6856241D02*
X2383547Y-6846717D01*
X2383547Y-6846717D02*
X2354976Y-6846717D01*
X2354976Y-6846717D02*
X2335928Y-6837193D01*
X2335928Y-6837193D02*
X2326404Y-6818146D01*
X2326404Y-6818146D02*
X2326404Y-6808622D01*
X2326404Y-6808622D02*
X2335928Y-6789574D01*
X2335928Y-6789574D02*
X2354976Y-6780050D01*
X2354976Y-6780050D02*
X2383547Y-6780050D01*
X2383547Y-6780050D02*
X2402595Y-6789574D01*
X2478785Y-6989574D02*
X2488309Y-6980050D01*
X2488309Y-6980050D02*
X2507357Y-6951479D01*
X2507357Y-6951479D02*
X2516881Y-6932431D01*
X2516881Y-6932431D02*
X2526404Y-6903860D01*
X2526404Y-6903860D02*
X2535928Y-6856241D01*
X2535928Y-6856241D02*
X2535928Y-6818146D01*
X2535928Y-6818146D02*
X2526404Y-6770527D01*
X2526404Y-6770527D02*
X2516881Y-6741955D01*
X2516881Y-6741955D02*
X2507357Y-6722908D01*
X2507357Y-6722908D02*
X2488309Y-6694336D01*
X2488309Y-6694336D02*
X2478785Y-6684812D01*
D10*
X-2677230Y-7085900D02*
G75*
G03*
X-2677230Y-7085900I-20000J0D01*
G01*
D11*
X-2378358Y-6977384D02*
X-2359310Y-6977384D01*
X-2359310Y-6977384D02*
X-2340263Y-6986908D01*
X-2340263Y-6986908D02*
X-2330739Y-6996431D01*
X-2330739Y-6996431D02*
X-2321215Y-7015479D01*
X-2321215Y-7015479D02*
X-2311691Y-7053574D01*
X-2311691Y-7053574D02*
X-2311691Y-7101193D01*
X-2311691Y-7101193D02*
X-2321215Y-7139288D01*
X-2321215Y-7139288D02*
X-2330739Y-7158336D01*
X-2330739Y-7158336D02*
X-2340263Y-7167860D01*
X-2340263Y-7167860D02*
X-2359310Y-7177384D01*
X-2359310Y-7177384D02*
X-2378358Y-7177384D01*
X-2378358Y-7177384D02*
X-2397406Y-7167860D01*
X-2397406Y-7167860D02*
X-2406929Y-7158336D01*
X-2406929Y-7158336D02*
X-2416453Y-7139288D01*
X-2416453Y-7139288D02*
X-2425977Y-7101193D01*
X-2425977Y-7101193D02*
X-2425977Y-7053574D01*
X-2425977Y-7053574D02*
X-2416453Y-7015479D01*
X-2416453Y-7015479D02*
X-2406929Y-6996431D01*
X-2406929Y-6996431D02*
X-2397406Y-6986908D01*
X-2397406Y-6986908D02*
X-2378358Y-6977384D01*
X-2225977Y-7158336D02*
X-2216453Y-7167860D01*
X-2216453Y-7167860D02*
X-2225977Y-7177384D01*
X-2225977Y-7177384D02*
X-2235501Y-7167860D01*
X-2235501Y-7167860D02*
X-2225977Y-7158336D01*
X-2225977Y-7158336D02*
X-2225977Y-7177384D01*
X-2045025Y-7044050D02*
X-2045025Y-7177384D01*
X-2092644Y-6967860D02*
X-2140263Y-7110717D01*
X-2140263Y-7110717D02*
X-2016453Y-7110717D01*
X-1902167Y-6977384D02*
X-1883120Y-6977384D01*
X-1883120Y-6977384D02*
X-1864072Y-6986908D01*
X-1864072Y-6986908D02*
X-1854548Y-6996431D01*
X-1854548Y-6996431D02*
X-1845025Y-7015479D01*
X-1845025Y-7015479D02*
X-1835501Y-7053574D01*
X-1835501Y-7053574D02*
X-1835501Y-7101193D01*
X-1835501Y-7101193D02*
X-1845025Y-7139288D01*
X-1845025Y-7139288D02*
X-1854548Y-7158336D01*
X-1854548Y-7158336D02*
X-1864072Y-7167860D01*
X-1864072Y-7167860D02*
X-1883120Y-7177384D01*
X-1883120Y-7177384D02*
X-1902167Y-7177384D01*
X-1902167Y-7177384D02*
X-1921215Y-7167860D01*
X-1921215Y-7167860D02*
X-1930739Y-7158336D01*
X-1930739Y-7158336D02*
X-1940263Y-7139288D01*
X-1940263Y-7139288D02*
X-1949786Y-7101193D01*
X-1949786Y-7101193D02*
X-1949786Y-7053574D01*
X-1949786Y-7053574D02*
X-1940263Y-7015479D01*
X-1940263Y-7015479D02*
X-1930739Y-6996431D01*
X-1930739Y-6996431D02*
X-1921215Y-6986908D01*
X-1921215Y-6986908D02*
X-1902167Y-6977384D01*
X-1711691Y-6977384D02*
X-1692644Y-6977384D01*
X-1692644Y-6977384D02*
X-1673596Y-6986908D01*
X-1673596Y-6986908D02*
X-1664072Y-6996431D01*
X-1664072Y-6996431D02*
X-1654548Y-7015479D01*
X-1654548Y-7015479D02*
X-1645025Y-7053574D01*
X-1645025Y-7053574D02*
X-1645025Y-7101193D01*
X-1645025Y-7101193D02*
X-1654548Y-7139288D01*
X-1654548Y-7139288D02*
X-1664072Y-7158336D01*
X-1664072Y-7158336D02*
X-1673596Y-7167860D01*
X-1673596Y-7167860D02*
X-1692644Y-7177384D01*
X-1692644Y-7177384D02*
X-1711691Y-7177384D01*
X-1711691Y-7177384D02*
X-1730739Y-7167860D01*
X-1730739Y-7167860D02*
X-1740263Y-7158336D01*
X-1740263Y-7158336D02*
X-1749786Y-7139288D01*
X-1749786Y-7139288D02*
X-1759310Y-7101193D01*
X-1759310Y-7101193D02*
X-1759310Y-7053574D01*
X-1759310Y-7053574D02*
X-1749786Y-7015479D01*
X-1749786Y-7015479D02*
X-1740263Y-6996431D01*
X-1740263Y-6996431D02*
X-1730739Y-6986908D01*
X-1730739Y-6986908D02*
X-1711691Y-6977384D01*
X-1559310Y-7177384D02*
X-1559310Y-7044050D01*
X-1559310Y-7063098D02*
X-1549786Y-7053574D01*
X-1549786Y-7053574D02*
X-1530739Y-7044050D01*
X-1530739Y-7044050D02*
X-1502167Y-7044050D01*
X-1502167Y-7044050D02*
X-1483120Y-7053574D01*
X-1483120Y-7053574D02*
X-1473596Y-7072622D01*
X-1473596Y-7072622D02*
X-1473596Y-7177384D01*
X-1473596Y-7072622D02*
X-1464072Y-7053574D01*
X-1464072Y-7053574D02*
X-1445025Y-7044050D01*
X-1445025Y-7044050D02*
X-1416453Y-7044050D01*
X-1416453Y-7044050D02*
X-1397406Y-7053574D01*
X-1397406Y-7053574D02*
X-1387882Y-7072622D01*
X-1387882Y-7072622D02*
X-1387882Y-7177384D01*
X-1292644Y-7177384D02*
X-1292644Y-7044050D01*
X-1292644Y-7063098D02*
X-1283120Y-7053574D01*
X-1283120Y-7053574D02*
X-1264072Y-7044050D01*
X-1264072Y-7044050D02*
X-1235501Y-7044050D01*
X-1235501Y-7044050D02*
X-1216453Y-7053574D01*
X-1216453Y-7053574D02*
X-1206929Y-7072622D01*
X-1206929Y-7072622D02*
X-1206929Y-7177384D01*
X-1206929Y-7072622D02*
X-1197406Y-7053574D01*
X-1197406Y-7053574D02*
X-1178358Y-7044050D01*
X-1178358Y-7044050D02*
X-1149787Y-7044050D01*
X-1149787Y-7044050D02*
X-1130739Y-7053574D01*
X-1130739Y-7053574D02*
X-1121215Y-7072622D01*
X-1121215Y-7072622D02*
X-1121215Y-7177384D01*
X-730739Y-6967860D02*
X-902167Y-7225003D01*
X-473596Y-6977384D02*
X-454548Y-6977384D01*
X-454548Y-6977384D02*
X-435501Y-6986908D01*
X-435501Y-6986908D02*
X-425977Y-6996431D01*
X-425977Y-6996431D02*
X-416453Y-7015479D01*
X-416453Y-7015479D02*
X-406929Y-7053574D01*
X-406929Y-7053574D02*
X-406929Y-7101193D01*
X-406929Y-7101193D02*
X-416453Y-7139288D01*
X-416453Y-7139288D02*
X-425977Y-7158336D01*
X-425977Y-7158336D02*
X-435501Y-7167860D01*
X-435501Y-7167860D02*
X-454548Y-7177384D01*
X-454548Y-7177384D02*
X-473596Y-7177384D01*
X-473596Y-7177384D02*
X-492643Y-7167860D01*
X-492643Y-7167860D02*
X-502167Y-7158336D01*
X-502167Y-7158336D02*
X-511691Y-7139288D01*
X-511691Y-7139288D02*
X-521215Y-7101193D01*
X-521215Y-7101193D02*
X-521215Y-7053574D01*
X-521215Y-7053574D02*
X-511691Y-7015479D01*
X-511691Y-7015479D02*
X-502167Y-6996431D01*
X-502167Y-6996431D02*
X-492643Y-6986908D01*
X-492643Y-6986908D02*
X-473596Y-6977384D01*
X-321215Y-7158336D02*
X-311691Y-7167860D01*
X-311691Y-7167860D02*
X-321215Y-7177384D01*
X-321215Y-7177384D02*
X-330739Y-7167860D01*
X-330739Y-7167860D02*
X-321215Y-7158336D01*
X-321215Y-7158336D02*
X-321215Y-7177384D01*
X-187882Y-6977384D02*
X-168834Y-6977384D01*
X-168834Y-6977384D02*
X-149786Y-6986908D01*
X-149786Y-6986908D02*
X-140263Y-6996431D01*
X-140263Y-6996431D02*
X-130739Y-7015479D01*
X-130739Y-7015479D02*
X-121215Y-7053574D01*
X-121215Y-7053574D02*
X-121215Y-7101193D01*
X-121215Y-7101193D02*
X-130739Y-7139288D01*
X-130739Y-7139288D02*
X-140263Y-7158336D01*
X-140263Y-7158336D02*
X-149786Y-7167860D01*
X-149786Y-7167860D02*
X-168834Y-7177384D01*
X-168834Y-7177384D02*
X-187882Y-7177384D01*
X-187882Y-7177384D02*
X-206929Y-7167860D01*
X-206929Y-7167860D02*
X-216453Y-7158336D01*
X-216453Y-7158336D02*
X-225977Y-7139288D01*
X-225977Y-7139288D02*
X-235501Y-7101193D01*
X-235501Y-7101193D02*
X-235501Y-7053574D01*
X-235501Y-7053574D02*
X-225977Y-7015479D01*
X-225977Y-7015479D02*
X-216453Y-6996431D01*
X-216453Y-6996431D02*
X-206929Y-6986908D01*
X-206929Y-6986908D02*
X-187882Y-6977384D01*
X69261Y-7177384D02*
X-45024Y-7177384D01*
X12118Y-7177384D02*
X12118Y-6977384D01*
X12118Y-6977384D02*
X-6929Y-7005955D01*
X-6929Y-7005955D02*
X-25977Y-7025003D01*
X-25977Y-7025003D02*
X-45024Y-7034527D01*
X250214Y-6977384D02*
X154976Y-6977384D01*
X154976Y-6977384D02*
X145452Y-7072622D01*
X145452Y-7072622D02*
X154976Y-7063098D01*
X154976Y-7063098D02*
X174023Y-7053574D01*
X174023Y-7053574D02*
X221642Y-7053574D01*
X221642Y-7053574D02*
X240690Y-7063098D01*
X240690Y-7063098D02*
X250214Y-7072622D01*
X250214Y-7072622D02*
X259737Y-7091669D01*
X259737Y-7091669D02*
X259737Y-7139288D01*
X259737Y-7139288D02*
X250214Y-7158336D01*
X250214Y-7158336D02*
X240690Y-7167860D01*
X240690Y-7167860D02*
X221642Y-7177384D01*
X221642Y-7177384D02*
X174023Y-7177384D01*
X174023Y-7177384D02*
X154976Y-7167860D01*
X154976Y-7167860D02*
X145452Y-7158336D01*
X326404Y-6977384D02*
X459737Y-6977384D01*
X459737Y-6977384D02*
X374023Y-7177384D01*
X526404Y-6977384D02*
X526404Y-7015479D01*
X602595Y-6977384D02*
X602595Y-7015479D01*
X897833Y-7253574D02*
X888309Y-7244050D01*
X888309Y-7244050D02*
X869261Y-7215479D01*
X869261Y-7215479D02*
X859738Y-7196431D01*
X859738Y-7196431D02*
X850214Y-7167860D01*
X850214Y-7167860D02*
X840690Y-7120241D01*
X840690Y-7120241D02*
X840690Y-7082146D01*
X840690Y-7082146D02*
X850214Y-7034527D01*
X850214Y-7034527D02*
X859738Y-7005955D01*
X859738Y-7005955D02*
X869261Y-6986908D01*
X869261Y-6986908D02*
X888309Y-6958336D01*
X888309Y-6958336D02*
X897833Y-6948812D01*
X964499Y-6996431D02*
X974023Y-6986908D01*
X974023Y-6986908D02*
X993071Y-6977384D01*
X993071Y-6977384D02*
X1040690Y-6977384D01*
X1040690Y-6977384D02*
X1059738Y-6986908D01*
X1059738Y-6986908D02*
X1069261Y-6996431D01*
X1069261Y-6996431D02*
X1078785Y-7015479D01*
X1078785Y-7015479D02*
X1078785Y-7034527D01*
X1078785Y-7034527D02*
X1069261Y-7063098D01*
X1069261Y-7063098D02*
X954976Y-7177384D01*
X954976Y-7177384D02*
X1078785Y-7177384D01*
X1202595Y-6977384D02*
X1221642Y-6977384D01*
X1221642Y-6977384D02*
X1240690Y-6986908D01*
X1240690Y-6986908D02*
X1250214Y-6996431D01*
X1250214Y-6996431D02*
X1259738Y-7015479D01*
X1259738Y-7015479D02*
X1269261Y-7053574D01*
X1269261Y-7053574D02*
X1269261Y-7101193D01*
X1269261Y-7101193D02*
X1259738Y-7139288D01*
X1259738Y-7139288D02*
X1250214Y-7158336D01*
X1250214Y-7158336D02*
X1240690Y-7167860D01*
X1240690Y-7167860D02*
X1221642Y-7177384D01*
X1221642Y-7177384D02*
X1202595Y-7177384D01*
X1202595Y-7177384D02*
X1183547Y-7167860D01*
X1183547Y-7167860D02*
X1174023Y-7158336D01*
X1174023Y-7158336D02*
X1164500Y-7139288D01*
X1164500Y-7139288D02*
X1154976Y-7101193D01*
X1154976Y-7101193D02*
X1154976Y-7053574D01*
X1154976Y-7053574D02*
X1164500Y-7015479D01*
X1164500Y-7015479D02*
X1174023Y-6996431D01*
X1174023Y-6996431D02*
X1183547Y-6986908D01*
X1183547Y-6986908D02*
X1202595Y-6977384D01*
X1335928Y-6977384D02*
X1459738Y-6977384D01*
X1459738Y-6977384D02*
X1393071Y-7053574D01*
X1393071Y-7053574D02*
X1421642Y-7053574D01*
X1421642Y-7053574D02*
X1440690Y-7063098D01*
X1440690Y-7063098D02*
X1450214Y-7072622D01*
X1450214Y-7072622D02*
X1459738Y-7091669D01*
X1459738Y-7091669D02*
X1459738Y-7139288D01*
X1459738Y-7139288D02*
X1450214Y-7158336D01*
X1450214Y-7158336D02*
X1440690Y-7167860D01*
X1440690Y-7167860D02*
X1421642Y-7177384D01*
X1421642Y-7177384D02*
X1364500Y-7177384D01*
X1364500Y-7177384D02*
X1345452Y-7167860D01*
X1345452Y-7167860D02*
X1335928Y-7158336D01*
X1697833Y-7177384D02*
X1697833Y-6977384D01*
X1783547Y-7177384D02*
X1783547Y-7072622D01*
X1783547Y-7072622D02*
X1774023Y-7053574D01*
X1774023Y-7053574D02*
X1754976Y-7044050D01*
X1754976Y-7044050D02*
X1726404Y-7044050D01*
X1726404Y-7044050D02*
X1707357Y-7053574D01*
X1707357Y-7053574D02*
X1697833Y-7063098D01*
X1907357Y-7177384D02*
X1888309Y-7167860D01*
X1888309Y-7167860D02*
X1878785Y-7158336D01*
X1878785Y-7158336D02*
X1869261Y-7139288D01*
X1869261Y-7139288D02*
X1869261Y-7082146D01*
X1869261Y-7082146D02*
X1878785Y-7063098D01*
X1878785Y-7063098D02*
X1888309Y-7053574D01*
X1888309Y-7053574D02*
X1907357Y-7044050D01*
X1907357Y-7044050D02*
X1935928Y-7044050D01*
X1935928Y-7044050D02*
X1954976Y-7053574D01*
X1954976Y-7053574D02*
X1964500Y-7063098D01*
X1964500Y-7063098D02*
X1974023Y-7082146D01*
X1974023Y-7082146D02*
X1974023Y-7139288D01*
X1974023Y-7139288D02*
X1964500Y-7158336D01*
X1964500Y-7158336D02*
X1954976Y-7167860D01*
X1954976Y-7167860D02*
X1935928Y-7177384D01*
X1935928Y-7177384D02*
X1907357Y-7177384D01*
X2088309Y-7177384D02*
X2069261Y-7167860D01*
X2069261Y-7167860D02*
X2059738Y-7148812D01*
X2059738Y-7148812D02*
X2059738Y-6977384D01*
X2240690Y-7167860D02*
X2221643Y-7177384D01*
X2221643Y-7177384D02*
X2183547Y-7177384D01*
X2183547Y-7177384D02*
X2164500Y-7167860D01*
X2164500Y-7167860D02*
X2154976Y-7148812D01*
X2154976Y-7148812D02*
X2154976Y-7072622D01*
X2154976Y-7072622D02*
X2164500Y-7053574D01*
X2164500Y-7053574D02*
X2183547Y-7044050D01*
X2183547Y-7044050D02*
X2221643Y-7044050D01*
X2221643Y-7044050D02*
X2240690Y-7053574D01*
X2240690Y-7053574D02*
X2250214Y-7072622D01*
X2250214Y-7072622D02*
X2250214Y-7091669D01*
X2250214Y-7091669D02*
X2154976Y-7110717D01*
X2326404Y-7167860D02*
X2345452Y-7177384D01*
X2345452Y-7177384D02*
X2383547Y-7177384D01*
X2383547Y-7177384D02*
X2402595Y-7167860D01*
X2402595Y-7167860D02*
X2412119Y-7148812D01*
X2412119Y-7148812D02*
X2412119Y-7139288D01*
X2412119Y-7139288D02*
X2402595Y-7120241D01*
X2402595Y-7120241D02*
X2383547Y-7110717D01*
X2383547Y-7110717D02*
X2354976Y-7110717D01*
X2354976Y-7110717D02*
X2335928Y-7101193D01*
X2335928Y-7101193D02*
X2326404Y-7082146D01*
X2326404Y-7082146D02*
X2326404Y-7072622D01*
X2326404Y-7072622D02*
X2335928Y-7053574D01*
X2335928Y-7053574D02*
X2354976Y-7044050D01*
X2354976Y-7044050D02*
X2383547Y-7044050D01*
X2383547Y-7044050D02*
X2402595Y-7053574D01*
X2478785Y-7253574D02*
X2488309Y-7244050D01*
X2488309Y-7244050D02*
X2507357Y-7215479D01*
X2507357Y-7215479D02*
X2516881Y-7196431D01*
X2516881Y-7196431D02*
X2526404Y-7167860D01*
X2526404Y-7167860D02*
X2535928Y-7120241D01*
X2535928Y-7120241D02*
X2535928Y-7082146D01*
X2535928Y-7082146D02*
X2526404Y-7034527D01*
X2526404Y-7034527D02*
X2516881Y-7005955D01*
X2516881Y-7005955D02*
X2507357Y-6986908D01*
X2507357Y-6986908D02*
X2488309Y-6958336D01*
X2488309Y-6958336D02*
X2478785Y-6948812D01*
D10*
X-2704730Y-7322400D02*
X-2704730Y-7377400D01*
X-2732230Y-7349900D02*
X-2677230Y-7349900D01*
D11*
X-2378358Y-7241384D02*
X-2359310Y-7241384D01*
X-2359310Y-7241384D02*
X-2340263Y-7250908D01*
X-2340263Y-7250908D02*
X-2330739Y-7260431D01*
X-2330739Y-7260431D02*
X-2321215Y-7279479D01*
X-2321215Y-7279479D02*
X-2311691Y-7317574D01*
X-2311691Y-7317574D02*
X-2311691Y-7365193D01*
X-2311691Y-7365193D02*
X-2321215Y-7403288D01*
X-2321215Y-7403288D02*
X-2330739Y-7422336D01*
X-2330739Y-7422336D02*
X-2340263Y-7431860D01*
X-2340263Y-7431860D02*
X-2359310Y-7441384D01*
X-2359310Y-7441384D02*
X-2378358Y-7441384D01*
X-2378358Y-7441384D02*
X-2397406Y-7431860D01*
X-2397406Y-7431860D02*
X-2406929Y-7422336D01*
X-2406929Y-7422336D02*
X-2416453Y-7403288D01*
X-2416453Y-7403288D02*
X-2425977Y-7365193D01*
X-2425977Y-7365193D02*
X-2425977Y-7317574D01*
X-2425977Y-7317574D02*
X-2416453Y-7279479D01*
X-2416453Y-7279479D02*
X-2406929Y-7260431D01*
X-2406929Y-7260431D02*
X-2397406Y-7250908D01*
X-2397406Y-7250908D02*
X-2378358Y-7241384D01*
X-2225977Y-7422336D02*
X-2216453Y-7431860D01*
X-2216453Y-7431860D02*
X-2225977Y-7441384D01*
X-2225977Y-7441384D02*
X-2235501Y-7431860D01*
X-2235501Y-7431860D02*
X-2225977Y-7422336D01*
X-2225977Y-7422336D02*
X-2225977Y-7441384D01*
X-2035501Y-7241384D02*
X-2130739Y-7241384D01*
X-2130739Y-7241384D02*
X-2140263Y-7336622D01*
X-2140263Y-7336622D02*
X-2130739Y-7327098D01*
X-2130739Y-7327098D02*
X-2111691Y-7317574D01*
X-2111691Y-7317574D02*
X-2064072Y-7317574D01*
X-2064072Y-7317574D02*
X-2045025Y-7327098D01*
X-2045025Y-7327098D02*
X-2035501Y-7336622D01*
X-2035501Y-7336622D02*
X-2025977Y-7355669D01*
X-2025977Y-7355669D02*
X-2025977Y-7403288D01*
X-2025977Y-7403288D02*
X-2035501Y-7422336D01*
X-2035501Y-7422336D02*
X-2045025Y-7431860D01*
X-2045025Y-7431860D02*
X-2064072Y-7441384D01*
X-2064072Y-7441384D02*
X-2111691Y-7441384D01*
X-2111691Y-7441384D02*
X-2130739Y-7431860D01*
X-2130739Y-7431860D02*
X-2140263Y-7422336D01*
X-1845025Y-7241384D02*
X-1940263Y-7241384D01*
X-1940263Y-7241384D02*
X-1949786Y-7336622D01*
X-1949786Y-7336622D02*
X-1940263Y-7327098D01*
X-1940263Y-7327098D02*
X-1921215Y-7317574D01*
X-1921215Y-7317574D02*
X-1873596Y-7317574D01*
X-1873596Y-7317574D02*
X-1854548Y-7327098D01*
X-1854548Y-7327098D02*
X-1845025Y-7336622D01*
X-1845025Y-7336622D02*
X-1835501Y-7355669D01*
X-1835501Y-7355669D02*
X-1835501Y-7403288D01*
X-1835501Y-7403288D02*
X-1845025Y-7422336D01*
X-1845025Y-7422336D02*
X-1854548Y-7431860D01*
X-1854548Y-7431860D02*
X-1873596Y-7441384D01*
X-1873596Y-7441384D02*
X-1921215Y-7441384D01*
X-1921215Y-7441384D02*
X-1940263Y-7431860D01*
X-1940263Y-7431860D02*
X-1949786Y-7422336D01*
X-1711691Y-7241384D02*
X-1692644Y-7241384D01*
X-1692644Y-7241384D02*
X-1673596Y-7250908D01*
X-1673596Y-7250908D02*
X-1664072Y-7260431D01*
X-1664072Y-7260431D02*
X-1654548Y-7279479D01*
X-1654548Y-7279479D02*
X-1645025Y-7317574D01*
X-1645025Y-7317574D02*
X-1645025Y-7365193D01*
X-1645025Y-7365193D02*
X-1654548Y-7403288D01*
X-1654548Y-7403288D02*
X-1664072Y-7422336D01*
X-1664072Y-7422336D02*
X-1673596Y-7431860D01*
X-1673596Y-7431860D02*
X-1692644Y-7441384D01*
X-1692644Y-7441384D02*
X-1711691Y-7441384D01*
X-1711691Y-7441384D02*
X-1730739Y-7431860D01*
X-1730739Y-7431860D02*
X-1740263Y-7422336D01*
X-1740263Y-7422336D02*
X-1749786Y-7403288D01*
X-1749786Y-7403288D02*
X-1759310Y-7365193D01*
X-1759310Y-7365193D02*
X-1759310Y-7317574D01*
X-1759310Y-7317574D02*
X-1749786Y-7279479D01*
X-1749786Y-7279479D02*
X-1740263Y-7260431D01*
X-1740263Y-7260431D02*
X-1730739Y-7250908D01*
X-1730739Y-7250908D02*
X-1711691Y-7241384D01*
X-1559310Y-7441384D02*
X-1559310Y-7308050D01*
X-1559310Y-7327098D02*
X-1549786Y-7317574D01*
X-1549786Y-7317574D02*
X-1530739Y-7308050D01*
X-1530739Y-7308050D02*
X-1502167Y-7308050D01*
X-1502167Y-7308050D02*
X-1483120Y-7317574D01*
X-1483120Y-7317574D02*
X-1473596Y-7336622D01*
X-1473596Y-7336622D02*
X-1473596Y-7441384D01*
X-1473596Y-7336622D02*
X-1464072Y-7317574D01*
X-1464072Y-7317574D02*
X-1445025Y-7308050D01*
X-1445025Y-7308050D02*
X-1416453Y-7308050D01*
X-1416453Y-7308050D02*
X-1397406Y-7317574D01*
X-1397406Y-7317574D02*
X-1387882Y-7336622D01*
X-1387882Y-7336622D02*
X-1387882Y-7441384D01*
X-1292644Y-7441384D02*
X-1292644Y-7308050D01*
X-1292644Y-7327098D02*
X-1283120Y-7317574D01*
X-1283120Y-7317574D02*
X-1264072Y-7308050D01*
X-1264072Y-7308050D02*
X-1235501Y-7308050D01*
X-1235501Y-7308050D02*
X-1216453Y-7317574D01*
X-1216453Y-7317574D02*
X-1206929Y-7336622D01*
X-1206929Y-7336622D02*
X-1206929Y-7441384D01*
X-1206929Y-7336622D02*
X-1197406Y-7317574D01*
X-1197406Y-7317574D02*
X-1178358Y-7308050D01*
X-1178358Y-7308050D02*
X-1149787Y-7308050D01*
X-1149787Y-7308050D02*
X-1130739Y-7317574D01*
X-1130739Y-7317574D02*
X-1121215Y-7336622D01*
X-1121215Y-7336622D02*
X-1121215Y-7441384D01*
X-730739Y-7231860D02*
X-902167Y-7489003D01*
X-473596Y-7241384D02*
X-454548Y-7241384D01*
X-454548Y-7241384D02*
X-435501Y-7250908D01*
X-435501Y-7250908D02*
X-425977Y-7260431D01*
X-425977Y-7260431D02*
X-416453Y-7279479D01*
X-416453Y-7279479D02*
X-406929Y-7317574D01*
X-406929Y-7317574D02*
X-406929Y-7365193D01*
X-406929Y-7365193D02*
X-416453Y-7403288D01*
X-416453Y-7403288D02*
X-425977Y-7422336D01*
X-425977Y-7422336D02*
X-435501Y-7431860D01*
X-435501Y-7431860D02*
X-454548Y-7441384D01*
X-454548Y-7441384D02*
X-473596Y-7441384D01*
X-473596Y-7441384D02*
X-492643Y-7431860D01*
X-492643Y-7431860D02*
X-502167Y-7422336D01*
X-502167Y-7422336D02*
X-511691Y-7403288D01*
X-511691Y-7403288D02*
X-521215Y-7365193D01*
X-521215Y-7365193D02*
X-521215Y-7317574D01*
X-521215Y-7317574D02*
X-511691Y-7279479D01*
X-511691Y-7279479D02*
X-502167Y-7260431D01*
X-502167Y-7260431D02*
X-492643Y-7250908D01*
X-492643Y-7250908D02*
X-473596Y-7241384D01*
X-321215Y-7422336D02*
X-311691Y-7431860D01*
X-311691Y-7431860D02*
X-321215Y-7441384D01*
X-321215Y-7441384D02*
X-330739Y-7431860D01*
X-330739Y-7431860D02*
X-321215Y-7422336D01*
X-321215Y-7422336D02*
X-321215Y-7441384D01*
X-187882Y-7241384D02*
X-168834Y-7241384D01*
X-168834Y-7241384D02*
X-149786Y-7250908D01*
X-149786Y-7250908D02*
X-140263Y-7260431D01*
X-140263Y-7260431D02*
X-130739Y-7279479D01*
X-130739Y-7279479D02*
X-121215Y-7317574D01*
X-121215Y-7317574D02*
X-121215Y-7365193D01*
X-121215Y-7365193D02*
X-130739Y-7403288D01*
X-130739Y-7403288D02*
X-140263Y-7422336D01*
X-140263Y-7422336D02*
X-149786Y-7431860D01*
X-149786Y-7431860D02*
X-168834Y-7441384D01*
X-168834Y-7441384D02*
X-187882Y-7441384D01*
X-187882Y-7441384D02*
X-206929Y-7431860D01*
X-206929Y-7431860D02*
X-216453Y-7422336D01*
X-216453Y-7422336D02*
X-225977Y-7403288D01*
X-225977Y-7403288D02*
X-235501Y-7365193D01*
X-235501Y-7365193D02*
X-235501Y-7317574D01*
X-235501Y-7317574D02*
X-225977Y-7279479D01*
X-225977Y-7279479D02*
X-216453Y-7260431D01*
X-216453Y-7260431D02*
X-206929Y-7250908D01*
X-206929Y-7250908D02*
X-187882Y-7241384D01*
X-45024Y-7260431D02*
X-35501Y-7250908D01*
X-35501Y-7250908D02*
X-16453Y-7241384D01*
X-16453Y-7241384D02*
X31166Y-7241384D01*
X31166Y-7241384D02*
X50214Y-7250908D01*
X50214Y-7250908D02*
X59737Y-7260431D01*
X59737Y-7260431D02*
X69261Y-7279479D01*
X69261Y-7279479D02*
X69261Y-7298527D01*
X69261Y-7298527D02*
X59737Y-7327098D01*
X59737Y-7327098D02*
X-54548Y-7441384D01*
X-54548Y-7441384D02*
X69261Y-7441384D01*
X259737Y-7441384D02*
X145452Y-7441384D01*
X202595Y-7441384D02*
X202595Y-7241384D01*
X202595Y-7241384D02*
X183547Y-7269955D01*
X183547Y-7269955D02*
X164499Y-7289003D01*
X164499Y-7289003D02*
X145452Y-7298527D01*
X326404Y-7241384D02*
X459737Y-7241384D01*
X459737Y-7241384D02*
X374023Y-7441384D01*
X526404Y-7241384D02*
X526404Y-7279479D01*
X602595Y-7241384D02*
X602595Y-7279479D01*
X897833Y-7517574D02*
X888309Y-7508050D01*
X888309Y-7508050D02*
X869261Y-7479479D01*
X869261Y-7479479D02*
X859738Y-7460431D01*
X859738Y-7460431D02*
X850214Y-7431860D01*
X850214Y-7431860D02*
X840690Y-7384241D01*
X840690Y-7384241D02*
X840690Y-7346146D01*
X840690Y-7346146D02*
X850214Y-7298527D01*
X850214Y-7298527D02*
X859738Y-7269955D01*
X859738Y-7269955D02*
X869261Y-7250908D01*
X869261Y-7250908D02*
X888309Y-7222336D01*
X888309Y-7222336D02*
X897833Y-7212812D01*
X1012118Y-7241384D02*
X1031166Y-7241384D01*
X1031166Y-7241384D02*
X1050214Y-7250908D01*
X1050214Y-7250908D02*
X1059738Y-7260431D01*
X1059738Y-7260431D02*
X1069261Y-7279479D01*
X1069261Y-7279479D02*
X1078785Y-7317574D01*
X1078785Y-7317574D02*
X1078785Y-7365193D01*
X1078785Y-7365193D02*
X1069261Y-7403288D01*
X1069261Y-7403288D02*
X1059738Y-7422336D01*
X1059738Y-7422336D02*
X1050214Y-7431860D01*
X1050214Y-7431860D02*
X1031166Y-7441384D01*
X1031166Y-7441384D02*
X1012118Y-7441384D01*
X1012118Y-7441384D02*
X993071Y-7431860D01*
X993071Y-7431860D02*
X983547Y-7422336D01*
X983547Y-7422336D02*
X974023Y-7403288D01*
X974023Y-7403288D02*
X964499Y-7365193D01*
X964499Y-7365193D02*
X964499Y-7317574D01*
X964499Y-7317574D02*
X974023Y-7279479D01*
X974023Y-7279479D02*
X983547Y-7260431D01*
X983547Y-7260431D02*
X993071Y-7250908D01*
X993071Y-7250908D02*
X1012118Y-7241384D01*
X1316881Y-7441384D02*
X1316881Y-7241384D01*
X1402595Y-7441384D02*
X1402595Y-7336622D01*
X1402595Y-7336622D02*
X1393071Y-7317574D01*
X1393071Y-7317574D02*
X1374023Y-7308050D01*
X1374023Y-7308050D02*
X1345452Y-7308050D01*
X1345452Y-7308050D02*
X1326404Y-7317574D01*
X1326404Y-7317574D02*
X1316881Y-7327098D01*
X1526404Y-7441384D02*
X1507357Y-7431860D01*
X1507357Y-7431860D02*
X1497833Y-7422336D01*
X1497833Y-7422336D02*
X1488309Y-7403288D01*
X1488309Y-7403288D02*
X1488309Y-7346146D01*
X1488309Y-7346146D02*
X1497833Y-7327098D01*
X1497833Y-7327098D02*
X1507357Y-7317574D01*
X1507357Y-7317574D02*
X1526404Y-7308050D01*
X1526404Y-7308050D02*
X1554976Y-7308050D01*
X1554976Y-7308050D02*
X1574023Y-7317574D01*
X1574023Y-7317574D02*
X1583547Y-7327098D01*
X1583547Y-7327098D02*
X1593071Y-7346146D01*
X1593071Y-7346146D02*
X1593071Y-7403288D01*
X1593071Y-7403288D02*
X1583547Y-7422336D01*
X1583547Y-7422336D02*
X1574023Y-7431860D01*
X1574023Y-7431860D02*
X1554976Y-7441384D01*
X1554976Y-7441384D02*
X1526404Y-7441384D01*
X1707357Y-7441384D02*
X1688309Y-7431860D01*
X1688309Y-7431860D02*
X1678785Y-7412812D01*
X1678785Y-7412812D02*
X1678785Y-7241384D01*
X1859738Y-7431860D02*
X1840690Y-7441384D01*
X1840690Y-7441384D02*
X1802595Y-7441384D01*
X1802595Y-7441384D02*
X1783547Y-7431860D01*
X1783547Y-7431860D02*
X1774023Y-7412812D01*
X1774023Y-7412812D02*
X1774023Y-7336622D01*
X1774023Y-7336622D02*
X1783547Y-7317574D01*
X1783547Y-7317574D02*
X1802595Y-7308050D01*
X1802595Y-7308050D02*
X1840690Y-7308050D01*
X1840690Y-7308050D02*
X1859738Y-7317574D01*
X1859738Y-7317574D02*
X1869261Y-7336622D01*
X1869261Y-7336622D02*
X1869261Y-7355669D01*
X1869261Y-7355669D02*
X1774023Y-7374717D01*
X1945452Y-7431860D02*
X1964500Y-7441384D01*
X1964500Y-7441384D02*
X2002595Y-7441384D01*
X2002595Y-7441384D02*
X2021642Y-7431860D01*
X2021642Y-7431860D02*
X2031166Y-7412812D01*
X2031166Y-7412812D02*
X2031166Y-7403288D01*
X2031166Y-7403288D02*
X2021642Y-7384241D01*
X2021642Y-7384241D02*
X2002595Y-7374717D01*
X2002595Y-7374717D02*
X1974023Y-7374717D01*
X1974023Y-7374717D02*
X1954976Y-7365193D01*
X1954976Y-7365193D02*
X1945452Y-7346146D01*
X1945452Y-7346146D02*
X1945452Y-7336622D01*
X1945452Y-7336622D02*
X1954976Y-7317574D01*
X1954976Y-7317574D02*
X1974023Y-7308050D01*
X1974023Y-7308050D02*
X2002595Y-7308050D01*
X2002595Y-7308050D02*
X2021642Y-7317574D01*
X2269262Y-7365193D02*
X2421643Y-7365193D01*
X2345452Y-7441384D02*
X2345452Y-7289003D01*
X2754976Y-7308050D02*
X2754976Y-7441384D01*
X2707357Y-7231860D02*
X2659738Y-7374717D01*
X2659738Y-7374717D02*
X2783547Y-7374717D01*
X3002595Y-7431860D02*
X3021643Y-7441384D01*
X3021643Y-7441384D02*
X3059738Y-7441384D01*
X3059738Y-7441384D02*
X3078785Y-7431860D01*
X3078785Y-7431860D02*
X3088309Y-7412812D01*
X3088309Y-7412812D02*
X3088309Y-7403288D01*
X3088309Y-7403288D02*
X3078785Y-7384241D01*
X3078785Y-7384241D02*
X3059738Y-7374717D01*
X3059738Y-7374717D02*
X3031166Y-7374717D01*
X3031166Y-7374717D02*
X3012119Y-7365193D01*
X3012119Y-7365193D02*
X3002595Y-7346146D01*
X3002595Y-7346146D02*
X3002595Y-7336622D01*
X3002595Y-7336622D02*
X3012119Y-7317574D01*
X3012119Y-7317574D02*
X3031166Y-7308050D01*
X3031166Y-7308050D02*
X3059738Y-7308050D01*
X3059738Y-7308050D02*
X3078785Y-7317574D01*
X3202595Y-7441384D02*
X3183547Y-7431860D01*
X3183547Y-7431860D02*
X3174024Y-7412812D01*
X3174024Y-7412812D02*
X3174024Y-7241384D01*
X3307357Y-7441384D02*
X3288309Y-7431860D01*
X3288309Y-7431860D02*
X3278785Y-7422336D01*
X3278785Y-7422336D02*
X3269262Y-7403288D01*
X3269262Y-7403288D02*
X3269262Y-7346146D01*
X3269262Y-7346146D02*
X3278785Y-7327098D01*
X3278785Y-7327098D02*
X3288309Y-7317574D01*
X3288309Y-7317574D02*
X3307357Y-7308050D01*
X3307357Y-7308050D02*
X3335928Y-7308050D01*
X3335928Y-7308050D02*
X3354976Y-7317574D01*
X3354976Y-7317574D02*
X3364500Y-7327098D01*
X3364500Y-7327098D02*
X3374024Y-7346146D01*
X3374024Y-7346146D02*
X3374024Y-7403288D01*
X3374024Y-7403288D02*
X3364500Y-7422336D01*
X3364500Y-7422336D02*
X3354976Y-7431860D01*
X3354976Y-7431860D02*
X3335928Y-7441384D01*
X3335928Y-7441384D02*
X3307357Y-7441384D01*
X3431166Y-7308050D02*
X3507357Y-7308050D01*
X3459738Y-7241384D02*
X3459738Y-7412812D01*
X3459738Y-7412812D02*
X3469262Y-7431860D01*
X3469262Y-7431860D02*
X3488309Y-7441384D01*
X3488309Y-7441384D02*
X3507357Y-7441384D01*
X3564500Y-7431860D02*
X3583547Y-7441384D01*
X3583547Y-7441384D02*
X3621643Y-7441384D01*
X3621643Y-7441384D02*
X3640690Y-7431860D01*
X3640690Y-7431860D02*
X3650214Y-7412812D01*
X3650214Y-7412812D02*
X3650214Y-7403288D01*
X3650214Y-7403288D02*
X3640690Y-7384241D01*
X3640690Y-7384241D02*
X3621643Y-7374717D01*
X3621643Y-7374717D02*
X3593071Y-7374717D01*
X3593071Y-7374717D02*
X3574024Y-7365193D01*
X3574024Y-7365193D02*
X3564500Y-7346146D01*
X3564500Y-7346146D02*
X3564500Y-7336622D01*
X3564500Y-7336622D02*
X3574024Y-7317574D01*
X3574024Y-7317574D02*
X3593071Y-7308050D01*
X3593071Y-7308050D02*
X3621643Y-7308050D01*
X3621643Y-7308050D02*
X3640690Y-7317574D01*
X3716881Y-7517574D02*
X3726405Y-7508050D01*
X3726405Y-7508050D02*
X3745452Y-7479479D01*
X3745452Y-7479479D02*
X3754976Y-7460431D01*
X3754976Y-7460431D02*
X3764500Y-7431860D01*
X3764500Y-7431860D02*
X3774024Y-7384241D01*
X3774024Y-7384241D02*
X3774024Y-7346146D01*
X3774024Y-7346146D02*
X3764500Y-7298527D01*
X3764500Y-7298527D02*
X3754976Y-7269955D01*
X3754976Y-7269955D02*
X3745452Y-7250908D01*
X3745452Y-7250908D02*
X3726405Y-7222336D01*
X3726405Y-7222336D02*
X3716881Y-7212812D01*
D10*
X-2686017Y-7635113D02*
X-2686017Y-7592687D01*
X-2728443Y-7592687D01*
X-2728443Y-7635113D01*
X-2686017Y-7635113D01*
D11*
X-2378358Y-7505384D02*
X-2359310Y-7505384D01*
X-2359310Y-7505384D02*
X-2340263Y-7514908D01*
X-2340263Y-7514908D02*
X-2330739Y-7524431D01*
X-2330739Y-7524431D02*
X-2321215Y-7543479D01*
X-2321215Y-7543479D02*
X-2311691Y-7581574D01*
X-2311691Y-7581574D02*
X-2311691Y-7629193D01*
X-2311691Y-7629193D02*
X-2321215Y-7667288D01*
X-2321215Y-7667288D02*
X-2330739Y-7686336D01*
X-2330739Y-7686336D02*
X-2340263Y-7695860D01*
X-2340263Y-7695860D02*
X-2359310Y-7705384D01*
X-2359310Y-7705384D02*
X-2378358Y-7705384D01*
X-2378358Y-7705384D02*
X-2397406Y-7695860D01*
X-2397406Y-7695860D02*
X-2406929Y-7686336D01*
X-2406929Y-7686336D02*
X-2416453Y-7667288D01*
X-2416453Y-7667288D02*
X-2425977Y-7629193D01*
X-2425977Y-7629193D02*
X-2425977Y-7581574D01*
X-2425977Y-7581574D02*
X-2416453Y-7543479D01*
X-2416453Y-7543479D02*
X-2406929Y-7524431D01*
X-2406929Y-7524431D02*
X-2397406Y-7514908D01*
X-2397406Y-7514908D02*
X-2378358Y-7505384D01*
X-2225977Y-7686336D02*
X-2216453Y-7695860D01*
X-2216453Y-7695860D02*
X-2225977Y-7705384D01*
X-2225977Y-7705384D02*
X-2235501Y-7695860D01*
X-2235501Y-7695860D02*
X-2225977Y-7686336D01*
X-2225977Y-7686336D02*
X-2225977Y-7705384D01*
X-2045025Y-7505384D02*
X-2083120Y-7505384D01*
X-2083120Y-7505384D02*
X-2102168Y-7514908D01*
X-2102168Y-7514908D02*
X-2111691Y-7524431D01*
X-2111691Y-7524431D02*
X-2130739Y-7553003D01*
X-2130739Y-7553003D02*
X-2140263Y-7591098D01*
X-2140263Y-7591098D02*
X-2140263Y-7667288D01*
X-2140263Y-7667288D02*
X-2130739Y-7686336D01*
X-2130739Y-7686336D02*
X-2121215Y-7695860D01*
X-2121215Y-7695860D02*
X-2102168Y-7705384D01*
X-2102168Y-7705384D02*
X-2064072Y-7705384D01*
X-2064072Y-7705384D02*
X-2045025Y-7695860D01*
X-2045025Y-7695860D02*
X-2035501Y-7686336D01*
X-2035501Y-7686336D02*
X-2025977Y-7667288D01*
X-2025977Y-7667288D02*
X-2025977Y-7619669D01*
X-2025977Y-7619669D02*
X-2035501Y-7600622D01*
X-2035501Y-7600622D02*
X-2045025Y-7591098D01*
X-2045025Y-7591098D02*
X-2064072Y-7581574D01*
X-2064072Y-7581574D02*
X-2102168Y-7581574D01*
X-2102168Y-7581574D02*
X-2121215Y-7591098D01*
X-2121215Y-7591098D02*
X-2130739Y-7600622D01*
X-2130739Y-7600622D02*
X-2140263Y-7619669D01*
X-1902167Y-7505384D02*
X-1883120Y-7505384D01*
X-1883120Y-7505384D02*
X-1864072Y-7514908D01*
X-1864072Y-7514908D02*
X-1854548Y-7524431D01*
X-1854548Y-7524431D02*
X-1845025Y-7543479D01*
X-1845025Y-7543479D02*
X-1835501Y-7581574D01*
X-1835501Y-7581574D02*
X-1835501Y-7629193D01*
X-1835501Y-7629193D02*
X-1845025Y-7667288D01*
X-1845025Y-7667288D02*
X-1854548Y-7686336D01*
X-1854548Y-7686336D02*
X-1864072Y-7695860D01*
X-1864072Y-7695860D02*
X-1883120Y-7705384D01*
X-1883120Y-7705384D02*
X-1902167Y-7705384D01*
X-1902167Y-7705384D02*
X-1921215Y-7695860D01*
X-1921215Y-7695860D02*
X-1930739Y-7686336D01*
X-1930739Y-7686336D02*
X-1940263Y-7667288D01*
X-1940263Y-7667288D02*
X-1949786Y-7629193D01*
X-1949786Y-7629193D02*
X-1949786Y-7581574D01*
X-1949786Y-7581574D02*
X-1940263Y-7543479D01*
X-1940263Y-7543479D02*
X-1930739Y-7524431D01*
X-1930739Y-7524431D02*
X-1921215Y-7514908D01*
X-1921215Y-7514908D02*
X-1902167Y-7505384D01*
X-1711691Y-7505384D02*
X-1692644Y-7505384D01*
X-1692644Y-7505384D02*
X-1673596Y-7514908D01*
X-1673596Y-7514908D02*
X-1664072Y-7524431D01*
X-1664072Y-7524431D02*
X-1654548Y-7543479D01*
X-1654548Y-7543479D02*
X-1645025Y-7581574D01*
X-1645025Y-7581574D02*
X-1645025Y-7629193D01*
X-1645025Y-7629193D02*
X-1654548Y-7667288D01*
X-1654548Y-7667288D02*
X-1664072Y-7686336D01*
X-1664072Y-7686336D02*
X-1673596Y-7695860D01*
X-1673596Y-7695860D02*
X-1692644Y-7705384D01*
X-1692644Y-7705384D02*
X-1711691Y-7705384D01*
X-1711691Y-7705384D02*
X-1730739Y-7695860D01*
X-1730739Y-7695860D02*
X-1740263Y-7686336D01*
X-1740263Y-7686336D02*
X-1749786Y-7667288D01*
X-1749786Y-7667288D02*
X-1759310Y-7629193D01*
X-1759310Y-7629193D02*
X-1759310Y-7581574D01*
X-1759310Y-7581574D02*
X-1749786Y-7543479D01*
X-1749786Y-7543479D02*
X-1740263Y-7524431D01*
X-1740263Y-7524431D02*
X-1730739Y-7514908D01*
X-1730739Y-7514908D02*
X-1711691Y-7505384D01*
X-1559310Y-7705384D02*
X-1559310Y-7572050D01*
X-1559310Y-7591098D02*
X-1549786Y-7581574D01*
X-1549786Y-7581574D02*
X-1530739Y-7572050D01*
X-1530739Y-7572050D02*
X-1502167Y-7572050D01*
X-1502167Y-7572050D02*
X-1483120Y-7581574D01*
X-1483120Y-7581574D02*
X-1473596Y-7600622D01*
X-1473596Y-7600622D02*
X-1473596Y-7705384D01*
X-1473596Y-7600622D02*
X-1464072Y-7581574D01*
X-1464072Y-7581574D02*
X-1445025Y-7572050D01*
X-1445025Y-7572050D02*
X-1416453Y-7572050D01*
X-1416453Y-7572050D02*
X-1397406Y-7581574D01*
X-1397406Y-7581574D02*
X-1387882Y-7600622D01*
X-1387882Y-7600622D02*
X-1387882Y-7705384D01*
X-1292644Y-7705384D02*
X-1292644Y-7572050D01*
X-1292644Y-7591098D02*
X-1283120Y-7581574D01*
X-1283120Y-7581574D02*
X-1264072Y-7572050D01*
X-1264072Y-7572050D02*
X-1235501Y-7572050D01*
X-1235501Y-7572050D02*
X-1216453Y-7581574D01*
X-1216453Y-7581574D02*
X-1206929Y-7600622D01*
X-1206929Y-7600622D02*
X-1206929Y-7705384D01*
X-1206929Y-7600622D02*
X-1197406Y-7581574D01*
X-1197406Y-7581574D02*
X-1178358Y-7572050D01*
X-1178358Y-7572050D02*
X-1149787Y-7572050D01*
X-1149787Y-7572050D02*
X-1130739Y-7581574D01*
X-1130739Y-7581574D02*
X-1121215Y-7600622D01*
X-1121215Y-7600622D02*
X-1121215Y-7705384D01*
X-730739Y-7495860D02*
X-902167Y-7753003D01*
X-473596Y-7505384D02*
X-454548Y-7505384D01*
X-454548Y-7505384D02*
X-435501Y-7514908D01*
X-435501Y-7514908D02*
X-425977Y-7524431D01*
X-425977Y-7524431D02*
X-416453Y-7543479D01*
X-416453Y-7543479D02*
X-406929Y-7581574D01*
X-406929Y-7581574D02*
X-406929Y-7629193D01*
X-406929Y-7629193D02*
X-416453Y-7667288D01*
X-416453Y-7667288D02*
X-425977Y-7686336D01*
X-425977Y-7686336D02*
X-435501Y-7695860D01*
X-435501Y-7695860D02*
X-454548Y-7705384D01*
X-454548Y-7705384D02*
X-473596Y-7705384D01*
X-473596Y-7705384D02*
X-492643Y-7695860D01*
X-492643Y-7695860D02*
X-502167Y-7686336D01*
X-502167Y-7686336D02*
X-511691Y-7667288D01*
X-511691Y-7667288D02*
X-521215Y-7629193D01*
X-521215Y-7629193D02*
X-521215Y-7581574D01*
X-521215Y-7581574D02*
X-511691Y-7543479D01*
X-511691Y-7543479D02*
X-502167Y-7524431D01*
X-502167Y-7524431D02*
X-492643Y-7514908D01*
X-492643Y-7514908D02*
X-473596Y-7505384D01*
X-321215Y-7686336D02*
X-311691Y-7695860D01*
X-311691Y-7695860D02*
X-321215Y-7705384D01*
X-321215Y-7705384D02*
X-330739Y-7695860D01*
X-330739Y-7695860D02*
X-321215Y-7686336D01*
X-321215Y-7686336D02*
X-321215Y-7705384D01*
X-187882Y-7505384D02*
X-168834Y-7505384D01*
X-168834Y-7505384D02*
X-149786Y-7514908D01*
X-149786Y-7514908D02*
X-140263Y-7524431D01*
X-140263Y-7524431D02*
X-130739Y-7543479D01*
X-130739Y-7543479D02*
X-121215Y-7581574D01*
X-121215Y-7581574D02*
X-121215Y-7629193D01*
X-121215Y-7629193D02*
X-130739Y-7667288D01*
X-130739Y-7667288D02*
X-140263Y-7686336D01*
X-140263Y-7686336D02*
X-149786Y-7695860D01*
X-149786Y-7695860D02*
X-168834Y-7705384D01*
X-168834Y-7705384D02*
X-187882Y-7705384D01*
X-187882Y-7705384D02*
X-206929Y-7695860D01*
X-206929Y-7695860D02*
X-216453Y-7686336D01*
X-216453Y-7686336D02*
X-225977Y-7667288D01*
X-225977Y-7667288D02*
X-235501Y-7629193D01*
X-235501Y-7629193D02*
X-235501Y-7581574D01*
X-235501Y-7581574D02*
X-225977Y-7543479D01*
X-225977Y-7543479D02*
X-216453Y-7524431D01*
X-216453Y-7524431D02*
X-206929Y-7514908D01*
X-206929Y-7514908D02*
X-187882Y-7505384D01*
X-45024Y-7524431D02*
X-35501Y-7514908D01*
X-35501Y-7514908D02*
X-16453Y-7505384D01*
X-16453Y-7505384D02*
X31166Y-7505384D01*
X31166Y-7505384D02*
X50214Y-7514908D01*
X50214Y-7514908D02*
X59737Y-7524431D01*
X59737Y-7524431D02*
X69261Y-7543479D01*
X69261Y-7543479D02*
X69261Y-7562527D01*
X69261Y-7562527D02*
X59737Y-7591098D01*
X59737Y-7591098D02*
X-54548Y-7705384D01*
X-54548Y-7705384D02*
X69261Y-7705384D01*
X135928Y-7505384D02*
X259737Y-7505384D01*
X259737Y-7505384D02*
X193071Y-7581574D01*
X193071Y-7581574D02*
X221642Y-7581574D01*
X221642Y-7581574D02*
X240690Y-7591098D01*
X240690Y-7591098D02*
X250214Y-7600622D01*
X250214Y-7600622D02*
X259737Y-7619669D01*
X259737Y-7619669D02*
X259737Y-7667288D01*
X259737Y-7667288D02*
X250214Y-7686336D01*
X250214Y-7686336D02*
X240690Y-7695860D01*
X240690Y-7695860D02*
X221642Y-7705384D01*
X221642Y-7705384D02*
X164499Y-7705384D01*
X164499Y-7705384D02*
X145452Y-7695860D01*
X145452Y-7695860D02*
X135928Y-7686336D01*
X431166Y-7505384D02*
X393071Y-7505384D01*
X393071Y-7505384D02*
X374023Y-7514908D01*
X374023Y-7514908D02*
X364499Y-7524431D01*
X364499Y-7524431D02*
X345452Y-7553003D01*
X345452Y-7553003D02*
X335928Y-7591098D01*
X335928Y-7591098D02*
X335928Y-7667288D01*
X335928Y-7667288D02*
X345452Y-7686336D01*
X345452Y-7686336D02*
X354976Y-7695860D01*
X354976Y-7695860D02*
X374023Y-7705384D01*
X374023Y-7705384D02*
X412118Y-7705384D01*
X412118Y-7705384D02*
X431166Y-7695860D01*
X431166Y-7695860D02*
X440690Y-7686336D01*
X440690Y-7686336D02*
X450214Y-7667288D01*
X450214Y-7667288D02*
X450214Y-7619669D01*
X450214Y-7619669D02*
X440690Y-7600622D01*
X440690Y-7600622D02*
X431166Y-7591098D01*
X431166Y-7591098D02*
X412118Y-7581574D01*
X412118Y-7581574D02*
X374023Y-7581574D01*
X374023Y-7581574D02*
X354976Y-7591098D01*
X354976Y-7591098D02*
X345452Y-7600622D01*
X345452Y-7600622D02*
X335928Y-7619669D01*
X526404Y-7505384D02*
X526404Y-7543479D01*
X602595Y-7505384D02*
X602595Y-7543479D01*
X897833Y-7781574D02*
X888309Y-7772050D01*
X888309Y-7772050D02*
X869261Y-7743479D01*
X869261Y-7743479D02*
X859738Y-7724431D01*
X859738Y-7724431D02*
X850214Y-7695860D01*
X850214Y-7695860D02*
X840690Y-7648241D01*
X840690Y-7648241D02*
X840690Y-7610146D01*
X840690Y-7610146D02*
X850214Y-7562527D01*
X850214Y-7562527D02*
X859738Y-7533955D01*
X859738Y-7533955D02*
X869261Y-7514908D01*
X869261Y-7514908D02*
X888309Y-7486336D01*
X888309Y-7486336D02*
X897833Y-7476812D01*
X1059738Y-7572050D02*
X1059738Y-7705384D01*
X1012118Y-7495860D02*
X964499Y-7638717D01*
X964499Y-7638717D02*
X1088309Y-7638717D01*
X1316881Y-7705384D02*
X1316881Y-7505384D01*
X1402595Y-7705384D02*
X1402595Y-7600622D01*
X1402595Y-7600622D02*
X1393071Y-7581574D01*
X1393071Y-7581574D02*
X1374023Y-7572050D01*
X1374023Y-7572050D02*
X1345452Y-7572050D01*
X1345452Y-7572050D02*
X1326404Y-7581574D01*
X1326404Y-7581574D02*
X1316881Y-7591098D01*
X1526404Y-7705384D02*
X1507357Y-7695860D01*
X1507357Y-7695860D02*
X1497833Y-7686336D01*
X1497833Y-7686336D02*
X1488309Y-7667288D01*
X1488309Y-7667288D02*
X1488309Y-7610146D01*
X1488309Y-7610146D02*
X1497833Y-7591098D01*
X1497833Y-7591098D02*
X1507357Y-7581574D01*
X1507357Y-7581574D02*
X1526404Y-7572050D01*
X1526404Y-7572050D02*
X1554976Y-7572050D01*
X1554976Y-7572050D02*
X1574023Y-7581574D01*
X1574023Y-7581574D02*
X1583547Y-7591098D01*
X1583547Y-7591098D02*
X1593071Y-7610146D01*
X1593071Y-7610146D02*
X1593071Y-7667288D01*
X1593071Y-7667288D02*
X1583547Y-7686336D01*
X1583547Y-7686336D02*
X1574023Y-7695860D01*
X1574023Y-7695860D02*
X1554976Y-7705384D01*
X1554976Y-7705384D02*
X1526404Y-7705384D01*
X1707357Y-7705384D02*
X1688309Y-7695860D01*
X1688309Y-7695860D02*
X1678785Y-7676812D01*
X1678785Y-7676812D02*
X1678785Y-7505384D01*
X1859738Y-7695860D02*
X1840690Y-7705384D01*
X1840690Y-7705384D02*
X1802595Y-7705384D01*
X1802595Y-7705384D02*
X1783547Y-7695860D01*
X1783547Y-7695860D02*
X1774023Y-7676812D01*
X1774023Y-7676812D02*
X1774023Y-7600622D01*
X1774023Y-7600622D02*
X1783547Y-7581574D01*
X1783547Y-7581574D02*
X1802595Y-7572050D01*
X1802595Y-7572050D02*
X1840690Y-7572050D01*
X1840690Y-7572050D02*
X1859738Y-7581574D01*
X1859738Y-7581574D02*
X1869261Y-7600622D01*
X1869261Y-7600622D02*
X1869261Y-7619669D01*
X1869261Y-7619669D02*
X1774023Y-7638717D01*
X1945452Y-7695860D02*
X1964500Y-7705384D01*
X1964500Y-7705384D02*
X2002595Y-7705384D01*
X2002595Y-7705384D02*
X2021642Y-7695860D01*
X2021642Y-7695860D02*
X2031166Y-7676812D01*
X2031166Y-7676812D02*
X2031166Y-7667288D01*
X2031166Y-7667288D02*
X2021642Y-7648241D01*
X2021642Y-7648241D02*
X2002595Y-7638717D01*
X2002595Y-7638717D02*
X1974023Y-7638717D01*
X1974023Y-7638717D02*
X1954976Y-7629193D01*
X1954976Y-7629193D02*
X1945452Y-7610146D01*
X1945452Y-7610146D02*
X1945452Y-7600622D01*
X1945452Y-7600622D02*
X1954976Y-7581574D01*
X1954976Y-7581574D02*
X1974023Y-7572050D01*
X1974023Y-7572050D02*
X2002595Y-7572050D01*
X2002595Y-7572050D02*
X2021642Y-7581574D01*
X2097833Y-7781574D02*
X2107357Y-7772050D01*
X2107357Y-7772050D02*
X2126404Y-7743479D01*
X2126404Y-7743479D02*
X2135928Y-7724431D01*
X2135928Y-7724431D02*
X2145452Y-7695860D01*
X2145452Y-7695860D02*
X2154976Y-7648241D01*
X2154976Y-7648241D02*
X2154976Y-7610146D01*
X2154976Y-7610146D02*
X2145452Y-7562527D01*
X2145452Y-7562527D02*
X2135928Y-7533955D01*
X2135928Y-7533955D02*
X2126404Y-7514908D01*
X2126404Y-7514908D02*
X2107357Y-7486336D01*
X2107357Y-7486336D02*
X2097833Y-7476812D01*
D10*
X-2717230Y-7917900D02*
X-2677230Y-7877900D01*
X-2717230Y-7837900D01*
X-2757230Y-7877900D01*
X-2717230Y-7917900D01*
D11*
X-2378358Y-7769384D02*
X-2359310Y-7769384D01*
X-2359310Y-7769384D02*
X-2340263Y-7778908D01*
X-2340263Y-7778908D02*
X-2330739Y-7788431D01*
X-2330739Y-7788431D02*
X-2321215Y-7807479D01*
X-2321215Y-7807479D02*
X-2311691Y-7845574D01*
X-2311691Y-7845574D02*
X-2311691Y-7893193D01*
X-2311691Y-7893193D02*
X-2321215Y-7931288D01*
X-2321215Y-7931288D02*
X-2330739Y-7950336D01*
X-2330739Y-7950336D02*
X-2340263Y-7959860D01*
X-2340263Y-7959860D02*
X-2359310Y-7969384D01*
X-2359310Y-7969384D02*
X-2378358Y-7969384D01*
X-2378358Y-7969384D02*
X-2397406Y-7959860D01*
X-2397406Y-7959860D02*
X-2406929Y-7950336D01*
X-2406929Y-7950336D02*
X-2416453Y-7931288D01*
X-2416453Y-7931288D02*
X-2425977Y-7893193D01*
X-2425977Y-7893193D02*
X-2425977Y-7845574D01*
X-2425977Y-7845574D02*
X-2416453Y-7807479D01*
X-2416453Y-7807479D02*
X-2406929Y-7788431D01*
X-2406929Y-7788431D02*
X-2397406Y-7778908D01*
X-2397406Y-7778908D02*
X-2378358Y-7769384D01*
X-2225977Y-7950336D02*
X-2216453Y-7959860D01*
X-2216453Y-7959860D02*
X-2225977Y-7969384D01*
X-2225977Y-7969384D02*
X-2235501Y-7959860D01*
X-2235501Y-7959860D02*
X-2225977Y-7950336D01*
X-2225977Y-7950336D02*
X-2225977Y-7969384D01*
X-2102168Y-7855098D02*
X-2121215Y-7845574D01*
X-2121215Y-7845574D02*
X-2130739Y-7836050D01*
X-2130739Y-7836050D02*
X-2140263Y-7817003D01*
X-2140263Y-7817003D02*
X-2140263Y-7807479D01*
X-2140263Y-7807479D02*
X-2130739Y-7788431D01*
X-2130739Y-7788431D02*
X-2121215Y-7778908D01*
X-2121215Y-7778908D02*
X-2102168Y-7769384D01*
X-2102168Y-7769384D02*
X-2064072Y-7769384D01*
X-2064072Y-7769384D02*
X-2045025Y-7778908D01*
X-2045025Y-7778908D02*
X-2035501Y-7788431D01*
X-2035501Y-7788431D02*
X-2025977Y-7807479D01*
X-2025977Y-7807479D02*
X-2025977Y-7817003D01*
X-2025977Y-7817003D02*
X-2035501Y-7836050D01*
X-2035501Y-7836050D02*
X-2045025Y-7845574D01*
X-2045025Y-7845574D02*
X-2064072Y-7855098D01*
X-2064072Y-7855098D02*
X-2102168Y-7855098D01*
X-2102168Y-7855098D02*
X-2121215Y-7864622D01*
X-2121215Y-7864622D02*
X-2130739Y-7874146D01*
X-2130739Y-7874146D02*
X-2140263Y-7893193D01*
X-2140263Y-7893193D02*
X-2140263Y-7931288D01*
X-2140263Y-7931288D02*
X-2130739Y-7950336D01*
X-2130739Y-7950336D02*
X-2121215Y-7959860D01*
X-2121215Y-7959860D02*
X-2102168Y-7969384D01*
X-2102168Y-7969384D02*
X-2064072Y-7969384D01*
X-2064072Y-7969384D02*
X-2045025Y-7959860D01*
X-2045025Y-7959860D02*
X-2035501Y-7950336D01*
X-2035501Y-7950336D02*
X-2025977Y-7931288D01*
X-2025977Y-7931288D02*
X-2025977Y-7893193D01*
X-2025977Y-7893193D02*
X-2035501Y-7874146D01*
X-2035501Y-7874146D02*
X-2045025Y-7864622D01*
X-2045025Y-7864622D02*
X-2064072Y-7855098D01*
X-1902167Y-7769384D02*
X-1883120Y-7769384D01*
X-1883120Y-7769384D02*
X-1864072Y-7778908D01*
X-1864072Y-7778908D02*
X-1854548Y-7788431D01*
X-1854548Y-7788431D02*
X-1845025Y-7807479D01*
X-1845025Y-7807479D02*
X-1835501Y-7845574D01*
X-1835501Y-7845574D02*
X-1835501Y-7893193D01*
X-1835501Y-7893193D02*
X-1845025Y-7931288D01*
X-1845025Y-7931288D02*
X-1854548Y-7950336D01*
X-1854548Y-7950336D02*
X-1864072Y-7959860D01*
X-1864072Y-7959860D02*
X-1883120Y-7969384D01*
X-1883120Y-7969384D02*
X-1902167Y-7969384D01*
X-1902167Y-7969384D02*
X-1921215Y-7959860D01*
X-1921215Y-7959860D02*
X-1930739Y-7950336D01*
X-1930739Y-7950336D02*
X-1940263Y-7931288D01*
X-1940263Y-7931288D02*
X-1949786Y-7893193D01*
X-1949786Y-7893193D02*
X-1949786Y-7845574D01*
X-1949786Y-7845574D02*
X-1940263Y-7807479D01*
X-1940263Y-7807479D02*
X-1930739Y-7788431D01*
X-1930739Y-7788431D02*
X-1921215Y-7778908D01*
X-1921215Y-7778908D02*
X-1902167Y-7769384D01*
X-1711691Y-7769384D02*
X-1692644Y-7769384D01*
X-1692644Y-7769384D02*
X-1673596Y-7778908D01*
X-1673596Y-7778908D02*
X-1664072Y-7788431D01*
X-1664072Y-7788431D02*
X-1654548Y-7807479D01*
X-1654548Y-7807479D02*
X-1645025Y-7845574D01*
X-1645025Y-7845574D02*
X-1645025Y-7893193D01*
X-1645025Y-7893193D02*
X-1654548Y-7931288D01*
X-1654548Y-7931288D02*
X-1664072Y-7950336D01*
X-1664072Y-7950336D02*
X-1673596Y-7959860D01*
X-1673596Y-7959860D02*
X-1692644Y-7969384D01*
X-1692644Y-7969384D02*
X-1711691Y-7969384D01*
X-1711691Y-7969384D02*
X-1730739Y-7959860D01*
X-1730739Y-7959860D02*
X-1740263Y-7950336D01*
X-1740263Y-7950336D02*
X-1749786Y-7931288D01*
X-1749786Y-7931288D02*
X-1759310Y-7893193D01*
X-1759310Y-7893193D02*
X-1759310Y-7845574D01*
X-1759310Y-7845574D02*
X-1749786Y-7807479D01*
X-1749786Y-7807479D02*
X-1740263Y-7788431D01*
X-1740263Y-7788431D02*
X-1730739Y-7778908D01*
X-1730739Y-7778908D02*
X-1711691Y-7769384D01*
X-1559310Y-7969384D02*
X-1559310Y-7836050D01*
X-1559310Y-7855098D02*
X-1549786Y-7845574D01*
X-1549786Y-7845574D02*
X-1530739Y-7836050D01*
X-1530739Y-7836050D02*
X-1502167Y-7836050D01*
X-1502167Y-7836050D02*
X-1483120Y-7845574D01*
X-1483120Y-7845574D02*
X-1473596Y-7864622D01*
X-1473596Y-7864622D02*
X-1473596Y-7969384D01*
X-1473596Y-7864622D02*
X-1464072Y-7845574D01*
X-1464072Y-7845574D02*
X-1445025Y-7836050D01*
X-1445025Y-7836050D02*
X-1416453Y-7836050D01*
X-1416453Y-7836050D02*
X-1397406Y-7845574D01*
X-1397406Y-7845574D02*
X-1387882Y-7864622D01*
X-1387882Y-7864622D02*
X-1387882Y-7969384D01*
X-1292644Y-7969384D02*
X-1292644Y-7836050D01*
X-1292644Y-7855098D02*
X-1283120Y-7845574D01*
X-1283120Y-7845574D02*
X-1264072Y-7836050D01*
X-1264072Y-7836050D02*
X-1235501Y-7836050D01*
X-1235501Y-7836050D02*
X-1216453Y-7845574D01*
X-1216453Y-7845574D02*
X-1206929Y-7864622D01*
X-1206929Y-7864622D02*
X-1206929Y-7969384D01*
X-1206929Y-7864622D02*
X-1197406Y-7845574D01*
X-1197406Y-7845574D02*
X-1178358Y-7836050D01*
X-1178358Y-7836050D02*
X-1149787Y-7836050D01*
X-1149787Y-7836050D02*
X-1130739Y-7845574D01*
X-1130739Y-7845574D02*
X-1121215Y-7864622D01*
X-1121215Y-7864622D02*
X-1121215Y-7969384D01*
X-730739Y-7759860D02*
X-902167Y-8017003D01*
X-473596Y-7769384D02*
X-454548Y-7769384D01*
X-454548Y-7769384D02*
X-435501Y-7778908D01*
X-435501Y-7778908D02*
X-425977Y-7788431D01*
X-425977Y-7788431D02*
X-416453Y-7807479D01*
X-416453Y-7807479D02*
X-406929Y-7845574D01*
X-406929Y-7845574D02*
X-406929Y-7893193D01*
X-406929Y-7893193D02*
X-416453Y-7931288D01*
X-416453Y-7931288D02*
X-425977Y-7950336D01*
X-425977Y-7950336D02*
X-435501Y-7959860D01*
X-435501Y-7959860D02*
X-454548Y-7969384D01*
X-454548Y-7969384D02*
X-473596Y-7969384D01*
X-473596Y-7969384D02*
X-492643Y-7959860D01*
X-492643Y-7959860D02*
X-502167Y-7950336D01*
X-502167Y-7950336D02*
X-511691Y-7931288D01*
X-511691Y-7931288D02*
X-521215Y-7893193D01*
X-521215Y-7893193D02*
X-521215Y-7845574D01*
X-521215Y-7845574D02*
X-511691Y-7807479D01*
X-511691Y-7807479D02*
X-502167Y-7788431D01*
X-502167Y-7788431D02*
X-492643Y-7778908D01*
X-492643Y-7778908D02*
X-473596Y-7769384D01*
X-321215Y-7950336D02*
X-311691Y-7959860D01*
X-311691Y-7959860D02*
X-321215Y-7969384D01*
X-321215Y-7969384D02*
X-330739Y-7959860D01*
X-330739Y-7959860D02*
X-321215Y-7950336D01*
X-321215Y-7950336D02*
X-321215Y-7969384D01*
X-187882Y-7769384D02*
X-168834Y-7769384D01*
X-168834Y-7769384D02*
X-149786Y-7778908D01*
X-149786Y-7778908D02*
X-140263Y-7788431D01*
X-140263Y-7788431D02*
X-130739Y-7807479D01*
X-130739Y-7807479D02*
X-121215Y-7845574D01*
X-121215Y-7845574D02*
X-121215Y-7893193D01*
X-121215Y-7893193D02*
X-130739Y-7931288D01*
X-130739Y-7931288D02*
X-140263Y-7950336D01*
X-140263Y-7950336D02*
X-149786Y-7959860D01*
X-149786Y-7959860D02*
X-168834Y-7969384D01*
X-168834Y-7969384D02*
X-187882Y-7969384D01*
X-187882Y-7969384D02*
X-206929Y-7959860D01*
X-206929Y-7959860D02*
X-216453Y-7950336D01*
X-216453Y-7950336D02*
X-225977Y-7931288D01*
X-225977Y-7931288D02*
X-235501Y-7893193D01*
X-235501Y-7893193D02*
X-235501Y-7845574D01*
X-235501Y-7845574D02*
X-225977Y-7807479D01*
X-225977Y-7807479D02*
X-216453Y-7788431D01*
X-216453Y-7788431D02*
X-206929Y-7778908D01*
X-206929Y-7778908D02*
X-187882Y-7769384D01*
X-54548Y-7769384D02*
X69261Y-7769384D01*
X69261Y-7769384D02*
X2595Y-7845574D01*
X2595Y-7845574D02*
X31166Y-7845574D01*
X31166Y-7845574D02*
X50214Y-7855098D01*
X50214Y-7855098D02*
X59737Y-7864622D01*
X59737Y-7864622D02*
X69261Y-7883669D01*
X69261Y-7883669D02*
X69261Y-7931288D01*
X69261Y-7931288D02*
X59737Y-7950336D01*
X59737Y-7950336D02*
X50214Y-7959860D01*
X50214Y-7959860D02*
X31166Y-7969384D01*
X31166Y-7969384D02*
X-25977Y-7969384D01*
X-25977Y-7969384D02*
X-45024Y-7959860D01*
X-45024Y-7959860D02*
X-54548Y-7950336D01*
X259737Y-7969384D02*
X145452Y-7969384D01*
X202595Y-7969384D02*
X202595Y-7769384D01*
X202595Y-7769384D02*
X183547Y-7797955D01*
X183547Y-7797955D02*
X164499Y-7817003D01*
X164499Y-7817003D02*
X145452Y-7826527D01*
X440690Y-7769384D02*
X345452Y-7769384D01*
X345452Y-7769384D02*
X335928Y-7864622D01*
X335928Y-7864622D02*
X345452Y-7855098D01*
X345452Y-7855098D02*
X364499Y-7845574D01*
X364499Y-7845574D02*
X412118Y-7845574D01*
X412118Y-7845574D02*
X431166Y-7855098D01*
X431166Y-7855098D02*
X440690Y-7864622D01*
X440690Y-7864622D02*
X450214Y-7883669D01*
X450214Y-7883669D02*
X450214Y-7931288D01*
X450214Y-7931288D02*
X440690Y-7950336D01*
X440690Y-7950336D02*
X431166Y-7959860D01*
X431166Y-7959860D02*
X412118Y-7969384D01*
X412118Y-7969384D02*
X364499Y-7969384D01*
X364499Y-7969384D02*
X345452Y-7959860D01*
X345452Y-7959860D02*
X335928Y-7950336D01*
X526404Y-7769384D02*
X526404Y-7807479D01*
X602595Y-7769384D02*
X602595Y-7807479D01*
X897833Y-8045574D02*
X888309Y-8036050D01*
X888309Y-8036050D02*
X869261Y-8007479D01*
X869261Y-8007479D02*
X859738Y-7988431D01*
X859738Y-7988431D02*
X850214Y-7959860D01*
X850214Y-7959860D02*
X840690Y-7912241D01*
X840690Y-7912241D02*
X840690Y-7874146D01*
X840690Y-7874146D02*
X850214Y-7826527D01*
X850214Y-7826527D02*
X859738Y-7797955D01*
X859738Y-7797955D02*
X869261Y-7778908D01*
X869261Y-7778908D02*
X888309Y-7750336D01*
X888309Y-7750336D02*
X897833Y-7740812D01*
X1078785Y-7969384D02*
X964499Y-7969384D01*
X1021642Y-7969384D02*
X1021642Y-7769384D01*
X1021642Y-7769384D02*
X1002595Y-7797955D01*
X1002595Y-7797955D02*
X983547Y-7817003D01*
X983547Y-7817003D02*
X964499Y-7826527D01*
X1316881Y-7969384D02*
X1316881Y-7769384D01*
X1402595Y-7969384D02*
X1402595Y-7864622D01*
X1402595Y-7864622D02*
X1393071Y-7845574D01*
X1393071Y-7845574D02*
X1374023Y-7836050D01*
X1374023Y-7836050D02*
X1345452Y-7836050D01*
X1345452Y-7836050D02*
X1326404Y-7845574D01*
X1326404Y-7845574D02*
X1316881Y-7855098D01*
X1526404Y-7969384D02*
X1507357Y-7959860D01*
X1507357Y-7959860D02*
X1497833Y-7950336D01*
X1497833Y-7950336D02*
X1488309Y-7931288D01*
X1488309Y-7931288D02*
X1488309Y-7874146D01*
X1488309Y-7874146D02*
X1497833Y-7855098D01*
X1497833Y-7855098D02*
X1507357Y-7845574D01*
X1507357Y-7845574D02*
X1526404Y-7836050D01*
X1526404Y-7836050D02*
X1554976Y-7836050D01*
X1554976Y-7836050D02*
X1574023Y-7845574D01*
X1574023Y-7845574D02*
X1583547Y-7855098D01*
X1583547Y-7855098D02*
X1593071Y-7874146D01*
X1593071Y-7874146D02*
X1593071Y-7931288D01*
X1593071Y-7931288D02*
X1583547Y-7950336D01*
X1583547Y-7950336D02*
X1574023Y-7959860D01*
X1574023Y-7959860D02*
X1554976Y-7969384D01*
X1554976Y-7969384D02*
X1526404Y-7969384D01*
X1707357Y-7969384D02*
X1688309Y-7959860D01*
X1688309Y-7959860D02*
X1678785Y-7940812D01*
X1678785Y-7940812D02*
X1678785Y-7769384D01*
X1859738Y-7959860D02*
X1840690Y-7969384D01*
X1840690Y-7969384D02*
X1802595Y-7969384D01*
X1802595Y-7969384D02*
X1783547Y-7959860D01*
X1783547Y-7959860D02*
X1774023Y-7940812D01*
X1774023Y-7940812D02*
X1774023Y-7864622D01*
X1774023Y-7864622D02*
X1783547Y-7845574D01*
X1783547Y-7845574D02*
X1802595Y-7836050D01*
X1802595Y-7836050D02*
X1840690Y-7836050D01*
X1840690Y-7836050D02*
X1859738Y-7845574D01*
X1859738Y-7845574D02*
X1869261Y-7864622D01*
X1869261Y-7864622D02*
X1869261Y-7883669D01*
X1869261Y-7883669D02*
X1774023Y-7902717D01*
X1935928Y-8045574D02*
X1945452Y-8036050D01*
X1945452Y-8036050D02*
X1964500Y-8007479D01*
X1964500Y-8007479D02*
X1974023Y-7988431D01*
X1974023Y-7988431D02*
X1983547Y-7959860D01*
X1983547Y-7959860D02*
X1993071Y-7912241D01*
X1993071Y-7912241D02*
X1993071Y-7874146D01*
X1993071Y-7874146D02*
X1983547Y-7826527D01*
X1983547Y-7826527D02*
X1974023Y-7797955D01*
X1974023Y-7797955D02*
X1964500Y-7778908D01*
X1964500Y-7778908D02*
X1945452Y-7750336D01*
X1945452Y-7750336D02*
X1935928Y-7740812D01*
D10*
X-2777230Y-8091900D02*
X-2677230Y-8191900D01*
X-2677230Y-8091900D02*
X-2777230Y-8191900D01*
X-2677230Y-8141900D02*
G75*
G03*
X-2677230Y-8141900I-50000J0D01*
G01*
D11*
X-2311691Y-8233384D02*
X-2425977Y-8233384D01*
X-2368834Y-8233384D02*
X-2368834Y-8033384D01*
X-2368834Y-8033384D02*
X-2387882Y-8061955D01*
X-2387882Y-8061955D02*
X-2406929Y-8081003D01*
X-2406929Y-8081003D02*
X-2425977Y-8090527D01*
X-2225977Y-8214336D02*
X-2216453Y-8223860D01*
X-2216453Y-8223860D02*
X-2225977Y-8233384D01*
X-2225977Y-8233384D02*
X-2235501Y-8223860D01*
X-2235501Y-8223860D02*
X-2225977Y-8214336D01*
X-2225977Y-8214336D02*
X-2225977Y-8233384D01*
X-2092644Y-8033384D02*
X-2073596Y-8033384D01*
X-2073596Y-8033384D02*
X-2054548Y-8042908D01*
X-2054548Y-8042908D02*
X-2045025Y-8052431D01*
X-2045025Y-8052431D02*
X-2035501Y-8071479D01*
X-2035501Y-8071479D02*
X-2025977Y-8109574D01*
X-2025977Y-8109574D02*
X-2025977Y-8157193D01*
X-2025977Y-8157193D02*
X-2035501Y-8195288D01*
X-2035501Y-8195288D02*
X-2045025Y-8214336D01*
X-2045025Y-8214336D02*
X-2054548Y-8223860D01*
X-2054548Y-8223860D02*
X-2073596Y-8233384D01*
X-2073596Y-8233384D02*
X-2092644Y-8233384D01*
X-2092644Y-8233384D02*
X-2111691Y-8223860D01*
X-2111691Y-8223860D02*
X-2121215Y-8214336D01*
X-2121215Y-8214336D02*
X-2130739Y-8195288D01*
X-2130739Y-8195288D02*
X-2140263Y-8157193D01*
X-2140263Y-8157193D02*
X-2140263Y-8109574D01*
X-2140263Y-8109574D02*
X-2130739Y-8071479D01*
X-2130739Y-8071479D02*
X-2121215Y-8052431D01*
X-2121215Y-8052431D02*
X-2111691Y-8042908D01*
X-2111691Y-8042908D02*
X-2092644Y-8033384D01*
X-1902167Y-8033384D02*
X-1883120Y-8033384D01*
X-1883120Y-8033384D02*
X-1864072Y-8042908D01*
X-1864072Y-8042908D02*
X-1854548Y-8052431D01*
X-1854548Y-8052431D02*
X-1845025Y-8071479D01*
X-1845025Y-8071479D02*
X-1835501Y-8109574D01*
X-1835501Y-8109574D02*
X-1835501Y-8157193D01*
X-1835501Y-8157193D02*
X-1845025Y-8195288D01*
X-1845025Y-8195288D02*
X-1854548Y-8214336D01*
X-1854548Y-8214336D02*
X-1864072Y-8223860D01*
X-1864072Y-8223860D02*
X-1883120Y-8233384D01*
X-1883120Y-8233384D02*
X-1902167Y-8233384D01*
X-1902167Y-8233384D02*
X-1921215Y-8223860D01*
X-1921215Y-8223860D02*
X-1930739Y-8214336D01*
X-1930739Y-8214336D02*
X-1940263Y-8195288D01*
X-1940263Y-8195288D02*
X-1949786Y-8157193D01*
X-1949786Y-8157193D02*
X-1949786Y-8109574D01*
X-1949786Y-8109574D02*
X-1940263Y-8071479D01*
X-1940263Y-8071479D02*
X-1930739Y-8052431D01*
X-1930739Y-8052431D02*
X-1921215Y-8042908D01*
X-1921215Y-8042908D02*
X-1902167Y-8033384D01*
X-1711691Y-8033384D02*
X-1692644Y-8033384D01*
X-1692644Y-8033384D02*
X-1673596Y-8042908D01*
X-1673596Y-8042908D02*
X-1664072Y-8052431D01*
X-1664072Y-8052431D02*
X-1654548Y-8071479D01*
X-1654548Y-8071479D02*
X-1645025Y-8109574D01*
X-1645025Y-8109574D02*
X-1645025Y-8157193D01*
X-1645025Y-8157193D02*
X-1654548Y-8195288D01*
X-1654548Y-8195288D02*
X-1664072Y-8214336D01*
X-1664072Y-8214336D02*
X-1673596Y-8223860D01*
X-1673596Y-8223860D02*
X-1692644Y-8233384D01*
X-1692644Y-8233384D02*
X-1711691Y-8233384D01*
X-1711691Y-8233384D02*
X-1730739Y-8223860D01*
X-1730739Y-8223860D02*
X-1740263Y-8214336D01*
X-1740263Y-8214336D02*
X-1749786Y-8195288D01*
X-1749786Y-8195288D02*
X-1759310Y-8157193D01*
X-1759310Y-8157193D02*
X-1759310Y-8109574D01*
X-1759310Y-8109574D02*
X-1749786Y-8071479D01*
X-1749786Y-8071479D02*
X-1740263Y-8052431D01*
X-1740263Y-8052431D02*
X-1730739Y-8042908D01*
X-1730739Y-8042908D02*
X-1711691Y-8033384D01*
X-1559310Y-8233384D02*
X-1559310Y-8100050D01*
X-1559310Y-8119098D02*
X-1549786Y-8109574D01*
X-1549786Y-8109574D02*
X-1530739Y-8100050D01*
X-1530739Y-8100050D02*
X-1502167Y-8100050D01*
X-1502167Y-8100050D02*
X-1483120Y-8109574D01*
X-1483120Y-8109574D02*
X-1473596Y-8128622D01*
X-1473596Y-8128622D02*
X-1473596Y-8233384D01*
X-1473596Y-8128622D02*
X-1464072Y-8109574D01*
X-1464072Y-8109574D02*
X-1445025Y-8100050D01*
X-1445025Y-8100050D02*
X-1416453Y-8100050D01*
X-1416453Y-8100050D02*
X-1397406Y-8109574D01*
X-1397406Y-8109574D02*
X-1387882Y-8128622D01*
X-1387882Y-8128622D02*
X-1387882Y-8233384D01*
X-1292644Y-8233384D02*
X-1292644Y-8100050D01*
X-1292644Y-8119098D02*
X-1283120Y-8109574D01*
X-1283120Y-8109574D02*
X-1264072Y-8100050D01*
X-1264072Y-8100050D02*
X-1235501Y-8100050D01*
X-1235501Y-8100050D02*
X-1216453Y-8109574D01*
X-1216453Y-8109574D02*
X-1206929Y-8128622D01*
X-1206929Y-8128622D02*
X-1206929Y-8233384D01*
X-1206929Y-8128622D02*
X-1197406Y-8109574D01*
X-1197406Y-8109574D02*
X-1178358Y-8100050D01*
X-1178358Y-8100050D02*
X-1149787Y-8100050D01*
X-1149787Y-8100050D02*
X-1130739Y-8109574D01*
X-1130739Y-8109574D02*
X-1121215Y-8128622D01*
X-1121215Y-8128622D02*
X-1121215Y-8233384D01*
X-730739Y-8023860D02*
X-902167Y-8281003D01*
X-473596Y-8033384D02*
X-454548Y-8033384D01*
X-454548Y-8033384D02*
X-435501Y-8042908D01*
X-435501Y-8042908D02*
X-425977Y-8052431D01*
X-425977Y-8052431D02*
X-416453Y-8071479D01*
X-416453Y-8071479D02*
X-406929Y-8109574D01*
X-406929Y-8109574D02*
X-406929Y-8157193D01*
X-406929Y-8157193D02*
X-416453Y-8195288D01*
X-416453Y-8195288D02*
X-425977Y-8214336D01*
X-425977Y-8214336D02*
X-435501Y-8223860D01*
X-435501Y-8223860D02*
X-454548Y-8233384D01*
X-454548Y-8233384D02*
X-473596Y-8233384D01*
X-473596Y-8233384D02*
X-492643Y-8223860D01*
X-492643Y-8223860D02*
X-502167Y-8214336D01*
X-502167Y-8214336D02*
X-511691Y-8195288D01*
X-511691Y-8195288D02*
X-521215Y-8157193D01*
X-521215Y-8157193D02*
X-521215Y-8109574D01*
X-521215Y-8109574D02*
X-511691Y-8071479D01*
X-511691Y-8071479D02*
X-502167Y-8052431D01*
X-502167Y-8052431D02*
X-492643Y-8042908D01*
X-492643Y-8042908D02*
X-473596Y-8033384D01*
X-321215Y-8214336D02*
X-311691Y-8223860D01*
X-311691Y-8223860D02*
X-321215Y-8233384D01*
X-321215Y-8233384D02*
X-330739Y-8223860D01*
X-330739Y-8223860D02*
X-321215Y-8214336D01*
X-321215Y-8214336D02*
X-321215Y-8233384D01*
X-187882Y-8033384D02*
X-168834Y-8033384D01*
X-168834Y-8033384D02*
X-149786Y-8042908D01*
X-149786Y-8042908D02*
X-140263Y-8052431D01*
X-140263Y-8052431D02*
X-130739Y-8071479D01*
X-130739Y-8071479D02*
X-121215Y-8109574D01*
X-121215Y-8109574D02*
X-121215Y-8157193D01*
X-121215Y-8157193D02*
X-130739Y-8195288D01*
X-130739Y-8195288D02*
X-140263Y-8214336D01*
X-140263Y-8214336D02*
X-149786Y-8223860D01*
X-149786Y-8223860D02*
X-168834Y-8233384D01*
X-168834Y-8233384D02*
X-187882Y-8233384D01*
X-187882Y-8233384D02*
X-206929Y-8223860D01*
X-206929Y-8223860D02*
X-216453Y-8214336D01*
X-216453Y-8214336D02*
X-225977Y-8195288D01*
X-225977Y-8195288D02*
X-235501Y-8157193D01*
X-235501Y-8157193D02*
X-235501Y-8109574D01*
X-235501Y-8109574D02*
X-225977Y-8071479D01*
X-225977Y-8071479D02*
X-216453Y-8052431D01*
X-216453Y-8052431D02*
X-206929Y-8042908D01*
X-206929Y-8042908D02*
X-187882Y-8033384D01*
X-54548Y-8033384D02*
X69261Y-8033384D01*
X69261Y-8033384D02*
X2595Y-8109574D01*
X2595Y-8109574D02*
X31166Y-8109574D01*
X31166Y-8109574D02*
X50214Y-8119098D01*
X50214Y-8119098D02*
X59737Y-8128622D01*
X59737Y-8128622D02*
X69261Y-8147669D01*
X69261Y-8147669D02*
X69261Y-8195288D01*
X69261Y-8195288D02*
X59737Y-8214336D01*
X59737Y-8214336D02*
X50214Y-8223860D01*
X50214Y-8223860D02*
X31166Y-8233384D01*
X31166Y-8233384D02*
X-25977Y-8233384D01*
X-25977Y-8233384D02*
X-45024Y-8223860D01*
X-45024Y-8223860D02*
X-54548Y-8214336D01*
X164499Y-8233384D02*
X202595Y-8233384D01*
X202595Y-8233384D02*
X221642Y-8223860D01*
X221642Y-8223860D02*
X231166Y-8214336D01*
X231166Y-8214336D02*
X250214Y-8185765D01*
X250214Y-8185765D02*
X259737Y-8147669D01*
X259737Y-8147669D02*
X259737Y-8071479D01*
X259737Y-8071479D02*
X250214Y-8052431D01*
X250214Y-8052431D02*
X240690Y-8042908D01*
X240690Y-8042908D02*
X221642Y-8033384D01*
X221642Y-8033384D02*
X183547Y-8033384D01*
X183547Y-8033384D02*
X164499Y-8042908D01*
X164499Y-8042908D02*
X154976Y-8052431D01*
X154976Y-8052431D02*
X145452Y-8071479D01*
X145452Y-8071479D02*
X145452Y-8119098D01*
X145452Y-8119098D02*
X154976Y-8138146D01*
X154976Y-8138146D02*
X164499Y-8147669D01*
X164499Y-8147669D02*
X183547Y-8157193D01*
X183547Y-8157193D02*
X221642Y-8157193D01*
X221642Y-8157193D02*
X240690Y-8147669D01*
X240690Y-8147669D02*
X250214Y-8138146D01*
X250214Y-8138146D02*
X259737Y-8119098D01*
X431166Y-8100050D02*
X431166Y-8233384D01*
X383547Y-8023860D02*
X335928Y-8166717D01*
X335928Y-8166717D02*
X459737Y-8166717D01*
X526404Y-8033384D02*
X526404Y-8071479D01*
X602595Y-8033384D02*
X602595Y-8071479D01*
X897833Y-8309574D02*
X888309Y-8300050D01*
X888309Y-8300050D02*
X869261Y-8271479D01*
X869261Y-8271479D02*
X859738Y-8252431D01*
X859738Y-8252431D02*
X850214Y-8223860D01*
X850214Y-8223860D02*
X840690Y-8176241D01*
X840690Y-8176241D02*
X840690Y-8138146D01*
X840690Y-8138146D02*
X850214Y-8090527D01*
X850214Y-8090527D02*
X859738Y-8061955D01*
X859738Y-8061955D02*
X869261Y-8042908D01*
X869261Y-8042908D02*
X888309Y-8014336D01*
X888309Y-8014336D02*
X897833Y-8004812D01*
X1002595Y-8119098D02*
X983547Y-8109574D01*
X983547Y-8109574D02*
X974023Y-8100050D01*
X974023Y-8100050D02*
X964499Y-8081003D01*
X964499Y-8081003D02*
X964499Y-8071479D01*
X964499Y-8071479D02*
X974023Y-8052431D01*
X974023Y-8052431D02*
X983547Y-8042908D01*
X983547Y-8042908D02*
X1002595Y-8033384D01*
X1002595Y-8033384D02*
X1040690Y-8033384D01*
X1040690Y-8033384D02*
X1059738Y-8042908D01*
X1059738Y-8042908D02*
X1069261Y-8052431D01*
X1069261Y-8052431D02*
X1078785Y-8071479D01*
X1078785Y-8071479D02*
X1078785Y-8081003D01*
X1078785Y-8081003D02*
X1069261Y-8100050D01*
X1069261Y-8100050D02*
X1059738Y-8109574D01*
X1059738Y-8109574D02*
X1040690Y-8119098D01*
X1040690Y-8119098D02*
X1002595Y-8119098D01*
X1002595Y-8119098D02*
X983547Y-8128622D01*
X983547Y-8128622D02*
X974023Y-8138146D01*
X974023Y-8138146D02*
X964499Y-8157193D01*
X964499Y-8157193D02*
X964499Y-8195288D01*
X964499Y-8195288D02*
X974023Y-8214336D01*
X974023Y-8214336D02*
X983547Y-8223860D01*
X983547Y-8223860D02*
X1002595Y-8233384D01*
X1002595Y-8233384D02*
X1040690Y-8233384D01*
X1040690Y-8233384D02*
X1059738Y-8223860D01*
X1059738Y-8223860D02*
X1069261Y-8214336D01*
X1069261Y-8214336D02*
X1078785Y-8195288D01*
X1078785Y-8195288D02*
X1078785Y-8157193D01*
X1078785Y-8157193D02*
X1069261Y-8138146D01*
X1069261Y-8138146D02*
X1059738Y-8128622D01*
X1059738Y-8128622D02*
X1040690Y-8119098D01*
X1316881Y-8233384D02*
X1316881Y-8033384D01*
X1402595Y-8233384D02*
X1402595Y-8128622D01*
X1402595Y-8128622D02*
X1393071Y-8109574D01*
X1393071Y-8109574D02*
X1374023Y-8100050D01*
X1374023Y-8100050D02*
X1345452Y-8100050D01*
X1345452Y-8100050D02*
X1326404Y-8109574D01*
X1326404Y-8109574D02*
X1316881Y-8119098D01*
X1526404Y-8233384D02*
X1507357Y-8223860D01*
X1507357Y-8223860D02*
X1497833Y-8214336D01*
X1497833Y-8214336D02*
X1488309Y-8195288D01*
X1488309Y-8195288D02*
X1488309Y-8138146D01*
X1488309Y-8138146D02*
X1497833Y-8119098D01*
X1497833Y-8119098D02*
X1507357Y-8109574D01*
X1507357Y-8109574D02*
X1526404Y-8100050D01*
X1526404Y-8100050D02*
X1554976Y-8100050D01*
X1554976Y-8100050D02*
X1574023Y-8109574D01*
X1574023Y-8109574D02*
X1583547Y-8119098D01*
X1583547Y-8119098D02*
X1593071Y-8138146D01*
X1593071Y-8138146D02*
X1593071Y-8195288D01*
X1593071Y-8195288D02*
X1583547Y-8214336D01*
X1583547Y-8214336D02*
X1574023Y-8223860D01*
X1574023Y-8223860D02*
X1554976Y-8233384D01*
X1554976Y-8233384D02*
X1526404Y-8233384D01*
X1707357Y-8233384D02*
X1688309Y-8223860D01*
X1688309Y-8223860D02*
X1678785Y-8204812D01*
X1678785Y-8204812D02*
X1678785Y-8033384D01*
X1859738Y-8223860D02*
X1840690Y-8233384D01*
X1840690Y-8233384D02*
X1802595Y-8233384D01*
X1802595Y-8233384D02*
X1783547Y-8223860D01*
X1783547Y-8223860D02*
X1774023Y-8204812D01*
X1774023Y-8204812D02*
X1774023Y-8128622D01*
X1774023Y-8128622D02*
X1783547Y-8109574D01*
X1783547Y-8109574D02*
X1802595Y-8100050D01*
X1802595Y-8100050D02*
X1840690Y-8100050D01*
X1840690Y-8100050D02*
X1859738Y-8109574D01*
X1859738Y-8109574D02*
X1869261Y-8128622D01*
X1869261Y-8128622D02*
X1869261Y-8147669D01*
X1869261Y-8147669D02*
X1774023Y-8166717D01*
X1945452Y-8223860D02*
X1964500Y-8233384D01*
X1964500Y-8233384D02*
X2002595Y-8233384D01*
X2002595Y-8233384D02*
X2021642Y-8223860D01*
X2021642Y-8223860D02*
X2031166Y-8204812D01*
X2031166Y-8204812D02*
X2031166Y-8195288D01*
X2031166Y-8195288D02*
X2021642Y-8176241D01*
X2021642Y-8176241D02*
X2002595Y-8166717D01*
X2002595Y-8166717D02*
X1974023Y-8166717D01*
X1974023Y-8166717D02*
X1954976Y-8157193D01*
X1954976Y-8157193D02*
X1945452Y-8138146D01*
X1945452Y-8138146D02*
X1945452Y-8128622D01*
X1945452Y-8128622D02*
X1954976Y-8109574D01*
X1954976Y-8109574D02*
X1974023Y-8100050D01*
X1974023Y-8100050D02*
X2002595Y-8100050D01*
X2002595Y-8100050D02*
X2021642Y-8109574D01*
X2097833Y-8309574D02*
X2107357Y-8300050D01*
X2107357Y-8300050D02*
X2126404Y-8271479D01*
X2126404Y-8271479D02*
X2135928Y-8252431D01*
X2135928Y-8252431D02*
X2145452Y-8223860D01*
X2145452Y-8223860D02*
X2154976Y-8176241D01*
X2154976Y-8176241D02*
X2154976Y-8138146D01*
X2154976Y-8138146D02*
X2145452Y-8090527D01*
X2145452Y-8090527D02*
X2135928Y-8061955D01*
X2135928Y-8061955D02*
X2126404Y-8042908D01*
X2126404Y-8042908D02*
X2107357Y-8014336D01*
X2107357Y-8014336D02*
X2097833Y-8004812D01*
D12*
X-2867230Y-8310900D02*
X-2677230Y-8500900D01*
X-2677230Y-8310900D02*
X-2867230Y-8500900D01*
X-2772230Y-8310900D02*
X-2772230Y-8500900D01*
X-2867230Y-8405900D02*
X-2677230Y-8405900D01*
D11*
X-2311691Y-8497384D02*
X-2425977Y-8497384D01*
X-2368834Y-8497384D02*
X-2368834Y-8297384D01*
X-2368834Y-8297384D02*
X-2387882Y-8325955D01*
X-2387882Y-8325955D02*
X-2406929Y-8345003D01*
X-2406929Y-8345003D02*
X-2425977Y-8354527D01*
X-2225977Y-8478336D02*
X-2216453Y-8487860D01*
X-2216453Y-8487860D02*
X-2225977Y-8497384D01*
X-2225977Y-8497384D02*
X-2235501Y-8487860D01*
X-2235501Y-8487860D02*
X-2225977Y-8478336D01*
X-2225977Y-8478336D02*
X-2225977Y-8497384D01*
X-2121215Y-8497384D02*
X-2083120Y-8497384D01*
X-2083120Y-8497384D02*
X-2064072Y-8487860D01*
X-2064072Y-8487860D02*
X-2054548Y-8478336D01*
X-2054548Y-8478336D02*
X-2035501Y-8449765D01*
X-2035501Y-8449765D02*
X-2025977Y-8411670D01*
X-2025977Y-8411670D02*
X-2025977Y-8335479D01*
X-2025977Y-8335479D02*
X-2035501Y-8316431D01*
X-2035501Y-8316431D02*
X-2045025Y-8306908D01*
X-2045025Y-8306908D02*
X-2064072Y-8297384D01*
X-2064072Y-8297384D02*
X-2102168Y-8297384D01*
X-2102168Y-8297384D02*
X-2121215Y-8306908D01*
X-2121215Y-8306908D02*
X-2130739Y-8316431D01*
X-2130739Y-8316431D02*
X-2140263Y-8335479D01*
X-2140263Y-8335479D02*
X-2140263Y-8383098D01*
X-2140263Y-8383098D02*
X-2130739Y-8402146D01*
X-2130739Y-8402146D02*
X-2121215Y-8411670D01*
X-2121215Y-8411670D02*
X-2102168Y-8421193D01*
X-2102168Y-8421193D02*
X-2064072Y-8421193D01*
X-2064072Y-8421193D02*
X-2045025Y-8411670D01*
X-2045025Y-8411670D02*
X-2035501Y-8402146D01*
X-2035501Y-8402146D02*
X-2025977Y-8383098D01*
X-1902167Y-8297384D02*
X-1883120Y-8297384D01*
X-1883120Y-8297384D02*
X-1864072Y-8306908D01*
X-1864072Y-8306908D02*
X-1854548Y-8316431D01*
X-1854548Y-8316431D02*
X-1845025Y-8335479D01*
X-1845025Y-8335479D02*
X-1835501Y-8373574D01*
X-1835501Y-8373574D02*
X-1835501Y-8421193D01*
X-1835501Y-8421193D02*
X-1845025Y-8459289D01*
X-1845025Y-8459289D02*
X-1854548Y-8478336D01*
X-1854548Y-8478336D02*
X-1864072Y-8487860D01*
X-1864072Y-8487860D02*
X-1883120Y-8497384D01*
X-1883120Y-8497384D02*
X-1902167Y-8497384D01*
X-1902167Y-8497384D02*
X-1921215Y-8487860D01*
X-1921215Y-8487860D02*
X-1930739Y-8478336D01*
X-1930739Y-8478336D02*
X-1940263Y-8459289D01*
X-1940263Y-8459289D02*
X-1949786Y-8421193D01*
X-1949786Y-8421193D02*
X-1949786Y-8373574D01*
X-1949786Y-8373574D02*
X-1940263Y-8335479D01*
X-1940263Y-8335479D02*
X-1930739Y-8316431D01*
X-1930739Y-8316431D02*
X-1921215Y-8306908D01*
X-1921215Y-8306908D02*
X-1902167Y-8297384D01*
X-1711691Y-8297384D02*
X-1692644Y-8297384D01*
X-1692644Y-8297384D02*
X-1673596Y-8306908D01*
X-1673596Y-8306908D02*
X-1664072Y-8316431D01*
X-1664072Y-8316431D02*
X-1654548Y-8335479D01*
X-1654548Y-8335479D02*
X-1645025Y-8373574D01*
X-1645025Y-8373574D02*
X-1645025Y-8421193D01*
X-1645025Y-8421193D02*
X-1654548Y-8459289D01*
X-1654548Y-8459289D02*
X-1664072Y-8478336D01*
X-1664072Y-8478336D02*
X-1673596Y-8487860D01*
X-1673596Y-8487860D02*
X-1692644Y-8497384D01*
X-1692644Y-8497384D02*
X-1711691Y-8497384D01*
X-1711691Y-8497384D02*
X-1730739Y-8487860D01*
X-1730739Y-8487860D02*
X-1740263Y-8478336D01*
X-1740263Y-8478336D02*
X-1749786Y-8459289D01*
X-1749786Y-8459289D02*
X-1759310Y-8421193D01*
X-1759310Y-8421193D02*
X-1759310Y-8373574D01*
X-1759310Y-8373574D02*
X-1749786Y-8335479D01*
X-1749786Y-8335479D02*
X-1740263Y-8316431D01*
X-1740263Y-8316431D02*
X-1730739Y-8306908D01*
X-1730739Y-8306908D02*
X-1711691Y-8297384D01*
X-1559310Y-8497384D02*
X-1559310Y-8364050D01*
X-1559310Y-8383098D02*
X-1549786Y-8373574D01*
X-1549786Y-8373574D02*
X-1530739Y-8364050D01*
X-1530739Y-8364050D02*
X-1502167Y-8364050D01*
X-1502167Y-8364050D02*
X-1483120Y-8373574D01*
X-1483120Y-8373574D02*
X-1473596Y-8392622D01*
X-1473596Y-8392622D02*
X-1473596Y-8497384D01*
X-1473596Y-8392622D02*
X-1464072Y-8373574D01*
X-1464072Y-8373574D02*
X-1445025Y-8364050D01*
X-1445025Y-8364050D02*
X-1416453Y-8364050D01*
X-1416453Y-8364050D02*
X-1397406Y-8373574D01*
X-1397406Y-8373574D02*
X-1387882Y-8392622D01*
X-1387882Y-8392622D02*
X-1387882Y-8497384D01*
X-1292644Y-8497384D02*
X-1292644Y-8364050D01*
X-1292644Y-8383098D02*
X-1283120Y-8373574D01*
X-1283120Y-8373574D02*
X-1264072Y-8364050D01*
X-1264072Y-8364050D02*
X-1235501Y-8364050D01*
X-1235501Y-8364050D02*
X-1216453Y-8373574D01*
X-1216453Y-8373574D02*
X-1206929Y-8392622D01*
X-1206929Y-8392622D02*
X-1206929Y-8497384D01*
X-1206929Y-8392622D02*
X-1197406Y-8373574D01*
X-1197406Y-8373574D02*
X-1178358Y-8364050D01*
X-1178358Y-8364050D02*
X-1149787Y-8364050D01*
X-1149787Y-8364050D02*
X-1130739Y-8373574D01*
X-1130739Y-8373574D02*
X-1121215Y-8392622D01*
X-1121215Y-8392622D02*
X-1121215Y-8497384D01*
X-730739Y-8287860D02*
X-902167Y-8545003D01*
X-473596Y-8297384D02*
X-454548Y-8297384D01*
X-454548Y-8297384D02*
X-435501Y-8306908D01*
X-435501Y-8306908D02*
X-425977Y-8316431D01*
X-425977Y-8316431D02*
X-416453Y-8335479D01*
X-416453Y-8335479D02*
X-406929Y-8373574D01*
X-406929Y-8373574D02*
X-406929Y-8421193D01*
X-406929Y-8421193D02*
X-416453Y-8459289D01*
X-416453Y-8459289D02*
X-425977Y-8478336D01*
X-425977Y-8478336D02*
X-435501Y-8487860D01*
X-435501Y-8487860D02*
X-454548Y-8497384D01*
X-454548Y-8497384D02*
X-473596Y-8497384D01*
X-473596Y-8497384D02*
X-492643Y-8487860D01*
X-492643Y-8487860D02*
X-502167Y-8478336D01*
X-502167Y-8478336D02*
X-511691Y-8459289D01*
X-511691Y-8459289D02*
X-521215Y-8421193D01*
X-521215Y-8421193D02*
X-521215Y-8373574D01*
X-521215Y-8373574D02*
X-511691Y-8335479D01*
X-511691Y-8335479D02*
X-502167Y-8316431D01*
X-502167Y-8316431D02*
X-492643Y-8306908D01*
X-492643Y-8306908D02*
X-473596Y-8297384D01*
X-321215Y-8478336D02*
X-311691Y-8487860D01*
X-311691Y-8487860D02*
X-321215Y-8497384D01*
X-321215Y-8497384D02*
X-330739Y-8487860D01*
X-330739Y-8487860D02*
X-321215Y-8478336D01*
X-321215Y-8478336D02*
X-321215Y-8497384D01*
X-187882Y-8297384D02*
X-168834Y-8297384D01*
X-168834Y-8297384D02*
X-149786Y-8306908D01*
X-149786Y-8306908D02*
X-140263Y-8316431D01*
X-140263Y-8316431D02*
X-130739Y-8335479D01*
X-130739Y-8335479D02*
X-121215Y-8373574D01*
X-121215Y-8373574D02*
X-121215Y-8421193D01*
X-121215Y-8421193D02*
X-130739Y-8459289D01*
X-130739Y-8459289D02*
X-140263Y-8478336D01*
X-140263Y-8478336D02*
X-149786Y-8487860D01*
X-149786Y-8487860D02*
X-168834Y-8497384D01*
X-168834Y-8497384D02*
X-187882Y-8497384D01*
X-187882Y-8497384D02*
X-206929Y-8487860D01*
X-206929Y-8487860D02*
X-216453Y-8478336D01*
X-216453Y-8478336D02*
X-225977Y-8459289D01*
X-225977Y-8459289D02*
X-235501Y-8421193D01*
X-235501Y-8421193D02*
X-235501Y-8373574D01*
X-235501Y-8373574D02*
X-225977Y-8335479D01*
X-225977Y-8335479D02*
X-216453Y-8316431D01*
X-216453Y-8316431D02*
X-206929Y-8306908D01*
X-206929Y-8306908D02*
X-187882Y-8297384D01*
X-54548Y-8297384D02*
X78785Y-8297384D01*
X78785Y-8297384D02*
X-6929Y-8497384D01*
X240690Y-8364050D02*
X240690Y-8497384D01*
X193071Y-8287860D02*
X145452Y-8430717D01*
X145452Y-8430717D02*
X269261Y-8430717D01*
X374023Y-8383098D02*
X354976Y-8373574D01*
X354976Y-8373574D02*
X345452Y-8364050D01*
X345452Y-8364050D02*
X335928Y-8345003D01*
X335928Y-8345003D02*
X335928Y-8335479D01*
X335928Y-8335479D02*
X345452Y-8316431D01*
X345452Y-8316431D02*
X354976Y-8306908D01*
X354976Y-8306908D02*
X374023Y-8297384D01*
X374023Y-8297384D02*
X412118Y-8297384D01*
X412118Y-8297384D02*
X431166Y-8306908D01*
X431166Y-8306908D02*
X440690Y-8316431D01*
X440690Y-8316431D02*
X450214Y-8335479D01*
X450214Y-8335479D02*
X450214Y-8345003D01*
X450214Y-8345003D02*
X440690Y-8364050D01*
X440690Y-8364050D02*
X431166Y-8373574D01*
X431166Y-8373574D02*
X412118Y-8383098D01*
X412118Y-8383098D02*
X374023Y-8383098D01*
X374023Y-8383098D02*
X354976Y-8392622D01*
X354976Y-8392622D02*
X345452Y-8402146D01*
X345452Y-8402146D02*
X335928Y-8421193D01*
X335928Y-8421193D02*
X335928Y-8459289D01*
X335928Y-8459289D02*
X345452Y-8478336D01*
X345452Y-8478336D02*
X354976Y-8487860D01*
X354976Y-8487860D02*
X374023Y-8497384D01*
X374023Y-8497384D02*
X412118Y-8497384D01*
X412118Y-8497384D02*
X431166Y-8487860D01*
X431166Y-8487860D02*
X440690Y-8478336D01*
X440690Y-8478336D02*
X450214Y-8459289D01*
X450214Y-8459289D02*
X450214Y-8421193D01*
X450214Y-8421193D02*
X440690Y-8402146D01*
X440690Y-8402146D02*
X431166Y-8392622D01*
X431166Y-8392622D02*
X412118Y-8383098D01*
X526404Y-8297384D02*
X526404Y-8335479D01*
X602595Y-8297384D02*
X602595Y-8335479D01*
X897833Y-8573574D02*
X888309Y-8564050D01*
X888309Y-8564050D02*
X869261Y-8535479D01*
X869261Y-8535479D02*
X859738Y-8516431D01*
X859738Y-8516431D02*
X850214Y-8487860D01*
X850214Y-8487860D02*
X840690Y-8440241D01*
X840690Y-8440241D02*
X840690Y-8402146D01*
X840690Y-8402146D02*
X850214Y-8354527D01*
X850214Y-8354527D02*
X859738Y-8325955D01*
X859738Y-8325955D02*
X869261Y-8306908D01*
X869261Y-8306908D02*
X888309Y-8278336D01*
X888309Y-8278336D02*
X897833Y-8268812D01*
X1059738Y-8364050D02*
X1059738Y-8497384D01*
X1012118Y-8287860D02*
X964499Y-8430717D01*
X964499Y-8430717D02*
X1088309Y-8430717D01*
X1316881Y-8497384D02*
X1316881Y-8297384D01*
X1402595Y-8497384D02*
X1402595Y-8392622D01*
X1402595Y-8392622D02*
X1393071Y-8373574D01*
X1393071Y-8373574D02*
X1374023Y-8364050D01*
X1374023Y-8364050D02*
X1345452Y-8364050D01*
X1345452Y-8364050D02*
X1326404Y-8373574D01*
X1326404Y-8373574D02*
X1316881Y-8383098D01*
X1526404Y-8497384D02*
X1507357Y-8487860D01*
X1507357Y-8487860D02*
X1497833Y-8478336D01*
X1497833Y-8478336D02*
X1488309Y-8459289D01*
X1488309Y-8459289D02*
X1488309Y-8402146D01*
X1488309Y-8402146D02*
X1497833Y-8383098D01*
X1497833Y-8383098D02*
X1507357Y-8373574D01*
X1507357Y-8373574D02*
X1526404Y-8364050D01*
X1526404Y-8364050D02*
X1554976Y-8364050D01*
X1554976Y-8364050D02*
X1574023Y-8373574D01*
X1574023Y-8373574D02*
X1583547Y-8383098D01*
X1583547Y-8383098D02*
X1593071Y-8402146D01*
X1593071Y-8402146D02*
X1593071Y-8459289D01*
X1593071Y-8459289D02*
X1583547Y-8478336D01*
X1583547Y-8478336D02*
X1574023Y-8487860D01*
X1574023Y-8487860D02*
X1554976Y-8497384D01*
X1554976Y-8497384D02*
X1526404Y-8497384D01*
X1707357Y-8497384D02*
X1688309Y-8487860D01*
X1688309Y-8487860D02*
X1678785Y-8468812D01*
X1678785Y-8468812D02*
X1678785Y-8297384D01*
X1859738Y-8487860D02*
X1840690Y-8497384D01*
X1840690Y-8497384D02*
X1802595Y-8497384D01*
X1802595Y-8497384D02*
X1783547Y-8487860D01*
X1783547Y-8487860D02*
X1774023Y-8468812D01*
X1774023Y-8468812D02*
X1774023Y-8392622D01*
X1774023Y-8392622D02*
X1783547Y-8373574D01*
X1783547Y-8373574D02*
X1802595Y-8364050D01*
X1802595Y-8364050D02*
X1840690Y-8364050D01*
X1840690Y-8364050D02*
X1859738Y-8373574D01*
X1859738Y-8373574D02*
X1869261Y-8392622D01*
X1869261Y-8392622D02*
X1869261Y-8411670D01*
X1869261Y-8411670D02*
X1774023Y-8430717D01*
X1945452Y-8487860D02*
X1964500Y-8497384D01*
X1964500Y-8497384D02*
X2002595Y-8497384D01*
X2002595Y-8497384D02*
X2021642Y-8487860D01*
X2021642Y-8487860D02*
X2031166Y-8468812D01*
X2031166Y-8468812D02*
X2031166Y-8459289D01*
X2031166Y-8459289D02*
X2021642Y-8440241D01*
X2021642Y-8440241D02*
X2002595Y-8430717D01*
X2002595Y-8430717D02*
X1974023Y-8430717D01*
X1974023Y-8430717D02*
X1954976Y-8421193D01*
X1954976Y-8421193D02*
X1945452Y-8402146D01*
X1945452Y-8402146D02*
X1945452Y-8392622D01*
X1945452Y-8392622D02*
X1954976Y-8373574D01*
X1954976Y-8373574D02*
X1974023Y-8364050D01*
X1974023Y-8364050D02*
X2002595Y-8364050D01*
X2002595Y-8364050D02*
X2021642Y-8373574D01*
X2097833Y-8573574D02*
X2107357Y-8564050D01*
X2107357Y-8564050D02*
X2126404Y-8535479D01*
X2126404Y-8535479D02*
X2135928Y-8516431D01*
X2135928Y-8516431D02*
X2145452Y-8487860D01*
X2145452Y-8487860D02*
X2154976Y-8440241D01*
X2154976Y-8440241D02*
X2154976Y-8402146D01*
X2154976Y-8402146D02*
X2145452Y-8354527D01*
X2145452Y-8354527D02*
X2135928Y-8325955D01*
X2135928Y-8325955D02*
X2126404Y-8306908D01*
X2126404Y-8306908D02*
X2107357Y-8278336D01*
X2107357Y-8278336D02*
X2097833Y-8268812D01*
M02*
