%TF.GenerationSoftware,KiCad,Pcbnew,7.0.9*%
%TF.CreationDate,2024-04-10T09:45:45+08:00*%
%TF.ProjectId,6__ 2.5_NAS,36d84d20-322e-435f-984e-41532e6b6963,0.3*%
%TF.SameCoordinates,PXbbc77c0PY26f37c0*%
%TF.FileFunction,Drillmap*%
%TF.FilePolarity,Positive*%
%FSLAX45Y45*%
G04 Gerber Fmt 4.5, Leading zero omitted, Abs format (unit mm)*
G04 Created by KiCad (PCBNEW 7.0.9) date 2024-04-10 09:45:45*
%MOMM*%
%LPD*%
G01*
G04 APERTURE LIST*
%ADD10C,0.100000*%
%ADD11C,0.200000*%
%ADD12C,0.120000*%
%ADD13C,0.125000*%
%ADD14C,0.160000*%
G04 APERTURE END LIST*
D10*
X-1522930Y-391410D02*
X-779498Y-391410D01*
X2337070Y-471410D02*
X2417070Y-391410D01*
X-2672230Y-5676900D02*
X-2172230Y-6176900D01*
X-1602230Y-471410D02*
X-1522930Y-391410D01*
X3157070Y-5071410D02*
X2417070Y-5071410D01*
X3160501Y-391410D02*
X3237070Y-471410D01*
X-2019230Y-5666210D02*
G75*
G03*
X-2019230Y-5666210I-150000J0D01*
G01*
X5207000Y-4991410D02*
X5207000Y-5676900D01*
X-1602230Y-4954810D02*
X-1522230Y-5034810D01*
X367070Y-4991410D02*
X447070Y-5071410D01*
X1190502Y-391410D02*
X1267070Y-471410D01*
X-1330820Y919480D02*
G75*
G03*
X-1330820Y919480I-150000J0D01*
G01*
X-1602230Y-471410D02*
X-1602230Y-4954810D01*
X5206620Y1074800D02*
X4706620Y1574800D01*
X-2479230Y-6166810D02*
X-2479230Y-6166810D01*
X5130502Y-391410D02*
X5207070Y-471410D01*
X5127070Y-5071410D02*
X4387070Y-5071410D01*
X4387070Y-391410D02*
X5130502Y-391410D01*
X447070Y-391410D02*
X1190502Y-391410D01*
X1187070Y-5071410D02*
X447070Y-5071410D01*
X3237070Y-4991410D02*
X3157070Y-5071410D01*
X2337070Y-471410D02*
X2337070Y-4991410D01*
X2417070Y-391410D02*
X3160501Y-391410D01*
X2337070Y-4991410D02*
X2417070Y-5071410D01*
X-2172230Y1583190D02*
X4706620Y1574800D01*
X367070Y-471410D02*
X367075Y-4991410D01*
X5207070Y-471410D02*
X5206620Y1074800D01*
X-702930Y-4954810D02*
X-702930Y-471410D01*
X1267070Y-4991410D02*
X1267070Y-471410D01*
X1267070Y-4991410D02*
X1187070Y-5071410D01*
X-2672230Y-5676900D02*
X-2672230Y1083190D01*
X3655200Y1074420D02*
G75*
G03*
X3655200Y1074420I-150000J0D01*
G01*
X-782230Y-5034810D02*
X-1522230Y-5034810D01*
X-779498Y-391410D02*
X-702930Y-471410D01*
X4307070Y-4991410D02*
X4387070Y-5071410D01*
X5207000Y-5676900D02*
X4707000Y-6176900D01*
X-2172230Y-6176900D02*
X4707000Y-6176900D01*
X4307070Y-471410D02*
X4307070Y-4991410D01*
X4307070Y-471410D02*
X4387070Y-391410D01*
X-702230Y-4954810D02*
X-782230Y-5034810D01*
X5207070Y-4991410D02*
X5127070Y-5071410D01*
X367070Y-471410D02*
X447070Y-391410D01*
X-2172230Y1583190D02*
X-2672230Y1083190D01*
X4856620Y-5676900D02*
G75*
G03*
X4856620Y-5676900I-150000J0D01*
G01*
X3237070Y-4991410D02*
X3237070Y-471410D01*
D11*
D12*
X-2173910Y-850210D02*
X-2053910Y-970210D01*
X-2053910Y-850210D02*
X-2173910Y-970210D01*
X-204610Y-850210D02*
X-84610Y-970210D01*
X-84610Y-850210D02*
X-204610Y-970210D01*
X1765390Y-850210D02*
X1885390Y-970210D01*
X1885390Y-850210D02*
X1765390Y-970210D01*
X3735390Y-850210D02*
X3855390Y-970210D01*
X3855390Y-850210D02*
X3735390Y-970210D01*
D13*
X367620Y464820D02*
G75*
G03*
X367620Y464820I-62500J0D01*
G01*
X1423620Y464820D02*
G75*
G03*
X1423620Y464820I-62500J0D01*
G01*
D14*
X-2113910Y-4610210D02*
X-2113910Y-4770210D01*
X-2193910Y-4690210D02*
X-2033910Y-4690210D01*
X-144610Y-4610210D02*
X-144610Y-4770210D01*
X-224610Y-4690210D02*
X-64610Y-4690210D01*
X1825390Y-4610210D02*
X1825390Y-4770210D01*
X1745390Y-4690210D02*
X1905390Y-4690210D01*
X3795390Y-4610210D02*
X3795390Y-4770210D01*
X3715390Y-4690210D02*
X3875390Y-4690210D01*
D11*
X-2416453Y-6493384D02*
X-2416453Y-6293384D01*
X-2416453Y-6293384D02*
X-2368834Y-6293384D01*
X-2368834Y-6293384D02*
X-2340263Y-6302908D01*
X-2340263Y-6302908D02*
X-2321215Y-6321955D01*
X-2321215Y-6321955D02*
X-2311691Y-6341003D01*
X-2311691Y-6341003D02*
X-2302168Y-6379098D01*
X-2302168Y-6379098D02*
X-2302168Y-6407669D01*
X-2302168Y-6407669D02*
X-2311691Y-6445765D01*
X-2311691Y-6445765D02*
X-2321215Y-6464812D01*
X-2321215Y-6464812D02*
X-2340263Y-6483860D01*
X-2340263Y-6483860D02*
X-2368834Y-6493384D01*
X-2368834Y-6493384D02*
X-2416453Y-6493384D01*
X-2216453Y-6493384D02*
X-2216453Y-6360050D01*
X-2216453Y-6398146D02*
X-2206929Y-6379098D01*
X-2206929Y-6379098D02*
X-2197406Y-6369574D01*
X-2197406Y-6369574D02*
X-2178358Y-6360050D01*
X-2178358Y-6360050D02*
X-2159310Y-6360050D01*
X-2092644Y-6493384D02*
X-2092644Y-6360050D01*
X-2092644Y-6293384D02*
X-2102168Y-6302908D01*
X-2102168Y-6302908D02*
X-2092644Y-6312431D01*
X-2092644Y-6312431D02*
X-2083120Y-6302908D01*
X-2083120Y-6302908D02*
X-2092644Y-6293384D01*
X-2092644Y-6293384D02*
X-2092644Y-6312431D01*
X-1968834Y-6493384D02*
X-1987882Y-6483860D01*
X-1987882Y-6483860D02*
X-1997406Y-6464812D01*
X-1997406Y-6464812D02*
X-1997406Y-6293384D01*
X-1864072Y-6493384D02*
X-1883120Y-6483860D01*
X-1883120Y-6483860D02*
X-1892644Y-6464812D01*
X-1892644Y-6464812D02*
X-1892644Y-6293384D01*
X-1635501Y-6493384D02*
X-1635501Y-6293384D01*
X-1635501Y-6293384D02*
X-1568834Y-6436241D01*
X-1568834Y-6436241D02*
X-1502167Y-6293384D01*
X-1502167Y-6293384D02*
X-1502167Y-6493384D01*
X-1321215Y-6493384D02*
X-1321215Y-6388622D01*
X-1321215Y-6388622D02*
X-1330739Y-6369574D01*
X-1330739Y-6369574D02*
X-1349787Y-6360050D01*
X-1349787Y-6360050D02*
X-1387882Y-6360050D01*
X-1387882Y-6360050D02*
X-1406929Y-6369574D01*
X-1321215Y-6483860D02*
X-1340263Y-6493384D01*
X-1340263Y-6493384D02*
X-1387882Y-6493384D01*
X-1387882Y-6493384D02*
X-1406929Y-6483860D01*
X-1406929Y-6483860D02*
X-1416453Y-6464812D01*
X-1416453Y-6464812D02*
X-1416453Y-6445765D01*
X-1416453Y-6445765D02*
X-1406929Y-6426717D01*
X-1406929Y-6426717D02*
X-1387882Y-6417193D01*
X-1387882Y-6417193D02*
X-1340263Y-6417193D01*
X-1340263Y-6417193D02*
X-1321215Y-6407669D01*
X-1225977Y-6360050D02*
X-1225977Y-6560050D01*
X-1225977Y-6369574D02*
X-1206929Y-6360050D01*
X-1206929Y-6360050D02*
X-1168834Y-6360050D01*
X-1168834Y-6360050D02*
X-1149787Y-6369574D01*
X-1149787Y-6369574D02*
X-1140263Y-6379098D01*
X-1140263Y-6379098D02*
X-1130739Y-6398146D01*
X-1130739Y-6398146D02*
X-1130739Y-6455288D01*
X-1130739Y-6455288D02*
X-1140263Y-6474336D01*
X-1140263Y-6474336D02*
X-1149787Y-6483860D01*
X-1149787Y-6483860D02*
X-1168834Y-6493384D01*
X-1168834Y-6493384D02*
X-1206929Y-6493384D01*
X-1206929Y-6493384D02*
X-1225977Y-6483860D01*
X-1045025Y-6474336D02*
X-1035501Y-6483860D01*
X-1035501Y-6483860D02*
X-1045025Y-6493384D01*
X-1045025Y-6493384D02*
X-1054548Y-6483860D01*
X-1054548Y-6483860D02*
X-1045025Y-6474336D01*
X-1045025Y-6474336D02*
X-1045025Y-6493384D01*
X-1045025Y-6369574D02*
X-1035501Y-6379098D01*
X-1035501Y-6379098D02*
X-1045025Y-6388622D01*
X-1045025Y-6388622D02*
X-1054548Y-6379098D01*
X-1054548Y-6379098D02*
X-1045025Y-6369574D01*
X-1045025Y-6369574D02*
X-1045025Y-6388622D01*
D12*
X-2797230Y-6761900D02*
X-2677230Y-6881900D01*
X-2677230Y-6761900D02*
X-2797230Y-6881900D01*
D11*
X-2311691Y-6913384D02*
X-2425977Y-6913384D01*
X-2368834Y-6913384D02*
X-2368834Y-6713384D01*
X-2368834Y-6713384D02*
X-2387882Y-6741955D01*
X-2387882Y-6741955D02*
X-2406929Y-6761003D01*
X-2406929Y-6761003D02*
X-2425977Y-6770527D01*
X-2225977Y-6894336D02*
X-2216453Y-6903860D01*
X-2216453Y-6903860D02*
X-2225977Y-6913384D01*
X-2225977Y-6913384D02*
X-2235501Y-6903860D01*
X-2235501Y-6903860D02*
X-2225977Y-6894336D01*
X-2225977Y-6894336D02*
X-2225977Y-6913384D01*
X-2140263Y-6732431D02*
X-2130739Y-6722908D01*
X-2130739Y-6722908D02*
X-2111691Y-6713384D01*
X-2111691Y-6713384D02*
X-2064072Y-6713384D01*
X-2064072Y-6713384D02*
X-2045025Y-6722908D01*
X-2045025Y-6722908D02*
X-2035501Y-6732431D01*
X-2035501Y-6732431D02*
X-2025977Y-6751479D01*
X-2025977Y-6751479D02*
X-2025977Y-6770527D01*
X-2025977Y-6770527D02*
X-2035501Y-6799098D01*
X-2035501Y-6799098D02*
X-2149787Y-6913384D01*
X-2149787Y-6913384D02*
X-2025977Y-6913384D01*
X-1902167Y-6713384D02*
X-1883120Y-6713384D01*
X-1883120Y-6713384D02*
X-1864072Y-6722908D01*
X-1864072Y-6722908D02*
X-1854548Y-6732431D01*
X-1854548Y-6732431D02*
X-1845025Y-6751479D01*
X-1845025Y-6751479D02*
X-1835501Y-6789574D01*
X-1835501Y-6789574D02*
X-1835501Y-6837193D01*
X-1835501Y-6837193D02*
X-1845025Y-6875288D01*
X-1845025Y-6875288D02*
X-1854548Y-6894336D01*
X-1854548Y-6894336D02*
X-1864072Y-6903860D01*
X-1864072Y-6903860D02*
X-1883120Y-6913384D01*
X-1883120Y-6913384D02*
X-1902167Y-6913384D01*
X-1902167Y-6913384D02*
X-1921215Y-6903860D01*
X-1921215Y-6903860D02*
X-1930739Y-6894336D01*
X-1930739Y-6894336D02*
X-1940263Y-6875288D01*
X-1940263Y-6875288D02*
X-1949786Y-6837193D01*
X-1949786Y-6837193D02*
X-1949786Y-6789574D01*
X-1949786Y-6789574D02*
X-1940263Y-6751479D01*
X-1940263Y-6751479D02*
X-1930739Y-6732431D01*
X-1930739Y-6732431D02*
X-1921215Y-6722908D01*
X-1921215Y-6722908D02*
X-1902167Y-6713384D01*
X-1711691Y-6713384D02*
X-1692644Y-6713384D01*
X-1692644Y-6713384D02*
X-1673596Y-6722908D01*
X-1673596Y-6722908D02*
X-1664072Y-6732431D01*
X-1664072Y-6732431D02*
X-1654548Y-6751479D01*
X-1654548Y-6751479D02*
X-1645025Y-6789574D01*
X-1645025Y-6789574D02*
X-1645025Y-6837193D01*
X-1645025Y-6837193D02*
X-1654548Y-6875288D01*
X-1654548Y-6875288D02*
X-1664072Y-6894336D01*
X-1664072Y-6894336D02*
X-1673596Y-6903860D01*
X-1673596Y-6903860D02*
X-1692644Y-6913384D01*
X-1692644Y-6913384D02*
X-1711691Y-6913384D01*
X-1711691Y-6913384D02*
X-1730739Y-6903860D01*
X-1730739Y-6903860D02*
X-1740263Y-6894336D01*
X-1740263Y-6894336D02*
X-1749786Y-6875288D01*
X-1749786Y-6875288D02*
X-1759310Y-6837193D01*
X-1759310Y-6837193D02*
X-1759310Y-6789574D01*
X-1759310Y-6789574D02*
X-1749786Y-6751479D01*
X-1749786Y-6751479D02*
X-1740263Y-6732431D01*
X-1740263Y-6732431D02*
X-1730739Y-6722908D01*
X-1730739Y-6722908D02*
X-1711691Y-6713384D01*
X-1559310Y-6913384D02*
X-1559310Y-6780050D01*
X-1559310Y-6799098D02*
X-1549786Y-6789574D01*
X-1549786Y-6789574D02*
X-1530739Y-6780050D01*
X-1530739Y-6780050D02*
X-1502167Y-6780050D01*
X-1502167Y-6780050D02*
X-1483120Y-6789574D01*
X-1483120Y-6789574D02*
X-1473596Y-6808622D01*
X-1473596Y-6808622D02*
X-1473596Y-6913384D01*
X-1473596Y-6808622D02*
X-1464072Y-6789574D01*
X-1464072Y-6789574D02*
X-1445025Y-6780050D01*
X-1445025Y-6780050D02*
X-1416453Y-6780050D01*
X-1416453Y-6780050D02*
X-1397406Y-6789574D01*
X-1397406Y-6789574D02*
X-1387882Y-6808622D01*
X-1387882Y-6808622D02*
X-1387882Y-6913384D01*
X-1292644Y-6913384D02*
X-1292644Y-6780050D01*
X-1292644Y-6799098D02*
X-1283120Y-6789574D01*
X-1283120Y-6789574D02*
X-1264072Y-6780050D01*
X-1264072Y-6780050D02*
X-1235501Y-6780050D01*
X-1235501Y-6780050D02*
X-1216453Y-6789574D01*
X-1216453Y-6789574D02*
X-1206929Y-6808622D01*
X-1206929Y-6808622D02*
X-1206929Y-6913384D01*
X-1206929Y-6808622D02*
X-1197406Y-6789574D01*
X-1197406Y-6789574D02*
X-1178358Y-6780050D01*
X-1178358Y-6780050D02*
X-1149787Y-6780050D01*
X-1149787Y-6780050D02*
X-1130739Y-6789574D01*
X-1130739Y-6789574D02*
X-1121215Y-6808622D01*
X-1121215Y-6808622D02*
X-1121215Y-6913384D01*
X-730739Y-6703860D02*
X-902167Y-6961003D01*
X-473596Y-6713384D02*
X-454548Y-6713384D01*
X-454548Y-6713384D02*
X-435501Y-6722908D01*
X-435501Y-6722908D02*
X-425977Y-6732431D01*
X-425977Y-6732431D02*
X-416453Y-6751479D01*
X-416453Y-6751479D02*
X-406929Y-6789574D01*
X-406929Y-6789574D02*
X-406929Y-6837193D01*
X-406929Y-6837193D02*
X-416453Y-6875288D01*
X-416453Y-6875288D02*
X-425977Y-6894336D01*
X-425977Y-6894336D02*
X-435501Y-6903860D01*
X-435501Y-6903860D02*
X-454548Y-6913384D01*
X-454548Y-6913384D02*
X-473596Y-6913384D01*
X-473596Y-6913384D02*
X-492643Y-6903860D01*
X-492643Y-6903860D02*
X-502167Y-6894336D01*
X-502167Y-6894336D02*
X-511691Y-6875288D01*
X-511691Y-6875288D02*
X-521215Y-6837193D01*
X-521215Y-6837193D02*
X-521215Y-6789574D01*
X-521215Y-6789574D02*
X-511691Y-6751479D01*
X-511691Y-6751479D02*
X-502167Y-6732431D01*
X-502167Y-6732431D02*
X-492643Y-6722908D01*
X-492643Y-6722908D02*
X-473596Y-6713384D01*
X-321215Y-6894336D02*
X-311691Y-6903860D01*
X-311691Y-6903860D02*
X-321215Y-6913384D01*
X-321215Y-6913384D02*
X-330739Y-6903860D01*
X-330739Y-6903860D02*
X-321215Y-6894336D01*
X-321215Y-6894336D02*
X-321215Y-6913384D01*
X-187882Y-6713384D02*
X-168834Y-6713384D01*
X-168834Y-6713384D02*
X-149786Y-6722908D01*
X-149786Y-6722908D02*
X-140263Y-6732431D01*
X-140263Y-6732431D02*
X-130739Y-6751479D01*
X-130739Y-6751479D02*
X-121215Y-6789574D01*
X-121215Y-6789574D02*
X-121215Y-6837193D01*
X-121215Y-6837193D02*
X-130739Y-6875288D01*
X-130739Y-6875288D02*
X-140263Y-6894336D01*
X-140263Y-6894336D02*
X-149786Y-6903860D01*
X-149786Y-6903860D02*
X-168834Y-6913384D01*
X-168834Y-6913384D02*
X-187882Y-6913384D01*
X-187882Y-6913384D02*
X-206929Y-6903860D01*
X-206929Y-6903860D02*
X-216453Y-6894336D01*
X-216453Y-6894336D02*
X-225977Y-6875288D01*
X-225977Y-6875288D02*
X-235501Y-6837193D01*
X-235501Y-6837193D02*
X-235501Y-6789574D01*
X-235501Y-6789574D02*
X-225977Y-6751479D01*
X-225977Y-6751479D02*
X-216453Y-6732431D01*
X-216453Y-6732431D02*
X-206929Y-6722908D01*
X-206929Y-6722908D02*
X-187882Y-6713384D01*
X50214Y-6780050D02*
X50214Y-6913384D01*
X2595Y-6703860D02*
X-45024Y-6846717D01*
X-45024Y-6846717D02*
X78785Y-6846717D01*
X135928Y-6713384D02*
X269261Y-6713384D01*
X269261Y-6713384D02*
X183547Y-6913384D01*
X335928Y-6732431D02*
X345452Y-6722908D01*
X345452Y-6722908D02*
X364499Y-6713384D01*
X364499Y-6713384D02*
X412118Y-6713384D01*
X412118Y-6713384D02*
X431166Y-6722908D01*
X431166Y-6722908D02*
X440690Y-6732431D01*
X440690Y-6732431D02*
X450214Y-6751479D01*
X450214Y-6751479D02*
X450214Y-6770527D01*
X450214Y-6770527D02*
X440690Y-6799098D01*
X440690Y-6799098D02*
X326404Y-6913384D01*
X326404Y-6913384D02*
X450214Y-6913384D01*
X526404Y-6713384D02*
X526404Y-6751479D01*
X602595Y-6713384D02*
X602595Y-6751479D01*
X897833Y-6989574D02*
X888309Y-6980050D01*
X888309Y-6980050D02*
X869261Y-6951479D01*
X869261Y-6951479D02*
X859738Y-6932431D01*
X859738Y-6932431D02*
X850214Y-6903860D01*
X850214Y-6903860D02*
X840690Y-6856241D01*
X840690Y-6856241D02*
X840690Y-6818146D01*
X840690Y-6818146D02*
X850214Y-6770527D01*
X850214Y-6770527D02*
X859738Y-6741955D01*
X859738Y-6741955D02*
X869261Y-6722908D01*
X869261Y-6722908D02*
X888309Y-6694336D01*
X888309Y-6694336D02*
X897833Y-6684812D01*
X1059738Y-6780050D02*
X1059738Y-6913384D01*
X1012118Y-6703860D02*
X964499Y-6846717D01*
X964499Y-6846717D02*
X1088309Y-6846717D01*
X1316881Y-6913384D02*
X1316881Y-6713384D01*
X1402595Y-6913384D02*
X1402595Y-6808622D01*
X1402595Y-6808622D02*
X1393071Y-6789574D01*
X1393071Y-6789574D02*
X1374023Y-6780050D01*
X1374023Y-6780050D02*
X1345452Y-6780050D01*
X1345452Y-6780050D02*
X1326404Y-6789574D01*
X1326404Y-6789574D02*
X1316881Y-6799098D01*
X1526404Y-6913384D02*
X1507357Y-6903860D01*
X1507357Y-6903860D02*
X1497833Y-6894336D01*
X1497833Y-6894336D02*
X1488309Y-6875288D01*
X1488309Y-6875288D02*
X1488309Y-6818146D01*
X1488309Y-6818146D02*
X1497833Y-6799098D01*
X1497833Y-6799098D02*
X1507357Y-6789574D01*
X1507357Y-6789574D02*
X1526404Y-6780050D01*
X1526404Y-6780050D02*
X1554976Y-6780050D01*
X1554976Y-6780050D02*
X1574023Y-6789574D01*
X1574023Y-6789574D02*
X1583547Y-6799098D01*
X1583547Y-6799098D02*
X1593071Y-6818146D01*
X1593071Y-6818146D02*
X1593071Y-6875288D01*
X1593071Y-6875288D02*
X1583547Y-6894336D01*
X1583547Y-6894336D02*
X1574023Y-6903860D01*
X1574023Y-6903860D02*
X1554976Y-6913384D01*
X1554976Y-6913384D02*
X1526404Y-6913384D01*
X1707357Y-6913384D02*
X1688309Y-6903860D01*
X1688309Y-6903860D02*
X1678785Y-6884812D01*
X1678785Y-6884812D02*
X1678785Y-6713384D01*
X1859738Y-6903860D02*
X1840690Y-6913384D01*
X1840690Y-6913384D02*
X1802595Y-6913384D01*
X1802595Y-6913384D02*
X1783547Y-6903860D01*
X1783547Y-6903860D02*
X1774023Y-6884812D01*
X1774023Y-6884812D02*
X1774023Y-6808622D01*
X1774023Y-6808622D02*
X1783547Y-6789574D01*
X1783547Y-6789574D02*
X1802595Y-6780050D01*
X1802595Y-6780050D02*
X1840690Y-6780050D01*
X1840690Y-6780050D02*
X1859738Y-6789574D01*
X1859738Y-6789574D02*
X1869261Y-6808622D01*
X1869261Y-6808622D02*
X1869261Y-6827669D01*
X1869261Y-6827669D02*
X1774023Y-6846717D01*
X1945452Y-6903860D02*
X1964500Y-6913384D01*
X1964500Y-6913384D02*
X2002595Y-6913384D01*
X2002595Y-6913384D02*
X2021642Y-6903860D01*
X2021642Y-6903860D02*
X2031166Y-6884812D01*
X2031166Y-6884812D02*
X2031166Y-6875288D01*
X2031166Y-6875288D02*
X2021642Y-6856241D01*
X2021642Y-6856241D02*
X2002595Y-6846717D01*
X2002595Y-6846717D02*
X1974023Y-6846717D01*
X1974023Y-6846717D02*
X1954976Y-6837193D01*
X1954976Y-6837193D02*
X1945452Y-6818146D01*
X1945452Y-6818146D02*
X1945452Y-6808622D01*
X1945452Y-6808622D02*
X1954976Y-6789574D01*
X1954976Y-6789574D02*
X1974023Y-6780050D01*
X1974023Y-6780050D02*
X2002595Y-6780050D01*
X2002595Y-6780050D02*
X2021642Y-6789574D01*
X2097833Y-6989574D02*
X2107357Y-6980050D01*
X2107357Y-6980050D02*
X2126404Y-6951479D01*
X2126404Y-6951479D02*
X2135928Y-6932431D01*
X2135928Y-6932431D02*
X2145452Y-6903860D01*
X2145452Y-6903860D02*
X2154976Y-6856241D01*
X2154976Y-6856241D02*
X2154976Y-6818146D01*
X2154976Y-6818146D02*
X2145452Y-6770527D01*
X2145452Y-6770527D02*
X2135928Y-6741955D01*
X2135928Y-6741955D02*
X2126404Y-6722908D01*
X2126404Y-6722908D02*
X2107357Y-6694336D01*
X2107357Y-6694336D02*
X2097833Y-6684812D01*
X2459738Y-6989574D02*
X2450214Y-6980050D01*
X2450214Y-6980050D02*
X2431166Y-6951479D01*
X2431166Y-6951479D02*
X2421643Y-6932431D01*
X2421643Y-6932431D02*
X2412119Y-6903860D01*
X2412119Y-6903860D02*
X2402595Y-6856241D01*
X2402595Y-6856241D02*
X2402595Y-6818146D01*
X2402595Y-6818146D02*
X2412119Y-6770527D01*
X2412119Y-6770527D02*
X2421643Y-6741955D01*
X2421643Y-6741955D02*
X2431166Y-6722908D01*
X2431166Y-6722908D02*
X2450214Y-6694336D01*
X2450214Y-6694336D02*
X2459738Y-6684812D01*
X2535928Y-6780050D02*
X2535928Y-6913384D01*
X2535928Y-6799098D02*
X2545452Y-6789574D01*
X2545452Y-6789574D02*
X2564500Y-6780050D01*
X2564500Y-6780050D02*
X2593071Y-6780050D01*
X2593071Y-6780050D02*
X2612119Y-6789574D01*
X2612119Y-6789574D02*
X2621643Y-6808622D01*
X2621643Y-6808622D02*
X2621643Y-6913384D01*
X2745452Y-6913384D02*
X2726404Y-6903860D01*
X2726404Y-6903860D02*
X2716881Y-6894336D01*
X2716881Y-6894336D02*
X2707357Y-6875288D01*
X2707357Y-6875288D02*
X2707357Y-6818146D01*
X2707357Y-6818146D02*
X2716881Y-6799098D01*
X2716881Y-6799098D02*
X2726404Y-6789574D01*
X2726404Y-6789574D02*
X2745452Y-6780050D01*
X2745452Y-6780050D02*
X2774024Y-6780050D01*
X2774024Y-6780050D02*
X2793071Y-6789574D01*
X2793071Y-6789574D02*
X2802595Y-6799098D01*
X2802595Y-6799098D02*
X2812119Y-6818146D01*
X2812119Y-6818146D02*
X2812119Y-6875288D01*
X2812119Y-6875288D02*
X2802595Y-6894336D01*
X2802595Y-6894336D02*
X2793071Y-6903860D01*
X2793071Y-6903860D02*
X2774024Y-6913384D01*
X2774024Y-6913384D02*
X2745452Y-6913384D01*
X2869262Y-6780050D02*
X2945452Y-6780050D01*
X2897833Y-6713384D02*
X2897833Y-6884812D01*
X2897833Y-6884812D02*
X2907357Y-6903860D01*
X2907357Y-6903860D02*
X2926404Y-6913384D01*
X2926404Y-6913384D02*
X2945452Y-6913384D01*
X3164500Y-6780050D02*
X3164500Y-6980050D01*
X3164500Y-6789574D02*
X3183547Y-6780050D01*
X3183547Y-6780050D02*
X3221643Y-6780050D01*
X3221643Y-6780050D02*
X3240690Y-6789574D01*
X3240690Y-6789574D02*
X3250214Y-6799098D01*
X3250214Y-6799098D02*
X3259738Y-6818146D01*
X3259738Y-6818146D02*
X3259738Y-6875288D01*
X3259738Y-6875288D02*
X3250214Y-6894336D01*
X3250214Y-6894336D02*
X3240690Y-6903860D01*
X3240690Y-6903860D02*
X3221643Y-6913384D01*
X3221643Y-6913384D02*
X3183547Y-6913384D01*
X3183547Y-6913384D02*
X3164500Y-6903860D01*
X3374023Y-6913384D02*
X3354976Y-6903860D01*
X3354976Y-6903860D02*
X3345452Y-6884812D01*
X3345452Y-6884812D02*
X3345452Y-6713384D01*
X3535928Y-6913384D02*
X3535928Y-6808622D01*
X3535928Y-6808622D02*
X3526404Y-6789574D01*
X3526404Y-6789574D02*
X3507357Y-6780050D01*
X3507357Y-6780050D02*
X3469262Y-6780050D01*
X3469262Y-6780050D02*
X3450214Y-6789574D01*
X3535928Y-6903860D02*
X3516881Y-6913384D01*
X3516881Y-6913384D02*
X3469262Y-6913384D01*
X3469262Y-6913384D02*
X3450214Y-6903860D01*
X3450214Y-6903860D02*
X3440690Y-6884812D01*
X3440690Y-6884812D02*
X3440690Y-6865765D01*
X3440690Y-6865765D02*
X3450214Y-6846717D01*
X3450214Y-6846717D02*
X3469262Y-6837193D01*
X3469262Y-6837193D02*
X3516881Y-6837193D01*
X3516881Y-6837193D02*
X3535928Y-6827669D01*
X3602595Y-6780050D02*
X3678785Y-6780050D01*
X3631166Y-6713384D02*
X3631166Y-6884812D01*
X3631166Y-6884812D02*
X3640690Y-6903860D01*
X3640690Y-6903860D02*
X3659738Y-6913384D01*
X3659738Y-6913384D02*
X3678785Y-6913384D01*
X3821643Y-6903860D02*
X3802595Y-6913384D01*
X3802595Y-6913384D02*
X3764500Y-6913384D01*
X3764500Y-6913384D02*
X3745452Y-6903860D01*
X3745452Y-6903860D02*
X3735928Y-6884812D01*
X3735928Y-6884812D02*
X3735928Y-6808622D01*
X3735928Y-6808622D02*
X3745452Y-6789574D01*
X3745452Y-6789574D02*
X3764500Y-6780050D01*
X3764500Y-6780050D02*
X3802595Y-6780050D01*
X3802595Y-6780050D02*
X3821643Y-6789574D01*
X3821643Y-6789574D02*
X3831166Y-6808622D01*
X3831166Y-6808622D02*
X3831166Y-6827669D01*
X3831166Y-6827669D02*
X3735928Y-6846717D01*
X4002595Y-6913384D02*
X4002595Y-6713384D01*
X4002595Y-6903860D02*
X3983547Y-6913384D01*
X3983547Y-6913384D02*
X3945452Y-6913384D01*
X3945452Y-6913384D02*
X3926404Y-6903860D01*
X3926404Y-6903860D02*
X3916881Y-6894336D01*
X3916881Y-6894336D02*
X3907357Y-6875288D01*
X3907357Y-6875288D02*
X3907357Y-6818146D01*
X3907357Y-6818146D02*
X3916881Y-6799098D01*
X3916881Y-6799098D02*
X3926404Y-6789574D01*
X3926404Y-6789574D02*
X3945452Y-6780050D01*
X3945452Y-6780050D02*
X3983547Y-6780050D01*
X3983547Y-6780050D02*
X4002595Y-6789574D01*
X4078785Y-6989574D02*
X4088309Y-6980050D01*
X4088309Y-6980050D02*
X4107357Y-6951479D01*
X4107357Y-6951479D02*
X4116881Y-6932431D01*
X4116881Y-6932431D02*
X4126404Y-6903860D01*
X4126404Y-6903860D02*
X4135928Y-6856241D01*
X4135928Y-6856241D02*
X4135928Y-6818146D01*
X4135928Y-6818146D02*
X4126404Y-6770527D01*
X4126404Y-6770527D02*
X4116881Y-6741955D01*
X4116881Y-6741955D02*
X4107357Y-6722908D01*
X4107357Y-6722908D02*
X4088309Y-6694336D01*
X4088309Y-6694336D02*
X4078785Y-6684812D01*
D13*
X-2677230Y-7085900D02*
G75*
G03*
X-2677230Y-7085900I-62500J0D01*
G01*
D11*
X-2311691Y-7177384D02*
X-2425977Y-7177384D01*
X-2368834Y-7177384D02*
X-2368834Y-6977384D01*
X-2368834Y-6977384D02*
X-2387882Y-7005955D01*
X-2387882Y-7005955D02*
X-2406929Y-7025003D01*
X-2406929Y-7025003D02*
X-2425977Y-7034527D01*
X-2225977Y-7158336D02*
X-2216453Y-7167860D01*
X-2216453Y-7167860D02*
X-2225977Y-7177384D01*
X-2225977Y-7177384D02*
X-2235501Y-7167860D01*
X-2235501Y-7167860D02*
X-2225977Y-7158336D01*
X-2225977Y-7158336D02*
X-2225977Y-7177384D01*
X-2140263Y-6996431D02*
X-2130739Y-6986908D01*
X-2130739Y-6986908D02*
X-2111691Y-6977384D01*
X-2111691Y-6977384D02*
X-2064072Y-6977384D01*
X-2064072Y-6977384D02*
X-2045025Y-6986908D01*
X-2045025Y-6986908D02*
X-2035501Y-6996431D01*
X-2035501Y-6996431D02*
X-2025977Y-7015479D01*
X-2025977Y-7015479D02*
X-2025977Y-7034527D01*
X-2025977Y-7034527D02*
X-2035501Y-7063098D01*
X-2035501Y-7063098D02*
X-2149787Y-7177384D01*
X-2149787Y-7177384D02*
X-2025977Y-7177384D01*
X-1845025Y-6977384D02*
X-1940263Y-6977384D01*
X-1940263Y-6977384D02*
X-1949786Y-7072622D01*
X-1949786Y-7072622D02*
X-1940263Y-7063098D01*
X-1940263Y-7063098D02*
X-1921215Y-7053574D01*
X-1921215Y-7053574D02*
X-1873596Y-7053574D01*
X-1873596Y-7053574D02*
X-1854548Y-7063098D01*
X-1854548Y-7063098D02*
X-1845025Y-7072622D01*
X-1845025Y-7072622D02*
X-1835501Y-7091669D01*
X-1835501Y-7091669D02*
X-1835501Y-7139288D01*
X-1835501Y-7139288D02*
X-1845025Y-7158336D01*
X-1845025Y-7158336D02*
X-1854548Y-7167860D01*
X-1854548Y-7167860D02*
X-1873596Y-7177384D01*
X-1873596Y-7177384D02*
X-1921215Y-7177384D01*
X-1921215Y-7177384D02*
X-1940263Y-7167860D01*
X-1940263Y-7167860D02*
X-1949786Y-7158336D01*
X-1711691Y-6977384D02*
X-1692644Y-6977384D01*
X-1692644Y-6977384D02*
X-1673596Y-6986908D01*
X-1673596Y-6986908D02*
X-1664072Y-6996431D01*
X-1664072Y-6996431D02*
X-1654548Y-7015479D01*
X-1654548Y-7015479D02*
X-1645025Y-7053574D01*
X-1645025Y-7053574D02*
X-1645025Y-7101193D01*
X-1645025Y-7101193D02*
X-1654548Y-7139288D01*
X-1654548Y-7139288D02*
X-1664072Y-7158336D01*
X-1664072Y-7158336D02*
X-1673596Y-7167860D01*
X-1673596Y-7167860D02*
X-1692644Y-7177384D01*
X-1692644Y-7177384D02*
X-1711691Y-7177384D01*
X-1711691Y-7177384D02*
X-1730739Y-7167860D01*
X-1730739Y-7167860D02*
X-1740263Y-7158336D01*
X-1740263Y-7158336D02*
X-1749786Y-7139288D01*
X-1749786Y-7139288D02*
X-1759310Y-7101193D01*
X-1759310Y-7101193D02*
X-1759310Y-7053574D01*
X-1759310Y-7053574D02*
X-1749786Y-7015479D01*
X-1749786Y-7015479D02*
X-1740263Y-6996431D01*
X-1740263Y-6996431D02*
X-1730739Y-6986908D01*
X-1730739Y-6986908D02*
X-1711691Y-6977384D01*
X-1559310Y-7177384D02*
X-1559310Y-7044050D01*
X-1559310Y-7063098D02*
X-1549786Y-7053574D01*
X-1549786Y-7053574D02*
X-1530739Y-7044050D01*
X-1530739Y-7044050D02*
X-1502167Y-7044050D01*
X-1502167Y-7044050D02*
X-1483120Y-7053574D01*
X-1483120Y-7053574D02*
X-1473596Y-7072622D01*
X-1473596Y-7072622D02*
X-1473596Y-7177384D01*
X-1473596Y-7072622D02*
X-1464072Y-7053574D01*
X-1464072Y-7053574D02*
X-1445025Y-7044050D01*
X-1445025Y-7044050D02*
X-1416453Y-7044050D01*
X-1416453Y-7044050D02*
X-1397406Y-7053574D01*
X-1397406Y-7053574D02*
X-1387882Y-7072622D01*
X-1387882Y-7072622D02*
X-1387882Y-7177384D01*
X-1292644Y-7177384D02*
X-1292644Y-7044050D01*
X-1292644Y-7063098D02*
X-1283120Y-7053574D01*
X-1283120Y-7053574D02*
X-1264072Y-7044050D01*
X-1264072Y-7044050D02*
X-1235501Y-7044050D01*
X-1235501Y-7044050D02*
X-1216453Y-7053574D01*
X-1216453Y-7053574D02*
X-1206929Y-7072622D01*
X-1206929Y-7072622D02*
X-1206929Y-7177384D01*
X-1206929Y-7072622D02*
X-1197406Y-7053574D01*
X-1197406Y-7053574D02*
X-1178358Y-7044050D01*
X-1178358Y-7044050D02*
X-1149787Y-7044050D01*
X-1149787Y-7044050D02*
X-1130739Y-7053574D01*
X-1130739Y-7053574D02*
X-1121215Y-7072622D01*
X-1121215Y-7072622D02*
X-1121215Y-7177384D01*
X-730739Y-6967860D02*
X-902167Y-7225003D01*
X-473596Y-6977384D02*
X-454548Y-6977384D01*
X-454548Y-6977384D02*
X-435501Y-6986908D01*
X-435501Y-6986908D02*
X-425977Y-6996431D01*
X-425977Y-6996431D02*
X-416453Y-7015479D01*
X-416453Y-7015479D02*
X-406929Y-7053574D01*
X-406929Y-7053574D02*
X-406929Y-7101193D01*
X-406929Y-7101193D02*
X-416453Y-7139288D01*
X-416453Y-7139288D02*
X-425977Y-7158336D01*
X-425977Y-7158336D02*
X-435501Y-7167860D01*
X-435501Y-7167860D02*
X-454548Y-7177384D01*
X-454548Y-7177384D02*
X-473596Y-7177384D01*
X-473596Y-7177384D02*
X-492643Y-7167860D01*
X-492643Y-7167860D02*
X-502167Y-7158336D01*
X-502167Y-7158336D02*
X-511691Y-7139288D01*
X-511691Y-7139288D02*
X-521215Y-7101193D01*
X-521215Y-7101193D02*
X-521215Y-7053574D01*
X-521215Y-7053574D02*
X-511691Y-7015479D01*
X-511691Y-7015479D02*
X-502167Y-6996431D01*
X-502167Y-6996431D02*
X-492643Y-6986908D01*
X-492643Y-6986908D02*
X-473596Y-6977384D01*
X-321215Y-7158336D02*
X-311691Y-7167860D01*
X-311691Y-7167860D02*
X-321215Y-7177384D01*
X-321215Y-7177384D02*
X-330739Y-7167860D01*
X-330739Y-7167860D02*
X-321215Y-7158336D01*
X-321215Y-7158336D02*
X-321215Y-7177384D01*
X-187882Y-6977384D02*
X-168834Y-6977384D01*
X-168834Y-6977384D02*
X-149786Y-6986908D01*
X-149786Y-6986908D02*
X-140263Y-6996431D01*
X-140263Y-6996431D02*
X-130739Y-7015479D01*
X-130739Y-7015479D02*
X-121215Y-7053574D01*
X-121215Y-7053574D02*
X-121215Y-7101193D01*
X-121215Y-7101193D02*
X-130739Y-7139288D01*
X-130739Y-7139288D02*
X-140263Y-7158336D01*
X-140263Y-7158336D02*
X-149786Y-7167860D01*
X-149786Y-7167860D02*
X-168834Y-7177384D01*
X-168834Y-7177384D02*
X-187882Y-7177384D01*
X-187882Y-7177384D02*
X-206929Y-7167860D01*
X-206929Y-7167860D02*
X-216453Y-7158336D01*
X-216453Y-7158336D02*
X-225977Y-7139288D01*
X-225977Y-7139288D02*
X-235501Y-7101193D01*
X-235501Y-7101193D02*
X-235501Y-7053574D01*
X-235501Y-7053574D02*
X-225977Y-7015479D01*
X-225977Y-7015479D02*
X-216453Y-6996431D01*
X-216453Y-6996431D02*
X-206929Y-6986908D01*
X-206929Y-6986908D02*
X-187882Y-6977384D01*
X50214Y-7044050D02*
X50214Y-7177384D01*
X2595Y-6967860D02*
X-45024Y-7110717D01*
X-45024Y-7110717D02*
X78785Y-7110717D01*
X164499Y-7177384D02*
X202595Y-7177384D01*
X202595Y-7177384D02*
X221642Y-7167860D01*
X221642Y-7167860D02*
X231166Y-7158336D01*
X231166Y-7158336D02*
X250214Y-7129765D01*
X250214Y-7129765D02*
X259737Y-7091669D01*
X259737Y-7091669D02*
X259737Y-7015479D01*
X259737Y-7015479D02*
X250214Y-6996431D01*
X250214Y-6996431D02*
X240690Y-6986908D01*
X240690Y-6986908D02*
X221642Y-6977384D01*
X221642Y-6977384D02*
X183547Y-6977384D01*
X183547Y-6977384D02*
X164499Y-6986908D01*
X164499Y-6986908D02*
X154976Y-6996431D01*
X154976Y-6996431D02*
X145452Y-7015479D01*
X145452Y-7015479D02*
X145452Y-7063098D01*
X145452Y-7063098D02*
X154976Y-7082146D01*
X154976Y-7082146D02*
X164499Y-7091669D01*
X164499Y-7091669D02*
X183547Y-7101193D01*
X183547Y-7101193D02*
X221642Y-7101193D01*
X221642Y-7101193D02*
X240690Y-7091669D01*
X240690Y-7091669D02*
X250214Y-7082146D01*
X250214Y-7082146D02*
X259737Y-7063098D01*
X335928Y-6996431D02*
X345452Y-6986908D01*
X345452Y-6986908D02*
X364499Y-6977384D01*
X364499Y-6977384D02*
X412118Y-6977384D01*
X412118Y-6977384D02*
X431166Y-6986908D01*
X431166Y-6986908D02*
X440690Y-6996431D01*
X440690Y-6996431D02*
X450214Y-7015479D01*
X450214Y-7015479D02*
X450214Y-7034527D01*
X450214Y-7034527D02*
X440690Y-7063098D01*
X440690Y-7063098D02*
X326404Y-7177384D01*
X326404Y-7177384D02*
X450214Y-7177384D01*
X526404Y-6977384D02*
X526404Y-7015479D01*
X602595Y-6977384D02*
X602595Y-7015479D01*
X897833Y-7253574D02*
X888309Y-7244050D01*
X888309Y-7244050D02*
X869261Y-7215479D01*
X869261Y-7215479D02*
X859738Y-7196431D01*
X859738Y-7196431D02*
X850214Y-7167860D01*
X850214Y-7167860D02*
X840690Y-7120241D01*
X840690Y-7120241D02*
X840690Y-7082146D01*
X840690Y-7082146D02*
X850214Y-7034527D01*
X850214Y-7034527D02*
X859738Y-7005955D01*
X859738Y-7005955D02*
X869261Y-6986908D01*
X869261Y-6986908D02*
X888309Y-6958336D01*
X888309Y-6958336D02*
X897833Y-6948812D01*
X964499Y-6996431D02*
X974023Y-6986908D01*
X974023Y-6986908D02*
X993071Y-6977384D01*
X993071Y-6977384D02*
X1040690Y-6977384D01*
X1040690Y-6977384D02*
X1059738Y-6986908D01*
X1059738Y-6986908D02*
X1069261Y-6996431D01*
X1069261Y-6996431D02*
X1078785Y-7015479D01*
X1078785Y-7015479D02*
X1078785Y-7034527D01*
X1078785Y-7034527D02*
X1069261Y-7063098D01*
X1069261Y-7063098D02*
X954976Y-7177384D01*
X954976Y-7177384D02*
X1078785Y-7177384D01*
X1316881Y-7177384D02*
X1316881Y-6977384D01*
X1402595Y-7177384D02*
X1402595Y-7072622D01*
X1402595Y-7072622D02*
X1393071Y-7053574D01*
X1393071Y-7053574D02*
X1374023Y-7044050D01*
X1374023Y-7044050D02*
X1345452Y-7044050D01*
X1345452Y-7044050D02*
X1326404Y-7053574D01*
X1326404Y-7053574D02*
X1316881Y-7063098D01*
X1526404Y-7177384D02*
X1507357Y-7167860D01*
X1507357Y-7167860D02*
X1497833Y-7158336D01*
X1497833Y-7158336D02*
X1488309Y-7139288D01*
X1488309Y-7139288D02*
X1488309Y-7082146D01*
X1488309Y-7082146D02*
X1497833Y-7063098D01*
X1497833Y-7063098D02*
X1507357Y-7053574D01*
X1507357Y-7053574D02*
X1526404Y-7044050D01*
X1526404Y-7044050D02*
X1554976Y-7044050D01*
X1554976Y-7044050D02*
X1574023Y-7053574D01*
X1574023Y-7053574D02*
X1583547Y-7063098D01*
X1583547Y-7063098D02*
X1593071Y-7082146D01*
X1593071Y-7082146D02*
X1593071Y-7139288D01*
X1593071Y-7139288D02*
X1583547Y-7158336D01*
X1583547Y-7158336D02*
X1574023Y-7167860D01*
X1574023Y-7167860D02*
X1554976Y-7177384D01*
X1554976Y-7177384D02*
X1526404Y-7177384D01*
X1707357Y-7177384D02*
X1688309Y-7167860D01*
X1688309Y-7167860D02*
X1678785Y-7148812D01*
X1678785Y-7148812D02*
X1678785Y-6977384D01*
X1859738Y-7167860D02*
X1840690Y-7177384D01*
X1840690Y-7177384D02*
X1802595Y-7177384D01*
X1802595Y-7177384D02*
X1783547Y-7167860D01*
X1783547Y-7167860D02*
X1774023Y-7148812D01*
X1774023Y-7148812D02*
X1774023Y-7072622D01*
X1774023Y-7072622D02*
X1783547Y-7053574D01*
X1783547Y-7053574D02*
X1802595Y-7044050D01*
X1802595Y-7044050D02*
X1840690Y-7044050D01*
X1840690Y-7044050D02*
X1859738Y-7053574D01*
X1859738Y-7053574D02*
X1869261Y-7072622D01*
X1869261Y-7072622D02*
X1869261Y-7091669D01*
X1869261Y-7091669D02*
X1774023Y-7110717D01*
X1945452Y-7167860D02*
X1964500Y-7177384D01*
X1964500Y-7177384D02*
X2002595Y-7177384D01*
X2002595Y-7177384D02*
X2021642Y-7167860D01*
X2021642Y-7167860D02*
X2031166Y-7148812D01*
X2031166Y-7148812D02*
X2031166Y-7139288D01*
X2031166Y-7139288D02*
X2021642Y-7120241D01*
X2021642Y-7120241D02*
X2002595Y-7110717D01*
X2002595Y-7110717D02*
X1974023Y-7110717D01*
X1974023Y-7110717D02*
X1954976Y-7101193D01*
X1954976Y-7101193D02*
X1945452Y-7082146D01*
X1945452Y-7082146D02*
X1945452Y-7072622D01*
X1945452Y-7072622D02*
X1954976Y-7053574D01*
X1954976Y-7053574D02*
X1974023Y-7044050D01*
X1974023Y-7044050D02*
X2002595Y-7044050D01*
X2002595Y-7044050D02*
X2021642Y-7053574D01*
X2097833Y-7253574D02*
X2107357Y-7244050D01*
X2107357Y-7244050D02*
X2126404Y-7215479D01*
X2126404Y-7215479D02*
X2135928Y-7196431D01*
X2135928Y-7196431D02*
X2145452Y-7167860D01*
X2145452Y-7167860D02*
X2154976Y-7120241D01*
X2154976Y-7120241D02*
X2154976Y-7082146D01*
X2154976Y-7082146D02*
X2145452Y-7034527D01*
X2145452Y-7034527D02*
X2135928Y-7005955D01*
X2135928Y-7005955D02*
X2126404Y-6986908D01*
X2126404Y-6986908D02*
X2107357Y-6958336D01*
X2107357Y-6958336D02*
X2097833Y-6948812D01*
X2459738Y-7253574D02*
X2450214Y-7244050D01*
X2450214Y-7244050D02*
X2431166Y-7215479D01*
X2431166Y-7215479D02*
X2421643Y-7196431D01*
X2421643Y-7196431D02*
X2412119Y-7167860D01*
X2412119Y-7167860D02*
X2402595Y-7120241D01*
X2402595Y-7120241D02*
X2402595Y-7082146D01*
X2402595Y-7082146D02*
X2412119Y-7034527D01*
X2412119Y-7034527D02*
X2421643Y-7005955D01*
X2421643Y-7005955D02*
X2431166Y-6986908D01*
X2431166Y-6986908D02*
X2450214Y-6958336D01*
X2450214Y-6958336D02*
X2459738Y-6948812D01*
X2535928Y-7044050D02*
X2535928Y-7177384D01*
X2535928Y-7063098D02*
X2545452Y-7053574D01*
X2545452Y-7053574D02*
X2564500Y-7044050D01*
X2564500Y-7044050D02*
X2593071Y-7044050D01*
X2593071Y-7044050D02*
X2612119Y-7053574D01*
X2612119Y-7053574D02*
X2621643Y-7072622D01*
X2621643Y-7072622D02*
X2621643Y-7177384D01*
X2745452Y-7177384D02*
X2726404Y-7167860D01*
X2726404Y-7167860D02*
X2716881Y-7158336D01*
X2716881Y-7158336D02*
X2707357Y-7139288D01*
X2707357Y-7139288D02*
X2707357Y-7082146D01*
X2707357Y-7082146D02*
X2716881Y-7063098D01*
X2716881Y-7063098D02*
X2726404Y-7053574D01*
X2726404Y-7053574D02*
X2745452Y-7044050D01*
X2745452Y-7044050D02*
X2774024Y-7044050D01*
X2774024Y-7044050D02*
X2793071Y-7053574D01*
X2793071Y-7053574D02*
X2802595Y-7063098D01*
X2802595Y-7063098D02*
X2812119Y-7082146D01*
X2812119Y-7082146D02*
X2812119Y-7139288D01*
X2812119Y-7139288D02*
X2802595Y-7158336D01*
X2802595Y-7158336D02*
X2793071Y-7167860D01*
X2793071Y-7167860D02*
X2774024Y-7177384D01*
X2774024Y-7177384D02*
X2745452Y-7177384D01*
X2869262Y-7044050D02*
X2945452Y-7044050D01*
X2897833Y-6977384D02*
X2897833Y-7148812D01*
X2897833Y-7148812D02*
X2907357Y-7167860D01*
X2907357Y-7167860D02*
X2926404Y-7177384D01*
X2926404Y-7177384D02*
X2945452Y-7177384D01*
X3164500Y-7044050D02*
X3164500Y-7244050D01*
X3164500Y-7053574D02*
X3183547Y-7044050D01*
X3183547Y-7044050D02*
X3221643Y-7044050D01*
X3221643Y-7044050D02*
X3240690Y-7053574D01*
X3240690Y-7053574D02*
X3250214Y-7063098D01*
X3250214Y-7063098D02*
X3259738Y-7082146D01*
X3259738Y-7082146D02*
X3259738Y-7139288D01*
X3259738Y-7139288D02*
X3250214Y-7158336D01*
X3250214Y-7158336D02*
X3240690Y-7167860D01*
X3240690Y-7167860D02*
X3221643Y-7177384D01*
X3221643Y-7177384D02*
X3183547Y-7177384D01*
X3183547Y-7177384D02*
X3164500Y-7167860D01*
X3374023Y-7177384D02*
X3354976Y-7167860D01*
X3354976Y-7167860D02*
X3345452Y-7148812D01*
X3345452Y-7148812D02*
X3345452Y-6977384D01*
X3535928Y-7177384D02*
X3535928Y-7072622D01*
X3535928Y-7072622D02*
X3526404Y-7053574D01*
X3526404Y-7053574D02*
X3507357Y-7044050D01*
X3507357Y-7044050D02*
X3469262Y-7044050D01*
X3469262Y-7044050D02*
X3450214Y-7053574D01*
X3535928Y-7167860D02*
X3516881Y-7177384D01*
X3516881Y-7177384D02*
X3469262Y-7177384D01*
X3469262Y-7177384D02*
X3450214Y-7167860D01*
X3450214Y-7167860D02*
X3440690Y-7148812D01*
X3440690Y-7148812D02*
X3440690Y-7129765D01*
X3440690Y-7129765D02*
X3450214Y-7110717D01*
X3450214Y-7110717D02*
X3469262Y-7101193D01*
X3469262Y-7101193D02*
X3516881Y-7101193D01*
X3516881Y-7101193D02*
X3535928Y-7091669D01*
X3602595Y-7044050D02*
X3678785Y-7044050D01*
X3631166Y-6977384D02*
X3631166Y-7148812D01*
X3631166Y-7148812D02*
X3640690Y-7167860D01*
X3640690Y-7167860D02*
X3659738Y-7177384D01*
X3659738Y-7177384D02*
X3678785Y-7177384D01*
X3821643Y-7167860D02*
X3802595Y-7177384D01*
X3802595Y-7177384D02*
X3764500Y-7177384D01*
X3764500Y-7177384D02*
X3745452Y-7167860D01*
X3745452Y-7167860D02*
X3735928Y-7148812D01*
X3735928Y-7148812D02*
X3735928Y-7072622D01*
X3735928Y-7072622D02*
X3745452Y-7053574D01*
X3745452Y-7053574D02*
X3764500Y-7044050D01*
X3764500Y-7044050D02*
X3802595Y-7044050D01*
X3802595Y-7044050D02*
X3821643Y-7053574D01*
X3821643Y-7053574D02*
X3831166Y-7072622D01*
X3831166Y-7072622D02*
X3831166Y-7091669D01*
X3831166Y-7091669D02*
X3735928Y-7110717D01*
X4002595Y-7177384D02*
X4002595Y-6977384D01*
X4002595Y-7167860D02*
X3983547Y-7177384D01*
X3983547Y-7177384D02*
X3945452Y-7177384D01*
X3945452Y-7177384D02*
X3926404Y-7167860D01*
X3926404Y-7167860D02*
X3916881Y-7158336D01*
X3916881Y-7158336D02*
X3907357Y-7139288D01*
X3907357Y-7139288D02*
X3907357Y-7082146D01*
X3907357Y-7082146D02*
X3916881Y-7063098D01*
X3916881Y-7063098D02*
X3926404Y-7053574D01*
X3926404Y-7053574D02*
X3945452Y-7044050D01*
X3945452Y-7044050D02*
X3983547Y-7044050D01*
X3983547Y-7044050D02*
X4002595Y-7053574D01*
X4078785Y-7253574D02*
X4088309Y-7244050D01*
X4088309Y-7244050D02*
X4107357Y-7215479D01*
X4107357Y-7215479D02*
X4116881Y-7196431D01*
X4116881Y-7196431D02*
X4126404Y-7167860D01*
X4126404Y-7167860D02*
X4135928Y-7120241D01*
X4135928Y-7120241D02*
X4135928Y-7082146D01*
X4135928Y-7082146D02*
X4126404Y-7034527D01*
X4126404Y-7034527D02*
X4116881Y-7005955D01*
X4116881Y-7005955D02*
X4107357Y-6986908D01*
X4107357Y-6986908D02*
X4088309Y-6958336D01*
X4088309Y-6958336D02*
X4078785Y-6948812D01*
D14*
X-2757230Y-7269900D02*
X-2757230Y-7429900D01*
X-2837230Y-7349900D02*
X-2677230Y-7349900D01*
D11*
X-2311691Y-7441384D02*
X-2425977Y-7441384D01*
X-2368834Y-7441384D02*
X-2368834Y-7241384D01*
X-2368834Y-7241384D02*
X-2387882Y-7269955D01*
X-2387882Y-7269955D02*
X-2406929Y-7289003D01*
X-2406929Y-7289003D02*
X-2425977Y-7298527D01*
X-2225977Y-7422336D02*
X-2216453Y-7431860D01*
X-2216453Y-7431860D02*
X-2225977Y-7441384D01*
X-2225977Y-7441384D02*
X-2235501Y-7431860D01*
X-2235501Y-7431860D02*
X-2225977Y-7422336D01*
X-2225977Y-7422336D02*
X-2225977Y-7441384D01*
X-2045025Y-7241384D02*
X-2083120Y-7241384D01*
X-2083120Y-7241384D02*
X-2102168Y-7250908D01*
X-2102168Y-7250908D02*
X-2111691Y-7260431D01*
X-2111691Y-7260431D02*
X-2130739Y-7289003D01*
X-2130739Y-7289003D02*
X-2140263Y-7327098D01*
X-2140263Y-7327098D02*
X-2140263Y-7403288D01*
X-2140263Y-7403288D02*
X-2130739Y-7422336D01*
X-2130739Y-7422336D02*
X-2121215Y-7431860D01*
X-2121215Y-7431860D02*
X-2102168Y-7441384D01*
X-2102168Y-7441384D02*
X-2064072Y-7441384D01*
X-2064072Y-7441384D02*
X-2045025Y-7431860D01*
X-2045025Y-7431860D02*
X-2035501Y-7422336D01*
X-2035501Y-7422336D02*
X-2025977Y-7403288D01*
X-2025977Y-7403288D02*
X-2025977Y-7355669D01*
X-2025977Y-7355669D02*
X-2035501Y-7336622D01*
X-2035501Y-7336622D02*
X-2045025Y-7327098D01*
X-2045025Y-7327098D02*
X-2064072Y-7317574D01*
X-2064072Y-7317574D02*
X-2102168Y-7317574D01*
X-2102168Y-7317574D02*
X-2121215Y-7327098D01*
X-2121215Y-7327098D02*
X-2130739Y-7336622D01*
X-2130739Y-7336622D02*
X-2140263Y-7355669D01*
X-1902167Y-7241384D02*
X-1883120Y-7241384D01*
X-1883120Y-7241384D02*
X-1864072Y-7250908D01*
X-1864072Y-7250908D02*
X-1854548Y-7260431D01*
X-1854548Y-7260431D02*
X-1845025Y-7279479D01*
X-1845025Y-7279479D02*
X-1835501Y-7317574D01*
X-1835501Y-7317574D02*
X-1835501Y-7365193D01*
X-1835501Y-7365193D02*
X-1845025Y-7403288D01*
X-1845025Y-7403288D02*
X-1854548Y-7422336D01*
X-1854548Y-7422336D02*
X-1864072Y-7431860D01*
X-1864072Y-7431860D02*
X-1883120Y-7441384D01*
X-1883120Y-7441384D02*
X-1902167Y-7441384D01*
X-1902167Y-7441384D02*
X-1921215Y-7431860D01*
X-1921215Y-7431860D02*
X-1930739Y-7422336D01*
X-1930739Y-7422336D02*
X-1940263Y-7403288D01*
X-1940263Y-7403288D02*
X-1949786Y-7365193D01*
X-1949786Y-7365193D02*
X-1949786Y-7317574D01*
X-1949786Y-7317574D02*
X-1940263Y-7279479D01*
X-1940263Y-7279479D02*
X-1930739Y-7260431D01*
X-1930739Y-7260431D02*
X-1921215Y-7250908D01*
X-1921215Y-7250908D02*
X-1902167Y-7241384D01*
X-1711691Y-7241384D02*
X-1692644Y-7241384D01*
X-1692644Y-7241384D02*
X-1673596Y-7250908D01*
X-1673596Y-7250908D02*
X-1664072Y-7260431D01*
X-1664072Y-7260431D02*
X-1654548Y-7279479D01*
X-1654548Y-7279479D02*
X-1645025Y-7317574D01*
X-1645025Y-7317574D02*
X-1645025Y-7365193D01*
X-1645025Y-7365193D02*
X-1654548Y-7403288D01*
X-1654548Y-7403288D02*
X-1664072Y-7422336D01*
X-1664072Y-7422336D02*
X-1673596Y-7431860D01*
X-1673596Y-7431860D02*
X-1692644Y-7441384D01*
X-1692644Y-7441384D02*
X-1711691Y-7441384D01*
X-1711691Y-7441384D02*
X-1730739Y-7431860D01*
X-1730739Y-7431860D02*
X-1740263Y-7422336D01*
X-1740263Y-7422336D02*
X-1749786Y-7403288D01*
X-1749786Y-7403288D02*
X-1759310Y-7365193D01*
X-1759310Y-7365193D02*
X-1759310Y-7317574D01*
X-1759310Y-7317574D02*
X-1749786Y-7279479D01*
X-1749786Y-7279479D02*
X-1740263Y-7260431D01*
X-1740263Y-7260431D02*
X-1730739Y-7250908D01*
X-1730739Y-7250908D02*
X-1711691Y-7241384D01*
X-1559310Y-7441384D02*
X-1559310Y-7308050D01*
X-1559310Y-7327098D02*
X-1549786Y-7317574D01*
X-1549786Y-7317574D02*
X-1530739Y-7308050D01*
X-1530739Y-7308050D02*
X-1502167Y-7308050D01*
X-1502167Y-7308050D02*
X-1483120Y-7317574D01*
X-1483120Y-7317574D02*
X-1473596Y-7336622D01*
X-1473596Y-7336622D02*
X-1473596Y-7441384D01*
X-1473596Y-7336622D02*
X-1464072Y-7317574D01*
X-1464072Y-7317574D02*
X-1445025Y-7308050D01*
X-1445025Y-7308050D02*
X-1416453Y-7308050D01*
X-1416453Y-7308050D02*
X-1397406Y-7317574D01*
X-1397406Y-7317574D02*
X-1387882Y-7336622D01*
X-1387882Y-7336622D02*
X-1387882Y-7441384D01*
X-1292644Y-7441384D02*
X-1292644Y-7308050D01*
X-1292644Y-7327098D02*
X-1283120Y-7317574D01*
X-1283120Y-7317574D02*
X-1264072Y-7308050D01*
X-1264072Y-7308050D02*
X-1235501Y-7308050D01*
X-1235501Y-7308050D02*
X-1216453Y-7317574D01*
X-1216453Y-7317574D02*
X-1206929Y-7336622D01*
X-1206929Y-7336622D02*
X-1206929Y-7441384D01*
X-1206929Y-7336622D02*
X-1197406Y-7317574D01*
X-1197406Y-7317574D02*
X-1178358Y-7308050D01*
X-1178358Y-7308050D02*
X-1149787Y-7308050D01*
X-1149787Y-7308050D02*
X-1130739Y-7317574D01*
X-1130739Y-7317574D02*
X-1121215Y-7336622D01*
X-1121215Y-7336622D02*
X-1121215Y-7441384D01*
X-730739Y-7231860D02*
X-902167Y-7489003D01*
X-473596Y-7241384D02*
X-454548Y-7241384D01*
X-454548Y-7241384D02*
X-435501Y-7250908D01*
X-435501Y-7250908D02*
X-425977Y-7260431D01*
X-425977Y-7260431D02*
X-416453Y-7279479D01*
X-416453Y-7279479D02*
X-406929Y-7317574D01*
X-406929Y-7317574D02*
X-406929Y-7365193D01*
X-406929Y-7365193D02*
X-416453Y-7403288D01*
X-416453Y-7403288D02*
X-425977Y-7422336D01*
X-425977Y-7422336D02*
X-435501Y-7431860D01*
X-435501Y-7431860D02*
X-454548Y-7441384D01*
X-454548Y-7441384D02*
X-473596Y-7441384D01*
X-473596Y-7441384D02*
X-492643Y-7431860D01*
X-492643Y-7431860D02*
X-502167Y-7422336D01*
X-502167Y-7422336D02*
X-511691Y-7403288D01*
X-511691Y-7403288D02*
X-521215Y-7365193D01*
X-521215Y-7365193D02*
X-521215Y-7317574D01*
X-521215Y-7317574D02*
X-511691Y-7279479D01*
X-511691Y-7279479D02*
X-502167Y-7260431D01*
X-502167Y-7260431D02*
X-492643Y-7250908D01*
X-492643Y-7250908D02*
X-473596Y-7241384D01*
X-321215Y-7422336D02*
X-311691Y-7431860D01*
X-311691Y-7431860D02*
X-321215Y-7441384D01*
X-321215Y-7441384D02*
X-330739Y-7431860D01*
X-330739Y-7431860D02*
X-321215Y-7422336D01*
X-321215Y-7422336D02*
X-321215Y-7441384D01*
X-187882Y-7241384D02*
X-168834Y-7241384D01*
X-168834Y-7241384D02*
X-149786Y-7250908D01*
X-149786Y-7250908D02*
X-140263Y-7260431D01*
X-140263Y-7260431D02*
X-130739Y-7279479D01*
X-130739Y-7279479D02*
X-121215Y-7317574D01*
X-121215Y-7317574D02*
X-121215Y-7365193D01*
X-121215Y-7365193D02*
X-130739Y-7403288D01*
X-130739Y-7403288D02*
X-140263Y-7422336D01*
X-140263Y-7422336D02*
X-149786Y-7431860D01*
X-149786Y-7431860D02*
X-168834Y-7441384D01*
X-168834Y-7441384D02*
X-187882Y-7441384D01*
X-187882Y-7441384D02*
X-206929Y-7431860D01*
X-206929Y-7431860D02*
X-216453Y-7422336D01*
X-216453Y-7422336D02*
X-225977Y-7403288D01*
X-225977Y-7403288D02*
X-235501Y-7365193D01*
X-235501Y-7365193D02*
X-235501Y-7317574D01*
X-235501Y-7317574D02*
X-225977Y-7279479D01*
X-225977Y-7279479D02*
X-216453Y-7260431D01*
X-216453Y-7260431D02*
X-206929Y-7250908D01*
X-206929Y-7250908D02*
X-187882Y-7241384D01*
X50214Y-7241384D02*
X12118Y-7241384D01*
X12118Y-7241384D02*
X-6929Y-7250908D01*
X-6929Y-7250908D02*
X-16453Y-7260431D01*
X-16453Y-7260431D02*
X-35501Y-7289003D01*
X-35501Y-7289003D02*
X-45024Y-7327098D01*
X-45024Y-7327098D02*
X-45024Y-7403288D01*
X-45024Y-7403288D02*
X-35501Y-7422336D01*
X-35501Y-7422336D02*
X-25977Y-7431860D01*
X-25977Y-7431860D02*
X-6929Y-7441384D01*
X-6929Y-7441384D02*
X31166Y-7441384D01*
X31166Y-7441384D02*
X50214Y-7431860D01*
X50214Y-7431860D02*
X59737Y-7422336D01*
X59737Y-7422336D02*
X69261Y-7403288D01*
X69261Y-7403288D02*
X69261Y-7355669D01*
X69261Y-7355669D02*
X59737Y-7336622D01*
X59737Y-7336622D02*
X50214Y-7327098D01*
X50214Y-7327098D02*
X31166Y-7317574D01*
X31166Y-7317574D02*
X-6929Y-7317574D01*
X-6929Y-7317574D02*
X-25977Y-7327098D01*
X-25977Y-7327098D02*
X-35501Y-7336622D01*
X-35501Y-7336622D02*
X-45024Y-7355669D01*
X135928Y-7241384D02*
X259737Y-7241384D01*
X259737Y-7241384D02*
X193071Y-7317574D01*
X193071Y-7317574D02*
X221642Y-7317574D01*
X221642Y-7317574D02*
X240690Y-7327098D01*
X240690Y-7327098D02*
X250214Y-7336622D01*
X250214Y-7336622D02*
X259737Y-7355669D01*
X259737Y-7355669D02*
X259737Y-7403288D01*
X259737Y-7403288D02*
X250214Y-7422336D01*
X250214Y-7422336D02*
X240690Y-7431860D01*
X240690Y-7431860D02*
X221642Y-7441384D01*
X221642Y-7441384D02*
X164499Y-7441384D01*
X164499Y-7441384D02*
X145452Y-7431860D01*
X145452Y-7431860D02*
X135928Y-7422336D01*
X383547Y-7241384D02*
X402595Y-7241384D01*
X402595Y-7241384D02*
X421642Y-7250908D01*
X421642Y-7250908D02*
X431166Y-7260431D01*
X431166Y-7260431D02*
X440690Y-7279479D01*
X440690Y-7279479D02*
X450214Y-7317574D01*
X450214Y-7317574D02*
X450214Y-7365193D01*
X450214Y-7365193D02*
X440690Y-7403288D01*
X440690Y-7403288D02*
X431166Y-7422336D01*
X431166Y-7422336D02*
X421642Y-7431860D01*
X421642Y-7431860D02*
X402595Y-7441384D01*
X402595Y-7441384D02*
X383547Y-7441384D01*
X383547Y-7441384D02*
X364499Y-7431860D01*
X364499Y-7431860D02*
X354976Y-7422336D01*
X354976Y-7422336D02*
X345452Y-7403288D01*
X345452Y-7403288D02*
X335928Y-7365193D01*
X335928Y-7365193D02*
X335928Y-7317574D01*
X335928Y-7317574D02*
X345452Y-7279479D01*
X345452Y-7279479D02*
X354976Y-7260431D01*
X354976Y-7260431D02*
X364499Y-7250908D01*
X364499Y-7250908D02*
X383547Y-7241384D01*
X526404Y-7241384D02*
X526404Y-7279479D01*
X602595Y-7241384D02*
X602595Y-7279479D01*
X897833Y-7517574D02*
X888309Y-7508050D01*
X888309Y-7508050D02*
X869261Y-7479479D01*
X869261Y-7479479D02*
X859738Y-7460431D01*
X859738Y-7460431D02*
X850214Y-7431860D01*
X850214Y-7431860D02*
X840690Y-7384241D01*
X840690Y-7384241D02*
X840690Y-7346146D01*
X840690Y-7346146D02*
X850214Y-7298527D01*
X850214Y-7298527D02*
X859738Y-7269955D01*
X859738Y-7269955D02*
X869261Y-7250908D01*
X869261Y-7250908D02*
X888309Y-7222336D01*
X888309Y-7222336D02*
X897833Y-7212812D01*
X1059738Y-7308050D02*
X1059738Y-7441384D01*
X1012118Y-7231860D02*
X964499Y-7374717D01*
X964499Y-7374717D02*
X1088309Y-7374717D01*
X1316881Y-7441384D02*
X1316881Y-7241384D01*
X1402595Y-7441384D02*
X1402595Y-7336622D01*
X1402595Y-7336622D02*
X1393071Y-7317574D01*
X1393071Y-7317574D02*
X1374023Y-7308050D01*
X1374023Y-7308050D02*
X1345452Y-7308050D01*
X1345452Y-7308050D02*
X1326404Y-7317574D01*
X1326404Y-7317574D02*
X1316881Y-7327098D01*
X1526404Y-7441384D02*
X1507357Y-7431860D01*
X1507357Y-7431860D02*
X1497833Y-7422336D01*
X1497833Y-7422336D02*
X1488309Y-7403288D01*
X1488309Y-7403288D02*
X1488309Y-7346146D01*
X1488309Y-7346146D02*
X1497833Y-7327098D01*
X1497833Y-7327098D02*
X1507357Y-7317574D01*
X1507357Y-7317574D02*
X1526404Y-7308050D01*
X1526404Y-7308050D02*
X1554976Y-7308050D01*
X1554976Y-7308050D02*
X1574023Y-7317574D01*
X1574023Y-7317574D02*
X1583547Y-7327098D01*
X1583547Y-7327098D02*
X1593071Y-7346146D01*
X1593071Y-7346146D02*
X1593071Y-7403288D01*
X1593071Y-7403288D02*
X1583547Y-7422336D01*
X1583547Y-7422336D02*
X1574023Y-7431860D01*
X1574023Y-7431860D02*
X1554976Y-7441384D01*
X1554976Y-7441384D02*
X1526404Y-7441384D01*
X1707357Y-7441384D02*
X1688309Y-7431860D01*
X1688309Y-7431860D02*
X1678785Y-7412812D01*
X1678785Y-7412812D02*
X1678785Y-7241384D01*
X1859738Y-7431860D02*
X1840690Y-7441384D01*
X1840690Y-7441384D02*
X1802595Y-7441384D01*
X1802595Y-7441384D02*
X1783547Y-7431860D01*
X1783547Y-7431860D02*
X1774023Y-7412812D01*
X1774023Y-7412812D02*
X1774023Y-7336622D01*
X1774023Y-7336622D02*
X1783547Y-7317574D01*
X1783547Y-7317574D02*
X1802595Y-7308050D01*
X1802595Y-7308050D02*
X1840690Y-7308050D01*
X1840690Y-7308050D02*
X1859738Y-7317574D01*
X1859738Y-7317574D02*
X1869261Y-7336622D01*
X1869261Y-7336622D02*
X1869261Y-7355669D01*
X1869261Y-7355669D02*
X1774023Y-7374717D01*
X1945452Y-7431860D02*
X1964500Y-7441384D01*
X1964500Y-7441384D02*
X2002595Y-7441384D01*
X2002595Y-7441384D02*
X2021642Y-7431860D01*
X2021642Y-7431860D02*
X2031166Y-7412812D01*
X2031166Y-7412812D02*
X2031166Y-7403288D01*
X2031166Y-7403288D02*
X2021642Y-7384241D01*
X2021642Y-7384241D02*
X2002595Y-7374717D01*
X2002595Y-7374717D02*
X1974023Y-7374717D01*
X1974023Y-7374717D02*
X1954976Y-7365193D01*
X1954976Y-7365193D02*
X1945452Y-7346146D01*
X1945452Y-7346146D02*
X1945452Y-7336622D01*
X1945452Y-7336622D02*
X1954976Y-7317574D01*
X1954976Y-7317574D02*
X1974023Y-7308050D01*
X1974023Y-7308050D02*
X2002595Y-7308050D01*
X2002595Y-7308050D02*
X2021642Y-7317574D01*
X2097833Y-7517574D02*
X2107357Y-7508050D01*
X2107357Y-7508050D02*
X2126404Y-7479479D01*
X2126404Y-7479479D02*
X2135928Y-7460431D01*
X2135928Y-7460431D02*
X2145452Y-7431860D01*
X2145452Y-7431860D02*
X2154976Y-7384241D01*
X2154976Y-7384241D02*
X2154976Y-7346146D01*
X2154976Y-7346146D02*
X2145452Y-7298527D01*
X2145452Y-7298527D02*
X2135928Y-7269955D01*
X2135928Y-7269955D02*
X2126404Y-7250908D01*
X2126404Y-7250908D02*
X2107357Y-7222336D01*
X2107357Y-7222336D02*
X2097833Y-7212812D01*
X2459738Y-7517574D02*
X2450214Y-7508050D01*
X2450214Y-7508050D02*
X2431166Y-7479479D01*
X2431166Y-7479479D02*
X2421643Y-7460431D01*
X2421643Y-7460431D02*
X2412119Y-7431860D01*
X2412119Y-7431860D02*
X2402595Y-7384241D01*
X2402595Y-7384241D02*
X2402595Y-7346146D01*
X2402595Y-7346146D02*
X2412119Y-7298527D01*
X2412119Y-7298527D02*
X2421643Y-7269955D01*
X2421643Y-7269955D02*
X2431166Y-7250908D01*
X2431166Y-7250908D02*
X2450214Y-7222336D01*
X2450214Y-7222336D02*
X2459738Y-7212812D01*
X2535928Y-7308050D02*
X2535928Y-7441384D01*
X2535928Y-7327098D02*
X2545452Y-7317574D01*
X2545452Y-7317574D02*
X2564500Y-7308050D01*
X2564500Y-7308050D02*
X2593071Y-7308050D01*
X2593071Y-7308050D02*
X2612119Y-7317574D01*
X2612119Y-7317574D02*
X2621643Y-7336622D01*
X2621643Y-7336622D02*
X2621643Y-7441384D01*
X2745452Y-7441384D02*
X2726404Y-7431860D01*
X2726404Y-7431860D02*
X2716881Y-7422336D01*
X2716881Y-7422336D02*
X2707357Y-7403288D01*
X2707357Y-7403288D02*
X2707357Y-7346146D01*
X2707357Y-7346146D02*
X2716881Y-7327098D01*
X2716881Y-7327098D02*
X2726404Y-7317574D01*
X2726404Y-7317574D02*
X2745452Y-7308050D01*
X2745452Y-7308050D02*
X2774024Y-7308050D01*
X2774024Y-7308050D02*
X2793071Y-7317574D01*
X2793071Y-7317574D02*
X2802595Y-7327098D01*
X2802595Y-7327098D02*
X2812119Y-7346146D01*
X2812119Y-7346146D02*
X2812119Y-7403288D01*
X2812119Y-7403288D02*
X2802595Y-7422336D01*
X2802595Y-7422336D02*
X2793071Y-7431860D01*
X2793071Y-7431860D02*
X2774024Y-7441384D01*
X2774024Y-7441384D02*
X2745452Y-7441384D01*
X2869262Y-7308050D02*
X2945452Y-7308050D01*
X2897833Y-7241384D02*
X2897833Y-7412812D01*
X2897833Y-7412812D02*
X2907357Y-7431860D01*
X2907357Y-7431860D02*
X2926404Y-7441384D01*
X2926404Y-7441384D02*
X2945452Y-7441384D01*
X3164500Y-7308050D02*
X3164500Y-7508050D01*
X3164500Y-7317574D02*
X3183547Y-7308050D01*
X3183547Y-7308050D02*
X3221643Y-7308050D01*
X3221643Y-7308050D02*
X3240690Y-7317574D01*
X3240690Y-7317574D02*
X3250214Y-7327098D01*
X3250214Y-7327098D02*
X3259738Y-7346146D01*
X3259738Y-7346146D02*
X3259738Y-7403288D01*
X3259738Y-7403288D02*
X3250214Y-7422336D01*
X3250214Y-7422336D02*
X3240690Y-7431860D01*
X3240690Y-7431860D02*
X3221643Y-7441384D01*
X3221643Y-7441384D02*
X3183547Y-7441384D01*
X3183547Y-7441384D02*
X3164500Y-7431860D01*
X3374023Y-7441384D02*
X3354976Y-7431860D01*
X3354976Y-7431860D02*
X3345452Y-7412812D01*
X3345452Y-7412812D02*
X3345452Y-7241384D01*
X3535928Y-7441384D02*
X3535928Y-7336622D01*
X3535928Y-7336622D02*
X3526404Y-7317574D01*
X3526404Y-7317574D02*
X3507357Y-7308050D01*
X3507357Y-7308050D02*
X3469262Y-7308050D01*
X3469262Y-7308050D02*
X3450214Y-7317574D01*
X3535928Y-7431860D02*
X3516881Y-7441384D01*
X3516881Y-7441384D02*
X3469262Y-7441384D01*
X3469262Y-7441384D02*
X3450214Y-7431860D01*
X3450214Y-7431860D02*
X3440690Y-7412812D01*
X3440690Y-7412812D02*
X3440690Y-7393765D01*
X3440690Y-7393765D02*
X3450214Y-7374717D01*
X3450214Y-7374717D02*
X3469262Y-7365193D01*
X3469262Y-7365193D02*
X3516881Y-7365193D01*
X3516881Y-7365193D02*
X3535928Y-7355669D01*
X3602595Y-7308050D02*
X3678785Y-7308050D01*
X3631166Y-7241384D02*
X3631166Y-7412812D01*
X3631166Y-7412812D02*
X3640690Y-7431860D01*
X3640690Y-7431860D02*
X3659738Y-7441384D01*
X3659738Y-7441384D02*
X3678785Y-7441384D01*
X3821643Y-7431860D02*
X3802595Y-7441384D01*
X3802595Y-7441384D02*
X3764500Y-7441384D01*
X3764500Y-7441384D02*
X3745452Y-7431860D01*
X3745452Y-7431860D02*
X3735928Y-7412812D01*
X3735928Y-7412812D02*
X3735928Y-7336622D01*
X3735928Y-7336622D02*
X3745452Y-7317574D01*
X3745452Y-7317574D02*
X3764500Y-7308050D01*
X3764500Y-7308050D02*
X3802595Y-7308050D01*
X3802595Y-7308050D02*
X3821643Y-7317574D01*
X3821643Y-7317574D02*
X3831166Y-7336622D01*
X3831166Y-7336622D02*
X3831166Y-7355669D01*
X3831166Y-7355669D02*
X3735928Y-7374717D01*
X4002595Y-7441384D02*
X4002595Y-7241384D01*
X4002595Y-7431860D02*
X3983547Y-7441384D01*
X3983547Y-7441384D02*
X3945452Y-7441384D01*
X3945452Y-7441384D02*
X3926404Y-7431860D01*
X3926404Y-7431860D02*
X3916881Y-7422336D01*
X3916881Y-7422336D02*
X3907357Y-7403288D01*
X3907357Y-7403288D02*
X3907357Y-7346146D01*
X3907357Y-7346146D02*
X3916881Y-7327098D01*
X3916881Y-7327098D02*
X3926404Y-7317574D01*
X3926404Y-7317574D02*
X3945452Y-7308050D01*
X3945452Y-7308050D02*
X3983547Y-7308050D01*
X3983547Y-7308050D02*
X4002595Y-7317574D01*
X4078785Y-7517574D02*
X4088309Y-7508050D01*
X4088309Y-7508050D02*
X4107357Y-7479479D01*
X4107357Y-7479479D02*
X4116881Y-7460431D01*
X4116881Y-7460431D02*
X4126404Y-7431860D01*
X4126404Y-7431860D02*
X4135928Y-7384241D01*
X4135928Y-7384241D02*
X4135928Y-7346146D01*
X4135928Y-7346146D02*
X4126404Y-7298527D01*
X4126404Y-7298527D02*
X4116881Y-7269955D01*
X4116881Y-7269955D02*
X4107357Y-7250908D01*
X4107357Y-7250908D02*
X4088309Y-7222336D01*
X4088309Y-7222336D02*
X4078785Y-7212812D01*
M02*
